%TF.GenerationSoftware,KiCad,Pcbnew,10.0.3*%
%TF.CreationDate,2026-06-12T10:29:30+02:00*%
%TF.ProjectId,EmulatorBoard,456d756c-6174-46f7-9242-6f6172642e6b,rev?*%
%TF.SameCoordinates,Original*%
%TF.FileFunction,Legend,Bot*%
%TF.FilePolarity,Positive*%
%FSLAX46Y46*%
G04 Gerber Fmt 4.6, Leading zero omitted, Abs format (unit mm)*
G04 Created by KiCad (PCBNEW 10.0.3) date 2026-06-12 10:29:30*
%MOMM*%
%LPD*%
G01*
G04 APERTURE LIST*
%ADD10C,0.150000*%
G04 APERTURE END LIST*
D10*
X60779819Y-83335905D02*
X59779819Y-83335905D01*
X59779819Y-83335905D02*
X59779819Y-83574000D01*
X59779819Y-83574000D02*
X59827438Y-83716857D01*
X59827438Y-83716857D02*
X59922676Y-83812095D01*
X59922676Y-83812095D02*
X60017914Y-83859714D01*
X60017914Y-83859714D02*
X60208390Y-83907333D01*
X60208390Y-83907333D02*
X60351247Y-83907333D01*
X60351247Y-83907333D02*
X60541723Y-83859714D01*
X60541723Y-83859714D02*
X60636961Y-83812095D01*
X60636961Y-83812095D02*
X60732200Y-83716857D01*
X60732200Y-83716857D02*
X60779819Y-83574000D01*
X60779819Y-83574000D02*
X60779819Y-83335905D01*
X59779819Y-84526381D02*
X59779819Y-84621619D01*
X59779819Y-84621619D02*
X59827438Y-84716857D01*
X59827438Y-84716857D02*
X59875057Y-84764476D01*
X59875057Y-84764476D02*
X59970295Y-84812095D01*
X59970295Y-84812095D02*
X60160771Y-84859714D01*
X60160771Y-84859714D02*
X60398866Y-84859714D01*
X60398866Y-84859714D02*
X60589342Y-84812095D01*
X60589342Y-84812095D02*
X60684580Y-84764476D01*
X60684580Y-84764476D02*
X60732200Y-84716857D01*
X60732200Y-84716857D02*
X60779819Y-84621619D01*
X60779819Y-84621619D02*
X60779819Y-84526381D01*
X60779819Y-84526381D02*
X60732200Y-84431143D01*
X60732200Y-84431143D02*
X60684580Y-84383524D01*
X60684580Y-84383524D02*
X60589342Y-84335905D01*
X60589342Y-84335905D02*
X60398866Y-84288286D01*
X60398866Y-84288286D02*
X60160771Y-84288286D01*
X60160771Y-84288286D02*
X59970295Y-84335905D01*
X59970295Y-84335905D02*
X59875057Y-84383524D01*
X59875057Y-84383524D02*
X59827438Y-84431143D01*
X59827438Y-84431143D02*
X59779819Y-84526381D01*
M02*
