M48
; DRILL file KiCad 10.0.3 date 2026-06-12T10:29:38
; FORMAT={-:-/ absolute / metric / decimal}
; #@! TF.CreationDate,2026-06-12T10:29:38+02:00
; #@! TF.GenerationSoftware,Kicad,Pcbnew,10.0.3
; #@! TF.FileFunction,Plated,1,2,PTH
FMAT,2
METRIC
; #@! TA.AperFunction,Plated,PTH,ViaDrill
T1C0.300
; #@! TA.AperFunction,Plated,PTH,ComponentDrill
T2C0.750
; #@! TA.AperFunction,Plated,PTH,ComponentDrill
T3C0.800
; #@! TA.AperFunction,Plated,PTH,ComponentDrill
T4C1.000
; #@! TA.AperFunction,Plated,PTH,ComponentDrill
T5C1.016
; #@! TA.AperFunction,Plated,PTH,ComponentDrill
T6C1.100
; #@! TA.AperFunction,Plated,PTH,ComponentDrill
T7C1.300
; #@! TA.AperFunction,Plated,PTH,ComponentDrill
T8C1.910
%
G90
G05
T1
X43.4Y-79.2
X43.6Y-56.2
X43.6Y-61.2
X43.6Y-66.3
X43.9Y-51.1
X43.9Y-52.6
X49.0Y-70.0
X49.4Y-57.9
X50.4Y-71.5
X50.4Y-74.7
X50.4Y-77.7
X50.4Y-81.2
X50.4Y-84.7
X50.8Y-59.1
X50.8Y-90.5
X50.8Y-92.25
X50.8Y-94.0
X52.0Y-60.3
X52.73Y-51.094
X52.73Y-52.594
X53.2Y-61.5
X54.48Y-51.094
X54.48Y-52.594
X55.1Y-103.8
X55.1Y-105.3
X56.23Y-51.094
X56.23Y-52.594
X56.85Y-103.8
X56.85Y-105.3
X56.98Y-67.844
X56.98Y-69.594
X56.98Y-71.344
X57.0Y-85.3
X57.0Y-87.05
X57.0Y-88.8
X57.598Y-82.798
X58.48Y-67.844
X58.48Y-69.594
X58.48Y-71.344
X58.5Y-85.3
X58.5Y-87.05
X58.5Y-88.8
X58.6Y-103.8
X58.6Y-105.3
X64.0Y-94.2
X65.75Y-94.2
X66.0Y-71.5
X66.0Y-73.25
X66.0Y-75.0
X66.0Y-80.3
X66.0Y-81.6
X66.0Y-85.3
X66.0Y-87.05
X66.0Y-88.8
X67.5Y-71.5
X67.5Y-73.25
X67.5Y-75.0
X67.5Y-80.3
X67.5Y-81.6
X67.5Y-85.3
X67.5Y-87.05
X67.5Y-88.8
X67.5Y-94.2
X68.58Y-51.078
X68.58Y-52.578
X70.33Y-51.078
X70.33Y-52.578
X70.6Y-80.3
X72.08Y-51.078
X72.08Y-52.578
X72.1Y-83.5
X72.2Y-80.3
X72.85Y-103.8
X72.85Y-105.3
X74.2Y-57.0
X74.2Y-60.5
X74.2Y-63.7
X74.2Y-66.8
X74.6Y-103.8
X74.6Y-105.3
X75.6Y-83.5
X75.6Y-85.7
X76.35Y-103.8
X76.35Y-105.3
X78.0Y-61.1
X78.0Y-67.2
X80.65Y-55.0
X80.65Y-56.5
X81.0Y-61.1
X81.0Y-67.2
X81.7Y-94.2
X82.4Y-55.0
X82.4Y-56.5
X83.4Y-61.1
X83.4Y-67.2
X83.45Y-94.2
X84.15Y-55.0
X84.15Y-56.5
X85.2Y-94.2
X86.0Y-67.2
X86.1Y-61.1
X88.3Y-57.4
X88.6Y-64.1
X89.1Y-71.8
X89.1Y-73.55
X89.1Y-75.3
X89.2Y-67.8
X89.8Y-57.4
X90.0Y-103.9
X90.0Y-105.4
X90.6Y-67.8
X90.6Y-71.8
X90.6Y-73.55
X90.6Y-75.3
X91.0Y-64.1
X91.3Y-57.4
X91.75Y-103.9
X91.75Y-105.4
X93.5Y-103.9
X93.5Y-105.4
X93.9Y-63.4
X95.0Y-62.4
X96.0Y-61.4
X97.7Y-55.0
X97.7Y-56.5
X97.95Y-70.6
X97.95Y-72.1
X97.95Y-83.0
X97.95Y-84.5
X98.55Y-94.2
X99.45Y-55.0
X99.45Y-56.5
X99.7Y-70.6
X99.7Y-72.1
X99.7Y-83.0
X99.7Y-84.5
X100.3Y-94.2
X101.2Y-55.0
X101.2Y-56.5
X101.45Y-70.6
X101.45Y-72.1
X101.45Y-83.0
X101.45Y-84.5
X102.05Y-94.2
X106.0Y-53.2
X106.0Y-59.3
X106.0Y-63.3
X107.3Y-103.9
X107.3Y-105.4
X108.1Y-53.2
X109.05Y-103.9
X109.05Y-105.4
X110.8Y-103.9
X110.8Y-105.4
X111.65Y-77.8
X111.65Y-79.3
X113.4Y-77.8
X113.4Y-79.3
X115.15Y-77.8
X115.15Y-79.3
X117.8Y-94.3
X117.8Y-96.05
X117.8Y-97.8
X118.2Y-47.9
X118.2Y-49.65
X118.2Y-51.4
X119.7Y-47.9
X119.7Y-49.65
X119.7Y-51.4
T2
X106.9Y-74.2
X111.9Y-74.2
T3
X65.64Y-59.0
X65.64Y-62.1
X65.64Y-65.2
X65.64Y-68.3
X71.3Y-73.25
X71.3Y-77.3
X73.8Y-73.25
X73.8Y-77.3
X75.8Y-59.0
X75.8Y-62.1
X75.8Y-65.2
X75.8Y-68.3
X79.7Y-59.6
X79.7Y-65.6
X80.7Y-75.6
X82.24Y-59.6
X82.24Y-65.6
X82.5Y-86.9
X82.5Y-88.9
X82.7Y-75.6
X84.78Y-59.6
X84.78Y-65.6
X87.3Y-59.6
X87.3Y-65.6
X89.84Y-59.6
X89.84Y-65.6
X90.7Y-86.4
X90.7Y-88.9
X92.38Y-59.6
X92.38Y-65.6
X96.356Y-66.442
X96.356Y-76.602
X97.86Y-61.775
X99.7Y-66.4
X99.7Y-76.56
X100.4Y-61.775
X102.94Y-61.775
X103.0Y-66.4
X103.0Y-76.56
X106.9Y-68.3
X107.34Y-56.4
X109.11Y-61.8
X111.65Y-61.8
X111.9Y-68.3
X114.19Y-61.8
X117.5Y-56.4
T4
X54.35Y-94.2
X56.85Y-94.2
X59.35Y-94.2
X72.1Y-94.2
X74.6Y-94.2
X77.1Y-94.2
X89.25Y-94.2
X91.75Y-94.2
X94.25Y-94.2
X106.45Y-94.2
X108.95Y-94.2
X111.45Y-94.2
T5
X46.99Y-51.054
X46.99Y-53.594
X46.99Y-56.134
X46.99Y-58.674
X46.99Y-61.214
X46.99Y-63.754
X46.99Y-66.294
X46.99Y-68.834
X46.99Y-71.374
X46.99Y-73.914
X46.99Y-76.454
X46.99Y-78.994
X46.99Y-81.534
X46.99Y-84.074
X46.99Y-86.614
X62.23Y-51.054
X62.23Y-53.594
X62.23Y-56.134
X62.23Y-58.674
X62.23Y-61.214
X62.23Y-63.754
X62.23Y-66.294
X62.23Y-68.834
X62.23Y-71.374
X62.23Y-73.914
X62.23Y-76.454
X62.23Y-78.994
X62.23Y-81.534
X62.23Y-84.074
X62.23Y-86.614
T6
X73.8Y-82.22
X73.8Y-84.76
X73.8Y-87.3
X79.61Y-50.0
X83.42Y-50.0
X87.23Y-50.0
X91.04Y-50.0
X94.85Y-50.0
X98.66Y-50.0
X102.47Y-50.0
X106.28Y-50.0
X110.09Y-50.0
X113.9Y-50.0
T7
X113.4Y-83.52
X113.4Y-88.6
T8
X51.8Y-101.7
X61.9Y-101.7
X69.55Y-101.7
X79.65Y-101.7
X86.7Y-101.7
X96.8Y-101.7
X103.9Y-101.7
X114.0Y-101.7
M30
