%TF.GenerationSoftware,KiCad,Pcbnew,10.0.3*%
%TF.CreationDate,2026-06-12T10:29:30+02:00*%
%TF.ProjectId,EmulatorBoard,456d756c-6174-46f7-9242-6f6172642e6b,rev?*%
%TF.SameCoordinates,Original*%
%TF.FileFunction,Soldermask,Bot*%
%TF.FilePolarity,Negative*%
%FSLAX46Y46*%
G04 Gerber Fmt 4.6, Leading zero omitted, Abs format (unit mm)*
G04 Created by KiCad (PCBNEW 10.0.3) date 2026-06-12 10:29:30*
%MOMM*%
%LPD*%
G01*
G04 APERTURE LIST*
G04 Aperture macros list*
%AMRoundRect*
0 Rectangle with rounded corners*
0 $1 Rounding radius*
0 $2 $3 $4 $5 $6 $7 $8 $9 X,Y pos of 4 corners*
0 Add a 4 corners polygon primitive as box body*
4,1,4,$2,$3,$4,$5,$6,$7,$8,$9,$2,$3,0*
0 Add four circle primitives for the rounded corners*
1,1,$1+$1,$2,$3*
1,1,$1+$1,$4,$5*
1,1,$1+$1,$6,$7*
1,1,$1+$1,$8,$9*
0 Add four rect primitives between the rounded corners*
20,1,$1+$1,$2,$3,$4,$5,0*
20,1,$1+$1,$4,$5,$6,$7,0*
20,1,$1+$1,$6,$7,$8,$9,0*
20,1,$1+$1,$8,$9,$2,$3,0*%
G04 Aperture macros list end*
%ADD10R,1.500000X1.500000*%
%ADD11C,1.500000*%
%ADD12C,2.865000*%
%ADD13C,1.600000*%
%ADD14R,2.000000X1.905000*%
%ADD15O,2.000000X1.905000*%
%ADD16C,1.800000*%
%ADD17C,1.727200*%
%ADD18R,1.727200X1.727200*%
%ADD19RoundRect,0.250000X1.050000X-1.050000X1.050000X1.050000X-1.050000X1.050000X-1.050000X-1.050000X0*%
%ADD20C,2.600000*%
%ADD21RoundRect,0.250000X0.750000X0.750000X-0.750000X0.750000X-0.750000X-0.750000X0.750000X-0.750000X0*%
%ADD22C,2.000000*%
%ADD23RoundRect,0.250000X-0.550000X-0.550000X0.550000X-0.550000X0.550000X0.550000X-0.550000X0.550000X0*%
%ADD24RoundRect,0.250000X0.550000X-0.550000X0.550000X0.550000X-0.550000X0.550000X-0.550000X-0.550000X0*%
G04 APERTURE END LIST*
D10*
%TO.C,RV4*%
X111450000Y-94200000D03*
D11*
X108950000Y-94200000D03*
X106450000Y-94200000D03*
D12*
X103900000Y-101700000D03*
X114000000Y-101700000D03*
%TD*%
D13*
%TO.C,C5*%
X73800000Y-73250000D03*
X71300000Y-73250000D03*
%TD*%
D10*
%TO.C,Q4*%
X92380000Y-65600000D03*
D11*
X89840000Y-65600000D03*
X87300000Y-65600000D03*
%TD*%
D13*
%TO.C,R7*%
X117500000Y-56400000D03*
X107340000Y-56400000D03*
%TD*%
%TO.C,C2*%
X90700000Y-88900000D03*
X90700000Y-86400000D03*
%TD*%
%TO.C,R1*%
X65640000Y-59000000D03*
X75800000Y-59000000D03*
%TD*%
D10*
%TO.C,RV1*%
X77100000Y-94200000D03*
D11*
X74600000Y-94200000D03*
X72100000Y-94200000D03*
D12*
X69550000Y-101700000D03*
X79650000Y-101700000D03*
%TD*%
D14*
%TO.C,U1*%
X73800000Y-87300000D03*
D15*
X73800000Y-84760000D03*
X73800000Y-82220000D03*
%TD*%
D10*
%TO.C,Q2*%
X84780000Y-65600000D03*
D11*
X82240000Y-65600000D03*
X79700000Y-65600000D03*
%TD*%
D10*
%TO.C,Q6*%
X97860000Y-61775000D03*
D11*
X100400000Y-61775000D03*
X102940000Y-61775000D03*
%TD*%
D16*
%TO.C,A1*%
X62230000Y-89154000D03*
X62230000Y-48514000D03*
X46990000Y-89154000D03*
X46990000Y-48514000D03*
D17*
X46990000Y-53594000D03*
X46990000Y-78994000D03*
X46990000Y-58674000D03*
X46990000Y-61214000D03*
X46990000Y-63754000D03*
X46990000Y-66294000D03*
X46990000Y-68834000D03*
X46990000Y-71374000D03*
X46990000Y-73914000D03*
X46990000Y-76454000D03*
X46990000Y-56134000D03*
X62230000Y-84074000D03*
X62230000Y-86614000D03*
X62230000Y-76454000D03*
X62230000Y-73914000D03*
X62230000Y-71374000D03*
X62230000Y-68834000D03*
X62230000Y-66294000D03*
X62230000Y-63754000D03*
X62230000Y-61214000D03*
X62230000Y-58674000D03*
X62230000Y-56134000D03*
X62230000Y-53594000D03*
X62230000Y-51054000D03*
X46990000Y-51054000D03*
D18*
X62230000Y-78994000D03*
X46990000Y-84074000D03*
D17*
X62230000Y-81534000D03*
X46990000Y-81534000D03*
X46990000Y-86614000D03*
%TD*%
D13*
%TO.C,R5*%
X103000000Y-76560000D03*
X103000000Y-66400000D03*
%TD*%
D10*
%TO.C,Q5*%
X109110000Y-61800000D03*
D11*
X111650000Y-61800000D03*
X114190000Y-61800000D03*
%TD*%
D10*
%TO.C,RV3*%
X94250000Y-94200000D03*
D11*
X91750000Y-94200000D03*
X89250000Y-94200000D03*
D12*
X86700000Y-101700000D03*
X96800000Y-101700000D03*
%TD*%
D19*
%TO.C,J1*%
X113400000Y-88600000D03*
D20*
X113400000Y-83520000D03*
%TD*%
D10*
%TO.C,Q1*%
X84780000Y-59600000D03*
D11*
X82240000Y-59600000D03*
X79700000Y-59600000D03*
%TD*%
D10*
%TO.C,Q3*%
X92380000Y-59600000D03*
D11*
X89840000Y-59600000D03*
X87300000Y-59600000D03*
%TD*%
D21*
%TO.C,J2*%
X113900000Y-50000000D03*
D22*
X110090000Y-50000000D03*
X106280000Y-50000000D03*
X102470000Y-50000000D03*
X98660000Y-50000000D03*
X94850000Y-50000000D03*
X91040000Y-50000000D03*
X87230000Y-50000000D03*
X83420000Y-50000000D03*
X79610000Y-50000000D03*
%TD*%
D13*
%TO.C,R3*%
X65640000Y-62100000D03*
X75800000Y-62100000D03*
%TD*%
%TO.C,R4*%
X65640000Y-68300000D03*
X75800000Y-68300000D03*
%TD*%
%TO.C,R2*%
X65640000Y-65200000D03*
X75800000Y-65200000D03*
%TD*%
D10*
%TO.C,RV2*%
X59350000Y-94200000D03*
D11*
X56850000Y-94200000D03*
X54350000Y-94200000D03*
D12*
X51800000Y-101700000D03*
X61900000Y-101700000D03*
%TD*%
D23*
%TO.C,C3*%
X80700000Y-75600000D03*
D13*
X82700000Y-75600000D03*
%TD*%
%TO.C,C4*%
X73800000Y-77300000D03*
X71300000Y-77300000D03*
%TD*%
%TO.C,R6*%
X96356000Y-76602000D03*
X96356000Y-66442000D03*
%TD*%
D11*
%TO.C,C6*%
X106900000Y-74200000D03*
X111900000Y-74200000D03*
%TD*%
D24*
%TO.C,C1*%
X82500000Y-88900000D03*
D13*
X82500000Y-86900000D03*
%TD*%
%TO.C,R8*%
X99700000Y-76560000D03*
X99700000Y-66400000D03*
%TD*%
%TO.C,C7*%
X106900000Y-68300000D03*
X111900000Y-68300000D03*
%TD*%
M02*
