%TF.GenerationSoftware,KiCad,Pcbnew,10.0.3*%
%TF.CreationDate,2026-06-12T10:29:30+02:00*%
%TF.ProjectId,EmulatorBoard,456d756c-6174-46f7-9242-6f6172642e6b,rev?*%
%TF.SameCoordinates,Original*%
%TF.FileFunction,AssemblyDrawing,Top*%
%FSLAX46Y46*%
G04 Gerber Fmt 4.6, Leading zero omitted, Abs format (unit mm)*
G04 Created by KiCad (PCBNEW 10.0.3) date 2026-06-12 10:29:30*
%MOMM*%
%LPD*%
G01*
G04 APERTURE LIST*
%ADD10C,0.254000*%
%ADD11C,0.150000*%
%ADD12C,0.075000*%
%ADD13C,0.100000*%
G04 APERTURE END LIST*
D10*
X107694048Y-91774318D02*
X107270714Y-91169556D01*
X106968333Y-91774318D02*
X106968333Y-90504318D01*
X106968333Y-90504318D02*
X107452143Y-90504318D01*
X107452143Y-90504318D02*
X107573095Y-90564794D01*
X107573095Y-90564794D02*
X107633572Y-90625270D01*
X107633572Y-90625270D02*
X107694048Y-90746222D01*
X107694048Y-90746222D02*
X107694048Y-90927651D01*
X107694048Y-90927651D02*
X107633572Y-91048603D01*
X107633572Y-91048603D02*
X107573095Y-91109080D01*
X107573095Y-91109080D02*
X107452143Y-91169556D01*
X107452143Y-91169556D02*
X106968333Y-91169556D01*
X108056905Y-90504318D02*
X108480238Y-91774318D01*
X108480238Y-91774318D02*
X108903572Y-90504318D01*
X109871190Y-90927651D02*
X109871190Y-91774318D01*
X109568809Y-90443842D02*
X109266428Y-91350984D01*
X109266428Y-91350984D02*
X110052619Y-91350984D01*
D11*
X71002380Y-71204819D02*
X70430952Y-71204819D01*
X70716666Y-71204819D02*
X70716666Y-70204819D01*
X70716666Y-70204819D02*
X70621428Y-70347676D01*
X70621428Y-70347676D02*
X70526190Y-70442914D01*
X70526190Y-70442914D02*
X70430952Y-70490533D01*
X71621428Y-70204819D02*
X71716666Y-70204819D01*
X71716666Y-70204819D02*
X71811904Y-70252438D01*
X71811904Y-70252438D02*
X71859523Y-70300057D01*
X71859523Y-70300057D02*
X71907142Y-70395295D01*
X71907142Y-70395295D02*
X71954761Y-70585771D01*
X71954761Y-70585771D02*
X71954761Y-70823866D01*
X71954761Y-70823866D02*
X71907142Y-71014342D01*
X71907142Y-71014342D02*
X71859523Y-71109580D01*
X71859523Y-71109580D02*
X71811904Y-71157200D01*
X71811904Y-71157200D02*
X71716666Y-71204819D01*
X71716666Y-71204819D02*
X71621428Y-71204819D01*
X71621428Y-71204819D02*
X71526190Y-71157200D01*
X71526190Y-71157200D02*
X71478571Y-71109580D01*
X71478571Y-71109580D02*
X71430952Y-71014342D01*
X71430952Y-71014342D02*
X71383333Y-70823866D01*
X71383333Y-70823866D02*
X71383333Y-70585771D01*
X71383333Y-70585771D02*
X71430952Y-70395295D01*
X71430952Y-70395295D02*
X71478571Y-70300057D01*
X71478571Y-70300057D02*
X71526190Y-70252438D01*
X71526190Y-70252438D02*
X71621428Y-70204819D01*
X72573809Y-70204819D02*
X72669047Y-70204819D01*
X72669047Y-70204819D02*
X72764285Y-70252438D01*
X72764285Y-70252438D02*
X72811904Y-70300057D01*
X72811904Y-70300057D02*
X72859523Y-70395295D01*
X72859523Y-70395295D02*
X72907142Y-70585771D01*
X72907142Y-70585771D02*
X72907142Y-70823866D01*
X72907142Y-70823866D02*
X72859523Y-71014342D01*
X72859523Y-71014342D02*
X72811904Y-71109580D01*
X72811904Y-71109580D02*
X72764285Y-71157200D01*
X72764285Y-71157200D02*
X72669047Y-71204819D01*
X72669047Y-71204819D02*
X72573809Y-71204819D01*
X72573809Y-71204819D02*
X72478571Y-71157200D01*
X72478571Y-71157200D02*
X72430952Y-71109580D01*
X72430952Y-71109580D02*
X72383333Y-71014342D01*
X72383333Y-71014342D02*
X72335714Y-70823866D01*
X72335714Y-70823866D02*
X72335714Y-70585771D01*
X72335714Y-70585771D02*
X72383333Y-70395295D01*
X72383333Y-70395295D02*
X72430952Y-70300057D01*
X72430952Y-70300057D02*
X72478571Y-70252438D01*
X72478571Y-70252438D02*
X72573809Y-70204819D01*
X73335714Y-70538152D02*
X73335714Y-71204819D01*
X73335714Y-70633390D02*
X73383333Y-70585771D01*
X73383333Y-70585771D02*
X73478571Y-70538152D01*
X73478571Y-70538152D02*
X73621428Y-70538152D01*
X73621428Y-70538152D02*
X73716666Y-70585771D01*
X73716666Y-70585771D02*
X73764285Y-70681009D01*
X73764285Y-70681009D02*
X73764285Y-71204819D01*
X74573809Y-70681009D02*
X74240476Y-70681009D01*
X74240476Y-71204819D02*
X74240476Y-70204819D01*
X74240476Y-70204819D02*
X74716666Y-70204819D01*
X72383333Y-73609580D02*
X72335714Y-73657200D01*
X72335714Y-73657200D02*
X72192857Y-73704819D01*
X72192857Y-73704819D02*
X72097619Y-73704819D01*
X72097619Y-73704819D02*
X71954762Y-73657200D01*
X71954762Y-73657200D02*
X71859524Y-73561961D01*
X71859524Y-73561961D02*
X71811905Y-73466723D01*
X71811905Y-73466723D02*
X71764286Y-73276247D01*
X71764286Y-73276247D02*
X71764286Y-73133390D01*
X71764286Y-73133390D02*
X71811905Y-72942914D01*
X71811905Y-72942914D02*
X71859524Y-72847676D01*
X71859524Y-72847676D02*
X71954762Y-72752438D01*
X71954762Y-72752438D02*
X72097619Y-72704819D01*
X72097619Y-72704819D02*
X72192857Y-72704819D01*
X72192857Y-72704819D02*
X72335714Y-72752438D01*
X72335714Y-72752438D02*
X72383333Y-72800057D01*
X73288095Y-72704819D02*
X72811905Y-72704819D01*
X72811905Y-72704819D02*
X72764286Y-73181009D01*
X72764286Y-73181009D02*
X72811905Y-73133390D01*
X72811905Y-73133390D02*
X72907143Y-73085771D01*
X72907143Y-73085771D02*
X73145238Y-73085771D01*
X73145238Y-73085771D02*
X73240476Y-73133390D01*
X73240476Y-73133390D02*
X73288095Y-73181009D01*
X73288095Y-73181009D02*
X73335714Y-73276247D01*
X73335714Y-73276247D02*
X73335714Y-73514342D01*
X73335714Y-73514342D02*
X73288095Y-73609580D01*
X73288095Y-73609580D02*
X73240476Y-73657200D01*
X73240476Y-73657200D02*
X73145238Y-73704819D01*
X73145238Y-73704819D02*
X72907143Y-73704819D01*
X72907143Y-73704819D02*
X72811905Y-73657200D01*
X72811905Y-73657200D02*
X72764286Y-73609580D01*
X86697143Y-62360057D02*
X86744762Y-62312438D01*
X86744762Y-62312438D02*
X86840000Y-62264819D01*
X86840000Y-62264819D02*
X87078095Y-62264819D01*
X87078095Y-62264819D02*
X87173333Y-62312438D01*
X87173333Y-62312438D02*
X87220952Y-62360057D01*
X87220952Y-62360057D02*
X87268571Y-62455295D01*
X87268571Y-62455295D02*
X87268571Y-62550533D01*
X87268571Y-62550533D02*
X87220952Y-62693390D01*
X87220952Y-62693390D02*
X86649524Y-63264819D01*
X86649524Y-63264819D02*
X87268571Y-63264819D01*
X87697143Y-63264819D02*
X87697143Y-62264819D01*
X87697143Y-62264819D02*
X88268571Y-63264819D01*
X88268571Y-63264819D02*
X88268571Y-62264819D01*
X88697143Y-62360057D02*
X88744762Y-62312438D01*
X88744762Y-62312438D02*
X88840000Y-62264819D01*
X88840000Y-62264819D02*
X89078095Y-62264819D01*
X89078095Y-62264819D02*
X89173333Y-62312438D01*
X89173333Y-62312438D02*
X89220952Y-62360057D01*
X89220952Y-62360057D02*
X89268571Y-62455295D01*
X89268571Y-62455295D02*
X89268571Y-62550533D01*
X89268571Y-62550533D02*
X89220952Y-62693390D01*
X89220952Y-62693390D02*
X88649524Y-63264819D01*
X88649524Y-63264819D02*
X89268571Y-63264819D01*
X89649524Y-62360057D02*
X89697143Y-62312438D01*
X89697143Y-62312438D02*
X89792381Y-62264819D01*
X89792381Y-62264819D02*
X90030476Y-62264819D01*
X90030476Y-62264819D02*
X90125714Y-62312438D01*
X90125714Y-62312438D02*
X90173333Y-62360057D01*
X90173333Y-62360057D02*
X90220952Y-62455295D01*
X90220952Y-62455295D02*
X90220952Y-62550533D01*
X90220952Y-62550533D02*
X90173333Y-62693390D01*
X90173333Y-62693390D02*
X89601905Y-63264819D01*
X89601905Y-63264819D02*
X90220952Y-63264819D01*
X90601905Y-62360057D02*
X90649524Y-62312438D01*
X90649524Y-62312438D02*
X90744762Y-62264819D01*
X90744762Y-62264819D02*
X90982857Y-62264819D01*
X90982857Y-62264819D02*
X91078095Y-62312438D01*
X91078095Y-62312438D02*
X91125714Y-62360057D01*
X91125714Y-62360057D02*
X91173333Y-62455295D01*
X91173333Y-62455295D02*
X91173333Y-62550533D01*
X91173333Y-62550533D02*
X91125714Y-62693390D01*
X91125714Y-62693390D02*
X90554286Y-63264819D01*
X90554286Y-63264819D02*
X91173333Y-63264819D01*
X91554286Y-62360057D02*
X91601905Y-62312438D01*
X91601905Y-62312438D02*
X91697143Y-62264819D01*
X91697143Y-62264819D02*
X91935238Y-62264819D01*
X91935238Y-62264819D02*
X92030476Y-62312438D01*
X92030476Y-62312438D02*
X92078095Y-62360057D01*
X92078095Y-62360057D02*
X92125714Y-62455295D01*
X92125714Y-62455295D02*
X92125714Y-62550533D01*
X92125714Y-62550533D02*
X92078095Y-62693390D01*
X92078095Y-62693390D02*
X91506667Y-63264819D01*
X91506667Y-63264819D02*
X92125714Y-63264819D01*
X92506667Y-62979104D02*
X92982857Y-62979104D01*
X92411429Y-63264819D02*
X92744762Y-62264819D01*
X92744762Y-62264819D02*
X93078095Y-63264819D01*
X89744761Y-66150057D02*
X89649523Y-66102438D01*
X89649523Y-66102438D02*
X89554285Y-66007200D01*
X89554285Y-66007200D02*
X89411428Y-65864342D01*
X89411428Y-65864342D02*
X89316190Y-65816723D01*
X89316190Y-65816723D02*
X89220952Y-65816723D01*
X89268571Y-66054819D02*
X89173333Y-66007200D01*
X89173333Y-66007200D02*
X89078095Y-65911961D01*
X89078095Y-65911961D02*
X89030476Y-65721485D01*
X89030476Y-65721485D02*
X89030476Y-65388152D01*
X89030476Y-65388152D02*
X89078095Y-65197676D01*
X89078095Y-65197676D02*
X89173333Y-65102438D01*
X89173333Y-65102438D02*
X89268571Y-65054819D01*
X89268571Y-65054819D02*
X89459047Y-65054819D01*
X89459047Y-65054819D02*
X89554285Y-65102438D01*
X89554285Y-65102438D02*
X89649523Y-65197676D01*
X89649523Y-65197676D02*
X89697142Y-65388152D01*
X89697142Y-65388152D02*
X89697142Y-65721485D01*
X89697142Y-65721485D02*
X89649523Y-65911961D01*
X89649523Y-65911961D02*
X89554285Y-66007200D01*
X89554285Y-66007200D02*
X89459047Y-66054819D01*
X89459047Y-66054819D02*
X89268571Y-66054819D01*
X90554285Y-65388152D02*
X90554285Y-66054819D01*
X90316190Y-65007200D02*
X90078095Y-65721485D01*
X90078095Y-65721485D02*
X90697142Y-65721485D01*
X112300952Y-54484819D02*
X111729524Y-54484819D01*
X112015238Y-54484819D02*
X112015238Y-53484819D01*
X112015238Y-53484819D02*
X111920000Y-53627676D01*
X111920000Y-53627676D02*
X111824762Y-53722914D01*
X111824762Y-53722914D02*
X111729524Y-53770533D01*
X112729524Y-54484819D02*
X112729524Y-53484819D01*
X112824762Y-54103866D02*
X113110476Y-54484819D01*
X113110476Y-53818152D02*
X112729524Y-54199104D01*
X112253333Y-56854819D02*
X111920000Y-56378628D01*
X111681905Y-56854819D02*
X111681905Y-55854819D01*
X111681905Y-55854819D02*
X112062857Y-55854819D01*
X112062857Y-55854819D02*
X112158095Y-55902438D01*
X112158095Y-55902438D02*
X112205714Y-55950057D01*
X112205714Y-55950057D02*
X112253333Y-56045295D01*
X112253333Y-56045295D02*
X112253333Y-56188152D01*
X112253333Y-56188152D02*
X112205714Y-56283390D01*
X112205714Y-56283390D02*
X112158095Y-56331009D01*
X112158095Y-56331009D02*
X112062857Y-56378628D01*
X112062857Y-56378628D02*
X111681905Y-56378628D01*
X112586667Y-55854819D02*
X113253333Y-55854819D01*
X113253333Y-55854819D02*
X112824762Y-56854819D01*
X93654819Y-88245238D02*
X93654819Y-88816666D01*
X93654819Y-88530952D02*
X92654819Y-88530952D01*
X92654819Y-88530952D02*
X92797676Y-88626190D01*
X92797676Y-88626190D02*
X92892914Y-88721428D01*
X92892914Y-88721428D02*
X92940533Y-88816666D01*
X92988152Y-87816666D02*
X93654819Y-87816666D01*
X93083390Y-87816666D02*
X93035771Y-87769047D01*
X93035771Y-87769047D02*
X92988152Y-87673809D01*
X92988152Y-87673809D02*
X92988152Y-87530952D01*
X92988152Y-87530952D02*
X93035771Y-87435714D01*
X93035771Y-87435714D02*
X93131009Y-87388095D01*
X93131009Y-87388095D02*
X93654819Y-87388095D01*
X93131009Y-86578571D02*
X93131009Y-86911904D01*
X93654819Y-86911904D02*
X92654819Y-86911904D01*
X92654819Y-86911904D02*
X92654819Y-86435714D01*
X91059580Y-87816666D02*
X91107200Y-87864285D01*
X91107200Y-87864285D02*
X91154819Y-88007142D01*
X91154819Y-88007142D02*
X91154819Y-88102380D01*
X91154819Y-88102380D02*
X91107200Y-88245237D01*
X91107200Y-88245237D02*
X91011961Y-88340475D01*
X91011961Y-88340475D02*
X90916723Y-88388094D01*
X90916723Y-88388094D02*
X90726247Y-88435713D01*
X90726247Y-88435713D02*
X90583390Y-88435713D01*
X90583390Y-88435713D02*
X90392914Y-88388094D01*
X90392914Y-88388094D02*
X90297676Y-88340475D01*
X90297676Y-88340475D02*
X90202438Y-88245237D01*
X90202438Y-88245237D02*
X90154819Y-88102380D01*
X90154819Y-88102380D02*
X90154819Y-88007142D01*
X90154819Y-88007142D02*
X90202438Y-87864285D01*
X90202438Y-87864285D02*
X90250057Y-87816666D01*
X90250057Y-87435713D02*
X90202438Y-87388094D01*
X90202438Y-87388094D02*
X90154819Y-87292856D01*
X90154819Y-87292856D02*
X90154819Y-87054761D01*
X90154819Y-87054761D02*
X90202438Y-86959523D01*
X90202438Y-86959523D02*
X90250057Y-86911904D01*
X90250057Y-86911904D02*
X90345295Y-86864285D01*
X90345295Y-86864285D02*
X90440533Y-86864285D01*
X90440533Y-86864285D02*
X90583390Y-86911904D01*
X90583390Y-86911904D02*
X91154819Y-87483332D01*
X91154819Y-87483332D02*
X91154819Y-86864285D01*
X70600952Y-61824819D02*
X70029524Y-61824819D01*
X70315238Y-61824819D02*
X70315238Y-60824819D01*
X70315238Y-60824819D02*
X70220000Y-60967676D01*
X70220000Y-60967676D02*
X70124762Y-61062914D01*
X70124762Y-61062914D02*
X70029524Y-61110533D01*
X71029524Y-61824819D02*
X71029524Y-60824819D01*
X71124762Y-61443866D02*
X71410476Y-61824819D01*
X71410476Y-61158152D02*
X71029524Y-61539104D01*
X70553333Y-59454819D02*
X70220000Y-58978628D01*
X69981905Y-59454819D02*
X69981905Y-58454819D01*
X69981905Y-58454819D02*
X70362857Y-58454819D01*
X70362857Y-58454819D02*
X70458095Y-58502438D01*
X70458095Y-58502438D02*
X70505714Y-58550057D01*
X70505714Y-58550057D02*
X70553333Y-58645295D01*
X70553333Y-58645295D02*
X70553333Y-58788152D01*
X70553333Y-58788152D02*
X70505714Y-58883390D01*
X70505714Y-58883390D02*
X70458095Y-58931009D01*
X70458095Y-58931009D02*
X70362857Y-58978628D01*
X70362857Y-58978628D02*
X69981905Y-58978628D01*
X71505714Y-59454819D02*
X70934286Y-59454819D01*
X71220000Y-59454819D02*
X71220000Y-58454819D01*
X71220000Y-58454819D02*
X71124762Y-58597676D01*
X71124762Y-58597676D02*
X71029524Y-58692914D01*
X71029524Y-58692914D02*
X70934286Y-58740533D01*
D10*
X73344048Y-91774318D02*
X72920714Y-91169556D01*
X72618333Y-91774318D02*
X72618333Y-90504318D01*
X72618333Y-90504318D02*
X73102143Y-90504318D01*
X73102143Y-90504318D02*
X73223095Y-90564794D01*
X73223095Y-90564794D02*
X73283572Y-90625270D01*
X73283572Y-90625270D02*
X73344048Y-90746222D01*
X73344048Y-90746222D02*
X73344048Y-90927651D01*
X73344048Y-90927651D02*
X73283572Y-91048603D01*
X73283572Y-91048603D02*
X73223095Y-91109080D01*
X73223095Y-91109080D02*
X73102143Y-91169556D01*
X73102143Y-91169556D02*
X72618333Y-91169556D01*
X73706905Y-90504318D02*
X74130238Y-91774318D01*
X74130238Y-91774318D02*
X74553572Y-90504318D01*
X75642143Y-91774318D02*
X74916428Y-91774318D01*
X75279285Y-91774318D02*
X75279285Y-90504318D01*
X75279285Y-90504318D02*
X75158333Y-90685746D01*
X75158333Y-90685746D02*
X75037381Y-90806699D01*
X75037381Y-90806699D02*
X74916428Y-90867175D01*
D11*
X76454819Y-89640952D02*
X76454819Y-90117142D01*
X76454819Y-90117142D02*
X75454819Y-90117142D01*
X76454819Y-89307618D02*
X75454819Y-89307618D01*
X75454819Y-89307618D02*
X76169104Y-88974285D01*
X76169104Y-88974285D02*
X75454819Y-88640952D01*
X75454819Y-88640952D02*
X76454819Y-88640952D01*
X75454819Y-88259999D02*
X75454819Y-87593333D01*
X75454819Y-87593333D02*
X76454819Y-88021904D01*
X75883390Y-87069523D02*
X75835771Y-87164761D01*
X75835771Y-87164761D02*
X75788152Y-87212380D01*
X75788152Y-87212380D02*
X75692914Y-87259999D01*
X75692914Y-87259999D02*
X75645295Y-87259999D01*
X75645295Y-87259999D02*
X75550057Y-87212380D01*
X75550057Y-87212380D02*
X75502438Y-87164761D01*
X75502438Y-87164761D02*
X75454819Y-87069523D01*
X75454819Y-87069523D02*
X75454819Y-86879047D01*
X75454819Y-86879047D02*
X75502438Y-86783809D01*
X75502438Y-86783809D02*
X75550057Y-86736190D01*
X75550057Y-86736190D02*
X75645295Y-86688571D01*
X75645295Y-86688571D02*
X75692914Y-86688571D01*
X75692914Y-86688571D02*
X75788152Y-86736190D01*
X75788152Y-86736190D02*
X75835771Y-86783809D01*
X75835771Y-86783809D02*
X75883390Y-86879047D01*
X75883390Y-86879047D02*
X75883390Y-87069523D01*
X75883390Y-87069523D02*
X75931009Y-87164761D01*
X75931009Y-87164761D02*
X75978628Y-87212380D01*
X75978628Y-87212380D02*
X76073866Y-87259999D01*
X76073866Y-87259999D02*
X76264342Y-87259999D01*
X76264342Y-87259999D02*
X76359580Y-87212380D01*
X76359580Y-87212380D02*
X76407200Y-87164761D01*
X76407200Y-87164761D02*
X76454819Y-87069523D01*
X76454819Y-87069523D02*
X76454819Y-86879047D01*
X76454819Y-86879047D02*
X76407200Y-86783809D01*
X76407200Y-86783809D02*
X76359580Y-86736190D01*
X76359580Y-86736190D02*
X76264342Y-86688571D01*
X76264342Y-86688571D02*
X76073866Y-86688571D01*
X76073866Y-86688571D02*
X75978628Y-86736190D01*
X75978628Y-86736190D02*
X75931009Y-86783809D01*
X75931009Y-86783809D02*
X75883390Y-86879047D01*
X75454819Y-86069523D02*
X75454819Y-85974285D01*
X75454819Y-85974285D02*
X75502438Y-85879047D01*
X75502438Y-85879047D02*
X75550057Y-85831428D01*
X75550057Y-85831428D02*
X75645295Y-85783809D01*
X75645295Y-85783809D02*
X75835771Y-85736190D01*
X75835771Y-85736190D02*
X76073866Y-85736190D01*
X76073866Y-85736190D02*
X76264342Y-85783809D01*
X76264342Y-85783809D02*
X76359580Y-85831428D01*
X76359580Y-85831428D02*
X76407200Y-85879047D01*
X76407200Y-85879047D02*
X76454819Y-85974285D01*
X76454819Y-85974285D02*
X76454819Y-86069523D01*
X76454819Y-86069523D02*
X76407200Y-86164761D01*
X76407200Y-86164761D02*
X76359580Y-86212380D01*
X76359580Y-86212380D02*
X76264342Y-86259999D01*
X76264342Y-86259999D02*
X76073866Y-86307618D01*
X76073866Y-86307618D02*
X75835771Y-86307618D01*
X75835771Y-86307618D02*
X75645295Y-86259999D01*
X75645295Y-86259999D02*
X75550057Y-86212380D01*
X75550057Y-86212380D02*
X75502438Y-86164761D01*
X75502438Y-86164761D02*
X75454819Y-86069523D01*
X75454819Y-84831428D02*
X75454819Y-85307618D01*
X75454819Y-85307618D02*
X75931009Y-85355237D01*
X75931009Y-85355237D02*
X75883390Y-85307618D01*
X75883390Y-85307618D02*
X75835771Y-85212380D01*
X75835771Y-85212380D02*
X75835771Y-84974285D01*
X75835771Y-84974285D02*
X75883390Y-84879047D01*
X75883390Y-84879047D02*
X75931009Y-84831428D01*
X75931009Y-84831428D02*
X76026247Y-84783809D01*
X76026247Y-84783809D02*
X76264342Y-84783809D01*
X76264342Y-84783809D02*
X76359580Y-84831428D01*
X76359580Y-84831428D02*
X76407200Y-84879047D01*
X76407200Y-84879047D02*
X76454819Y-84974285D01*
X76454819Y-84974285D02*
X76454819Y-85212380D01*
X76454819Y-85212380D02*
X76407200Y-85307618D01*
X76407200Y-85307618D02*
X76359580Y-85355237D01*
X76550057Y-84593333D02*
X76550057Y-83831428D01*
X75454819Y-83736189D02*
X75454819Y-83164761D01*
X76454819Y-83450475D02*
X75454819Y-83450475D01*
X75454819Y-82640951D02*
X75454819Y-82450475D01*
X75454819Y-82450475D02*
X75502438Y-82355237D01*
X75502438Y-82355237D02*
X75597676Y-82259999D01*
X75597676Y-82259999D02*
X75788152Y-82212380D01*
X75788152Y-82212380D02*
X76121485Y-82212380D01*
X76121485Y-82212380D02*
X76311961Y-82259999D01*
X76311961Y-82259999D02*
X76407200Y-82355237D01*
X76407200Y-82355237D02*
X76454819Y-82450475D01*
X76454819Y-82450475D02*
X76454819Y-82640951D01*
X76454819Y-82640951D02*
X76407200Y-82736189D01*
X76407200Y-82736189D02*
X76311961Y-82831427D01*
X76311961Y-82831427D02*
X76121485Y-82879046D01*
X76121485Y-82879046D02*
X75788152Y-82879046D01*
X75788152Y-82879046D02*
X75597676Y-82831427D01*
X75597676Y-82831427D02*
X75502438Y-82736189D01*
X75502438Y-82736189D02*
X75454819Y-82640951D01*
X75550057Y-81831427D02*
X75502438Y-81783808D01*
X75502438Y-81783808D02*
X75454819Y-81688570D01*
X75454819Y-81688570D02*
X75454819Y-81450475D01*
X75454819Y-81450475D02*
X75502438Y-81355237D01*
X75502438Y-81355237D02*
X75550057Y-81307618D01*
X75550057Y-81307618D02*
X75645295Y-81259999D01*
X75645295Y-81259999D02*
X75740533Y-81259999D01*
X75740533Y-81259999D02*
X75883390Y-81307618D01*
X75883390Y-81307618D02*
X76454819Y-81879046D01*
X76454819Y-81879046D02*
X76454819Y-81259999D01*
X75550057Y-80879046D02*
X75502438Y-80831427D01*
X75502438Y-80831427D02*
X75454819Y-80736189D01*
X75454819Y-80736189D02*
X75454819Y-80498094D01*
X75454819Y-80498094D02*
X75502438Y-80402856D01*
X75502438Y-80402856D02*
X75550057Y-80355237D01*
X75550057Y-80355237D02*
X75645295Y-80307618D01*
X75645295Y-80307618D02*
X75740533Y-80307618D01*
X75740533Y-80307618D02*
X75883390Y-80355237D01*
X75883390Y-80355237D02*
X76454819Y-80926665D01*
X76454819Y-80926665D02*
X76454819Y-80307618D01*
X75454819Y-79688570D02*
X75454819Y-79593332D01*
X75454819Y-79593332D02*
X75502438Y-79498094D01*
X75502438Y-79498094D02*
X75550057Y-79450475D01*
X75550057Y-79450475D02*
X75645295Y-79402856D01*
X75645295Y-79402856D02*
X75835771Y-79355237D01*
X75835771Y-79355237D02*
X76073866Y-79355237D01*
X76073866Y-79355237D02*
X76264342Y-79402856D01*
X76264342Y-79402856D02*
X76359580Y-79450475D01*
X76359580Y-79450475D02*
X76407200Y-79498094D01*
X76407200Y-79498094D02*
X76454819Y-79593332D01*
X76454819Y-79593332D02*
X76454819Y-79688570D01*
X76454819Y-79688570D02*
X76407200Y-79783808D01*
X76407200Y-79783808D02*
X76359580Y-79831427D01*
X76359580Y-79831427D02*
X76264342Y-79879046D01*
X76264342Y-79879046D02*
X76073866Y-79926665D01*
X76073866Y-79926665D02*
X75835771Y-79926665D01*
X75835771Y-79926665D02*
X75645295Y-79879046D01*
X75645295Y-79879046D02*
X75550057Y-79831427D01*
X75550057Y-79831427D02*
X75502438Y-79783808D01*
X75502438Y-79783808D02*
X75454819Y-79688570D01*
X72304819Y-85521904D02*
X73114342Y-85521904D01*
X73114342Y-85521904D02*
X73209580Y-85474285D01*
X73209580Y-85474285D02*
X73257200Y-85426666D01*
X73257200Y-85426666D02*
X73304819Y-85331428D01*
X73304819Y-85331428D02*
X73304819Y-85140952D01*
X73304819Y-85140952D02*
X73257200Y-85045714D01*
X73257200Y-85045714D02*
X73209580Y-84998095D01*
X73209580Y-84998095D02*
X73114342Y-84950476D01*
X73114342Y-84950476D02*
X72304819Y-84950476D01*
X73304819Y-83950476D02*
X73304819Y-84521904D01*
X73304819Y-84236190D02*
X72304819Y-84236190D01*
X72304819Y-84236190D02*
X72447676Y-84331428D01*
X72447676Y-84331428D02*
X72542914Y-84426666D01*
X72542914Y-84426666D02*
X72590533Y-84521904D01*
X79097143Y-62360057D02*
X79144762Y-62312438D01*
X79144762Y-62312438D02*
X79240000Y-62264819D01*
X79240000Y-62264819D02*
X79478095Y-62264819D01*
X79478095Y-62264819D02*
X79573333Y-62312438D01*
X79573333Y-62312438D02*
X79620952Y-62360057D01*
X79620952Y-62360057D02*
X79668571Y-62455295D01*
X79668571Y-62455295D02*
X79668571Y-62550533D01*
X79668571Y-62550533D02*
X79620952Y-62693390D01*
X79620952Y-62693390D02*
X79049524Y-63264819D01*
X79049524Y-63264819D02*
X79668571Y-63264819D01*
X80097143Y-63264819D02*
X80097143Y-62264819D01*
X80097143Y-62264819D02*
X80668571Y-63264819D01*
X80668571Y-63264819D02*
X80668571Y-62264819D01*
X81097143Y-62360057D02*
X81144762Y-62312438D01*
X81144762Y-62312438D02*
X81240000Y-62264819D01*
X81240000Y-62264819D02*
X81478095Y-62264819D01*
X81478095Y-62264819D02*
X81573333Y-62312438D01*
X81573333Y-62312438D02*
X81620952Y-62360057D01*
X81620952Y-62360057D02*
X81668571Y-62455295D01*
X81668571Y-62455295D02*
X81668571Y-62550533D01*
X81668571Y-62550533D02*
X81620952Y-62693390D01*
X81620952Y-62693390D02*
X81049524Y-63264819D01*
X81049524Y-63264819D02*
X81668571Y-63264819D01*
X82049524Y-62360057D02*
X82097143Y-62312438D01*
X82097143Y-62312438D02*
X82192381Y-62264819D01*
X82192381Y-62264819D02*
X82430476Y-62264819D01*
X82430476Y-62264819D02*
X82525714Y-62312438D01*
X82525714Y-62312438D02*
X82573333Y-62360057D01*
X82573333Y-62360057D02*
X82620952Y-62455295D01*
X82620952Y-62455295D02*
X82620952Y-62550533D01*
X82620952Y-62550533D02*
X82573333Y-62693390D01*
X82573333Y-62693390D02*
X82001905Y-63264819D01*
X82001905Y-63264819D02*
X82620952Y-63264819D01*
X83001905Y-62360057D02*
X83049524Y-62312438D01*
X83049524Y-62312438D02*
X83144762Y-62264819D01*
X83144762Y-62264819D02*
X83382857Y-62264819D01*
X83382857Y-62264819D02*
X83478095Y-62312438D01*
X83478095Y-62312438D02*
X83525714Y-62360057D01*
X83525714Y-62360057D02*
X83573333Y-62455295D01*
X83573333Y-62455295D02*
X83573333Y-62550533D01*
X83573333Y-62550533D02*
X83525714Y-62693390D01*
X83525714Y-62693390D02*
X82954286Y-63264819D01*
X82954286Y-63264819D02*
X83573333Y-63264819D01*
X83954286Y-62360057D02*
X84001905Y-62312438D01*
X84001905Y-62312438D02*
X84097143Y-62264819D01*
X84097143Y-62264819D02*
X84335238Y-62264819D01*
X84335238Y-62264819D02*
X84430476Y-62312438D01*
X84430476Y-62312438D02*
X84478095Y-62360057D01*
X84478095Y-62360057D02*
X84525714Y-62455295D01*
X84525714Y-62455295D02*
X84525714Y-62550533D01*
X84525714Y-62550533D02*
X84478095Y-62693390D01*
X84478095Y-62693390D02*
X83906667Y-63264819D01*
X83906667Y-63264819D02*
X84525714Y-63264819D01*
X84906667Y-62979104D02*
X85382857Y-62979104D01*
X84811429Y-63264819D02*
X85144762Y-62264819D01*
X85144762Y-62264819D02*
X85478095Y-63264819D01*
X82144761Y-66150057D02*
X82049523Y-66102438D01*
X82049523Y-66102438D02*
X81954285Y-66007200D01*
X81954285Y-66007200D02*
X81811428Y-65864342D01*
X81811428Y-65864342D02*
X81716190Y-65816723D01*
X81716190Y-65816723D02*
X81620952Y-65816723D01*
X81668571Y-66054819D02*
X81573333Y-66007200D01*
X81573333Y-66007200D02*
X81478095Y-65911961D01*
X81478095Y-65911961D02*
X81430476Y-65721485D01*
X81430476Y-65721485D02*
X81430476Y-65388152D01*
X81430476Y-65388152D02*
X81478095Y-65197676D01*
X81478095Y-65197676D02*
X81573333Y-65102438D01*
X81573333Y-65102438D02*
X81668571Y-65054819D01*
X81668571Y-65054819D02*
X81859047Y-65054819D01*
X81859047Y-65054819D02*
X81954285Y-65102438D01*
X81954285Y-65102438D02*
X82049523Y-65197676D01*
X82049523Y-65197676D02*
X82097142Y-65388152D01*
X82097142Y-65388152D02*
X82097142Y-65721485D01*
X82097142Y-65721485D02*
X82049523Y-65911961D01*
X82049523Y-65911961D02*
X81954285Y-66007200D01*
X81954285Y-66007200D02*
X81859047Y-66054819D01*
X81859047Y-66054819D02*
X81668571Y-66054819D01*
X82478095Y-65150057D02*
X82525714Y-65102438D01*
X82525714Y-65102438D02*
X82620952Y-65054819D01*
X82620952Y-65054819D02*
X82859047Y-65054819D01*
X82859047Y-65054819D02*
X82954285Y-65102438D01*
X82954285Y-65102438D02*
X83001904Y-65150057D01*
X83001904Y-65150057D02*
X83049523Y-65245295D01*
X83049523Y-65245295D02*
X83049523Y-65340533D01*
X83049523Y-65340533D02*
X83001904Y-65483390D01*
X83001904Y-65483390D02*
X82430476Y-66054819D01*
X82430476Y-66054819D02*
X83049523Y-66054819D01*
X97257143Y-64115057D02*
X97304762Y-64067438D01*
X97304762Y-64067438D02*
X97400000Y-64019819D01*
X97400000Y-64019819D02*
X97638095Y-64019819D01*
X97638095Y-64019819D02*
X97733333Y-64067438D01*
X97733333Y-64067438D02*
X97780952Y-64115057D01*
X97780952Y-64115057D02*
X97828571Y-64210295D01*
X97828571Y-64210295D02*
X97828571Y-64305533D01*
X97828571Y-64305533D02*
X97780952Y-64448390D01*
X97780952Y-64448390D02*
X97209524Y-65019819D01*
X97209524Y-65019819D02*
X97828571Y-65019819D01*
X98257143Y-65019819D02*
X98257143Y-64019819D01*
X98257143Y-64019819D02*
X98828571Y-65019819D01*
X98828571Y-65019819D02*
X98828571Y-64019819D01*
X99257143Y-64115057D02*
X99304762Y-64067438D01*
X99304762Y-64067438D02*
X99400000Y-64019819D01*
X99400000Y-64019819D02*
X99638095Y-64019819D01*
X99638095Y-64019819D02*
X99733333Y-64067438D01*
X99733333Y-64067438D02*
X99780952Y-64115057D01*
X99780952Y-64115057D02*
X99828571Y-64210295D01*
X99828571Y-64210295D02*
X99828571Y-64305533D01*
X99828571Y-64305533D02*
X99780952Y-64448390D01*
X99780952Y-64448390D02*
X99209524Y-65019819D01*
X99209524Y-65019819D02*
X99828571Y-65019819D01*
X100209524Y-64115057D02*
X100257143Y-64067438D01*
X100257143Y-64067438D02*
X100352381Y-64019819D01*
X100352381Y-64019819D02*
X100590476Y-64019819D01*
X100590476Y-64019819D02*
X100685714Y-64067438D01*
X100685714Y-64067438D02*
X100733333Y-64115057D01*
X100733333Y-64115057D02*
X100780952Y-64210295D01*
X100780952Y-64210295D02*
X100780952Y-64305533D01*
X100780952Y-64305533D02*
X100733333Y-64448390D01*
X100733333Y-64448390D02*
X100161905Y-65019819D01*
X100161905Y-65019819D02*
X100780952Y-65019819D01*
X101161905Y-64115057D02*
X101209524Y-64067438D01*
X101209524Y-64067438D02*
X101304762Y-64019819D01*
X101304762Y-64019819D02*
X101542857Y-64019819D01*
X101542857Y-64019819D02*
X101638095Y-64067438D01*
X101638095Y-64067438D02*
X101685714Y-64115057D01*
X101685714Y-64115057D02*
X101733333Y-64210295D01*
X101733333Y-64210295D02*
X101733333Y-64305533D01*
X101733333Y-64305533D02*
X101685714Y-64448390D01*
X101685714Y-64448390D02*
X101114286Y-65019819D01*
X101114286Y-65019819D02*
X101733333Y-65019819D01*
X102114286Y-64115057D02*
X102161905Y-64067438D01*
X102161905Y-64067438D02*
X102257143Y-64019819D01*
X102257143Y-64019819D02*
X102495238Y-64019819D01*
X102495238Y-64019819D02*
X102590476Y-64067438D01*
X102590476Y-64067438D02*
X102638095Y-64115057D01*
X102638095Y-64115057D02*
X102685714Y-64210295D01*
X102685714Y-64210295D02*
X102685714Y-64305533D01*
X102685714Y-64305533D02*
X102638095Y-64448390D01*
X102638095Y-64448390D02*
X102066667Y-65019819D01*
X102066667Y-65019819D02*
X102685714Y-65019819D01*
X103066667Y-64734104D02*
X103542857Y-64734104D01*
X102971429Y-65019819D02*
X103304762Y-64019819D01*
X103304762Y-64019819D02*
X103638095Y-65019819D01*
X100304761Y-62325057D02*
X100209523Y-62277438D01*
X100209523Y-62277438D02*
X100114285Y-62182200D01*
X100114285Y-62182200D02*
X99971428Y-62039342D01*
X99971428Y-62039342D02*
X99876190Y-61991723D01*
X99876190Y-61991723D02*
X99780952Y-61991723D01*
X99828571Y-62229819D02*
X99733333Y-62182200D01*
X99733333Y-62182200D02*
X99638095Y-62086961D01*
X99638095Y-62086961D02*
X99590476Y-61896485D01*
X99590476Y-61896485D02*
X99590476Y-61563152D01*
X99590476Y-61563152D02*
X99638095Y-61372676D01*
X99638095Y-61372676D02*
X99733333Y-61277438D01*
X99733333Y-61277438D02*
X99828571Y-61229819D01*
X99828571Y-61229819D02*
X100019047Y-61229819D01*
X100019047Y-61229819D02*
X100114285Y-61277438D01*
X100114285Y-61277438D02*
X100209523Y-61372676D01*
X100209523Y-61372676D02*
X100257142Y-61563152D01*
X100257142Y-61563152D02*
X100257142Y-61896485D01*
X100257142Y-61896485D02*
X100209523Y-62086961D01*
X100209523Y-62086961D02*
X100114285Y-62182200D01*
X100114285Y-62182200D02*
X100019047Y-62229819D01*
X100019047Y-62229819D02*
X99828571Y-62229819D01*
X101114285Y-61229819D02*
X100923809Y-61229819D01*
X100923809Y-61229819D02*
X100828571Y-61277438D01*
X100828571Y-61277438D02*
X100780952Y-61325057D01*
X100780952Y-61325057D02*
X100685714Y-61467914D01*
X100685714Y-61467914D02*
X100638095Y-61658390D01*
X100638095Y-61658390D02*
X100638095Y-62039342D01*
X100638095Y-62039342D02*
X100685714Y-62134580D01*
X100685714Y-62134580D02*
X100733333Y-62182200D01*
X100733333Y-62182200D02*
X100828571Y-62229819D01*
X100828571Y-62229819D02*
X101019047Y-62229819D01*
X101019047Y-62229819D02*
X101114285Y-62182200D01*
X101114285Y-62182200D02*
X101161904Y-62134580D01*
X101161904Y-62134580D02*
X101209523Y-62039342D01*
X101209523Y-62039342D02*
X101209523Y-61801247D01*
X101209523Y-61801247D02*
X101161904Y-61706009D01*
X101161904Y-61706009D02*
X101114285Y-61658390D01*
X101114285Y-61658390D02*
X101019047Y-61610771D01*
X101019047Y-61610771D02*
X100828571Y-61610771D01*
X100828571Y-61610771D02*
X100733333Y-61658390D01*
X100733333Y-61658390D02*
X100685714Y-61706009D01*
X100685714Y-61706009D02*
X100638095Y-61801247D01*
D12*
X53979047Y-46246409D02*
X53979047Y-46651171D01*
X53979047Y-46651171D02*
X54002857Y-46698790D01*
X54002857Y-46698790D02*
X54026666Y-46722600D01*
X54026666Y-46722600D02*
X54074285Y-46746409D01*
X54074285Y-46746409D02*
X54169523Y-46746409D01*
X54169523Y-46746409D02*
X54217142Y-46722600D01*
X54217142Y-46722600D02*
X54240952Y-46698790D01*
X54240952Y-46698790D02*
X54264761Y-46651171D01*
X54264761Y-46651171D02*
X54264761Y-46246409D01*
X54479048Y-46722600D02*
X54550476Y-46746409D01*
X54550476Y-46746409D02*
X54669524Y-46746409D01*
X54669524Y-46746409D02*
X54717143Y-46722600D01*
X54717143Y-46722600D02*
X54740952Y-46698790D01*
X54740952Y-46698790D02*
X54764762Y-46651171D01*
X54764762Y-46651171D02*
X54764762Y-46603552D01*
X54764762Y-46603552D02*
X54740952Y-46555933D01*
X54740952Y-46555933D02*
X54717143Y-46532123D01*
X54717143Y-46532123D02*
X54669524Y-46508314D01*
X54669524Y-46508314D02*
X54574286Y-46484504D01*
X54574286Y-46484504D02*
X54526667Y-46460695D01*
X54526667Y-46460695D02*
X54502857Y-46436885D01*
X54502857Y-46436885D02*
X54479048Y-46389266D01*
X54479048Y-46389266D02*
X54479048Y-46341647D01*
X54479048Y-46341647D02*
X54502857Y-46294028D01*
X54502857Y-46294028D02*
X54526667Y-46270219D01*
X54526667Y-46270219D02*
X54574286Y-46246409D01*
X54574286Y-46246409D02*
X54693333Y-46246409D01*
X54693333Y-46246409D02*
X54764762Y-46270219D01*
X55145714Y-46484504D02*
X55217142Y-46508314D01*
X55217142Y-46508314D02*
X55240952Y-46532123D01*
X55240952Y-46532123D02*
X55264761Y-46579742D01*
X55264761Y-46579742D02*
X55264761Y-46651171D01*
X55264761Y-46651171D02*
X55240952Y-46698790D01*
X55240952Y-46698790D02*
X55217142Y-46722600D01*
X55217142Y-46722600D02*
X55169523Y-46746409D01*
X55169523Y-46746409D02*
X54979047Y-46746409D01*
X54979047Y-46746409D02*
X54979047Y-46246409D01*
X54979047Y-46246409D02*
X55145714Y-46246409D01*
X55145714Y-46246409D02*
X55193333Y-46270219D01*
X55193333Y-46270219D02*
X55217142Y-46294028D01*
X55217142Y-46294028D02*
X55240952Y-46341647D01*
X55240952Y-46341647D02*
X55240952Y-46389266D01*
X55240952Y-46389266D02*
X55217142Y-46436885D01*
X55217142Y-46436885D02*
X55193333Y-46460695D01*
X55193333Y-46460695D02*
X55145714Y-46484504D01*
X55145714Y-46484504D02*
X54979047Y-46484504D01*
D11*
X103454819Y-78919047D02*
X103454819Y-79490475D01*
X103454819Y-79204761D02*
X102454819Y-79204761D01*
X102454819Y-79204761D02*
X102597676Y-79299999D01*
X102597676Y-79299999D02*
X102692914Y-79395237D01*
X102692914Y-79395237D02*
X102740533Y-79490475D01*
X103454819Y-78490475D02*
X102454819Y-78490475D01*
X103073866Y-78395237D02*
X103454819Y-78109523D01*
X102788152Y-78109523D02*
X103169104Y-78490475D01*
X103454819Y-71646666D02*
X102978628Y-71979999D01*
X103454819Y-72218094D02*
X102454819Y-72218094D01*
X102454819Y-72218094D02*
X102454819Y-71837142D01*
X102454819Y-71837142D02*
X102502438Y-71741904D01*
X102502438Y-71741904D02*
X102550057Y-71694285D01*
X102550057Y-71694285D02*
X102645295Y-71646666D01*
X102645295Y-71646666D02*
X102788152Y-71646666D01*
X102788152Y-71646666D02*
X102883390Y-71694285D01*
X102883390Y-71694285D02*
X102931009Y-71741904D01*
X102931009Y-71741904D02*
X102978628Y-71837142D01*
X102978628Y-71837142D02*
X102978628Y-72218094D01*
X102454819Y-70741904D02*
X102454819Y-71218094D01*
X102454819Y-71218094D02*
X102931009Y-71265713D01*
X102931009Y-71265713D02*
X102883390Y-71218094D01*
X102883390Y-71218094D02*
X102835771Y-71122856D01*
X102835771Y-71122856D02*
X102835771Y-70884761D01*
X102835771Y-70884761D02*
X102883390Y-70789523D01*
X102883390Y-70789523D02*
X102931009Y-70741904D01*
X102931009Y-70741904D02*
X103026247Y-70694285D01*
X103026247Y-70694285D02*
X103264342Y-70694285D01*
X103264342Y-70694285D02*
X103359580Y-70741904D01*
X103359580Y-70741904D02*
X103407200Y-70789523D01*
X103407200Y-70789523D02*
X103454819Y-70884761D01*
X103454819Y-70884761D02*
X103454819Y-71122856D01*
X103454819Y-71122856D02*
X103407200Y-71218094D01*
X103407200Y-71218094D02*
X103359580Y-71265713D01*
X108507143Y-64140057D02*
X108554762Y-64092438D01*
X108554762Y-64092438D02*
X108650000Y-64044819D01*
X108650000Y-64044819D02*
X108888095Y-64044819D01*
X108888095Y-64044819D02*
X108983333Y-64092438D01*
X108983333Y-64092438D02*
X109030952Y-64140057D01*
X109030952Y-64140057D02*
X109078571Y-64235295D01*
X109078571Y-64235295D02*
X109078571Y-64330533D01*
X109078571Y-64330533D02*
X109030952Y-64473390D01*
X109030952Y-64473390D02*
X108459524Y-65044819D01*
X108459524Y-65044819D02*
X109078571Y-65044819D01*
X109507143Y-65044819D02*
X109507143Y-64044819D01*
X109507143Y-64044819D02*
X110078571Y-65044819D01*
X110078571Y-65044819D02*
X110078571Y-64044819D01*
X110507143Y-64140057D02*
X110554762Y-64092438D01*
X110554762Y-64092438D02*
X110650000Y-64044819D01*
X110650000Y-64044819D02*
X110888095Y-64044819D01*
X110888095Y-64044819D02*
X110983333Y-64092438D01*
X110983333Y-64092438D02*
X111030952Y-64140057D01*
X111030952Y-64140057D02*
X111078571Y-64235295D01*
X111078571Y-64235295D02*
X111078571Y-64330533D01*
X111078571Y-64330533D02*
X111030952Y-64473390D01*
X111030952Y-64473390D02*
X110459524Y-65044819D01*
X110459524Y-65044819D02*
X111078571Y-65044819D01*
X111459524Y-64140057D02*
X111507143Y-64092438D01*
X111507143Y-64092438D02*
X111602381Y-64044819D01*
X111602381Y-64044819D02*
X111840476Y-64044819D01*
X111840476Y-64044819D02*
X111935714Y-64092438D01*
X111935714Y-64092438D02*
X111983333Y-64140057D01*
X111983333Y-64140057D02*
X112030952Y-64235295D01*
X112030952Y-64235295D02*
X112030952Y-64330533D01*
X112030952Y-64330533D02*
X111983333Y-64473390D01*
X111983333Y-64473390D02*
X111411905Y-65044819D01*
X111411905Y-65044819D02*
X112030952Y-65044819D01*
X112411905Y-64140057D02*
X112459524Y-64092438D01*
X112459524Y-64092438D02*
X112554762Y-64044819D01*
X112554762Y-64044819D02*
X112792857Y-64044819D01*
X112792857Y-64044819D02*
X112888095Y-64092438D01*
X112888095Y-64092438D02*
X112935714Y-64140057D01*
X112935714Y-64140057D02*
X112983333Y-64235295D01*
X112983333Y-64235295D02*
X112983333Y-64330533D01*
X112983333Y-64330533D02*
X112935714Y-64473390D01*
X112935714Y-64473390D02*
X112364286Y-65044819D01*
X112364286Y-65044819D02*
X112983333Y-65044819D01*
X113364286Y-64140057D02*
X113411905Y-64092438D01*
X113411905Y-64092438D02*
X113507143Y-64044819D01*
X113507143Y-64044819D02*
X113745238Y-64044819D01*
X113745238Y-64044819D02*
X113840476Y-64092438D01*
X113840476Y-64092438D02*
X113888095Y-64140057D01*
X113888095Y-64140057D02*
X113935714Y-64235295D01*
X113935714Y-64235295D02*
X113935714Y-64330533D01*
X113935714Y-64330533D02*
X113888095Y-64473390D01*
X113888095Y-64473390D02*
X113316667Y-65044819D01*
X113316667Y-65044819D02*
X113935714Y-65044819D01*
X114316667Y-64759104D02*
X114792857Y-64759104D01*
X114221429Y-65044819D02*
X114554762Y-64044819D01*
X114554762Y-64044819D02*
X114888095Y-65044819D01*
X111554761Y-62350057D02*
X111459523Y-62302438D01*
X111459523Y-62302438D02*
X111364285Y-62207200D01*
X111364285Y-62207200D02*
X111221428Y-62064342D01*
X111221428Y-62064342D02*
X111126190Y-62016723D01*
X111126190Y-62016723D02*
X111030952Y-62016723D01*
X111078571Y-62254819D02*
X110983333Y-62207200D01*
X110983333Y-62207200D02*
X110888095Y-62111961D01*
X110888095Y-62111961D02*
X110840476Y-61921485D01*
X110840476Y-61921485D02*
X110840476Y-61588152D01*
X110840476Y-61588152D02*
X110888095Y-61397676D01*
X110888095Y-61397676D02*
X110983333Y-61302438D01*
X110983333Y-61302438D02*
X111078571Y-61254819D01*
X111078571Y-61254819D02*
X111269047Y-61254819D01*
X111269047Y-61254819D02*
X111364285Y-61302438D01*
X111364285Y-61302438D02*
X111459523Y-61397676D01*
X111459523Y-61397676D02*
X111507142Y-61588152D01*
X111507142Y-61588152D02*
X111507142Y-61921485D01*
X111507142Y-61921485D02*
X111459523Y-62111961D01*
X111459523Y-62111961D02*
X111364285Y-62207200D01*
X111364285Y-62207200D02*
X111269047Y-62254819D01*
X111269047Y-62254819D02*
X111078571Y-62254819D01*
X112411904Y-61254819D02*
X111935714Y-61254819D01*
X111935714Y-61254819D02*
X111888095Y-61731009D01*
X111888095Y-61731009D02*
X111935714Y-61683390D01*
X111935714Y-61683390D02*
X112030952Y-61635771D01*
X112030952Y-61635771D02*
X112269047Y-61635771D01*
X112269047Y-61635771D02*
X112364285Y-61683390D01*
X112364285Y-61683390D02*
X112411904Y-61731009D01*
X112411904Y-61731009D02*
X112459523Y-61826247D01*
X112459523Y-61826247D02*
X112459523Y-62064342D01*
X112459523Y-62064342D02*
X112411904Y-62159580D01*
X112411904Y-62159580D02*
X112364285Y-62207200D01*
X112364285Y-62207200D02*
X112269047Y-62254819D01*
X112269047Y-62254819D02*
X112030952Y-62254819D01*
X112030952Y-62254819D02*
X111935714Y-62207200D01*
X111935714Y-62207200D02*
X111888095Y-62159580D01*
D10*
X90494048Y-91774318D02*
X90070714Y-91169556D01*
X89768333Y-91774318D02*
X89768333Y-90504318D01*
X89768333Y-90504318D02*
X90252143Y-90504318D01*
X90252143Y-90504318D02*
X90373095Y-90564794D01*
X90373095Y-90564794D02*
X90433572Y-90625270D01*
X90433572Y-90625270D02*
X90494048Y-90746222D01*
X90494048Y-90746222D02*
X90494048Y-90927651D01*
X90494048Y-90927651D02*
X90433572Y-91048603D01*
X90433572Y-91048603D02*
X90373095Y-91109080D01*
X90373095Y-91109080D02*
X90252143Y-91169556D01*
X90252143Y-91169556D02*
X89768333Y-91169556D01*
X90856905Y-90504318D02*
X91280238Y-91774318D01*
X91280238Y-91774318D02*
X91703572Y-90504318D01*
X92005952Y-90504318D02*
X92792143Y-90504318D01*
X92792143Y-90504318D02*
X92368809Y-90988127D01*
X92368809Y-90988127D02*
X92550238Y-90988127D01*
X92550238Y-90988127D02*
X92671190Y-91048603D01*
X92671190Y-91048603D02*
X92731666Y-91109080D01*
X92731666Y-91109080D02*
X92792143Y-91230032D01*
X92792143Y-91230032D02*
X92792143Y-91532413D01*
X92792143Y-91532413D02*
X92731666Y-91653365D01*
X92731666Y-91653365D02*
X92671190Y-91713842D01*
X92671190Y-91713842D02*
X92550238Y-91774318D01*
X92550238Y-91774318D02*
X92187381Y-91774318D01*
X92187381Y-91774318D02*
X92066428Y-91713842D01*
X92066428Y-91713842D02*
X92005952Y-91653365D01*
D11*
X116054819Y-86393333D02*
X116769104Y-86393333D01*
X116769104Y-86393333D02*
X116911961Y-86440952D01*
X116911961Y-86440952D02*
X117007200Y-86536190D01*
X117007200Y-86536190D02*
X117054819Y-86679047D01*
X117054819Y-86679047D02*
X117054819Y-86774285D01*
X117054819Y-85393333D02*
X117054819Y-85964761D01*
X117054819Y-85679047D02*
X116054819Y-85679047D01*
X116054819Y-85679047D02*
X116197676Y-85774285D01*
X116197676Y-85774285D02*
X116292914Y-85869523D01*
X116292914Y-85869523D02*
X116340533Y-85964761D01*
X79097143Y-56360057D02*
X79144762Y-56312438D01*
X79144762Y-56312438D02*
X79240000Y-56264819D01*
X79240000Y-56264819D02*
X79478095Y-56264819D01*
X79478095Y-56264819D02*
X79573333Y-56312438D01*
X79573333Y-56312438D02*
X79620952Y-56360057D01*
X79620952Y-56360057D02*
X79668571Y-56455295D01*
X79668571Y-56455295D02*
X79668571Y-56550533D01*
X79668571Y-56550533D02*
X79620952Y-56693390D01*
X79620952Y-56693390D02*
X79049524Y-57264819D01*
X79049524Y-57264819D02*
X79668571Y-57264819D01*
X80097143Y-57264819D02*
X80097143Y-56264819D01*
X80097143Y-56264819D02*
X80668571Y-57264819D01*
X80668571Y-57264819D02*
X80668571Y-56264819D01*
X81097143Y-56360057D02*
X81144762Y-56312438D01*
X81144762Y-56312438D02*
X81240000Y-56264819D01*
X81240000Y-56264819D02*
X81478095Y-56264819D01*
X81478095Y-56264819D02*
X81573333Y-56312438D01*
X81573333Y-56312438D02*
X81620952Y-56360057D01*
X81620952Y-56360057D02*
X81668571Y-56455295D01*
X81668571Y-56455295D02*
X81668571Y-56550533D01*
X81668571Y-56550533D02*
X81620952Y-56693390D01*
X81620952Y-56693390D02*
X81049524Y-57264819D01*
X81049524Y-57264819D02*
X81668571Y-57264819D01*
X82049524Y-56360057D02*
X82097143Y-56312438D01*
X82097143Y-56312438D02*
X82192381Y-56264819D01*
X82192381Y-56264819D02*
X82430476Y-56264819D01*
X82430476Y-56264819D02*
X82525714Y-56312438D01*
X82525714Y-56312438D02*
X82573333Y-56360057D01*
X82573333Y-56360057D02*
X82620952Y-56455295D01*
X82620952Y-56455295D02*
X82620952Y-56550533D01*
X82620952Y-56550533D02*
X82573333Y-56693390D01*
X82573333Y-56693390D02*
X82001905Y-57264819D01*
X82001905Y-57264819D02*
X82620952Y-57264819D01*
X83001905Y-56360057D02*
X83049524Y-56312438D01*
X83049524Y-56312438D02*
X83144762Y-56264819D01*
X83144762Y-56264819D02*
X83382857Y-56264819D01*
X83382857Y-56264819D02*
X83478095Y-56312438D01*
X83478095Y-56312438D02*
X83525714Y-56360057D01*
X83525714Y-56360057D02*
X83573333Y-56455295D01*
X83573333Y-56455295D02*
X83573333Y-56550533D01*
X83573333Y-56550533D02*
X83525714Y-56693390D01*
X83525714Y-56693390D02*
X82954286Y-57264819D01*
X82954286Y-57264819D02*
X83573333Y-57264819D01*
X83954286Y-56360057D02*
X84001905Y-56312438D01*
X84001905Y-56312438D02*
X84097143Y-56264819D01*
X84097143Y-56264819D02*
X84335238Y-56264819D01*
X84335238Y-56264819D02*
X84430476Y-56312438D01*
X84430476Y-56312438D02*
X84478095Y-56360057D01*
X84478095Y-56360057D02*
X84525714Y-56455295D01*
X84525714Y-56455295D02*
X84525714Y-56550533D01*
X84525714Y-56550533D02*
X84478095Y-56693390D01*
X84478095Y-56693390D02*
X83906667Y-57264819D01*
X83906667Y-57264819D02*
X84525714Y-57264819D01*
X84906667Y-56979104D02*
X85382857Y-56979104D01*
X84811429Y-57264819D02*
X85144762Y-56264819D01*
X85144762Y-56264819D02*
X85478095Y-57264819D01*
X82144761Y-60150057D02*
X82049523Y-60102438D01*
X82049523Y-60102438D02*
X81954285Y-60007200D01*
X81954285Y-60007200D02*
X81811428Y-59864342D01*
X81811428Y-59864342D02*
X81716190Y-59816723D01*
X81716190Y-59816723D02*
X81620952Y-59816723D01*
X81668571Y-60054819D02*
X81573333Y-60007200D01*
X81573333Y-60007200D02*
X81478095Y-59911961D01*
X81478095Y-59911961D02*
X81430476Y-59721485D01*
X81430476Y-59721485D02*
X81430476Y-59388152D01*
X81430476Y-59388152D02*
X81478095Y-59197676D01*
X81478095Y-59197676D02*
X81573333Y-59102438D01*
X81573333Y-59102438D02*
X81668571Y-59054819D01*
X81668571Y-59054819D02*
X81859047Y-59054819D01*
X81859047Y-59054819D02*
X81954285Y-59102438D01*
X81954285Y-59102438D02*
X82049523Y-59197676D01*
X82049523Y-59197676D02*
X82097142Y-59388152D01*
X82097142Y-59388152D02*
X82097142Y-59721485D01*
X82097142Y-59721485D02*
X82049523Y-59911961D01*
X82049523Y-59911961D02*
X81954285Y-60007200D01*
X81954285Y-60007200D02*
X81859047Y-60054819D01*
X81859047Y-60054819D02*
X81668571Y-60054819D01*
X83049523Y-60054819D02*
X82478095Y-60054819D01*
X82763809Y-60054819D02*
X82763809Y-59054819D01*
X82763809Y-59054819D02*
X82668571Y-59197676D01*
X82668571Y-59197676D02*
X82573333Y-59292914D01*
X82573333Y-59292914D02*
X82478095Y-59340533D01*
X86697143Y-56360057D02*
X86744762Y-56312438D01*
X86744762Y-56312438D02*
X86840000Y-56264819D01*
X86840000Y-56264819D02*
X87078095Y-56264819D01*
X87078095Y-56264819D02*
X87173333Y-56312438D01*
X87173333Y-56312438D02*
X87220952Y-56360057D01*
X87220952Y-56360057D02*
X87268571Y-56455295D01*
X87268571Y-56455295D02*
X87268571Y-56550533D01*
X87268571Y-56550533D02*
X87220952Y-56693390D01*
X87220952Y-56693390D02*
X86649524Y-57264819D01*
X86649524Y-57264819D02*
X87268571Y-57264819D01*
X87697143Y-57264819D02*
X87697143Y-56264819D01*
X87697143Y-56264819D02*
X88268571Y-57264819D01*
X88268571Y-57264819D02*
X88268571Y-56264819D01*
X88697143Y-56360057D02*
X88744762Y-56312438D01*
X88744762Y-56312438D02*
X88840000Y-56264819D01*
X88840000Y-56264819D02*
X89078095Y-56264819D01*
X89078095Y-56264819D02*
X89173333Y-56312438D01*
X89173333Y-56312438D02*
X89220952Y-56360057D01*
X89220952Y-56360057D02*
X89268571Y-56455295D01*
X89268571Y-56455295D02*
X89268571Y-56550533D01*
X89268571Y-56550533D02*
X89220952Y-56693390D01*
X89220952Y-56693390D02*
X88649524Y-57264819D01*
X88649524Y-57264819D02*
X89268571Y-57264819D01*
X89649524Y-56360057D02*
X89697143Y-56312438D01*
X89697143Y-56312438D02*
X89792381Y-56264819D01*
X89792381Y-56264819D02*
X90030476Y-56264819D01*
X90030476Y-56264819D02*
X90125714Y-56312438D01*
X90125714Y-56312438D02*
X90173333Y-56360057D01*
X90173333Y-56360057D02*
X90220952Y-56455295D01*
X90220952Y-56455295D02*
X90220952Y-56550533D01*
X90220952Y-56550533D02*
X90173333Y-56693390D01*
X90173333Y-56693390D02*
X89601905Y-57264819D01*
X89601905Y-57264819D02*
X90220952Y-57264819D01*
X90601905Y-56360057D02*
X90649524Y-56312438D01*
X90649524Y-56312438D02*
X90744762Y-56264819D01*
X90744762Y-56264819D02*
X90982857Y-56264819D01*
X90982857Y-56264819D02*
X91078095Y-56312438D01*
X91078095Y-56312438D02*
X91125714Y-56360057D01*
X91125714Y-56360057D02*
X91173333Y-56455295D01*
X91173333Y-56455295D02*
X91173333Y-56550533D01*
X91173333Y-56550533D02*
X91125714Y-56693390D01*
X91125714Y-56693390D02*
X90554286Y-57264819D01*
X90554286Y-57264819D02*
X91173333Y-57264819D01*
X91554286Y-56360057D02*
X91601905Y-56312438D01*
X91601905Y-56312438D02*
X91697143Y-56264819D01*
X91697143Y-56264819D02*
X91935238Y-56264819D01*
X91935238Y-56264819D02*
X92030476Y-56312438D01*
X92030476Y-56312438D02*
X92078095Y-56360057D01*
X92078095Y-56360057D02*
X92125714Y-56455295D01*
X92125714Y-56455295D02*
X92125714Y-56550533D01*
X92125714Y-56550533D02*
X92078095Y-56693390D01*
X92078095Y-56693390D02*
X91506667Y-57264819D01*
X91506667Y-57264819D02*
X92125714Y-57264819D01*
X92506667Y-56979104D02*
X92982857Y-56979104D01*
X92411429Y-57264819D02*
X92744762Y-56264819D01*
X92744762Y-56264819D02*
X93078095Y-57264819D01*
X89744761Y-60150057D02*
X89649523Y-60102438D01*
X89649523Y-60102438D02*
X89554285Y-60007200D01*
X89554285Y-60007200D02*
X89411428Y-59864342D01*
X89411428Y-59864342D02*
X89316190Y-59816723D01*
X89316190Y-59816723D02*
X89220952Y-59816723D01*
X89268571Y-60054819D02*
X89173333Y-60007200D01*
X89173333Y-60007200D02*
X89078095Y-59911961D01*
X89078095Y-59911961D02*
X89030476Y-59721485D01*
X89030476Y-59721485D02*
X89030476Y-59388152D01*
X89030476Y-59388152D02*
X89078095Y-59197676D01*
X89078095Y-59197676D02*
X89173333Y-59102438D01*
X89173333Y-59102438D02*
X89268571Y-59054819D01*
X89268571Y-59054819D02*
X89459047Y-59054819D01*
X89459047Y-59054819D02*
X89554285Y-59102438D01*
X89554285Y-59102438D02*
X89649523Y-59197676D01*
X89649523Y-59197676D02*
X89697142Y-59388152D01*
X89697142Y-59388152D02*
X89697142Y-59721485D01*
X89697142Y-59721485D02*
X89649523Y-59911961D01*
X89649523Y-59911961D02*
X89554285Y-60007200D01*
X89554285Y-60007200D02*
X89459047Y-60054819D01*
X89459047Y-60054819D02*
X89268571Y-60054819D01*
X90030476Y-59054819D02*
X90649523Y-59054819D01*
X90649523Y-59054819D02*
X90316190Y-59435771D01*
X90316190Y-59435771D02*
X90459047Y-59435771D01*
X90459047Y-59435771D02*
X90554285Y-59483390D01*
X90554285Y-59483390D02*
X90601904Y-59531009D01*
X90601904Y-59531009D02*
X90649523Y-59626247D01*
X90649523Y-59626247D02*
X90649523Y-59864342D01*
X90649523Y-59864342D02*
X90601904Y-59959580D01*
X90601904Y-59959580D02*
X90554285Y-60007200D01*
X90554285Y-60007200D02*
X90459047Y-60054819D01*
X90459047Y-60054819D02*
X90173333Y-60054819D01*
X90173333Y-60054819D02*
X90078095Y-60007200D01*
X90078095Y-60007200D02*
X90030476Y-59959580D01*
X88516904Y-45687200D02*
X88659761Y-45734819D01*
X88659761Y-45734819D02*
X88897856Y-45734819D01*
X88897856Y-45734819D02*
X88993094Y-45687200D01*
X88993094Y-45687200D02*
X89040713Y-45639580D01*
X89040713Y-45639580D02*
X89088332Y-45544342D01*
X89088332Y-45544342D02*
X89088332Y-45449104D01*
X89088332Y-45449104D02*
X89040713Y-45353866D01*
X89040713Y-45353866D02*
X88993094Y-45306247D01*
X88993094Y-45306247D02*
X88897856Y-45258628D01*
X88897856Y-45258628D02*
X88707380Y-45211009D01*
X88707380Y-45211009D02*
X88612142Y-45163390D01*
X88612142Y-45163390D02*
X88564523Y-45115771D01*
X88564523Y-45115771D02*
X88516904Y-45020533D01*
X88516904Y-45020533D02*
X88516904Y-44925295D01*
X88516904Y-44925295D02*
X88564523Y-44830057D01*
X88564523Y-44830057D02*
X88612142Y-44782438D01*
X88612142Y-44782438D02*
X88707380Y-44734819D01*
X88707380Y-44734819D02*
X88945475Y-44734819D01*
X88945475Y-44734819D02*
X89088332Y-44782438D01*
X89945475Y-45687200D02*
X89850237Y-45734819D01*
X89850237Y-45734819D02*
X89659761Y-45734819D01*
X89659761Y-45734819D02*
X89564523Y-45687200D01*
X89564523Y-45687200D02*
X89516904Y-45639580D01*
X89516904Y-45639580D02*
X89469285Y-45544342D01*
X89469285Y-45544342D02*
X89469285Y-45258628D01*
X89469285Y-45258628D02*
X89516904Y-45163390D01*
X89516904Y-45163390D02*
X89564523Y-45115771D01*
X89564523Y-45115771D02*
X89659761Y-45068152D01*
X89659761Y-45068152D02*
X89850237Y-45068152D01*
X89850237Y-45068152D02*
X89945475Y-45115771D01*
X90374047Y-45734819D02*
X90374047Y-45068152D01*
X90374047Y-45258628D02*
X90421666Y-45163390D01*
X90421666Y-45163390D02*
X90469285Y-45115771D01*
X90469285Y-45115771D02*
X90564523Y-45068152D01*
X90564523Y-45068152D02*
X90659761Y-45068152D01*
X91374047Y-45687200D02*
X91278809Y-45734819D01*
X91278809Y-45734819D02*
X91088333Y-45734819D01*
X91088333Y-45734819D02*
X90993095Y-45687200D01*
X90993095Y-45687200D02*
X90945476Y-45591961D01*
X90945476Y-45591961D02*
X90945476Y-45211009D01*
X90945476Y-45211009D02*
X90993095Y-45115771D01*
X90993095Y-45115771D02*
X91088333Y-45068152D01*
X91088333Y-45068152D02*
X91278809Y-45068152D01*
X91278809Y-45068152D02*
X91374047Y-45115771D01*
X91374047Y-45115771D02*
X91421666Y-45211009D01*
X91421666Y-45211009D02*
X91421666Y-45306247D01*
X91421666Y-45306247D02*
X90945476Y-45401485D01*
X91755000Y-45068152D02*
X91945476Y-45734819D01*
X91945476Y-45734819D02*
X92135952Y-45258628D01*
X92135952Y-45258628D02*
X92326428Y-45734819D01*
X92326428Y-45734819D02*
X92516904Y-45068152D01*
X92659762Y-45830057D02*
X93421666Y-45830057D01*
X93516905Y-44734819D02*
X94088333Y-44734819D01*
X93802619Y-45734819D02*
X93802619Y-44734819D01*
X94802619Y-45687200D02*
X94707381Y-45734819D01*
X94707381Y-45734819D02*
X94516905Y-45734819D01*
X94516905Y-45734819D02*
X94421667Y-45687200D01*
X94421667Y-45687200D02*
X94374048Y-45591961D01*
X94374048Y-45591961D02*
X94374048Y-45211009D01*
X94374048Y-45211009D02*
X94421667Y-45115771D01*
X94421667Y-45115771D02*
X94516905Y-45068152D01*
X94516905Y-45068152D02*
X94707381Y-45068152D01*
X94707381Y-45068152D02*
X94802619Y-45115771D01*
X94802619Y-45115771D02*
X94850238Y-45211009D01*
X94850238Y-45211009D02*
X94850238Y-45306247D01*
X94850238Y-45306247D02*
X94374048Y-45401485D01*
X95278810Y-45734819D02*
X95278810Y-45068152D01*
X95278810Y-45258628D02*
X95326429Y-45163390D01*
X95326429Y-45163390D02*
X95374048Y-45115771D01*
X95374048Y-45115771D02*
X95469286Y-45068152D01*
X95469286Y-45068152D02*
X95564524Y-45068152D01*
X95897858Y-45734819D02*
X95897858Y-45068152D01*
X95897858Y-45163390D02*
X95945477Y-45115771D01*
X95945477Y-45115771D02*
X96040715Y-45068152D01*
X96040715Y-45068152D02*
X96183572Y-45068152D01*
X96183572Y-45068152D02*
X96278810Y-45115771D01*
X96278810Y-45115771D02*
X96326429Y-45211009D01*
X96326429Y-45211009D02*
X96326429Y-45734819D01*
X96326429Y-45211009D02*
X96374048Y-45115771D01*
X96374048Y-45115771D02*
X96469286Y-45068152D01*
X96469286Y-45068152D02*
X96612143Y-45068152D01*
X96612143Y-45068152D02*
X96707382Y-45115771D01*
X96707382Y-45115771D02*
X96755001Y-45211009D01*
X96755001Y-45211009D02*
X96755001Y-45734819D01*
X97231191Y-45734819D02*
X97231191Y-45068152D01*
X97231191Y-44734819D02*
X97183572Y-44782438D01*
X97183572Y-44782438D02*
X97231191Y-44830057D01*
X97231191Y-44830057D02*
X97278810Y-44782438D01*
X97278810Y-44782438D02*
X97231191Y-44734819D01*
X97231191Y-44734819D02*
X97231191Y-44830057D01*
X97707381Y-45068152D02*
X97707381Y-45734819D01*
X97707381Y-45163390D02*
X97755000Y-45115771D01*
X97755000Y-45115771D02*
X97850238Y-45068152D01*
X97850238Y-45068152D02*
X97993095Y-45068152D01*
X97993095Y-45068152D02*
X98088333Y-45115771D01*
X98088333Y-45115771D02*
X98135952Y-45211009D01*
X98135952Y-45211009D02*
X98135952Y-45734819D01*
X99040714Y-45734819D02*
X99040714Y-45211009D01*
X99040714Y-45211009D02*
X98993095Y-45115771D01*
X98993095Y-45115771D02*
X98897857Y-45068152D01*
X98897857Y-45068152D02*
X98707381Y-45068152D01*
X98707381Y-45068152D02*
X98612143Y-45115771D01*
X99040714Y-45687200D02*
X98945476Y-45734819D01*
X98945476Y-45734819D02*
X98707381Y-45734819D01*
X98707381Y-45734819D02*
X98612143Y-45687200D01*
X98612143Y-45687200D02*
X98564524Y-45591961D01*
X98564524Y-45591961D02*
X98564524Y-45496723D01*
X98564524Y-45496723D02*
X98612143Y-45401485D01*
X98612143Y-45401485D02*
X98707381Y-45353866D01*
X98707381Y-45353866D02*
X98945476Y-45353866D01*
X98945476Y-45353866D02*
X99040714Y-45306247D01*
X99659762Y-45734819D02*
X99564524Y-45687200D01*
X99564524Y-45687200D02*
X99516905Y-45591961D01*
X99516905Y-45591961D02*
X99516905Y-44734819D01*
X99802620Y-45830057D02*
X100564524Y-45830057D01*
X100993096Y-44734819D02*
X101088334Y-44734819D01*
X101088334Y-44734819D02*
X101183572Y-44782438D01*
X101183572Y-44782438D02*
X101231191Y-44830057D01*
X101231191Y-44830057D02*
X101278810Y-44925295D01*
X101278810Y-44925295D02*
X101326429Y-45115771D01*
X101326429Y-45115771D02*
X101326429Y-45353866D01*
X101326429Y-45353866D02*
X101278810Y-45544342D01*
X101278810Y-45544342D02*
X101231191Y-45639580D01*
X101231191Y-45639580D02*
X101183572Y-45687200D01*
X101183572Y-45687200D02*
X101088334Y-45734819D01*
X101088334Y-45734819D02*
X100993096Y-45734819D01*
X100993096Y-45734819D02*
X100897858Y-45687200D01*
X100897858Y-45687200D02*
X100850239Y-45639580D01*
X100850239Y-45639580D02*
X100802620Y-45544342D01*
X100802620Y-45544342D02*
X100755001Y-45353866D01*
X100755001Y-45353866D02*
X100755001Y-45115771D01*
X100755001Y-45115771D02*
X100802620Y-44925295D01*
X100802620Y-44925295D02*
X100850239Y-44830057D01*
X100850239Y-44830057D02*
X100897858Y-44782438D01*
X100897858Y-44782438D02*
X100993096Y-44734819D01*
X102278810Y-45734819D02*
X101707382Y-45734819D01*
X101993096Y-45734819D02*
X101993096Y-44734819D01*
X101993096Y-44734819D02*
X101897858Y-44877676D01*
X101897858Y-44877676D02*
X101802620Y-44972914D01*
X101802620Y-44972914D02*
X101707382Y-45020533D01*
X102612144Y-45734819D02*
X103135953Y-45068152D01*
X102612144Y-45068152D02*
X103135953Y-45734819D01*
X104040715Y-45734819D02*
X103469287Y-45734819D01*
X103755001Y-45734819D02*
X103755001Y-44734819D01*
X103755001Y-44734819D02*
X103659763Y-44877676D01*
X103659763Y-44877676D02*
X103564525Y-44972914D01*
X103564525Y-44972914D02*
X103469287Y-45020533D01*
X104659763Y-44734819D02*
X104755001Y-44734819D01*
X104755001Y-44734819D02*
X104850239Y-44782438D01*
X104850239Y-44782438D02*
X104897858Y-44830057D01*
X104897858Y-44830057D02*
X104945477Y-44925295D01*
X104945477Y-44925295D02*
X104993096Y-45115771D01*
X104993096Y-45115771D02*
X104993096Y-45353866D01*
X104993096Y-45353866D02*
X104945477Y-45544342D01*
X104945477Y-45544342D02*
X104897858Y-45639580D01*
X104897858Y-45639580D02*
X104850239Y-45687200D01*
X104850239Y-45687200D02*
X104755001Y-45734819D01*
X104755001Y-45734819D02*
X104659763Y-45734819D01*
X104659763Y-45734819D02*
X104564525Y-45687200D01*
X104564525Y-45687200D02*
X104516906Y-45639580D01*
X104516906Y-45639580D02*
X104469287Y-45544342D01*
X104469287Y-45544342D02*
X104421668Y-45353866D01*
X104421668Y-45353866D02*
X104421668Y-45115771D01*
X104421668Y-45115771D02*
X104469287Y-44925295D01*
X104469287Y-44925295D02*
X104516906Y-44830057D01*
X104516906Y-44830057D02*
X104564525Y-44782438D01*
X104564525Y-44782438D02*
X104659763Y-44734819D01*
X96421666Y-46504819D02*
X96421666Y-47219104D01*
X96421666Y-47219104D02*
X96374047Y-47361961D01*
X96374047Y-47361961D02*
X96278809Y-47457200D01*
X96278809Y-47457200D02*
X96135952Y-47504819D01*
X96135952Y-47504819D02*
X96040714Y-47504819D01*
X96850238Y-46600057D02*
X96897857Y-46552438D01*
X96897857Y-46552438D02*
X96993095Y-46504819D01*
X96993095Y-46504819D02*
X97231190Y-46504819D01*
X97231190Y-46504819D02*
X97326428Y-46552438D01*
X97326428Y-46552438D02*
X97374047Y-46600057D01*
X97374047Y-46600057D02*
X97421666Y-46695295D01*
X97421666Y-46695295D02*
X97421666Y-46790533D01*
X97421666Y-46790533D02*
X97374047Y-46933390D01*
X97374047Y-46933390D02*
X96802619Y-47504819D01*
X96802619Y-47504819D02*
X97421666Y-47504819D01*
X70600952Y-64924819D02*
X70029524Y-64924819D01*
X70315238Y-64924819D02*
X70315238Y-63924819D01*
X70315238Y-63924819D02*
X70220000Y-64067676D01*
X70220000Y-64067676D02*
X70124762Y-64162914D01*
X70124762Y-64162914D02*
X70029524Y-64210533D01*
X71029524Y-64924819D02*
X71029524Y-63924819D01*
X71124762Y-64543866D02*
X71410476Y-64924819D01*
X71410476Y-64258152D02*
X71029524Y-64639104D01*
X70553333Y-62554819D02*
X70220000Y-62078628D01*
X69981905Y-62554819D02*
X69981905Y-61554819D01*
X69981905Y-61554819D02*
X70362857Y-61554819D01*
X70362857Y-61554819D02*
X70458095Y-61602438D01*
X70458095Y-61602438D02*
X70505714Y-61650057D01*
X70505714Y-61650057D02*
X70553333Y-61745295D01*
X70553333Y-61745295D02*
X70553333Y-61888152D01*
X70553333Y-61888152D02*
X70505714Y-61983390D01*
X70505714Y-61983390D02*
X70458095Y-62031009D01*
X70458095Y-62031009D02*
X70362857Y-62078628D01*
X70362857Y-62078628D02*
X69981905Y-62078628D01*
X70886667Y-61554819D02*
X71505714Y-61554819D01*
X71505714Y-61554819D02*
X71172381Y-61935771D01*
X71172381Y-61935771D02*
X71315238Y-61935771D01*
X71315238Y-61935771D02*
X71410476Y-61983390D01*
X71410476Y-61983390D02*
X71458095Y-62031009D01*
X71458095Y-62031009D02*
X71505714Y-62126247D01*
X71505714Y-62126247D02*
X71505714Y-62364342D01*
X71505714Y-62364342D02*
X71458095Y-62459580D01*
X71458095Y-62459580D02*
X71410476Y-62507200D01*
X71410476Y-62507200D02*
X71315238Y-62554819D01*
X71315238Y-62554819D02*
X71029524Y-62554819D01*
X71029524Y-62554819D02*
X70934286Y-62507200D01*
X70934286Y-62507200D02*
X70886667Y-62459580D01*
X70600952Y-71124819D02*
X70029524Y-71124819D01*
X70315238Y-71124819D02*
X70315238Y-70124819D01*
X70315238Y-70124819D02*
X70220000Y-70267676D01*
X70220000Y-70267676D02*
X70124762Y-70362914D01*
X70124762Y-70362914D02*
X70029524Y-70410533D01*
X71029524Y-71124819D02*
X71029524Y-70124819D01*
X71124762Y-70743866D02*
X71410476Y-71124819D01*
X71410476Y-70458152D02*
X71029524Y-70839104D01*
X70553333Y-68754819D02*
X70220000Y-68278628D01*
X69981905Y-68754819D02*
X69981905Y-67754819D01*
X69981905Y-67754819D02*
X70362857Y-67754819D01*
X70362857Y-67754819D02*
X70458095Y-67802438D01*
X70458095Y-67802438D02*
X70505714Y-67850057D01*
X70505714Y-67850057D02*
X70553333Y-67945295D01*
X70553333Y-67945295D02*
X70553333Y-68088152D01*
X70553333Y-68088152D02*
X70505714Y-68183390D01*
X70505714Y-68183390D02*
X70458095Y-68231009D01*
X70458095Y-68231009D02*
X70362857Y-68278628D01*
X70362857Y-68278628D02*
X69981905Y-68278628D01*
X71410476Y-68088152D02*
X71410476Y-68754819D01*
X71172381Y-67707200D02*
X70934286Y-68421485D01*
X70934286Y-68421485D02*
X71553333Y-68421485D01*
X70600952Y-68024819D02*
X70029524Y-68024819D01*
X70315238Y-68024819D02*
X70315238Y-67024819D01*
X70315238Y-67024819D02*
X70220000Y-67167676D01*
X70220000Y-67167676D02*
X70124762Y-67262914D01*
X70124762Y-67262914D02*
X70029524Y-67310533D01*
X71029524Y-68024819D02*
X71029524Y-67024819D01*
X71124762Y-67643866D02*
X71410476Y-68024819D01*
X71410476Y-67358152D02*
X71029524Y-67739104D01*
X70553333Y-65654819D02*
X70220000Y-65178628D01*
X69981905Y-65654819D02*
X69981905Y-64654819D01*
X69981905Y-64654819D02*
X70362857Y-64654819D01*
X70362857Y-64654819D02*
X70458095Y-64702438D01*
X70458095Y-64702438D02*
X70505714Y-64750057D01*
X70505714Y-64750057D02*
X70553333Y-64845295D01*
X70553333Y-64845295D02*
X70553333Y-64988152D01*
X70553333Y-64988152D02*
X70505714Y-65083390D01*
X70505714Y-65083390D02*
X70458095Y-65131009D01*
X70458095Y-65131009D02*
X70362857Y-65178628D01*
X70362857Y-65178628D02*
X69981905Y-65178628D01*
X70934286Y-64750057D02*
X70981905Y-64702438D01*
X70981905Y-64702438D02*
X71077143Y-64654819D01*
X71077143Y-64654819D02*
X71315238Y-64654819D01*
X71315238Y-64654819D02*
X71410476Y-64702438D01*
X71410476Y-64702438D02*
X71458095Y-64750057D01*
X71458095Y-64750057D02*
X71505714Y-64845295D01*
X71505714Y-64845295D02*
X71505714Y-64940533D01*
X71505714Y-64940533D02*
X71458095Y-65083390D01*
X71458095Y-65083390D02*
X70886667Y-65654819D01*
X70886667Y-65654819D02*
X71505714Y-65654819D01*
D10*
X55594048Y-91774318D02*
X55170714Y-91169556D01*
X54868333Y-91774318D02*
X54868333Y-90504318D01*
X54868333Y-90504318D02*
X55352143Y-90504318D01*
X55352143Y-90504318D02*
X55473095Y-90564794D01*
X55473095Y-90564794D02*
X55533572Y-90625270D01*
X55533572Y-90625270D02*
X55594048Y-90746222D01*
X55594048Y-90746222D02*
X55594048Y-90927651D01*
X55594048Y-90927651D02*
X55533572Y-91048603D01*
X55533572Y-91048603D02*
X55473095Y-91109080D01*
X55473095Y-91109080D02*
X55352143Y-91169556D01*
X55352143Y-91169556D02*
X54868333Y-91169556D01*
X55956905Y-90504318D02*
X56380238Y-91774318D01*
X56380238Y-91774318D02*
X56803572Y-90504318D01*
X57166428Y-90625270D02*
X57226904Y-90564794D01*
X57226904Y-90564794D02*
X57347857Y-90504318D01*
X57347857Y-90504318D02*
X57650238Y-90504318D01*
X57650238Y-90504318D02*
X57771190Y-90564794D01*
X57771190Y-90564794D02*
X57831666Y-90625270D01*
X57831666Y-90625270D02*
X57892143Y-90746222D01*
X57892143Y-90746222D02*
X57892143Y-90867175D01*
X57892143Y-90867175D02*
X57831666Y-91048603D01*
X57831666Y-91048603D02*
X57105952Y-91774318D01*
X57105952Y-91774318D02*
X57892143Y-91774318D01*
D11*
X80628571Y-79804819D02*
X80057143Y-79804819D01*
X80342857Y-79804819D02*
X80342857Y-78804819D01*
X80342857Y-78804819D02*
X80247619Y-78947676D01*
X80247619Y-78947676D02*
X80152381Y-79042914D01*
X80152381Y-79042914D02*
X80057143Y-79090533D01*
X81247619Y-78804819D02*
X81342857Y-78804819D01*
X81342857Y-78804819D02*
X81438095Y-78852438D01*
X81438095Y-78852438D02*
X81485714Y-78900057D01*
X81485714Y-78900057D02*
X81533333Y-78995295D01*
X81533333Y-78995295D02*
X81580952Y-79185771D01*
X81580952Y-79185771D02*
X81580952Y-79423866D01*
X81580952Y-79423866D02*
X81533333Y-79614342D01*
X81533333Y-79614342D02*
X81485714Y-79709580D01*
X81485714Y-79709580D02*
X81438095Y-79757200D01*
X81438095Y-79757200D02*
X81342857Y-79804819D01*
X81342857Y-79804819D02*
X81247619Y-79804819D01*
X81247619Y-79804819D02*
X81152381Y-79757200D01*
X81152381Y-79757200D02*
X81104762Y-79709580D01*
X81104762Y-79709580D02*
X81057143Y-79614342D01*
X81057143Y-79614342D02*
X81009524Y-79423866D01*
X81009524Y-79423866D02*
X81009524Y-79185771D01*
X81009524Y-79185771D02*
X81057143Y-78995295D01*
X81057143Y-78995295D02*
X81104762Y-78900057D01*
X81104762Y-78900057D02*
X81152381Y-78852438D01*
X81152381Y-78852438D02*
X81247619Y-78804819D01*
X82438095Y-79138152D02*
X82438095Y-79804819D01*
X82009524Y-79138152D02*
X82009524Y-79661961D01*
X82009524Y-79661961D02*
X82057143Y-79757200D01*
X82057143Y-79757200D02*
X82152381Y-79804819D01*
X82152381Y-79804819D02*
X82295238Y-79804819D01*
X82295238Y-79804819D02*
X82390476Y-79757200D01*
X82390476Y-79757200D02*
X82438095Y-79709580D01*
X83247619Y-79281009D02*
X82914286Y-79281009D01*
X82914286Y-79804819D02*
X82914286Y-78804819D01*
X82914286Y-78804819D02*
X83390476Y-78804819D01*
X81533333Y-75959580D02*
X81485714Y-76007200D01*
X81485714Y-76007200D02*
X81342857Y-76054819D01*
X81342857Y-76054819D02*
X81247619Y-76054819D01*
X81247619Y-76054819D02*
X81104762Y-76007200D01*
X81104762Y-76007200D02*
X81009524Y-75911961D01*
X81009524Y-75911961D02*
X80961905Y-75816723D01*
X80961905Y-75816723D02*
X80914286Y-75626247D01*
X80914286Y-75626247D02*
X80914286Y-75483390D01*
X80914286Y-75483390D02*
X80961905Y-75292914D01*
X80961905Y-75292914D02*
X81009524Y-75197676D01*
X81009524Y-75197676D02*
X81104762Y-75102438D01*
X81104762Y-75102438D02*
X81247619Y-75054819D01*
X81247619Y-75054819D02*
X81342857Y-75054819D01*
X81342857Y-75054819D02*
X81485714Y-75102438D01*
X81485714Y-75102438D02*
X81533333Y-75150057D01*
X81866667Y-75054819D02*
X82485714Y-75054819D01*
X82485714Y-75054819D02*
X82152381Y-75435771D01*
X82152381Y-75435771D02*
X82295238Y-75435771D01*
X82295238Y-75435771D02*
X82390476Y-75483390D01*
X82390476Y-75483390D02*
X82438095Y-75531009D01*
X82438095Y-75531009D02*
X82485714Y-75626247D01*
X82485714Y-75626247D02*
X82485714Y-75864342D01*
X82485714Y-75864342D02*
X82438095Y-75959580D01*
X82438095Y-75959580D02*
X82390476Y-76007200D01*
X82390476Y-76007200D02*
X82295238Y-76054819D01*
X82295238Y-76054819D02*
X82009524Y-76054819D01*
X82009524Y-76054819D02*
X81914286Y-76007200D01*
X81914286Y-76007200D02*
X81866667Y-75959580D01*
X45507200Y-104526191D02*
X45554819Y-104383334D01*
X45554819Y-104383334D02*
X45554819Y-104145239D01*
X45554819Y-104145239D02*
X45507200Y-104050001D01*
X45507200Y-104050001D02*
X45459580Y-104002382D01*
X45459580Y-104002382D02*
X45364342Y-103954763D01*
X45364342Y-103954763D02*
X45269104Y-103954763D01*
X45269104Y-103954763D02*
X45173866Y-104002382D01*
X45173866Y-104002382D02*
X45126247Y-104050001D01*
X45126247Y-104050001D02*
X45078628Y-104145239D01*
X45078628Y-104145239D02*
X45031009Y-104335715D01*
X45031009Y-104335715D02*
X44983390Y-104430953D01*
X44983390Y-104430953D02*
X44935771Y-104478572D01*
X44935771Y-104478572D02*
X44840533Y-104526191D01*
X44840533Y-104526191D02*
X44745295Y-104526191D01*
X44745295Y-104526191D02*
X44650057Y-104478572D01*
X44650057Y-104478572D02*
X44602438Y-104430953D01*
X44602438Y-104430953D02*
X44554819Y-104335715D01*
X44554819Y-104335715D02*
X44554819Y-104097620D01*
X44554819Y-104097620D02*
X44602438Y-103954763D01*
X45554819Y-103383334D02*
X45507200Y-103478572D01*
X45507200Y-103478572D02*
X45459580Y-103526191D01*
X45459580Y-103526191D02*
X45364342Y-103573810D01*
X45364342Y-103573810D02*
X45078628Y-103573810D01*
X45078628Y-103573810D02*
X44983390Y-103526191D01*
X44983390Y-103526191D02*
X44935771Y-103478572D01*
X44935771Y-103478572D02*
X44888152Y-103383334D01*
X44888152Y-103383334D02*
X44888152Y-103240477D01*
X44888152Y-103240477D02*
X44935771Y-103145239D01*
X44935771Y-103145239D02*
X44983390Y-103097620D01*
X44983390Y-103097620D02*
X45078628Y-103050001D01*
X45078628Y-103050001D02*
X45364342Y-103050001D01*
X45364342Y-103050001D02*
X45459580Y-103097620D01*
X45459580Y-103097620D02*
X45507200Y-103145239D01*
X45507200Y-103145239D02*
X45554819Y-103240477D01*
X45554819Y-103240477D02*
X45554819Y-103383334D01*
X45554819Y-102478572D02*
X45507200Y-102573810D01*
X45507200Y-102573810D02*
X45411961Y-102621429D01*
X45411961Y-102621429D02*
X44554819Y-102621429D01*
X45554819Y-101669048D02*
X44554819Y-101669048D01*
X45507200Y-101669048D02*
X45554819Y-101764286D01*
X45554819Y-101764286D02*
X45554819Y-101954762D01*
X45554819Y-101954762D02*
X45507200Y-102050000D01*
X45507200Y-102050000D02*
X45459580Y-102097619D01*
X45459580Y-102097619D02*
X45364342Y-102145238D01*
X45364342Y-102145238D02*
X45078628Y-102145238D01*
X45078628Y-102145238D02*
X44983390Y-102097619D01*
X44983390Y-102097619D02*
X44935771Y-102050000D01*
X44935771Y-102050000D02*
X44888152Y-101954762D01*
X44888152Y-101954762D02*
X44888152Y-101764286D01*
X44888152Y-101764286D02*
X44935771Y-101669048D01*
X45507200Y-100811905D02*
X45554819Y-100907143D01*
X45554819Y-100907143D02*
X45554819Y-101097619D01*
X45554819Y-101097619D02*
X45507200Y-101192857D01*
X45507200Y-101192857D02*
X45411961Y-101240476D01*
X45411961Y-101240476D02*
X45031009Y-101240476D01*
X45031009Y-101240476D02*
X44935771Y-101192857D01*
X44935771Y-101192857D02*
X44888152Y-101097619D01*
X44888152Y-101097619D02*
X44888152Y-100907143D01*
X44888152Y-100907143D02*
X44935771Y-100811905D01*
X44935771Y-100811905D02*
X45031009Y-100764286D01*
X45031009Y-100764286D02*
X45126247Y-100764286D01*
X45126247Y-100764286D02*
X45221485Y-101240476D01*
X45554819Y-100335714D02*
X44888152Y-100335714D01*
X45078628Y-100335714D02*
X44983390Y-100288095D01*
X44983390Y-100288095D02*
X44935771Y-100240476D01*
X44935771Y-100240476D02*
X44888152Y-100145238D01*
X44888152Y-100145238D02*
X44888152Y-100050000D01*
X44554819Y-99430952D02*
X45269104Y-99430952D01*
X45269104Y-99430952D02*
X45411961Y-99478571D01*
X45411961Y-99478571D02*
X45507200Y-99573809D01*
X45507200Y-99573809D02*
X45554819Y-99716666D01*
X45554819Y-99716666D02*
X45554819Y-99811904D01*
X44888152Y-98526190D02*
X45554819Y-98526190D01*
X44888152Y-98954761D02*
X45411961Y-98954761D01*
X45411961Y-98954761D02*
X45507200Y-98907142D01*
X45507200Y-98907142D02*
X45554819Y-98811904D01*
X45554819Y-98811904D02*
X45554819Y-98669047D01*
X45554819Y-98669047D02*
X45507200Y-98573809D01*
X45507200Y-98573809D02*
X45459580Y-98526190D01*
X45554819Y-98049999D02*
X44888152Y-98049999D01*
X44983390Y-98049999D02*
X44935771Y-98002380D01*
X44935771Y-98002380D02*
X44888152Y-97907142D01*
X44888152Y-97907142D02*
X44888152Y-97764285D01*
X44888152Y-97764285D02*
X44935771Y-97669047D01*
X44935771Y-97669047D02*
X45031009Y-97621428D01*
X45031009Y-97621428D02*
X45554819Y-97621428D01*
X45031009Y-97621428D02*
X44935771Y-97573809D01*
X44935771Y-97573809D02*
X44888152Y-97478571D01*
X44888152Y-97478571D02*
X44888152Y-97335714D01*
X44888152Y-97335714D02*
X44935771Y-97240475D01*
X44935771Y-97240475D02*
X45031009Y-97192856D01*
X45031009Y-97192856D02*
X45554819Y-97192856D01*
X44888152Y-96716666D02*
X45888152Y-96716666D01*
X44935771Y-96716666D02*
X44888152Y-96621428D01*
X44888152Y-96621428D02*
X44888152Y-96430952D01*
X44888152Y-96430952D02*
X44935771Y-96335714D01*
X44935771Y-96335714D02*
X44983390Y-96288095D01*
X44983390Y-96288095D02*
X45078628Y-96240476D01*
X45078628Y-96240476D02*
X45364342Y-96240476D01*
X45364342Y-96240476D02*
X45459580Y-96288095D01*
X45459580Y-96288095D02*
X45507200Y-96335714D01*
X45507200Y-96335714D02*
X45554819Y-96430952D01*
X45554819Y-96430952D02*
X45554819Y-96621428D01*
X45554819Y-96621428D02*
X45507200Y-96716666D01*
X45507200Y-95430952D02*
X45554819Y-95526190D01*
X45554819Y-95526190D02*
X45554819Y-95716666D01*
X45554819Y-95716666D02*
X45507200Y-95811904D01*
X45507200Y-95811904D02*
X45411961Y-95859523D01*
X45411961Y-95859523D02*
X45031009Y-95859523D01*
X45031009Y-95859523D02*
X44935771Y-95811904D01*
X44935771Y-95811904D02*
X44888152Y-95716666D01*
X44888152Y-95716666D02*
X44888152Y-95526190D01*
X44888152Y-95526190D02*
X44935771Y-95430952D01*
X44935771Y-95430952D02*
X45031009Y-95383333D01*
X45031009Y-95383333D02*
X45126247Y-95383333D01*
X45126247Y-95383333D02*
X45221485Y-95859523D01*
X45554819Y-94954761D02*
X44888152Y-94954761D01*
X45078628Y-94954761D02*
X44983390Y-94907142D01*
X44983390Y-94907142D02*
X44935771Y-94859523D01*
X44935771Y-94859523D02*
X44888152Y-94764285D01*
X44888152Y-94764285D02*
X44888152Y-94669047D01*
X45650057Y-94573809D02*
X45650057Y-93811904D01*
X44650057Y-93621427D02*
X44602438Y-93573808D01*
X44602438Y-93573808D02*
X44554819Y-93478570D01*
X44554819Y-93478570D02*
X44554819Y-93240475D01*
X44554819Y-93240475D02*
X44602438Y-93145237D01*
X44602438Y-93145237D02*
X44650057Y-93097618D01*
X44650057Y-93097618D02*
X44745295Y-93049999D01*
X44745295Y-93049999D02*
X44840533Y-93049999D01*
X44840533Y-93049999D02*
X44983390Y-93097618D01*
X44983390Y-93097618D02*
X45554819Y-93669046D01*
X45554819Y-93669046D02*
X45554819Y-93049999D01*
X45650057Y-92859523D02*
X45650057Y-92097618D01*
X44554819Y-91669046D02*
X44554819Y-91478570D01*
X44554819Y-91478570D02*
X44602438Y-91383332D01*
X44602438Y-91383332D02*
X44697676Y-91288094D01*
X44697676Y-91288094D02*
X44888152Y-91240475D01*
X44888152Y-91240475D02*
X45221485Y-91240475D01*
X45221485Y-91240475D02*
X45411961Y-91288094D01*
X45411961Y-91288094D02*
X45507200Y-91383332D01*
X45507200Y-91383332D02*
X45554819Y-91478570D01*
X45554819Y-91478570D02*
X45554819Y-91669046D01*
X45554819Y-91669046D02*
X45507200Y-91764284D01*
X45507200Y-91764284D02*
X45411961Y-91859522D01*
X45411961Y-91859522D02*
X45221485Y-91907141D01*
X45221485Y-91907141D02*
X44888152Y-91907141D01*
X44888152Y-91907141D02*
X44697676Y-91859522D01*
X44697676Y-91859522D02*
X44602438Y-91764284D01*
X44602438Y-91764284D02*
X44554819Y-91669046D01*
X44888152Y-90811903D02*
X45888152Y-90811903D01*
X44935771Y-90811903D02*
X44888152Y-90716665D01*
X44888152Y-90716665D02*
X44888152Y-90526189D01*
X44888152Y-90526189D02*
X44935771Y-90430951D01*
X44935771Y-90430951D02*
X44983390Y-90383332D01*
X44983390Y-90383332D02*
X45078628Y-90335713D01*
X45078628Y-90335713D02*
X45364342Y-90335713D01*
X45364342Y-90335713D02*
X45459580Y-90383332D01*
X45459580Y-90383332D02*
X45507200Y-90430951D01*
X45507200Y-90430951D02*
X45554819Y-90526189D01*
X45554819Y-90526189D02*
X45554819Y-90716665D01*
X45554819Y-90716665D02*
X45507200Y-90811903D01*
X45507200Y-89526189D02*
X45554819Y-89621427D01*
X45554819Y-89621427D02*
X45554819Y-89811903D01*
X45554819Y-89811903D02*
X45507200Y-89907141D01*
X45507200Y-89907141D02*
X45411961Y-89954760D01*
X45411961Y-89954760D02*
X45031009Y-89954760D01*
X45031009Y-89954760D02*
X44935771Y-89907141D01*
X44935771Y-89907141D02*
X44888152Y-89811903D01*
X44888152Y-89811903D02*
X44888152Y-89621427D01*
X44888152Y-89621427D02*
X44935771Y-89526189D01*
X44935771Y-89526189D02*
X45031009Y-89478570D01*
X45031009Y-89478570D02*
X45126247Y-89478570D01*
X45126247Y-89478570D02*
X45221485Y-89954760D01*
X44888152Y-89049998D02*
X45554819Y-89049998D01*
X44983390Y-89049998D02*
X44935771Y-89002379D01*
X44935771Y-89002379D02*
X44888152Y-88907141D01*
X44888152Y-88907141D02*
X44888152Y-88764284D01*
X44888152Y-88764284D02*
X44935771Y-88669046D01*
X44935771Y-88669046D02*
X45031009Y-88621427D01*
X45031009Y-88621427D02*
X45554819Y-88621427D01*
X71954761Y-75254819D02*
X71383333Y-75254819D01*
X71669047Y-75254819D02*
X71669047Y-74254819D01*
X71669047Y-74254819D02*
X71573809Y-74397676D01*
X71573809Y-74397676D02*
X71478571Y-74492914D01*
X71478571Y-74492914D02*
X71383333Y-74540533D01*
X72383333Y-74588152D02*
X72383333Y-75254819D01*
X72383333Y-74683390D02*
X72430952Y-74635771D01*
X72430952Y-74635771D02*
X72526190Y-74588152D01*
X72526190Y-74588152D02*
X72669047Y-74588152D01*
X72669047Y-74588152D02*
X72764285Y-74635771D01*
X72764285Y-74635771D02*
X72811904Y-74731009D01*
X72811904Y-74731009D02*
X72811904Y-75254819D01*
X73621428Y-74731009D02*
X73288095Y-74731009D01*
X73288095Y-75254819D02*
X73288095Y-74254819D01*
X73288095Y-74254819D02*
X73764285Y-74254819D01*
X72383333Y-77659580D02*
X72335714Y-77707200D01*
X72335714Y-77707200D02*
X72192857Y-77754819D01*
X72192857Y-77754819D02*
X72097619Y-77754819D01*
X72097619Y-77754819D02*
X71954762Y-77707200D01*
X71954762Y-77707200D02*
X71859524Y-77611961D01*
X71859524Y-77611961D02*
X71811905Y-77516723D01*
X71811905Y-77516723D02*
X71764286Y-77326247D01*
X71764286Y-77326247D02*
X71764286Y-77183390D01*
X71764286Y-77183390D02*
X71811905Y-76992914D01*
X71811905Y-76992914D02*
X71859524Y-76897676D01*
X71859524Y-76897676D02*
X71954762Y-76802438D01*
X71954762Y-76802438D02*
X72097619Y-76754819D01*
X72097619Y-76754819D02*
X72192857Y-76754819D01*
X72192857Y-76754819D02*
X72335714Y-76802438D01*
X72335714Y-76802438D02*
X72383333Y-76850057D01*
X73240476Y-77088152D02*
X73240476Y-77754819D01*
X73002381Y-76707200D02*
X72764286Y-77421485D01*
X72764286Y-77421485D02*
X73383333Y-77421485D01*
X96854819Y-78753047D02*
X96854819Y-79324475D01*
X96854819Y-79038761D02*
X95854819Y-79038761D01*
X95854819Y-79038761D02*
X95997676Y-79133999D01*
X95997676Y-79133999D02*
X96092914Y-79229237D01*
X96092914Y-79229237D02*
X96140533Y-79324475D01*
X96854819Y-78324475D02*
X95854819Y-78324475D01*
X96473866Y-78229237D02*
X96854819Y-77943523D01*
X96188152Y-77943523D02*
X96569104Y-78324475D01*
X96810819Y-71688666D02*
X96334628Y-72021999D01*
X96810819Y-72260094D02*
X95810819Y-72260094D01*
X95810819Y-72260094D02*
X95810819Y-71879142D01*
X95810819Y-71879142D02*
X95858438Y-71783904D01*
X95858438Y-71783904D02*
X95906057Y-71736285D01*
X95906057Y-71736285D02*
X96001295Y-71688666D01*
X96001295Y-71688666D02*
X96144152Y-71688666D01*
X96144152Y-71688666D02*
X96239390Y-71736285D01*
X96239390Y-71736285D02*
X96287009Y-71783904D01*
X96287009Y-71783904D02*
X96334628Y-71879142D01*
X96334628Y-71879142D02*
X96334628Y-72260094D01*
X95810819Y-70831523D02*
X95810819Y-71021999D01*
X95810819Y-71021999D02*
X95858438Y-71117237D01*
X95858438Y-71117237D02*
X95906057Y-71164856D01*
X95906057Y-71164856D02*
X96048914Y-71260094D01*
X96048914Y-71260094D02*
X96239390Y-71307713D01*
X96239390Y-71307713D02*
X96620342Y-71307713D01*
X96620342Y-71307713D02*
X96715580Y-71260094D01*
X96715580Y-71260094D02*
X96763200Y-71212475D01*
X96763200Y-71212475D02*
X96810819Y-71117237D01*
X96810819Y-71117237D02*
X96810819Y-70926761D01*
X96810819Y-70926761D02*
X96763200Y-70831523D01*
X96763200Y-70831523D02*
X96715580Y-70783904D01*
X96715580Y-70783904D02*
X96620342Y-70736285D01*
X96620342Y-70736285D02*
X96382247Y-70736285D01*
X96382247Y-70736285D02*
X96287009Y-70783904D01*
X96287009Y-70783904D02*
X96239390Y-70831523D01*
X96239390Y-70831523D02*
X96191771Y-70926761D01*
X96191771Y-70926761D02*
X96191771Y-71117237D01*
X96191771Y-71117237D02*
X96239390Y-71212475D01*
X96239390Y-71212475D02*
X96287009Y-71260094D01*
X96287009Y-71260094D02*
X96382247Y-71307713D01*
X114654819Y-74995238D02*
X114654819Y-75566666D01*
X114654819Y-75280952D02*
X113654819Y-75280952D01*
X113654819Y-75280952D02*
X113797676Y-75376190D01*
X113797676Y-75376190D02*
X113892914Y-75471428D01*
X113892914Y-75471428D02*
X113940533Y-75566666D01*
X113988152Y-74138095D02*
X114654819Y-74138095D01*
X113988152Y-74566666D02*
X114511961Y-74566666D01*
X114511961Y-74566666D02*
X114607200Y-74519047D01*
X114607200Y-74519047D02*
X114654819Y-74423809D01*
X114654819Y-74423809D02*
X114654819Y-74280952D01*
X114654819Y-74280952D02*
X114607200Y-74185714D01*
X114607200Y-74185714D02*
X114559580Y-74138095D01*
X114131009Y-73328571D02*
X114131009Y-73661904D01*
X114654819Y-73661904D02*
X113654819Y-73661904D01*
X113654819Y-73661904D02*
X113654819Y-73185714D01*
X109233333Y-74559580D02*
X109185714Y-74607200D01*
X109185714Y-74607200D02*
X109042857Y-74654819D01*
X109042857Y-74654819D02*
X108947619Y-74654819D01*
X108947619Y-74654819D02*
X108804762Y-74607200D01*
X108804762Y-74607200D02*
X108709524Y-74511961D01*
X108709524Y-74511961D02*
X108661905Y-74416723D01*
X108661905Y-74416723D02*
X108614286Y-74226247D01*
X108614286Y-74226247D02*
X108614286Y-74083390D01*
X108614286Y-74083390D02*
X108661905Y-73892914D01*
X108661905Y-73892914D02*
X108709524Y-73797676D01*
X108709524Y-73797676D02*
X108804762Y-73702438D01*
X108804762Y-73702438D02*
X108947619Y-73654819D01*
X108947619Y-73654819D02*
X109042857Y-73654819D01*
X109042857Y-73654819D02*
X109185714Y-73702438D01*
X109185714Y-73702438D02*
X109233333Y-73750057D01*
X110090476Y-73654819D02*
X109900000Y-73654819D01*
X109900000Y-73654819D02*
X109804762Y-73702438D01*
X109804762Y-73702438D02*
X109757143Y-73750057D01*
X109757143Y-73750057D02*
X109661905Y-73892914D01*
X109661905Y-73892914D02*
X109614286Y-74083390D01*
X109614286Y-74083390D02*
X109614286Y-74464342D01*
X109614286Y-74464342D02*
X109661905Y-74559580D01*
X109661905Y-74559580D02*
X109709524Y-74607200D01*
X109709524Y-74607200D02*
X109804762Y-74654819D01*
X109804762Y-74654819D02*
X109995238Y-74654819D01*
X109995238Y-74654819D02*
X110090476Y-74607200D01*
X110090476Y-74607200D02*
X110138095Y-74559580D01*
X110138095Y-74559580D02*
X110185714Y-74464342D01*
X110185714Y-74464342D02*
X110185714Y-74226247D01*
X110185714Y-74226247D02*
X110138095Y-74131009D01*
X110138095Y-74131009D02*
X110090476Y-74083390D01*
X110090476Y-74083390D02*
X109995238Y-74035771D01*
X109995238Y-74035771D02*
X109804762Y-74035771D01*
X109804762Y-74035771D02*
X109709524Y-74083390D01*
X109709524Y-74083390D02*
X109661905Y-74131009D01*
X109661905Y-74131009D02*
X109614286Y-74226247D01*
X86704819Y-88971428D02*
X86704819Y-89542856D01*
X86704819Y-89257142D02*
X85704819Y-89257142D01*
X85704819Y-89257142D02*
X85847676Y-89352380D01*
X85847676Y-89352380D02*
X85942914Y-89447618D01*
X85942914Y-89447618D02*
X85990533Y-89542856D01*
X85704819Y-88352380D02*
X85704819Y-88257142D01*
X85704819Y-88257142D02*
X85752438Y-88161904D01*
X85752438Y-88161904D02*
X85800057Y-88114285D01*
X85800057Y-88114285D02*
X85895295Y-88066666D01*
X85895295Y-88066666D02*
X86085771Y-88019047D01*
X86085771Y-88019047D02*
X86323866Y-88019047D01*
X86323866Y-88019047D02*
X86514342Y-88066666D01*
X86514342Y-88066666D02*
X86609580Y-88114285D01*
X86609580Y-88114285D02*
X86657200Y-88161904D01*
X86657200Y-88161904D02*
X86704819Y-88257142D01*
X86704819Y-88257142D02*
X86704819Y-88352380D01*
X86704819Y-88352380D02*
X86657200Y-88447618D01*
X86657200Y-88447618D02*
X86609580Y-88495237D01*
X86609580Y-88495237D02*
X86514342Y-88542856D01*
X86514342Y-88542856D02*
X86323866Y-88590475D01*
X86323866Y-88590475D02*
X86085771Y-88590475D01*
X86085771Y-88590475D02*
X85895295Y-88542856D01*
X85895295Y-88542856D02*
X85800057Y-88495237D01*
X85800057Y-88495237D02*
X85752438Y-88447618D01*
X85752438Y-88447618D02*
X85704819Y-88352380D01*
X86038152Y-87161904D02*
X86704819Y-87161904D01*
X86038152Y-87590475D02*
X86561961Y-87590475D01*
X86561961Y-87590475D02*
X86657200Y-87542856D01*
X86657200Y-87542856D02*
X86704819Y-87447618D01*
X86704819Y-87447618D02*
X86704819Y-87304761D01*
X86704819Y-87304761D02*
X86657200Y-87209523D01*
X86657200Y-87209523D02*
X86609580Y-87161904D01*
X86181009Y-86352380D02*
X86181009Y-86685713D01*
X86704819Y-86685713D02*
X85704819Y-86685713D01*
X85704819Y-86685713D02*
X85704819Y-86209523D01*
X82859580Y-88066666D02*
X82907200Y-88114285D01*
X82907200Y-88114285D02*
X82954819Y-88257142D01*
X82954819Y-88257142D02*
X82954819Y-88352380D01*
X82954819Y-88352380D02*
X82907200Y-88495237D01*
X82907200Y-88495237D02*
X82811961Y-88590475D01*
X82811961Y-88590475D02*
X82716723Y-88638094D01*
X82716723Y-88638094D02*
X82526247Y-88685713D01*
X82526247Y-88685713D02*
X82383390Y-88685713D01*
X82383390Y-88685713D02*
X82192914Y-88638094D01*
X82192914Y-88638094D02*
X82097676Y-88590475D01*
X82097676Y-88590475D02*
X82002438Y-88495237D01*
X82002438Y-88495237D02*
X81954819Y-88352380D01*
X81954819Y-88352380D02*
X81954819Y-88257142D01*
X81954819Y-88257142D02*
X82002438Y-88114285D01*
X82002438Y-88114285D02*
X82050057Y-88066666D01*
X82954819Y-87114285D02*
X82954819Y-87685713D01*
X82954819Y-87399999D02*
X81954819Y-87399999D01*
X81954819Y-87399999D02*
X82097676Y-87495237D01*
X82097676Y-87495237D02*
X82192914Y-87590475D01*
X82192914Y-87590475D02*
X82240533Y-87685713D01*
X100154819Y-78819047D02*
X100154819Y-79390475D01*
X100154819Y-79104761D02*
X99154819Y-79104761D01*
X99154819Y-79104761D02*
X99297676Y-79199999D01*
X99297676Y-79199999D02*
X99392914Y-79295237D01*
X99392914Y-79295237D02*
X99440533Y-79390475D01*
X100154819Y-78390475D02*
X99154819Y-78390475D01*
X99773866Y-78295237D02*
X100154819Y-78009523D01*
X99488152Y-78009523D02*
X99869104Y-78390475D01*
X100154819Y-71646666D02*
X99678628Y-71979999D01*
X100154819Y-72218094D02*
X99154819Y-72218094D01*
X99154819Y-72218094D02*
X99154819Y-71837142D01*
X99154819Y-71837142D02*
X99202438Y-71741904D01*
X99202438Y-71741904D02*
X99250057Y-71694285D01*
X99250057Y-71694285D02*
X99345295Y-71646666D01*
X99345295Y-71646666D02*
X99488152Y-71646666D01*
X99488152Y-71646666D02*
X99583390Y-71694285D01*
X99583390Y-71694285D02*
X99631009Y-71741904D01*
X99631009Y-71741904D02*
X99678628Y-71837142D01*
X99678628Y-71837142D02*
X99678628Y-72218094D01*
X99583390Y-71075237D02*
X99535771Y-71170475D01*
X99535771Y-71170475D02*
X99488152Y-71218094D01*
X99488152Y-71218094D02*
X99392914Y-71265713D01*
X99392914Y-71265713D02*
X99345295Y-71265713D01*
X99345295Y-71265713D02*
X99250057Y-71218094D01*
X99250057Y-71218094D02*
X99202438Y-71170475D01*
X99202438Y-71170475D02*
X99154819Y-71075237D01*
X99154819Y-71075237D02*
X99154819Y-70884761D01*
X99154819Y-70884761D02*
X99202438Y-70789523D01*
X99202438Y-70789523D02*
X99250057Y-70741904D01*
X99250057Y-70741904D02*
X99345295Y-70694285D01*
X99345295Y-70694285D02*
X99392914Y-70694285D01*
X99392914Y-70694285D02*
X99488152Y-70741904D01*
X99488152Y-70741904D02*
X99535771Y-70789523D01*
X99535771Y-70789523D02*
X99583390Y-70884761D01*
X99583390Y-70884761D02*
X99583390Y-71075237D01*
X99583390Y-71075237D02*
X99631009Y-71170475D01*
X99631009Y-71170475D02*
X99678628Y-71218094D01*
X99678628Y-71218094D02*
X99773866Y-71265713D01*
X99773866Y-71265713D02*
X99964342Y-71265713D01*
X99964342Y-71265713D02*
X100059580Y-71218094D01*
X100059580Y-71218094D02*
X100107200Y-71170475D01*
X100107200Y-71170475D02*
X100154819Y-71075237D01*
X100154819Y-71075237D02*
X100154819Y-70884761D01*
X100154819Y-70884761D02*
X100107200Y-70789523D01*
X100107200Y-70789523D02*
X100059580Y-70741904D01*
X100059580Y-70741904D02*
X99964342Y-70694285D01*
X99964342Y-70694285D02*
X99773866Y-70694285D01*
X99773866Y-70694285D02*
X99678628Y-70741904D01*
X99678628Y-70741904D02*
X99631009Y-70789523D01*
X99631009Y-70789523D02*
X99583390Y-70884761D01*
X114654819Y-69947619D02*
X114654819Y-70519047D01*
X114654819Y-70233333D02*
X113654819Y-70233333D01*
X113654819Y-70233333D02*
X113797676Y-70328571D01*
X113797676Y-70328571D02*
X113892914Y-70423809D01*
X113892914Y-70423809D02*
X113940533Y-70519047D01*
X113654819Y-69328571D02*
X113654819Y-69233333D01*
X113654819Y-69233333D02*
X113702438Y-69138095D01*
X113702438Y-69138095D02*
X113750057Y-69090476D01*
X113750057Y-69090476D02*
X113845295Y-69042857D01*
X113845295Y-69042857D02*
X114035771Y-68995238D01*
X114035771Y-68995238D02*
X114273866Y-68995238D01*
X114273866Y-68995238D02*
X114464342Y-69042857D01*
X114464342Y-69042857D02*
X114559580Y-69090476D01*
X114559580Y-69090476D02*
X114607200Y-69138095D01*
X114607200Y-69138095D02*
X114654819Y-69233333D01*
X114654819Y-69233333D02*
X114654819Y-69328571D01*
X114654819Y-69328571D02*
X114607200Y-69423809D01*
X114607200Y-69423809D02*
X114559580Y-69471428D01*
X114559580Y-69471428D02*
X114464342Y-69519047D01*
X114464342Y-69519047D02*
X114273866Y-69566666D01*
X114273866Y-69566666D02*
X114035771Y-69566666D01*
X114035771Y-69566666D02*
X113845295Y-69519047D01*
X113845295Y-69519047D02*
X113750057Y-69471428D01*
X113750057Y-69471428D02*
X113702438Y-69423809D01*
X113702438Y-69423809D02*
X113654819Y-69328571D01*
X113654819Y-68376190D02*
X113654819Y-68280952D01*
X113654819Y-68280952D02*
X113702438Y-68185714D01*
X113702438Y-68185714D02*
X113750057Y-68138095D01*
X113750057Y-68138095D02*
X113845295Y-68090476D01*
X113845295Y-68090476D02*
X114035771Y-68042857D01*
X114035771Y-68042857D02*
X114273866Y-68042857D01*
X114273866Y-68042857D02*
X114464342Y-68090476D01*
X114464342Y-68090476D02*
X114559580Y-68138095D01*
X114559580Y-68138095D02*
X114607200Y-68185714D01*
X114607200Y-68185714D02*
X114654819Y-68280952D01*
X114654819Y-68280952D02*
X114654819Y-68376190D01*
X114654819Y-68376190D02*
X114607200Y-68471428D01*
X114607200Y-68471428D02*
X114559580Y-68519047D01*
X114559580Y-68519047D02*
X114464342Y-68566666D01*
X114464342Y-68566666D02*
X114273866Y-68614285D01*
X114273866Y-68614285D02*
X114035771Y-68614285D01*
X114035771Y-68614285D02*
X113845295Y-68566666D01*
X113845295Y-68566666D02*
X113750057Y-68519047D01*
X113750057Y-68519047D02*
X113702438Y-68471428D01*
X113702438Y-68471428D02*
X113654819Y-68376190D01*
X113988152Y-67614285D02*
X114654819Y-67614285D01*
X114083390Y-67614285D02*
X114035771Y-67566666D01*
X114035771Y-67566666D02*
X113988152Y-67471428D01*
X113988152Y-67471428D02*
X113988152Y-67328571D01*
X113988152Y-67328571D02*
X114035771Y-67233333D01*
X114035771Y-67233333D02*
X114131009Y-67185714D01*
X114131009Y-67185714D02*
X114654819Y-67185714D01*
X114131009Y-66376190D02*
X114131009Y-66709523D01*
X114654819Y-66709523D02*
X113654819Y-66709523D01*
X113654819Y-66709523D02*
X113654819Y-66233333D01*
X109233333Y-68659580D02*
X109185714Y-68707200D01*
X109185714Y-68707200D02*
X109042857Y-68754819D01*
X109042857Y-68754819D02*
X108947619Y-68754819D01*
X108947619Y-68754819D02*
X108804762Y-68707200D01*
X108804762Y-68707200D02*
X108709524Y-68611961D01*
X108709524Y-68611961D02*
X108661905Y-68516723D01*
X108661905Y-68516723D02*
X108614286Y-68326247D01*
X108614286Y-68326247D02*
X108614286Y-68183390D01*
X108614286Y-68183390D02*
X108661905Y-67992914D01*
X108661905Y-67992914D02*
X108709524Y-67897676D01*
X108709524Y-67897676D02*
X108804762Y-67802438D01*
X108804762Y-67802438D02*
X108947619Y-67754819D01*
X108947619Y-67754819D02*
X109042857Y-67754819D01*
X109042857Y-67754819D02*
X109185714Y-67802438D01*
X109185714Y-67802438D02*
X109233333Y-67850057D01*
X109566667Y-67754819D02*
X110233333Y-67754819D01*
X110233333Y-67754819D02*
X109804762Y-68754819D01*
%TO.C,RV4*%
D13*
X104200000Y-95300000D02*
X113700000Y-95300000D01*
X104200000Y-106550000D02*
X104200000Y-95300000D01*
X113700000Y-95300000D02*
X113700000Y-106550000D01*
X113700000Y-106550000D02*
X104200000Y-106550000D01*
%TO.C,C5*%
X70050000Y-72000000D02*
X75050000Y-72000000D01*
X75050000Y-74500000D01*
X70050000Y-74500000D01*
X70050000Y-72000000D01*
%TO.C,Q4*%
X91730000Y-64000000D02*
X87980000Y-64000000D01*
X89840000Y-68080000D02*
G75*
G02*
X87938897Y-64007453I0J2480000D01*
G01*
X91732818Y-63997615D02*
G75*
G02*
X89840000Y-68080000I-1892818J-1602385D01*
G01*
%TO.C,R7*%
X107340000Y-56400000D02*
X109270000Y-56400000D01*
X117500000Y-56400000D02*
X115570000Y-56400000D01*
X109270000Y-55150000D02*
X115570000Y-55150000D01*
X115570000Y-57650000D01*
X109270000Y-57650000D01*
X109270000Y-55150000D01*
%TO.C,C2*%
X89450000Y-85150000D02*
X91950000Y-85150000D01*
X91950000Y-90150000D01*
X89450000Y-90150000D01*
X89450000Y-85150000D01*
%TO.C,R1*%
X65640000Y-59000000D02*
X67570000Y-59000000D01*
X75800000Y-59000000D02*
X73870000Y-59000000D01*
X67570000Y-57750000D02*
X73870000Y-57750000D01*
X73870000Y-60250000D01*
X67570000Y-60250000D01*
X67570000Y-57750000D01*
%TO.C,RV1*%
X69850000Y-95300000D02*
X79350000Y-95300000D01*
X69850000Y-106550000D02*
X69850000Y-95300000D01*
X79350000Y-95300000D02*
X79350000Y-106550000D01*
X79350000Y-106550000D02*
X69850000Y-106550000D01*
%TO.C,U1*%
X70650000Y-82910000D02*
X71920000Y-82910000D01*
X70650000Y-86610000D02*
X71920000Y-86610000D01*
X71920000Y-89760000D02*
X71920000Y-79760000D01*
X70650000Y-79760000D02*
X75050000Y-79760000D01*
X75050000Y-89760000D01*
X70650000Y-89760000D01*
X70650000Y-79760000D01*
%TO.C,Q2*%
X84130000Y-64000000D02*
X80380000Y-64000000D01*
X82240000Y-68080000D02*
G75*
G02*
X80338897Y-64007453I0J2480000D01*
G01*
X84132818Y-63997615D02*
G75*
G02*
X82240000Y-68080000I-1892818J-1602385D01*
G01*
%TO.C,Q6*%
X98510000Y-63375000D02*
X102260000Y-63375000D01*
X98507182Y-63377385D02*
G75*
G02*
X100400000Y-59295000I1892818J1602385D01*
G01*
X100400000Y-59295000D02*
G75*
G02*
X102301103Y-63367547I0J-2480000D01*
G01*
%TO.C,A1*%
D11*
X50546000Y-45794000D02*
X50546000Y-47244000D01*
X58674000Y-45794000D02*
X50546000Y-45794000D01*
X58674000Y-47244000D02*
X58674000Y-45794000D01*
X45720000Y-49784000D02*
X48260000Y-49784000D01*
X48260000Y-87884000D01*
X45720000Y-87884000D01*
X45720000Y-49784000D01*
X60960000Y-49784000D02*
X63500000Y-49784000D01*
X63500000Y-87884000D01*
X60960000Y-87884000D01*
X60960000Y-49784000D01*
X48590000Y-48514000D02*
G75*
G02*
X45390000Y-48514000I-1600000J0D01*
G01*
X45390000Y-48514000D02*
G75*
G02*
X48590000Y-48514000I1600000J0D01*
G01*
X48590000Y-89154000D02*
G75*
G02*
X45390000Y-89154000I-1600000J0D01*
G01*
X45390000Y-89154000D02*
G75*
G02*
X48590000Y-89154000I1600000J0D01*
G01*
X63830000Y-48514000D02*
G75*
G02*
X60630000Y-48514000I-1600000J0D01*
G01*
X60630000Y-48514000D02*
G75*
G02*
X63830000Y-48514000I1600000J0D01*
G01*
X63830000Y-89154000D02*
G75*
G02*
X60630000Y-89154000I-1600000J0D01*
G01*
X60630000Y-89154000D02*
G75*
G02*
X63830000Y-89154000I1600000J0D01*
G01*
%TO.C,R5*%
D13*
X103000000Y-66400000D02*
X103000000Y-68330000D01*
X103000000Y-76560000D02*
X103000000Y-74630000D01*
X101750000Y-68330000D02*
X104250000Y-68330000D01*
X104250000Y-74630000D01*
X101750000Y-74630000D01*
X101750000Y-68330000D01*
%TO.C,Q5*%
X109760000Y-63400000D02*
X113510000Y-63400000D01*
X109757182Y-63402385D02*
G75*
G02*
X111650000Y-59320000I1892818J1602385D01*
G01*
X111650000Y-59320000D02*
G75*
G02*
X113551103Y-63392547I0J-2480000D01*
G01*
%TO.C,RV3*%
X87000000Y-95300000D02*
X96500000Y-95300000D01*
X87000000Y-106550000D02*
X87000000Y-95300000D01*
X96500000Y-95300000D02*
X96500000Y-106550000D01*
X96500000Y-106550000D02*
X87000000Y-106550000D01*
%TO.C,J1*%
X108200000Y-80980000D02*
X118000000Y-80980000D01*
X108200000Y-91140000D02*
X108200000Y-80980000D01*
X111100000Y-91140000D02*
X111100000Y-80980000D01*
X112262000Y-82565000D02*
X114355000Y-84658000D01*
X112262000Y-87645000D02*
X114355000Y-89738000D01*
X112445000Y-82382000D02*
X114538000Y-84475000D01*
X112445000Y-87462000D02*
X114538000Y-89555000D01*
X116000000Y-91140000D02*
X116000000Y-80980000D01*
X117500000Y-91140000D02*
X108200000Y-91140000D01*
X117500000Y-91140000D02*
X117500000Y-80980000D01*
X118000000Y-80980000D02*
X118000000Y-90640000D01*
X118000000Y-90640000D02*
X117500000Y-91140000D01*
X114900000Y-83520000D02*
G75*
G02*
X111900000Y-83520000I-1500000J0D01*
G01*
X111900000Y-83520000D02*
G75*
G02*
X114900000Y-83520000I1500000J0D01*
G01*
X114900000Y-88600000D02*
G75*
G02*
X111900000Y-88600000I-1500000J0D01*
G01*
X111900000Y-88600000D02*
G75*
G02*
X114900000Y-88600000I1500000J0D01*
G01*
%TO.C,Q1*%
X84130000Y-58000000D02*
X80380000Y-58000000D01*
X82240000Y-62080000D02*
G75*
G02*
X80338897Y-58007453I0J2480000D01*
G01*
X84132818Y-57997615D02*
G75*
G02*
X82240000Y-62080000I-1892818J-1602385D01*
G01*
%TO.C,Q3*%
X91730000Y-58000000D02*
X87980000Y-58000000D01*
X89840000Y-62080000D02*
G75*
G02*
X87938897Y-58007453I0J2480000D01*
G01*
X91732818Y-57997615D02*
G75*
G02*
X89840000Y-62080000I-1892818J-1602385D01*
G01*
%TO.C,J2*%
X77710000Y-46400000D02*
X113975000Y-46400000D01*
X77710000Y-53700000D02*
X77710000Y-46400000D01*
X78472000Y-50955000D02*
X80565000Y-48862000D01*
X78655000Y-51138000D02*
X80748000Y-49045000D01*
X82282000Y-50955000D02*
X84375000Y-48862000D01*
X82465000Y-51138000D02*
X84558000Y-49045000D01*
X86092000Y-50955000D02*
X88185000Y-48862000D01*
X86275000Y-51138000D02*
X88368000Y-49045000D01*
X89902000Y-50955000D02*
X91995000Y-48862000D01*
X90085000Y-51138000D02*
X92178000Y-49045000D01*
X93712000Y-50955000D02*
X95805000Y-48862000D01*
X93895000Y-51138000D02*
X95988000Y-49045000D01*
X97522000Y-50955000D02*
X99615000Y-48862000D01*
X97705000Y-51138000D02*
X99798000Y-49045000D01*
X101332000Y-50955000D02*
X103425000Y-48862000D01*
X101515000Y-51138000D02*
X103608000Y-49045000D01*
X105142000Y-50955000D02*
X107235000Y-48862000D01*
X105325000Y-51138000D02*
X107418000Y-49045000D01*
X108952000Y-50955000D02*
X111045000Y-48862000D01*
X109135000Y-51138000D02*
X111228000Y-49045000D01*
X112762000Y-50955000D02*
X114855000Y-48862000D01*
X112945000Y-51138000D02*
X115038000Y-49045000D01*
X113975000Y-46400000D02*
X115800000Y-48225000D01*
X115800000Y-48225000D02*
X115800000Y-53700000D01*
X115800000Y-53700000D02*
X77710000Y-53700000D01*
X81110000Y-50000000D02*
G75*
G02*
X78110000Y-50000000I-1500000J0D01*
G01*
X78110000Y-50000000D02*
G75*
G02*
X81110000Y-50000000I1500000J0D01*
G01*
X84920000Y-50000000D02*
G75*
G02*
X81920000Y-50000000I-1500000J0D01*
G01*
X81920000Y-50000000D02*
G75*
G02*
X84920000Y-50000000I1500000J0D01*
G01*
X88730000Y-50000000D02*
G75*
G02*
X85730000Y-50000000I-1500000J0D01*
G01*
X85730000Y-50000000D02*
G75*
G02*
X88730000Y-50000000I1500000J0D01*
G01*
X92540000Y-50000000D02*
G75*
G02*
X89540000Y-50000000I-1500000J0D01*
G01*
X89540000Y-50000000D02*
G75*
G02*
X92540000Y-50000000I1500000J0D01*
G01*
X96350000Y-50000000D02*
G75*
G02*
X93350000Y-50000000I-1500000J0D01*
G01*
X93350000Y-50000000D02*
G75*
G02*
X96350000Y-50000000I1500000J0D01*
G01*
X100160000Y-50000000D02*
G75*
G02*
X97160000Y-50000000I-1500000J0D01*
G01*
X97160000Y-50000000D02*
G75*
G02*
X100160000Y-50000000I1500000J0D01*
G01*
X103970000Y-50000000D02*
G75*
G02*
X100970000Y-50000000I-1500000J0D01*
G01*
X100970000Y-50000000D02*
G75*
G02*
X103970000Y-50000000I1500000J0D01*
G01*
X107780000Y-50000000D02*
G75*
G02*
X104780000Y-50000000I-1500000J0D01*
G01*
X104780000Y-50000000D02*
G75*
G02*
X107780000Y-50000000I1500000J0D01*
G01*
X111590000Y-50000000D02*
G75*
G02*
X108590000Y-50000000I-1500000J0D01*
G01*
X108590000Y-50000000D02*
G75*
G02*
X111590000Y-50000000I1500000J0D01*
G01*
X115400000Y-50000000D02*
G75*
G02*
X112400000Y-50000000I-1500000J0D01*
G01*
X112400000Y-50000000D02*
G75*
G02*
X115400000Y-50000000I1500000J0D01*
G01*
%TO.C,R3*%
X65640000Y-62100000D02*
X67570000Y-62100000D01*
X75800000Y-62100000D02*
X73870000Y-62100000D01*
X67570000Y-60850000D02*
X73870000Y-60850000D01*
X73870000Y-63350000D01*
X67570000Y-63350000D01*
X67570000Y-60850000D01*
%TO.C,R4*%
X65640000Y-68300000D02*
X67570000Y-68300000D01*
X75800000Y-68300000D02*
X73870000Y-68300000D01*
X67570000Y-67050000D02*
X73870000Y-67050000D01*
X73870000Y-69550000D01*
X67570000Y-69550000D01*
X67570000Y-67050000D01*
%TO.C,R2*%
X65640000Y-65200000D02*
X67570000Y-65200000D01*
X75800000Y-65200000D02*
X73870000Y-65200000D01*
X67570000Y-63950000D02*
X73870000Y-63950000D01*
X73870000Y-66450000D01*
X67570000Y-66450000D01*
X67570000Y-63950000D01*
%TO.C,RV2*%
X52100000Y-95300000D02*
X61600000Y-95300000D01*
X52100000Y-106550000D02*
X52100000Y-95300000D01*
X61600000Y-95300000D02*
X61600000Y-106550000D01*
X61600000Y-106550000D02*
X52100000Y-106550000D01*
%TO.C,C3*%
X79566395Y-74512500D02*
X80066395Y-74512500D01*
X79816395Y-74262500D02*
X79816395Y-74762500D01*
X84200000Y-75600000D02*
G75*
G02*
X79200000Y-75600000I-2500000J0D01*
G01*
X79200000Y-75600000D02*
G75*
G02*
X84200000Y-75600000I2500000J0D01*
G01*
%TO.C,C4*%
X70050000Y-76050000D02*
X75050000Y-76050000D01*
X75050000Y-78550000D01*
X70050000Y-78550000D01*
X70050000Y-76050000D01*
%TO.C,R6*%
X96356000Y-66442000D02*
X96356000Y-68372000D01*
X96356000Y-76602000D02*
X96356000Y-74672000D01*
X95106000Y-68372000D02*
X97606000Y-68372000D01*
X97606000Y-74672000D01*
X95106000Y-74672000D01*
X95106000Y-68372000D01*
%TO.C,C6*%
X105800000Y-71200000D02*
X113000000Y-71200000D01*
X113000000Y-77200000D01*
X105800000Y-77200000D01*
X105800000Y-71200000D01*
%TO.C,C1*%
X81162500Y-89783605D02*
X81662500Y-89783605D01*
X81412500Y-90033605D02*
X81412500Y-89533605D01*
X85000000Y-87900000D02*
G75*
G02*
X80000000Y-87900000I-2500000J0D01*
G01*
X80000000Y-87900000D02*
G75*
G02*
X85000000Y-87900000I2500000J0D01*
G01*
%TO.C,R8*%
X99700000Y-66400000D02*
X99700000Y-68330000D01*
X99700000Y-76560000D02*
X99700000Y-74630000D01*
X98450000Y-68330000D02*
X100950000Y-68330000D01*
X100950000Y-74630000D01*
X98450000Y-74630000D01*
X98450000Y-68330000D01*
%TO.C,C7*%
X105800000Y-66050000D02*
X113000000Y-66050000D01*
X113000000Y-70550000D01*
X105800000Y-70550000D01*
X105800000Y-66050000D01*
%TD*%
M02*
