%TF.GenerationSoftware,KiCad,Pcbnew,10.0.3*%
%TF.CreationDate,2026-06-12T10:29:30+02:00*%
%TF.ProjectId,EmulatorBoard,456d756c-6174-46f7-9242-6f6172642e6b,rev?*%
%TF.SameCoordinates,Original*%
%TF.FileFunction,Copper,L1,Top*%
%TF.FilePolarity,Positive*%
%FSLAX46Y46*%
G04 Gerber Fmt 4.6, Leading zero omitted, Abs format (unit mm)*
G04 Created by KiCad (PCBNEW 10.0.3) date 2026-06-12 10:29:30*
%MOMM*%
%LPD*%
G01*
G04 APERTURE LIST*
G04 Aperture macros list*
%AMRoundRect*
0 Rectangle with rounded corners*
0 $1 Rounding radius*
0 $2 $3 $4 $5 $6 $7 $8 $9 X,Y pos of 4 corners*
0 Add a 4 corners polygon primitive as box body*
4,1,4,$2,$3,$4,$5,$6,$7,$8,$9,$2,$3,0*
0 Add four circle primitives for the rounded corners*
1,1,$1+$1,$2,$3*
1,1,$1+$1,$4,$5*
1,1,$1+$1,$6,$7*
1,1,$1+$1,$8,$9*
0 Add four rect primitives between the rounded corners*
20,1,$1+$1,$2,$3,$4,$5,0*
20,1,$1+$1,$4,$5,$6,$7,0*
20,1,$1+$1,$6,$7,$8,$9,0*
20,1,$1+$1,$8,$9,$2,$3,0*%
%AMFreePoly0*
4,1,23,0.500000,-0.750000,0.000000,-0.750000,0.000000,-0.745722,-0.065263,-0.745722,-0.191342,-0.711940,-0.304381,-0.646677,-0.396677,-0.554381,-0.461940,-0.441342,-0.495722,-0.315263,-0.495722,-0.250000,-0.500000,-0.250000,-0.500000,0.250000,-0.495722,0.250000,-0.495722,0.315263,-0.461940,0.441342,-0.396677,0.554381,-0.304381,0.646677,-0.191342,0.711940,-0.065263,0.745722,0.000000,0.745722,
0.000000,0.750000,0.500000,0.750000,0.500000,-0.750000,0.500000,-0.750000,$1*%
%AMFreePoly1*
4,1,23,0.000000,0.745722,0.065263,0.745722,0.191342,0.711940,0.304381,0.646677,0.396677,0.554381,0.461940,0.441342,0.495722,0.315263,0.495722,0.250000,0.500000,0.250000,0.500000,-0.250000,0.495722,-0.250000,0.495722,-0.315263,0.461940,-0.441342,0.396677,-0.554381,0.304381,-0.646677,0.191342,-0.711940,0.065263,-0.745722,0.000000,-0.745722,0.000000,-0.750000,-0.500000,-0.750000,
-0.500000,0.750000,0.000000,0.750000,0.000000,0.745722,0.000000,0.745722,$1*%
G04 Aperture macros list end*
%TA.AperFunction,ComponentPad*%
%ADD10R,1.500000X1.500000*%
%TD*%
%TA.AperFunction,ComponentPad*%
%ADD11C,1.500000*%
%TD*%
%TA.AperFunction,ComponentPad*%
%ADD12C,2.865000*%
%TD*%
%TA.AperFunction,ComponentPad*%
%ADD13C,1.600000*%
%TD*%
%TA.AperFunction,ComponentPad*%
%ADD14R,2.000000X1.905000*%
%TD*%
%TA.AperFunction,ComponentPad*%
%ADD15O,2.000000X1.905000*%
%TD*%
%TA.AperFunction,ComponentPad*%
%ADD16C,1.727200*%
%TD*%
%TA.AperFunction,ComponentPad*%
%ADD17R,1.727200X1.727200*%
%TD*%
%TA.AperFunction,ComponentPad*%
%ADD18RoundRect,0.250000X1.050000X-1.050000X1.050000X1.050000X-1.050000X1.050000X-1.050000X-1.050000X0*%
%TD*%
%TA.AperFunction,ComponentPad*%
%ADD19C,2.600000*%
%TD*%
%TA.AperFunction,ComponentPad*%
%ADD20RoundRect,0.250000X0.750000X0.750000X-0.750000X0.750000X-0.750000X-0.750000X0.750000X-0.750000X0*%
%TD*%
%TA.AperFunction,ComponentPad*%
%ADD21C,2.000000*%
%TD*%
%TA.AperFunction,ComponentPad*%
%ADD22RoundRect,0.250000X-0.550000X-0.550000X0.550000X-0.550000X0.550000X0.550000X-0.550000X0.550000X0*%
%TD*%
%TA.AperFunction,SMDPad,CuDef*%
%ADD23FreePoly0,270.000000*%
%TD*%
%TA.AperFunction,SMDPad,CuDef*%
%ADD24FreePoly1,270.000000*%
%TD*%
%TA.AperFunction,ComponentPad*%
%ADD25RoundRect,0.250000X0.550000X-0.550000X0.550000X0.550000X-0.550000X0.550000X-0.550000X-0.550000X0*%
%TD*%
%TA.AperFunction,ViaPad*%
%ADD26C,0.600000*%
%TD*%
%TA.AperFunction,Conductor*%
%ADD27C,0.250000*%
%TD*%
%TA.AperFunction,Conductor*%
%ADD28C,0.400000*%
%TD*%
%TA.AperFunction,Conductor*%
%ADD29C,0.200000*%
%TD*%
%TA.AperFunction,Conductor*%
%ADD30C,0.300000*%
%TD*%
G04 APERTURE END LIST*
D10*
%TO.P,RV4,1,1_1*%
%TO.N,/AREF_Pin*%
X111450000Y-94200000D03*
D11*
%TO.P,RV4,2,2_2*%
%TO.N,/Temp_Pot*%
X108950000Y-94200000D03*
%TO.P,RV4,3,3_3*%
%TO.N,GND*%
X106450000Y-94200000D03*
D12*
%TO.P,RV4,4*%
%TO.N,N/C*%
X103900000Y-101700000D03*
%TO.P,RV4,5*%
X114000000Y-101700000D03*
%TD*%
D13*
%TO.P,C5,1*%
%TO.N,VDD*%
X73800000Y-73250000D03*
%TO.P,C5,2*%
%TO.N,GND*%
X71300000Y-73250000D03*
%TD*%
D10*
%TO.P,Q4,1,C_1*%
%TO.N,/INJ_CH4*%
X92380000Y-65600000D03*
D11*
%TO.P,Q4,2,B_2*%
%TO.N,Net-(Q4-B)*%
X89840000Y-65600000D03*
%TO.P,Q4,3,E_3*%
%TO.N,GND*%
X87300000Y-65600000D03*
%TD*%
D13*
%TO.P,R7,1*%
%TO.N,Temp_-*%
X117500000Y-56400000D03*
%TO.P,R7,2*%
%TO.N,Temp_+*%
X107340000Y-56400000D03*
%TD*%
%TO.P,C2,1*%
%TO.N,+12V*%
X90700000Y-88900000D03*
%TO.P,C2,2*%
%TO.N,GND*%
X90700000Y-86400000D03*
%TD*%
%TO.P,R1,1*%
%TO.N,/GD_CH1*%
X65640000Y-59000000D03*
%TO.P,R1,2*%
%TO.N,Net-(Q1-B)*%
X75800000Y-59000000D03*
%TD*%
D10*
%TO.P,RV1,1,1_1*%
%TO.N,/AREF_Pin*%
X77100000Y-94200000D03*
D11*
%TO.P,RV1,2,2_2*%
%TO.N,/FREQ_Pot*%
X74600000Y-94200000D03*
%TO.P,RV1,3,3_3*%
%TO.N,GND*%
X72100000Y-94200000D03*
D12*
%TO.P,RV1,4*%
%TO.N,N/C*%
X69550000Y-101700000D03*
%TO.P,RV1,5*%
X79650000Y-101700000D03*
%TD*%
D14*
%TO.P,U1,1,VI_1*%
%TO.N,+12V*%
X73800000Y-87300000D03*
D15*
%TO.P,U1,2,GND_2*%
%TO.N,GND*%
X73800000Y-84760000D03*
%TO.P,U1,3,VO_3*%
%TO.N,VDD*%
X73800000Y-82220000D03*
%TD*%
D10*
%TO.P,Q2,1,C_1*%
%TO.N,/INJ_CH3*%
X84780000Y-65600000D03*
D11*
%TO.P,Q2,2,B_2*%
%TO.N,Net-(Q2-B)*%
X82240000Y-65600000D03*
%TO.P,Q2,3,E_3*%
%TO.N,GND*%
X79700000Y-65600000D03*
%TD*%
D10*
%TO.P,Q6,1,C_1*%
%TO.N,VDD*%
X97860000Y-61775000D03*
D11*
%TO.P,Q6,2,B_2*%
%TO.N,Net-(Q6-B)*%
X100400000Y-61775000D03*
%TO.P,Q6,3,E_3*%
%TO.N,Flex_SNSR_Signal*%
X102940000Y-61775000D03*
%TD*%
D16*
%TO.P,A1,3V3,3.3V_3V3*%
%TO.N,unconnected-(A1-3.3V-Pad3V3)*%
X46990000Y-53594000D03*
%TO.P,A1,5V,5V_5V*%
%TO.N,VDD*%
X46990000Y-78994000D03*
%TO.P,A1,A0,A0_A0*%
%TO.N,/Temp_Pot*%
X46990000Y-58674000D03*
%TO.P,A1,A1,A1_A1*%
%TO.N,/Eperct_Pot*%
X46990000Y-61214000D03*
%TO.P,A1,A2,A2_A2*%
%TO.N,/FREQ_Pot*%
X46990000Y-63754000D03*
%TO.P,A1,A3,A3_A3*%
%TO.N,/PW_Pot*%
X46990000Y-66294000D03*
%TO.P,A1,A4,A4/SDA_A4*%
%TO.N,unconnected-(A1-A4{slash}SDA-PadA4)*%
X46990000Y-68834000D03*
%TO.P,A1,A5,A5/SCL_A5*%
%TO.N,unconnected-(A1-A5{slash}SCL-PadA5)*%
X46990000Y-71374000D03*
%TO.P,A1,A6,A6_A6*%
%TO.N,unconnected-(A1-PadA6)*%
X46990000Y-73914000D03*
%TO.P,A1,A7,A7_A7*%
%TO.N,unconnected-(A1-PadA7)*%
X46990000Y-76454000D03*
%TO.P,A1,AREF,AREF_AREF*%
%TO.N,/AREF_Pin*%
X46990000Y-56134000D03*
%TO.P,A1,D0,D0/RX_D0*%
%TO.N,unconnected-(A1-D0{slash}RX-PadD0)*%
X62230000Y-84074000D03*
%TO.P,A1,D1,D1/TX_D1*%
%TO.N,unconnected-(A1-D1{slash}TX-PadD1)*%
X62230000Y-86614000D03*
%TO.P,A1,D2,D2_D2*%
%TO.N,/MCU_D2*%
X62230000Y-76454000D03*
%TO.P,A1,D3,D3_D3*%
%TO.N,/MCU_D3*%
X62230000Y-73914000D03*
%TO.P,A1,D4,D4_D4*%
%TO.N,unconnected-(A1-PadD4)*%
X62230000Y-71374000D03*
%TO.P,A1,D5,D5_D5*%
%TO.N,/GD_CH4*%
X62230000Y-68834000D03*
%TO.P,A1,D6,D6_D6*%
%TO.N,/GD_CH3*%
X62230000Y-66294000D03*
%TO.P,A1,D7,D7_D7*%
%TO.N,unconnected-(A1-PadD7)*%
X62230000Y-63754000D03*
%TO.P,A1,D8,D8_D8*%
%TO.N,unconnected-(A1-PadD8)*%
X62230000Y-61214000D03*
%TO.P,A1,D9,D9_D9*%
%TO.N,/GD_CH2*%
X62230000Y-58674000D03*
%TO.P,A1,D10,D10_D10*%
%TO.N,/GD_CH1*%
X62230000Y-56134000D03*
%TO.P,A1,D11,D11_MOSI_D11*%
%TO.N,unconnected-(A1-D11_MOSI-PadD11)*%
X62230000Y-53594000D03*
%TO.P,A1,D12,D12_MISO_D12*%
%TO.N,unconnected-(A1-D12_MISO-PadD12)*%
X62230000Y-51054000D03*
%TO.P,A1,D13,D13_SCK_D13*%
%TO.N,unconnected-(A1-D13_SCK-PadD13)*%
X46990000Y-51054000D03*
D17*
%TO.P,A1,GND1,GND_GND1*%
%TO.N,GND*%
X62230000Y-78994000D03*
%TO.P,A1,GND2,GND_GND2*%
X46990000Y-84074000D03*
D16*
%TO.P,A1,RST1,RESET_RST1*%
%TO.N,unconnected-(A1-RESET-PadRST1)*%
X62230000Y-81534000D03*
%TO.P,A1,RST2,RESET_RST2*%
%TO.N,unconnected-(A1-RESET-PadRST2)*%
X46990000Y-81534000D03*
%TO.P,A1,VIN,VIN_VIN*%
%TO.N,+12V*%
X46990000Y-86614000D03*
%TD*%
D13*
%TO.P,R5,1*%
%TO.N,/MCU_D3*%
X103000000Y-76560000D03*
%TO.P,R5,2*%
%TO.N,Net-(Q5-B)*%
X103000000Y-66400000D03*
%TD*%
D10*
%TO.P,Q5,1,C_1*%
%TO.N,Temp_-*%
X109110000Y-61800000D03*
D11*
%TO.P,Q5,2,B_2*%
%TO.N,Net-(Q5-B)*%
X111650000Y-61800000D03*
%TO.P,Q5,3,E_3*%
%TO.N,GND*%
X114190000Y-61800000D03*
%TD*%
D10*
%TO.P,RV3,1,1_1*%
%TO.N,/AREF_Pin*%
X94250000Y-94200000D03*
D11*
%TO.P,RV3,2,2_2*%
%TO.N,/Eperct_Pot*%
X91750000Y-94200000D03*
%TO.P,RV3,3,3_3*%
%TO.N,GND*%
X89250000Y-94200000D03*
D12*
%TO.P,RV3,4*%
%TO.N,N/C*%
X86700000Y-101700000D03*
%TO.P,RV3,5*%
X96800000Y-101700000D03*
%TD*%
D18*
%TO.P,J1,1,Pin_1_1*%
%TO.N,+12V*%
X113400000Y-88600000D03*
D19*
%TO.P,J1,2,Pin_2_2*%
%TO.N,GND*%
X113400000Y-83520000D03*
%TD*%
D10*
%TO.P,Q1,1,C_1*%
%TO.N,/INJ_CH1*%
X84780000Y-59600000D03*
D11*
%TO.P,Q1,2,B_2*%
%TO.N,Net-(Q1-B)*%
X82240000Y-59600000D03*
%TO.P,Q1,3,E_3*%
%TO.N,GND*%
X79700000Y-59600000D03*
%TD*%
D10*
%TO.P,Q3,1,C_1*%
%TO.N,/INJ_CH2*%
X92380000Y-59600000D03*
D11*
%TO.P,Q3,2,B_2*%
%TO.N,Net-(Q3-B)*%
X89840000Y-59600000D03*
%TO.P,Q3,3,E_3*%
%TO.N,GND*%
X87300000Y-59600000D03*
%TD*%
D20*
%TO.P,J2,1,Pin_1_1*%
%TO.N,Temp_-*%
X113900000Y-50000000D03*
D21*
%TO.P,J2,2,Pin_2_2*%
%TO.N,Temp_+*%
X110090000Y-50000000D03*
%TO.P,J2,3,Pin_3_3*%
%TO.N,Flex_SNSR_Signal*%
X106280000Y-50000000D03*
%TO.P,J2,4,Pin_4_4*%
%TO.N,unconnected-(J2-Pin_4-Pad4)*%
X102470000Y-50000000D03*
%TO.P,J2,5,Pin_5_5*%
%TO.N,/INJ_CH4*%
X98660000Y-50000000D03*
%TO.P,J2,6,Pin_6_6*%
%TO.N,/INJ_CH3*%
X94850000Y-50000000D03*
%TO.P,J2,7,Pin_7_7*%
%TO.N,/INJ_CH2*%
X91040000Y-50000000D03*
%TO.P,J2,8,Pin_8_8*%
%TO.N,/INJ_CH1*%
X87230000Y-50000000D03*
%TO.P,J2,9,Pin_9_9*%
%TO.N,+12V*%
X83420000Y-50000000D03*
%TO.P,J2,10,Pin_10_10*%
%TO.N,GND*%
X79610000Y-50000000D03*
%TD*%
D13*
%TO.P,R3,1*%
%TO.N,/GD_CH2*%
X65640000Y-62100000D03*
%TO.P,R3,2*%
%TO.N,Net-(Q3-B)*%
X75800000Y-62100000D03*
%TD*%
%TO.P,R4,1*%
%TO.N,/GD_CH4*%
X65640000Y-68300000D03*
%TO.P,R4,2*%
%TO.N,Net-(Q4-B)*%
X75800000Y-68300000D03*
%TD*%
%TO.P,R2,1*%
%TO.N,/GD_CH3*%
X65640000Y-65200000D03*
%TO.P,R2,2*%
%TO.N,Net-(Q2-B)*%
X75800000Y-65200000D03*
%TD*%
D10*
%TO.P,RV2,1,1_1*%
%TO.N,/AREF_Pin*%
X59350000Y-94200000D03*
D11*
%TO.P,RV2,2,2_2*%
%TO.N,/PW_Pot*%
X56850000Y-94200000D03*
%TO.P,RV2,3,3_3*%
%TO.N,GND*%
X54350000Y-94200000D03*
D12*
%TO.P,RV2,4*%
%TO.N,N/C*%
X51800000Y-101700000D03*
%TO.P,RV2,5*%
X61900000Y-101700000D03*
%TD*%
D22*
%TO.P,C3,1*%
%TO.N,VDD*%
X80700000Y-75600000D03*
D13*
%TO.P,C3,2*%
%TO.N,GND*%
X82700000Y-75600000D03*
%TD*%
D23*
%TO.P,JP1,1,A_1*%
%TO.N,VDD*%
X47000000Y-95900000D03*
D24*
%TO.P,JP1,2,B_2*%
%TO.N,/AREF_Pin*%
X47000000Y-97200000D03*
%TD*%
D13*
%TO.P,C4,1*%
%TO.N,VDD*%
X73800000Y-77300000D03*
%TO.P,C4,2*%
%TO.N,GND*%
X71300000Y-77300000D03*
%TD*%
%TO.P,R6,1*%
%TO.N,/MCU_D2*%
X96356000Y-76602000D03*
%TO.P,R6,2*%
%TO.N,Net-(Q6-B)*%
X96356000Y-66442000D03*
%TD*%
D11*
%TO.P,C6,1*%
%TO.N,/MCU_D3*%
X106900000Y-74200000D03*
%TO.P,C6,2*%
%TO.N,GND*%
X111900000Y-74200000D03*
%TD*%
D25*
%TO.P,C1,1*%
%TO.N,+12V*%
X82500000Y-88900000D03*
D13*
%TO.P,C1,2*%
%TO.N,GND*%
X82500000Y-86900000D03*
%TD*%
%TO.P,R8,1*%
%TO.N,GND*%
X99700000Y-76560000D03*
%TO.P,R8,2*%
%TO.N,Flex_SNSR_Signal*%
X99700000Y-66400000D03*
%TD*%
%TO.P,C7,1*%
%TO.N,Net-(Q5-B)*%
X106900000Y-68300000D03*
%TO.P,C7,2*%
%TO.N,GND*%
X111900000Y-68300000D03*
%TD*%
D26*
%TO.N,GND*%
X89200000Y-67800000D03*
X66000000Y-81600000D03*
X67500000Y-81600000D03*
X66000000Y-80300000D03*
X67500000Y-80300000D03*
X70600000Y-80300000D03*
X72200000Y-80300000D03*
X75600000Y-85700000D03*
X75600000Y-83500000D03*
X72100000Y-83500000D03*
X74200000Y-57000000D03*
X74200000Y-66800000D03*
X74200000Y-63700000D03*
X74200000Y-60500000D03*
X78000000Y-61100000D03*
X81000000Y-61100000D03*
X83400000Y-61100000D03*
X91300000Y-57400000D03*
X89800000Y-57400000D03*
X88300000Y-57400000D03*
X86100000Y-61100000D03*
X96000000Y-61400000D03*
X95000000Y-62400000D03*
X93900000Y-63400000D03*
X90600000Y-67800000D03*
X91000000Y-64100000D03*
X88600000Y-64100000D03*
X78000000Y-67200000D03*
X81000000Y-67200000D03*
X83400000Y-67200000D03*
X86000000Y-67200000D03*
X115150000Y-77800000D03*
X58480000Y-67844000D03*
X99450000Y-56500000D03*
X109050000Y-103900000D03*
X101450000Y-84500000D03*
X91750000Y-105400000D03*
X74600000Y-103800000D03*
X70330000Y-52578000D03*
X67500000Y-88800000D03*
X97950000Y-72100000D03*
X50400000Y-81200000D03*
X72080000Y-52578000D03*
X93500000Y-103900000D03*
X118200000Y-51400000D03*
X72850000Y-103800000D03*
X66000000Y-71500000D03*
X109050000Y-105400000D03*
X117800000Y-97800000D03*
X111650000Y-79300000D03*
X101450000Y-72100000D03*
X58500000Y-87050000D03*
X72080000Y-51078000D03*
X50400000Y-84700000D03*
X82400000Y-56500000D03*
X101200000Y-55000000D03*
X65750000Y-94200000D03*
X93500000Y-105400000D03*
X110800000Y-105400000D03*
X58600000Y-105300000D03*
X89100000Y-73550000D03*
X50400000Y-74700000D03*
X83450000Y-94200000D03*
X52730000Y-52594000D03*
X101450000Y-83000000D03*
X106000000Y-63300000D03*
X117800000Y-96050000D03*
X66000000Y-87050000D03*
X118200000Y-47900000D03*
X84150000Y-55000000D03*
X67500000Y-94200000D03*
X67500000Y-71500000D03*
X55100000Y-103800000D03*
X99700000Y-84500000D03*
X99700000Y-72100000D03*
X56980000Y-71344000D03*
X82400000Y-55000000D03*
X119700000Y-49650000D03*
X50800000Y-92250000D03*
X90600000Y-73550000D03*
X67500000Y-73250000D03*
X66000000Y-88800000D03*
X97700000Y-56500000D03*
X101450000Y-70600000D03*
X52000000Y-60300000D03*
X90600000Y-75300000D03*
X115150000Y-79300000D03*
X53200000Y-61500000D03*
X80650000Y-56500000D03*
X110800000Y-103900000D03*
X70330000Y-51078000D03*
X43600000Y-61200000D03*
X76350000Y-103800000D03*
X113400000Y-79300000D03*
X43600000Y-66300000D03*
X50800000Y-59100000D03*
X50800000Y-94000000D03*
X117800000Y-94300000D03*
X99450000Y-55000000D03*
X67500000Y-87050000D03*
X80650000Y-55000000D03*
X84150000Y-56500000D03*
X56850000Y-103800000D03*
X106000000Y-53200000D03*
X56980000Y-69594000D03*
X66000000Y-75000000D03*
X68580000Y-52578000D03*
X58480000Y-71344000D03*
X107300000Y-105400000D03*
X91750000Y-103900000D03*
X118200000Y-49650000D03*
X43600000Y-56200000D03*
X89100000Y-71800000D03*
X66000000Y-85300000D03*
X108100000Y-53200000D03*
X85200000Y-94200000D03*
X99700000Y-83000000D03*
X76350000Y-105300000D03*
X98550000Y-94200000D03*
X99700000Y-70600000D03*
X50400000Y-77700000D03*
X97950000Y-84500000D03*
X97700000Y-55000000D03*
X50400000Y-71500000D03*
X58480000Y-69594000D03*
X49000000Y-70000000D03*
X97950000Y-70600000D03*
X67500000Y-85300000D03*
X119700000Y-47900000D03*
X90000000Y-103900000D03*
X66000000Y-73250000D03*
X58600000Y-103800000D03*
X81700000Y-94200000D03*
X54480000Y-51094000D03*
X54480000Y-52594000D03*
X56980000Y-67844000D03*
X72850000Y-105300000D03*
X56230000Y-51094000D03*
X43400000Y-79200000D03*
X56850000Y-105300000D03*
X97950000Y-83000000D03*
X67500000Y-75000000D03*
X111650000Y-77800000D03*
X113400000Y-77800000D03*
X49400000Y-57900000D03*
X56230000Y-52594000D03*
X119700000Y-51400000D03*
X100300000Y-94200000D03*
X57000000Y-88800000D03*
X74600000Y-105300000D03*
X58500000Y-88800000D03*
X43900000Y-52600000D03*
X106000000Y-59300000D03*
X64000000Y-94200000D03*
X57000000Y-85300000D03*
X50800000Y-90500000D03*
X55100000Y-105300000D03*
X43900000Y-51100000D03*
X90000000Y-105400000D03*
X101200000Y-56500000D03*
X68580000Y-51078000D03*
X102050000Y-94200000D03*
X58500000Y-85300000D03*
X89100000Y-75300000D03*
X90600000Y-71800000D03*
X107300000Y-103900000D03*
X52730000Y-51094000D03*
X57000000Y-87050000D03*
%TO.N,VDD*%
X57597600Y-82797600D03*
%TD*%
%TO.N,Net-(Q3-B)*%
D27*
X75800000Y-62100000D02*
X87340000Y-62100000D01*
X87340000Y-62100000D02*
X89840000Y-59600000D01*
%TO.N,/AREF_Pin*%
D28*
X77100000Y-94200000D02*
X79900000Y-97000000D01*
X79900000Y-97000000D02*
X91450000Y-97000000D01*
X91450000Y-97000000D02*
X94250000Y-94200000D01*
X59350000Y-94200000D02*
X62150000Y-97000000D01*
X62150000Y-97000000D02*
X74300000Y-97000000D01*
X74300000Y-97000000D02*
X77100000Y-94200000D01*
X94250000Y-94200000D02*
X96450000Y-96400000D01*
X96450000Y-96400000D02*
X109250000Y-96400000D01*
X109250000Y-96400000D02*
X111450000Y-94200000D01*
X47000000Y-97200000D02*
X56350000Y-97200000D01*
X56350000Y-97200000D02*
X59350000Y-94200000D01*
X44700000Y-96200000D02*
X45700000Y-97200000D01*
X45700000Y-97200000D02*
X47000000Y-97200000D01*
X46990000Y-56134000D02*
X44700000Y-58424000D01*
D27*
X46990000Y-56134000D02*
X46609000Y-56134000D01*
D28*
X44700000Y-58424000D02*
X44700000Y-96200000D01*
%TO.N,/Temp_Pot*%
D27*
X56540254Y-91875000D02*
X106625000Y-91875000D01*
X53025000Y-64709000D02*
X53025000Y-88359746D01*
X53025000Y-88359746D02*
X56540254Y-91875000D01*
X46990000Y-58674000D02*
X53025000Y-64709000D01*
X106625000Y-91875000D02*
X108950000Y-94200000D01*
%TO.N,/INJ_CH4*%
D28*
X95472000Y-53128000D02*
X98600000Y-50000000D01*
X92380000Y-62868528D02*
X95472000Y-59776528D01*
X95472000Y-59776528D02*
X95472000Y-53128000D01*
X98600000Y-50000000D02*
X98682000Y-50000000D01*
X92380000Y-65600000D02*
X92380000Y-62868528D01*
%TO.N,Net-(Q4-B)*%
D27*
X75800000Y-68300000D02*
X87140000Y-68300000D01*
X87140000Y-68300000D02*
X89840000Y-65600000D01*
%TO.N,Temp_-*%
D29*
X114560000Y-56350000D02*
X117478000Y-56350000D01*
X109110000Y-61800000D02*
X114560000Y-56350000D01*
X113922000Y-52794000D02*
X117478000Y-56350000D01*
X113922000Y-50000000D02*
X113922000Y-52794000D01*
%TO.N,Temp_+*%
X110112000Y-53556000D02*
X110112000Y-50000000D01*
X107318000Y-56350000D02*
X110112000Y-53556000D01*
%TO.N,/GD_CH1*%
D27*
X62230000Y-56134000D02*
X65096000Y-59000000D01*
X65096000Y-59000000D02*
X65640000Y-59000000D01*
%TO.N,Net-(Q1-B)*%
X75800000Y-59000000D02*
X76599999Y-58200001D01*
X80840001Y-58200001D02*
X82240000Y-59600000D01*
X76599999Y-58200001D02*
X80840001Y-58200001D01*
%TO.N,/FREQ_Pot*%
D30*
X73200000Y-92800000D02*
X74600000Y-94200000D01*
X52100000Y-68864000D02*
X52100000Y-88742894D01*
X56157106Y-92800000D02*
X73200000Y-92800000D01*
X52100000Y-88742894D02*
X56157106Y-92800000D01*
X46990000Y-63754000D02*
X52100000Y-68864000D01*
%TO.N,/INJ_CH3*%
D28*
X87380000Y-63000000D02*
X91400000Y-63000000D01*
X84780000Y-65600000D02*
X87380000Y-63000000D01*
X94872000Y-59528000D02*
X94872000Y-50000000D01*
X91400000Y-63000000D02*
X94872000Y-59528000D01*
%TO.N,Net-(Q2-B)*%
D27*
X80940000Y-64300000D02*
X76700000Y-64300000D01*
X82240000Y-65600000D02*
X80940000Y-64300000D01*
X76700000Y-64300000D02*
X75800000Y-65200000D01*
%TO.N,VDD*%
D28*
X49000000Y-93900000D02*
X47000000Y-95900000D01*
X57597600Y-82797600D02*
X70702400Y-82797600D01*
X46990000Y-78994000D02*
X49000000Y-81004000D01*
X71300000Y-82200000D02*
X73800000Y-82200000D01*
X70702400Y-82797600D02*
X71300000Y-82200000D01*
X49000000Y-81004000D02*
X49000000Y-93900000D01*
%TO.N,Net-(Q5-B)*%
D27*
X106900000Y-68300000D02*
X111650000Y-63550000D01*
X111650000Y-63550000D02*
X111650000Y-61800000D01*
X103100000Y-66442000D02*
X105042000Y-66442000D01*
X105042000Y-66442000D02*
X106900000Y-68300000D01*
%TO.N,Flex_SNSR_Signal*%
X102940000Y-53362000D02*
X106302000Y-50000000D01*
X99800000Y-64915000D02*
X102940000Y-61775000D01*
X102940000Y-61775000D02*
X102940000Y-53362000D01*
X99800000Y-66442000D02*
X99800000Y-64915000D01*
%TO.N,/Eperct_Pot*%
X56353858Y-92325000D02*
X89875000Y-92325000D01*
X46990000Y-61214000D02*
X52575000Y-66799000D01*
X52575000Y-88546142D02*
X56353858Y-92325000D01*
X89875000Y-92325000D02*
X91750000Y-94200000D01*
X52575000Y-66799000D02*
X52575000Y-88546142D01*
%TO.N,/PW_Pot*%
D30*
X46990000Y-66294000D02*
X51600000Y-70904000D01*
X51600000Y-70904000D02*
X51600000Y-88950000D01*
X51600000Y-88950000D02*
X56850000Y-94200000D01*
%TO.N,/MCU_D2*%
D27*
X66929604Y-79250000D02*
X93708000Y-79250000D01*
X62230000Y-76454000D02*
X64132190Y-76454000D01*
X66779604Y-79100000D02*
X66929604Y-79250000D01*
X66778190Y-79100000D02*
X66779604Y-79100000D01*
X93708000Y-79250000D02*
X96356000Y-76602000D01*
X64132190Y-76454000D02*
X66778190Y-79100000D01*
%TO.N,/MCU_D3*%
X67116000Y-78800000D02*
X92300000Y-78800000D01*
X62230000Y-73914000D02*
X67116000Y-78800000D01*
X92300000Y-78800000D02*
X96100000Y-75000000D01*
X96100000Y-75000000D02*
X101498000Y-75000000D01*
X101498000Y-75000000D02*
X103100000Y-76602000D01*
X103100000Y-76602000D02*
X104498000Y-76602000D01*
X104498000Y-76602000D02*
X106900000Y-74200000D01*
%TO.N,/GD_CH4*%
X63300000Y-68300000D02*
X65640000Y-68300000D01*
X62766000Y-68834000D02*
X63300000Y-68300000D01*
X62230000Y-68834000D02*
X62766000Y-68834000D01*
%TO.N,/GD_CH3*%
X63194000Y-66294000D02*
X64288000Y-65200000D01*
X62230000Y-66294000D02*
X63194000Y-66294000D01*
X64288000Y-65200000D02*
X65640000Y-65200000D01*
%TO.N,/GD_CH2*%
X62230000Y-58674000D02*
X65640000Y-62084000D01*
X65640000Y-62084000D02*
X65640000Y-62100000D01*
%TO.N,Net-(Q6-B)*%
X100400000Y-62398000D02*
X100400000Y-61775000D01*
X96356000Y-66442000D02*
X100400000Y-62398000D01*
%TO.N,/INJ_CH1*%
D28*
X87252000Y-57128000D02*
X87252000Y-50000000D01*
X84780000Y-59600000D02*
X87252000Y-57128000D01*
%TO.N,/INJ_CH2*%
X92380000Y-51318000D02*
X91062000Y-50000000D01*
D27*
X91062000Y-50000000D02*
X91062000Y-49288000D01*
D28*
X92380000Y-59600000D02*
X92380000Y-51318000D01*
%TD*%
%TA.AperFunction,Conductor*%
%TO.N,GND*%
G36*
X48559303Y-68783695D02*
G01*
X48565781Y-68789727D01*
X50913181Y-71137127D01*
X50946666Y-71198450D01*
X50949500Y-71224808D01*
X50949500Y-89014069D01*
X50949500Y-89014071D01*
X50949499Y-89014071D01*
X50974497Y-89139738D01*
X50974499Y-89139744D01*
X51023534Y-89258125D01*
X51094726Y-89364673D01*
X51094727Y-89364674D01*
X54468374Y-92738319D01*
X54501859Y-92799642D01*
X54496875Y-92869334D01*
X54455003Y-92925267D01*
X54389539Y-92949684D01*
X54380693Y-92950000D01*
X54251618Y-92950000D01*
X54057294Y-92980778D01*
X53870161Y-93041582D01*
X53694863Y-93130899D01*
X53694859Y-93130902D01*
X53659873Y-93156320D01*
X53659872Y-93156320D01*
X54220590Y-93717037D01*
X54157007Y-93734075D01*
X54042993Y-93799901D01*
X53949901Y-93892993D01*
X53884075Y-94007007D01*
X53867037Y-94070590D01*
X53306320Y-93509872D01*
X53306320Y-93509873D01*
X53280902Y-93544859D01*
X53280899Y-93544863D01*
X53191582Y-93720161D01*
X53130778Y-93907294D01*
X53100000Y-94101617D01*
X53100000Y-94298382D01*
X53130778Y-94492705D01*
X53191581Y-94679835D01*
X53280905Y-94855145D01*
X53306319Y-94890125D01*
X53306320Y-94890125D01*
X53867037Y-94329408D01*
X53884075Y-94392993D01*
X53949901Y-94507007D01*
X54042993Y-94600099D01*
X54157007Y-94665925D01*
X54220590Y-94682962D01*
X53659873Y-95243677D01*
X53659873Y-95243678D01*
X53694858Y-95269096D01*
X53870164Y-95358418D01*
X54057294Y-95419221D01*
X54251618Y-95450000D01*
X54448382Y-95450000D01*
X54642705Y-95419221D01*
X54829835Y-95358418D01*
X55005143Y-95269095D01*
X55040125Y-95243678D01*
X55040126Y-95243678D01*
X54479410Y-94682962D01*
X54542993Y-94665925D01*
X54657007Y-94600099D01*
X54750099Y-94507007D01*
X54815925Y-94392993D01*
X54832962Y-94329409D01*
X55393678Y-94890126D01*
X55393678Y-94890125D01*
X55419097Y-94855141D01*
X55489234Y-94717488D01*
X55537208Y-94666692D01*
X55605029Y-94649896D01*
X55671164Y-94672433D01*
X55710204Y-94717488D01*
X55780474Y-94855403D01*
X55805702Y-94890125D01*
X55896172Y-95014646D01*
X56035354Y-95153828D01*
X56194595Y-95269524D01*
X56269214Y-95307544D01*
X56369970Y-95358882D01*
X56369972Y-95358882D01*
X56369975Y-95358884D01*
X56470317Y-95391487D01*
X56557173Y-95419709D01*
X56751578Y-95450500D01*
X56809480Y-95450500D01*
X56876519Y-95470185D01*
X56922274Y-95522989D01*
X56932218Y-95592147D01*
X56903193Y-95655703D01*
X56897161Y-95662181D01*
X56096162Y-96463181D01*
X56034839Y-96496666D01*
X56008481Y-96499500D01*
X48379500Y-96499500D01*
X48312461Y-96479815D01*
X48266706Y-96427011D01*
X48255500Y-96375500D01*
X48255500Y-95834180D01*
X48255499Y-95834166D01*
X48254112Y-95823635D01*
X48240328Y-95718934D01*
X48251093Y-95649901D01*
X48275583Y-95615072D01*
X49544114Y-94346543D01*
X49620775Y-94231811D01*
X49673580Y-94104328D01*
X49674120Y-94101617D01*
X49674153Y-94101450D01*
X49679900Y-94072559D01*
X49679900Y-94072558D01*
X49700499Y-93968997D01*
X49700500Y-93968994D01*
X49700500Y-80935004D01*
X49673581Y-80799677D01*
X49673580Y-80799676D01*
X49673580Y-80799672D01*
X49653273Y-80750647D01*
X49620775Y-80672189D01*
X49544114Y-80557457D01*
X49544112Y-80557454D01*
X48362394Y-79375736D01*
X48328909Y-79314413D01*
X48327602Y-79268657D01*
X48354100Y-79101356D01*
X48354100Y-78886643D01*
X48348718Y-78852662D01*
X48320511Y-78674573D01*
X48270489Y-78520619D01*
X48254162Y-78470369D01*
X48254161Y-78470366D01*
X48156682Y-78279055D01*
X48030477Y-78105349D01*
X47878651Y-77953523D01*
X47704944Y-77827317D01*
X47704943Y-77827316D01*
X47701002Y-77824453D01*
X47702405Y-77822521D01*
X47662078Y-77778073D01*
X47650558Y-77709160D01*
X47678125Y-77644958D01*
X47701709Y-77624521D01*
X47701002Y-77623547D01*
X47727332Y-77604417D01*
X47878651Y-77494477D01*
X48030477Y-77342651D01*
X48156683Y-77168944D01*
X48254161Y-76977633D01*
X48320511Y-76773427D01*
X48354100Y-76561357D01*
X48354100Y-76346643D01*
X48320511Y-76134573D01*
X48276786Y-76000000D01*
X48254162Y-75930369D01*
X48254161Y-75930366D01*
X48156682Y-75739055D01*
X48152605Y-75733443D01*
X48030477Y-75565349D01*
X47878651Y-75413523D01*
X47704944Y-75287317D01*
X47704943Y-75287316D01*
X47701002Y-75284453D01*
X47702405Y-75282521D01*
X47662078Y-75238073D01*
X47650558Y-75169160D01*
X47678125Y-75104958D01*
X47701709Y-75084521D01*
X47701002Y-75083547D01*
X47704944Y-75080683D01*
X47878651Y-74954477D01*
X48030477Y-74802651D01*
X48156683Y-74628944D01*
X48254161Y-74437633D01*
X48320511Y-74233427D01*
X48354100Y-74021357D01*
X48354100Y-73806643D01*
X48320511Y-73594573D01*
X48254161Y-73390367D01*
X48254161Y-73390366D01*
X48156682Y-73199055D01*
X48030477Y-73025349D01*
X47878651Y-72873523D01*
X47704944Y-72747317D01*
X47704943Y-72747316D01*
X47701002Y-72744453D01*
X47702405Y-72742521D01*
X47662078Y-72698073D01*
X47650558Y-72629160D01*
X47678125Y-72564958D01*
X47701709Y-72544521D01*
X47701002Y-72543547D01*
X47727801Y-72524076D01*
X47878651Y-72414477D01*
X48030477Y-72262651D01*
X48156683Y-72088944D01*
X48254161Y-71897633D01*
X48320511Y-71693427D01*
X48354100Y-71481357D01*
X48354100Y-71266643D01*
X48320511Y-71054573D01*
X48254161Y-70850367D01*
X48254161Y-70850366D01*
X48156682Y-70659055D01*
X48030477Y-70485349D01*
X47878651Y-70333523D01*
X47704944Y-70207317D01*
X47704943Y-70207316D01*
X47701002Y-70204453D01*
X47702405Y-70202521D01*
X47662078Y-70158073D01*
X47650558Y-70089160D01*
X47678125Y-70024958D01*
X47701709Y-70004521D01*
X47701002Y-70003547D01*
X47704944Y-70000683D01*
X47878651Y-69874477D01*
X48030477Y-69722651D01*
X48156683Y-69548944D01*
X48254161Y-69357633D01*
X48320511Y-69153427D01*
X48354100Y-68941357D01*
X48354100Y-68877408D01*
X48373785Y-68810369D01*
X48426589Y-68764614D01*
X48495747Y-68754670D01*
X48559303Y-68783695D01*
G37*
%TD.AperFunction*%
%TA.AperFunction,Conductor*%
G36*
X70879271Y-93451275D02*
G01*
X70881942Y-93450614D01*
X70912601Y-93461061D01*
X70943671Y-93470185D01*
X70945471Y-93472263D01*
X70948077Y-93473151D01*
X70968227Y-93498525D01*
X70989426Y-93522989D01*
X70989817Y-93525710D01*
X70991529Y-93527866D01*
X70994762Y-93560100D01*
X70999370Y-93592147D01*
X70998311Y-93595486D01*
X70998502Y-93597387D01*
X70987117Y-93630795D01*
X70941581Y-93720164D01*
X70880778Y-93907294D01*
X70850000Y-94101617D01*
X70850000Y-94298382D01*
X70880778Y-94492705D01*
X70941581Y-94679835D01*
X71030905Y-94855145D01*
X71056319Y-94890125D01*
X71056320Y-94890125D01*
X71617037Y-94329408D01*
X71634075Y-94392993D01*
X71699901Y-94507007D01*
X71792993Y-94600099D01*
X71907007Y-94665925D01*
X71970590Y-94682962D01*
X71409873Y-95243677D01*
X71409873Y-95243678D01*
X71444858Y-95269096D01*
X71620164Y-95358418D01*
X71807294Y-95419221D01*
X72001618Y-95450000D01*
X72198382Y-95450000D01*
X72392705Y-95419221D01*
X72579835Y-95358418D01*
X72755143Y-95269095D01*
X72790125Y-95243678D01*
X72790126Y-95243678D01*
X72229410Y-94682962D01*
X72292993Y-94665925D01*
X72407007Y-94600099D01*
X72500099Y-94507007D01*
X72565925Y-94392993D01*
X72582962Y-94329409D01*
X73143678Y-94890126D01*
X73143678Y-94890125D01*
X73169097Y-94855141D01*
X73239234Y-94717488D01*
X73287208Y-94666692D01*
X73355029Y-94649896D01*
X73421164Y-94672433D01*
X73460204Y-94717488D01*
X73530474Y-94855403D01*
X73555702Y-94890125D01*
X73646172Y-95014646D01*
X73785354Y-95153828D01*
X73944595Y-95269524D01*
X74019214Y-95307544D01*
X74119970Y-95358882D01*
X74119972Y-95358882D01*
X74119975Y-95358884D01*
X74220317Y-95391487D01*
X74307173Y-95419709D01*
X74501578Y-95450500D01*
X74559480Y-95450500D01*
X74626519Y-95470185D01*
X74672274Y-95522989D01*
X74682218Y-95592147D01*
X74653193Y-95655703D01*
X74647161Y-95662181D01*
X74046162Y-96263181D01*
X73984839Y-96296666D01*
X73958481Y-96299500D01*
X62491519Y-96299500D01*
X62424480Y-96279815D01*
X62403838Y-96263181D01*
X60636818Y-94496161D01*
X60603333Y-94434838D01*
X60600499Y-94408480D01*
X60600499Y-93574500D01*
X60620184Y-93507461D01*
X60672988Y-93461706D01*
X60724499Y-93450500D01*
X70876632Y-93450500D01*
X70879271Y-93451275D01*
G37*
%TD.AperFunction*%
%TA.AperFunction,Conductor*%
G36*
X88528565Y-92970185D02*
G01*
X88574320Y-93022989D01*
X88584264Y-93092147D01*
X88560896Y-93143314D01*
X88559872Y-93156320D01*
X89120590Y-93717037D01*
X89057007Y-93734075D01*
X88942993Y-93799901D01*
X88849901Y-93892993D01*
X88784075Y-94007007D01*
X88767037Y-94070590D01*
X88206320Y-93509872D01*
X88206320Y-93509873D01*
X88180902Y-93544859D01*
X88180899Y-93544863D01*
X88091582Y-93720161D01*
X88030778Y-93907294D01*
X88000000Y-94101617D01*
X88000000Y-94298382D01*
X88030778Y-94492705D01*
X88091581Y-94679835D01*
X88180905Y-94855145D01*
X88206319Y-94890125D01*
X88206320Y-94890125D01*
X88767037Y-94329408D01*
X88784075Y-94392993D01*
X88849901Y-94507007D01*
X88942993Y-94600099D01*
X89057007Y-94665925D01*
X89120590Y-94682962D01*
X88559873Y-95243677D01*
X88559873Y-95243678D01*
X88594858Y-95269096D01*
X88770164Y-95358418D01*
X88957294Y-95419221D01*
X89151618Y-95450000D01*
X89348382Y-95450000D01*
X89542705Y-95419221D01*
X89729835Y-95358418D01*
X89905143Y-95269095D01*
X89940125Y-95243678D01*
X89940126Y-95243678D01*
X89379410Y-94682962D01*
X89442993Y-94665925D01*
X89557007Y-94600099D01*
X89650099Y-94507007D01*
X89715925Y-94392993D01*
X89732962Y-94329409D01*
X90293678Y-94890126D01*
X90293678Y-94890125D01*
X90319097Y-94855141D01*
X90389234Y-94717488D01*
X90437208Y-94666692D01*
X90505029Y-94649896D01*
X90571164Y-94672433D01*
X90610204Y-94717488D01*
X90680474Y-94855403D01*
X90705702Y-94890125D01*
X90796172Y-95014646D01*
X90935354Y-95153828D01*
X91094595Y-95269524D01*
X91169214Y-95307544D01*
X91269970Y-95358882D01*
X91269972Y-95358882D01*
X91269975Y-95358884D01*
X91370317Y-95391487D01*
X91457173Y-95419709D01*
X91651578Y-95450500D01*
X91709480Y-95450500D01*
X91776519Y-95470185D01*
X91822274Y-95522989D01*
X91832218Y-95592147D01*
X91803193Y-95655703D01*
X91797161Y-95662181D01*
X91196162Y-96263181D01*
X91134839Y-96296666D01*
X91108481Y-96299500D01*
X80241519Y-96299500D01*
X80174480Y-96279815D01*
X80153838Y-96263181D01*
X78386818Y-94496161D01*
X78353333Y-94434838D01*
X78350499Y-94408480D01*
X78350499Y-93402129D01*
X78350498Y-93402123D01*
X78350497Y-93402116D01*
X78344091Y-93342517D01*
X78308157Y-93246174D01*
X78293797Y-93207671D01*
X78293795Y-93207668D01*
X78293792Y-93207664D01*
X78249734Y-93148810D01*
X78225317Y-93083348D01*
X78240168Y-93015075D01*
X78289573Y-92965669D01*
X78349001Y-92950500D01*
X88461526Y-92950500D01*
X88528565Y-92970185D01*
G37*
%TD.AperFunction*%
%TA.AperFunction,Conductor*%
G36*
X106381587Y-92520185D02*
G01*
X106402229Y-92536819D01*
X106603729Y-92738319D01*
X106637214Y-92799642D01*
X106632230Y-92869334D01*
X106590358Y-92925267D01*
X106524894Y-92949684D01*
X106516048Y-92950000D01*
X106351618Y-92950000D01*
X106157294Y-92980778D01*
X105970161Y-93041582D01*
X105794863Y-93130899D01*
X105794859Y-93130902D01*
X105759873Y-93156320D01*
X105759872Y-93156320D01*
X106320590Y-93717037D01*
X106257007Y-93734075D01*
X106142993Y-93799901D01*
X106049901Y-93892993D01*
X105984075Y-94007007D01*
X105967037Y-94070590D01*
X105406320Y-93509872D01*
X105406320Y-93509873D01*
X105380902Y-93544859D01*
X105380899Y-93544863D01*
X105291582Y-93720161D01*
X105230778Y-93907294D01*
X105200000Y-94101617D01*
X105200000Y-94298382D01*
X105230778Y-94492705D01*
X105291581Y-94679835D01*
X105380905Y-94855145D01*
X105406319Y-94890125D01*
X105406320Y-94890125D01*
X105967037Y-94329408D01*
X105984075Y-94392993D01*
X106049901Y-94507007D01*
X106142993Y-94600099D01*
X106257007Y-94665925D01*
X106320590Y-94682962D01*
X105759873Y-95243677D01*
X105759873Y-95243678D01*
X105794858Y-95269096D01*
X105970164Y-95358418D01*
X106157294Y-95419221D01*
X106351618Y-95450000D01*
X106548382Y-95450000D01*
X106742705Y-95419221D01*
X106929835Y-95358418D01*
X107105143Y-95269095D01*
X107140125Y-95243678D01*
X107140126Y-95243678D01*
X106579410Y-94682962D01*
X106642993Y-94665925D01*
X106757007Y-94600099D01*
X106850099Y-94507007D01*
X106915925Y-94392993D01*
X106932962Y-94329409D01*
X107493678Y-94890126D01*
X107493678Y-94890125D01*
X107519097Y-94855141D01*
X107589234Y-94717488D01*
X107637208Y-94666692D01*
X107705029Y-94649896D01*
X107771164Y-94672433D01*
X107810204Y-94717488D01*
X107880474Y-94855403D01*
X107905702Y-94890125D01*
X107996172Y-95014646D01*
X108135354Y-95153828D01*
X108294595Y-95269524D01*
X108369214Y-95307544D01*
X108469970Y-95358882D01*
X108469972Y-95358882D01*
X108469975Y-95358884D01*
X108570317Y-95391487D01*
X108657173Y-95419709D01*
X108851578Y-95450500D01*
X108909481Y-95450500D01*
X108930726Y-95456738D01*
X108952815Y-95458318D01*
X108963598Y-95466390D01*
X108976520Y-95470185D01*
X108991019Y-95486918D01*
X109008748Y-95500190D01*
X109013455Y-95512810D01*
X109022275Y-95522989D01*
X109025426Y-95544906D01*
X109033165Y-95565654D01*
X109030302Y-95578814D01*
X109032219Y-95592147D01*
X109023019Y-95612290D01*
X109018313Y-95633927D01*
X109005044Y-95651652D01*
X109003194Y-95655703D01*
X108997162Y-95662181D01*
X108996162Y-95663181D01*
X108934839Y-95696666D01*
X108908481Y-95699500D01*
X96791519Y-95699500D01*
X96724480Y-95679815D01*
X96703838Y-95663181D01*
X95536818Y-94496161D01*
X95503333Y-94434838D01*
X95500499Y-94408480D01*
X95500499Y-93402129D01*
X95500498Y-93402123D01*
X95500497Y-93402116D01*
X95494091Y-93342517D01*
X95458157Y-93246174D01*
X95443797Y-93207671D01*
X95443793Y-93207664D01*
X95357547Y-93092455D01*
X95357544Y-93092452D01*
X95242335Y-93006206D01*
X95242328Y-93006202D01*
X95107482Y-92955908D01*
X95107483Y-92955908D01*
X95047883Y-92949501D01*
X95047881Y-92949500D01*
X95047873Y-92949500D01*
X95047864Y-92949500D01*
X93452129Y-92949500D01*
X93452123Y-92949501D01*
X93392516Y-92955908D01*
X93257671Y-93006202D01*
X93257664Y-93006206D01*
X93142455Y-93092452D01*
X93142452Y-93092455D01*
X93056206Y-93207664D01*
X93056202Y-93207671D01*
X93005908Y-93342517D01*
X93001303Y-93385354D01*
X92999501Y-93402123D01*
X92999500Y-93402135D01*
X92999500Y-93410678D01*
X92979815Y-93477717D01*
X92927011Y-93523472D01*
X92857853Y-93533416D01*
X92794297Y-93504391D01*
X92775182Y-93483564D01*
X92770934Y-93477717D01*
X92703828Y-93385354D01*
X92564646Y-93246172D01*
X92405405Y-93130476D01*
X92383838Y-93119487D01*
X92230029Y-93041117D01*
X92042826Y-92980290D01*
X91848422Y-92949500D01*
X91848417Y-92949500D01*
X91651583Y-92949500D01*
X91651578Y-92949500D01*
X91483067Y-92976189D01*
X91413773Y-92967234D01*
X91375988Y-92941397D01*
X91303925Y-92869334D01*
X91146770Y-92712180D01*
X91113286Y-92650858D01*
X91118270Y-92581167D01*
X91160141Y-92525233D01*
X91225606Y-92500816D01*
X91234452Y-92500500D01*
X106314548Y-92500500D01*
X106381587Y-92520185D01*
G37*
%TD.AperFunction*%
%TA.AperFunction,Conductor*%
G36*
X91600900Y-63694332D02*
G01*
X91656077Y-63737195D01*
X91679322Y-63803084D01*
X91679500Y-63809722D01*
X91679500Y-64227648D01*
X91659815Y-64294687D01*
X91607011Y-64340442D01*
X91568755Y-64350938D01*
X91522516Y-64355909D01*
X91387671Y-64406202D01*
X91387664Y-64406206D01*
X91272455Y-64492452D01*
X91272452Y-64492455D01*
X91186206Y-64607664D01*
X91186204Y-64607669D01*
X91135908Y-64742517D01*
X91131303Y-64785354D01*
X91129501Y-64802123D01*
X91129500Y-64802135D01*
X91129500Y-64865732D01*
X91109815Y-64932771D01*
X91057011Y-64978526D01*
X90987853Y-64988470D01*
X90924297Y-64959445D01*
X90905182Y-64938618D01*
X90806020Y-64802135D01*
X90793828Y-64785354D01*
X90654646Y-64646172D01*
X90495405Y-64530476D01*
X90487698Y-64526549D01*
X90320029Y-64441117D01*
X90132826Y-64380290D01*
X89938422Y-64349500D01*
X89938417Y-64349500D01*
X89741583Y-64349500D01*
X89741578Y-64349500D01*
X89547173Y-64380290D01*
X89359970Y-64441117D01*
X89184594Y-64530476D01*
X89130915Y-64569477D01*
X89025354Y-64646172D01*
X89025352Y-64646174D01*
X89025351Y-64646174D01*
X88886174Y-64785351D01*
X88886174Y-64785352D01*
X88886172Y-64785354D01*
X88873980Y-64802135D01*
X88770476Y-64944594D01*
X88680204Y-65121764D01*
X88632229Y-65172560D01*
X88564408Y-65189355D01*
X88498274Y-65166818D01*
X88459234Y-65121764D01*
X88369096Y-64944858D01*
X88343678Y-64909873D01*
X88343677Y-64909873D01*
X87700000Y-65553552D01*
X87700000Y-65547339D01*
X87672741Y-65445606D01*
X87620080Y-65354394D01*
X87545606Y-65279920D01*
X87454394Y-65227259D01*
X87352661Y-65200000D01*
X87346445Y-65200000D01*
X87990125Y-64556320D01*
X87990125Y-64556319D01*
X87955145Y-64530905D01*
X87779835Y-64441581D01*
X87592705Y-64380778D01*
X87398382Y-64350000D01*
X87320018Y-64350000D01*
X87252979Y-64330315D01*
X87207224Y-64277511D01*
X87197280Y-64208353D01*
X87226305Y-64144797D01*
X87232327Y-64138329D01*
X87633838Y-63736819D01*
X87695161Y-63703334D01*
X87721519Y-63700500D01*
X91468996Y-63700500D01*
X91531308Y-63688105D01*
X91600900Y-63694332D01*
G37*
%TD.AperFunction*%
%TA.AperFunction,Conductor*%
G36*
X120208363Y-45220185D02*
G01*
X120229005Y-45236819D01*
X121463181Y-46470995D01*
X121496666Y-46532318D01*
X121499500Y-46558676D01*
X121499500Y-106141324D01*
X121479815Y-106208363D01*
X121463181Y-106229005D01*
X120229005Y-107463181D01*
X120167682Y-107496666D01*
X120141324Y-107499500D01*
X44258676Y-107499500D01*
X44191637Y-107479815D01*
X44170995Y-107463181D01*
X42936819Y-106229005D01*
X42903334Y-106167682D01*
X42900500Y-106141324D01*
X42900500Y-101573310D01*
X49867000Y-101573310D01*
X49867000Y-101826689D01*
X49867001Y-101826706D01*
X49900072Y-102077908D01*
X49900073Y-102077913D01*
X49900074Y-102077919D01*
X49900075Y-102077921D01*
X49965656Y-102322676D01*
X50062619Y-102556767D01*
X50062626Y-102556782D01*
X50189319Y-102776222D01*
X50343575Y-102977250D01*
X50343583Y-102977259D01*
X50522741Y-103156417D01*
X50522749Y-103156424D01*
X50723777Y-103310680D01*
X50943217Y-103437373D01*
X50943232Y-103437380D01*
X51044114Y-103479166D01*
X51177324Y-103534344D01*
X51422081Y-103599926D01*
X51673304Y-103633000D01*
X51673311Y-103633000D01*
X51926689Y-103633000D01*
X51926696Y-103633000D01*
X52177919Y-103599926D01*
X52422676Y-103534344D01*
X52656779Y-103437375D01*
X52876222Y-103310680D01*
X53077250Y-103156425D01*
X53077254Y-103156420D01*
X53077259Y-103156417D01*
X53256417Y-102977259D01*
X53256420Y-102977254D01*
X53256425Y-102977250D01*
X53410680Y-102776222D01*
X53537375Y-102556779D01*
X53634344Y-102322676D01*
X53699926Y-102077919D01*
X53733000Y-101826696D01*
X53733000Y-101573310D01*
X59967000Y-101573310D01*
X59967000Y-101826689D01*
X59967001Y-101826706D01*
X60000072Y-102077908D01*
X60000073Y-102077913D01*
X60000074Y-102077919D01*
X60000075Y-102077921D01*
X60065656Y-102322676D01*
X60162619Y-102556767D01*
X60162626Y-102556782D01*
X60289319Y-102776222D01*
X60443575Y-102977250D01*
X60443583Y-102977259D01*
X60622741Y-103156417D01*
X60622749Y-103156424D01*
X60823777Y-103310680D01*
X61043217Y-103437373D01*
X61043232Y-103437380D01*
X61144114Y-103479166D01*
X61277324Y-103534344D01*
X61522081Y-103599926D01*
X61773304Y-103633000D01*
X61773311Y-103633000D01*
X62026689Y-103633000D01*
X62026696Y-103633000D01*
X62277919Y-103599926D01*
X62522676Y-103534344D01*
X62756779Y-103437375D01*
X62976222Y-103310680D01*
X63177250Y-103156425D01*
X63177254Y-103156420D01*
X63177259Y-103156417D01*
X63356417Y-102977259D01*
X63356420Y-102977254D01*
X63356425Y-102977250D01*
X63510680Y-102776222D01*
X63637375Y-102556779D01*
X63734344Y-102322676D01*
X63799926Y-102077919D01*
X63833000Y-101826696D01*
X63833000Y-101573310D01*
X67617000Y-101573310D01*
X67617000Y-101826689D01*
X67617001Y-101826706D01*
X67650072Y-102077908D01*
X67650073Y-102077913D01*
X67650074Y-102077919D01*
X67650075Y-102077921D01*
X67715656Y-102322676D01*
X67812619Y-102556767D01*
X67812626Y-102556782D01*
X67939319Y-102776222D01*
X68093575Y-102977250D01*
X68093583Y-102977259D01*
X68272741Y-103156417D01*
X68272749Y-103156424D01*
X68473777Y-103310680D01*
X68693217Y-103437373D01*
X68693232Y-103437380D01*
X68794114Y-103479166D01*
X68927324Y-103534344D01*
X69172081Y-103599926D01*
X69423304Y-103633000D01*
X69423311Y-103633000D01*
X69676689Y-103633000D01*
X69676696Y-103633000D01*
X69927919Y-103599926D01*
X70172676Y-103534344D01*
X70406779Y-103437375D01*
X70626222Y-103310680D01*
X70827250Y-103156425D01*
X70827254Y-103156420D01*
X70827259Y-103156417D01*
X71006417Y-102977259D01*
X71006420Y-102977254D01*
X71006425Y-102977250D01*
X71160680Y-102776222D01*
X71287375Y-102556779D01*
X71384344Y-102322676D01*
X71449926Y-102077919D01*
X71483000Y-101826696D01*
X71483000Y-101573310D01*
X77717000Y-101573310D01*
X77717000Y-101826689D01*
X77717001Y-101826706D01*
X77750072Y-102077908D01*
X77750073Y-102077913D01*
X77750074Y-102077919D01*
X77750075Y-102077921D01*
X77815656Y-102322676D01*
X77912619Y-102556767D01*
X77912626Y-102556782D01*
X78039319Y-102776222D01*
X78193575Y-102977250D01*
X78193583Y-102977259D01*
X78372741Y-103156417D01*
X78372749Y-103156424D01*
X78573777Y-103310680D01*
X78793217Y-103437373D01*
X78793232Y-103437380D01*
X78894114Y-103479166D01*
X79027324Y-103534344D01*
X79272081Y-103599926D01*
X79523304Y-103633000D01*
X79523311Y-103633000D01*
X79776689Y-103633000D01*
X79776696Y-103633000D01*
X80027919Y-103599926D01*
X80272676Y-103534344D01*
X80506779Y-103437375D01*
X80726222Y-103310680D01*
X80927250Y-103156425D01*
X80927254Y-103156420D01*
X80927259Y-103156417D01*
X81106417Y-102977259D01*
X81106420Y-102977254D01*
X81106425Y-102977250D01*
X81260680Y-102776222D01*
X81387375Y-102556779D01*
X81484344Y-102322676D01*
X81549926Y-102077919D01*
X81583000Y-101826696D01*
X81583000Y-101573310D01*
X84767000Y-101573310D01*
X84767000Y-101826689D01*
X84767001Y-101826706D01*
X84800072Y-102077908D01*
X84800073Y-102077913D01*
X84800074Y-102077919D01*
X84800075Y-102077921D01*
X84865656Y-102322676D01*
X84962619Y-102556767D01*
X84962626Y-102556782D01*
X85089319Y-102776222D01*
X85243575Y-102977250D01*
X85243583Y-102977259D01*
X85422741Y-103156417D01*
X85422749Y-103156424D01*
X85623777Y-103310680D01*
X85843217Y-103437373D01*
X85843232Y-103437380D01*
X85944114Y-103479166D01*
X86077324Y-103534344D01*
X86322081Y-103599926D01*
X86573304Y-103633000D01*
X86573311Y-103633000D01*
X86826689Y-103633000D01*
X86826696Y-103633000D01*
X87077919Y-103599926D01*
X87322676Y-103534344D01*
X87556779Y-103437375D01*
X87776222Y-103310680D01*
X87977250Y-103156425D01*
X87977254Y-103156420D01*
X87977259Y-103156417D01*
X88156417Y-102977259D01*
X88156420Y-102977254D01*
X88156425Y-102977250D01*
X88310680Y-102776222D01*
X88437375Y-102556779D01*
X88534344Y-102322676D01*
X88599926Y-102077919D01*
X88633000Y-101826696D01*
X88633000Y-101573310D01*
X94867000Y-101573310D01*
X94867000Y-101826689D01*
X94867001Y-101826706D01*
X94900072Y-102077908D01*
X94900073Y-102077913D01*
X94900074Y-102077919D01*
X94900075Y-102077921D01*
X94965656Y-102322676D01*
X95062619Y-102556767D01*
X95062626Y-102556782D01*
X95189319Y-102776222D01*
X95343575Y-102977250D01*
X95343583Y-102977259D01*
X95522741Y-103156417D01*
X95522749Y-103156424D01*
X95723777Y-103310680D01*
X95943217Y-103437373D01*
X95943232Y-103437380D01*
X96044114Y-103479166D01*
X96177324Y-103534344D01*
X96422081Y-103599926D01*
X96673304Y-103633000D01*
X96673311Y-103633000D01*
X96926689Y-103633000D01*
X96926696Y-103633000D01*
X97177919Y-103599926D01*
X97422676Y-103534344D01*
X97656779Y-103437375D01*
X97876222Y-103310680D01*
X98077250Y-103156425D01*
X98077254Y-103156420D01*
X98077259Y-103156417D01*
X98256417Y-102977259D01*
X98256420Y-102977254D01*
X98256425Y-102977250D01*
X98410680Y-102776222D01*
X98537375Y-102556779D01*
X98634344Y-102322676D01*
X98699926Y-102077919D01*
X98733000Y-101826696D01*
X98733000Y-101573310D01*
X101967000Y-101573310D01*
X101967000Y-101826689D01*
X101967001Y-101826706D01*
X102000072Y-102077908D01*
X102000073Y-102077913D01*
X102000074Y-102077919D01*
X102000075Y-102077921D01*
X102065656Y-102322676D01*
X102162619Y-102556767D01*
X102162626Y-102556782D01*
X102289319Y-102776222D01*
X102443575Y-102977250D01*
X102443583Y-102977259D01*
X102622741Y-103156417D01*
X102622749Y-103156424D01*
X102823777Y-103310680D01*
X103043217Y-103437373D01*
X103043232Y-103437380D01*
X103144114Y-103479166D01*
X103277324Y-103534344D01*
X103522081Y-103599926D01*
X103773304Y-103633000D01*
X103773311Y-103633000D01*
X104026689Y-103633000D01*
X104026696Y-103633000D01*
X104277919Y-103599926D01*
X104522676Y-103534344D01*
X104756779Y-103437375D01*
X104976222Y-103310680D01*
X105177250Y-103156425D01*
X105177254Y-103156420D01*
X105177259Y-103156417D01*
X105356417Y-102977259D01*
X105356420Y-102977254D01*
X105356425Y-102977250D01*
X105510680Y-102776222D01*
X105637375Y-102556779D01*
X105734344Y-102322676D01*
X105799926Y-102077919D01*
X105833000Y-101826696D01*
X105833000Y-101573310D01*
X112067000Y-101573310D01*
X112067000Y-101826689D01*
X112067001Y-101826706D01*
X112100072Y-102077908D01*
X112100073Y-102077913D01*
X112100074Y-102077919D01*
X112100075Y-102077921D01*
X112165656Y-102322676D01*
X112262619Y-102556767D01*
X112262626Y-102556782D01*
X112389319Y-102776222D01*
X112543575Y-102977250D01*
X112543583Y-102977259D01*
X112722741Y-103156417D01*
X112722749Y-103156424D01*
X112923777Y-103310680D01*
X113143217Y-103437373D01*
X113143232Y-103437380D01*
X113244114Y-103479166D01*
X113377324Y-103534344D01*
X113622081Y-103599926D01*
X113873304Y-103633000D01*
X113873311Y-103633000D01*
X114126689Y-103633000D01*
X114126696Y-103633000D01*
X114377919Y-103599926D01*
X114622676Y-103534344D01*
X114856779Y-103437375D01*
X115076222Y-103310680D01*
X115277250Y-103156425D01*
X115277254Y-103156420D01*
X115277259Y-103156417D01*
X115456417Y-102977259D01*
X115456420Y-102977254D01*
X115456425Y-102977250D01*
X115610680Y-102776222D01*
X115737375Y-102556779D01*
X115834344Y-102322676D01*
X115899926Y-102077919D01*
X115933000Y-101826696D01*
X115933000Y-101573304D01*
X115899926Y-101322081D01*
X115834344Y-101077324D01*
X115737375Y-100843221D01*
X115737373Y-100843217D01*
X115610680Y-100623777D01*
X115456424Y-100422749D01*
X115456417Y-100422741D01*
X115277259Y-100243583D01*
X115277250Y-100243575D01*
X115076222Y-100089319D01*
X114856782Y-99962626D01*
X114856767Y-99962619D01*
X114622676Y-99865656D01*
X114377919Y-99800074D01*
X114377913Y-99800073D01*
X114377908Y-99800072D01*
X114126706Y-99767001D01*
X114126701Y-99767000D01*
X114126696Y-99767000D01*
X113873304Y-99767000D01*
X113873298Y-99767000D01*
X113873293Y-99767001D01*
X113622091Y-99800072D01*
X113622084Y-99800073D01*
X113622081Y-99800074D01*
X113518630Y-99827793D01*
X113377323Y-99865656D01*
X113143232Y-99962619D01*
X113143217Y-99962626D01*
X112923777Y-100089319D01*
X112722749Y-100243575D01*
X112543575Y-100422749D01*
X112389319Y-100623777D01*
X112262626Y-100843217D01*
X112262619Y-100843232D01*
X112165656Y-101077323D01*
X112100075Y-101322078D01*
X112100072Y-101322091D01*
X112067001Y-101573293D01*
X112067000Y-101573310D01*
X105833000Y-101573310D01*
X105833000Y-101573304D01*
X105799926Y-101322081D01*
X105734344Y-101077324D01*
X105637375Y-100843221D01*
X105637373Y-100843217D01*
X105510680Y-100623777D01*
X105356424Y-100422749D01*
X105356417Y-100422741D01*
X105177259Y-100243583D01*
X105177250Y-100243575D01*
X104976222Y-100089319D01*
X104756782Y-99962626D01*
X104756767Y-99962619D01*
X104522676Y-99865656D01*
X104277919Y-99800074D01*
X104277913Y-99800073D01*
X104277908Y-99800072D01*
X104026706Y-99767001D01*
X104026701Y-99767000D01*
X104026696Y-99767000D01*
X103773304Y-99767000D01*
X103773298Y-99767000D01*
X103773293Y-99767001D01*
X103522091Y-99800072D01*
X103522084Y-99800073D01*
X103522081Y-99800074D01*
X103418630Y-99827793D01*
X103277323Y-99865656D01*
X103043232Y-99962619D01*
X103043217Y-99962626D01*
X102823777Y-100089319D01*
X102622749Y-100243575D01*
X102443575Y-100422749D01*
X102289319Y-100623777D01*
X102162626Y-100843217D01*
X102162619Y-100843232D01*
X102065656Y-101077323D01*
X102000075Y-101322078D01*
X102000072Y-101322091D01*
X101967001Y-101573293D01*
X101967000Y-101573310D01*
X98733000Y-101573310D01*
X98733000Y-101573304D01*
X98699926Y-101322081D01*
X98634344Y-101077324D01*
X98537375Y-100843221D01*
X98537373Y-100843217D01*
X98410680Y-100623777D01*
X98256424Y-100422749D01*
X98256417Y-100422741D01*
X98077259Y-100243583D01*
X98077250Y-100243575D01*
X97876222Y-100089319D01*
X97656782Y-99962626D01*
X97656767Y-99962619D01*
X97422676Y-99865656D01*
X97177919Y-99800074D01*
X97177913Y-99800073D01*
X97177908Y-99800072D01*
X96926706Y-99767001D01*
X96926701Y-99767000D01*
X96926696Y-99767000D01*
X96673304Y-99767000D01*
X96673298Y-99767000D01*
X96673293Y-99767001D01*
X96422091Y-99800072D01*
X96422084Y-99800073D01*
X96422081Y-99800074D01*
X96318630Y-99827793D01*
X96177323Y-99865656D01*
X95943232Y-99962619D01*
X95943217Y-99962626D01*
X95723777Y-100089319D01*
X95522749Y-100243575D01*
X95343575Y-100422749D01*
X95189319Y-100623777D01*
X95062626Y-100843217D01*
X95062619Y-100843232D01*
X94965656Y-101077323D01*
X94900075Y-101322078D01*
X94900072Y-101322091D01*
X94867001Y-101573293D01*
X94867000Y-101573310D01*
X88633000Y-101573310D01*
X88633000Y-101573304D01*
X88599926Y-101322081D01*
X88534344Y-101077324D01*
X88437375Y-100843221D01*
X88437373Y-100843217D01*
X88310680Y-100623777D01*
X88156424Y-100422749D01*
X88156417Y-100422741D01*
X87977259Y-100243583D01*
X87977250Y-100243575D01*
X87776222Y-100089319D01*
X87556782Y-99962626D01*
X87556767Y-99962619D01*
X87322676Y-99865656D01*
X87077919Y-99800074D01*
X87077913Y-99800073D01*
X87077908Y-99800072D01*
X86826706Y-99767001D01*
X86826701Y-99767000D01*
X86826696Y-99767000D01*
X86573304Y-99767000D01*
X86573298Y-99767000D01*
X86573293Y-99767001D01*
X86322091Y-99800072D01*
X86322084Y-99800073D01*
X86322081Y-99800074D01*
X86218630Y-99827793D01*
X86077323Y-99865656D01*
X85843232Y-99962619D01*
X85843217Y-99962626D01*
X85623777Y-100089319D01*
X85422749Y-100243575D01*
X85243575Y-100422749D01*
X85089319Y-100623777D01*
X84962626Y-100843217D01*
X84962619Y-100843232D01*
X84865656Y-101077323D01*
X84800075Y-101322078D01*
X84800072Y-101322091D01*
X84767001Y-101573293D01*
X84767000Y-101573310D01*
X81583000Y-101573310D01*
X81583000Y-101573304D01*
X81549926Y-101322081D01*
X81484344Y-101077324D01*
X81387375Y-100843221D01*
X81387373Y-100843217D01*
X81260680Y-100623777D01*
X81106424Y-100422749D01*
X81106417Y-100422741D01*
X80927259Y-100243583D01*
X80927250Y-100243575D01*
X80726222Y-100089319D01*
X80506782Y-99962626D01*
X80506767Y-99962619D01*
X80272676Y-99865656D01*
X80027919Y-99800074D01*
X80027913Y-99800073D01*
X80027908Y-99800072D01*
X79776706Y-99767001D01*
X79776701Y-99767000D01*
X79776696Y-99767000D01*
X79523304Y-99767000D01*
X79523298Y-99767000D01*
X79523293Y-99767001D01*
X79272091Y-99800072D01*
X79272084Y-99800073D01*
X79272081Y-99800074D01*
X79168630Y-99827793D01*
X79027323Y-99865656D01*
X78793232Y-99962619D01*
X78793217Y-99962626D01*
X78573777Y-100089319D01*
X78372749Y-100243575D01*
X78193575Y-100422749D01*
X78039319Y-100623777D01*
X77912626Y-100843217D01*
X77912619Y-100843232D01*
X77815656Y-101077323D01*
X77750075Y-101322078D01*
X77750072Y-101322091D01*
X77717001Y-101573293D01*
X77717000Y-101573310D01*
X71483000Y-101573310D01*
X71483000Y-101573304D01*
X71449926Y-101322081D01*
X71384344Y-101077324D01*
X71287375Y-100843221D01*
X71287373Y-100843217D01*
X71160680Y-100623777D01*
X71006424Y-100422749D01*
X71006417Y-100422741D01*
X70827259Y-100243583D01*
X70827250Y-100243575D01*
X70626222Y-100089319D01*
X70406782Y-99962626D01*
X70406767Y-99962619D01*
X70172676Y-99865656D01*
X69927919Y-99800074D01*
X69927913Y-99800073D01*
X69927908Y-99800072D01*
X69676706Y-99767001D01*
X69676701Y-99767000D01*
X69676696Y-99767000D01*
X69423304Y-99767000D01*
X69423298Y-99767000D01*
X69423293Y-99767001D01*
X69172091Y-99800072D01*
X69172084Y-99800073D01*
X69172081Y-99800074D01*
X69068630Y-99827793D01*
X68927323Y-99865656D01*
X68693232Y-99962619D01*
X68693217Y-99962626D01*
X68473777Y-100089319D01*
X68272749Y-100243575D01*
X68093575Y-100422749D01*
X67939319Y-100623777D01*
X67812626Y-100843217D01*
X67812619Y-100843232D01*
X67715656Y-101077323D01*
X67650075Y-101322078D01*
X67650072Y-101322091D01*
X67617001Y-101573293D01*
X67617000Y-101573310D01*
X63833000Y-101573310D01*
X63833000Y-101573304D01*
X63799926Y-101322081D01*
X63734344Y-101077324D01*
X63637375Y-100843221D01*
X63637373Y-100843217D01*
X63510680Y-100623777D01*
X63356424Y-100422749D01*
X63356417Y-100422741D01*
X63177259Y-100243583D01*
X63177250Y-100243575D01*
X62976222Y-100089319D01*
X62756782Y-99962626D01*
X62756767Y-99962619D01*
X62522676Y-99865656D01*
X62277919Y-99800074D01*
X62277913Y-99800073D01*
X62277908Y-99800072D01*
X62026706Y-99767001D01*
X62026701Y-99767000D01*
X62026696Y-99767000D01*
X61773304Y-99767000D01*
X61773298Y-99767000D01*
X61773293Y-99767001D01*
X61522091Y-99800072D01*
X61522084Y-99800073D01*
X61522081Y-99800074D01*
X61418630Y-99827793D01*
X61277323Y-99865656D01*
X61043232Y-99962619D01*
X61043217Y-99962626D01*
X60823777Y-100089319D01*
X60622749Y-100243575D01*
X60443575Y-100422749D01*
X60289319Y-100623777D01*
X60162626Y-100843217D01*
X60162619Y-100843232D01*
X60065656Y-101077323D01*
X60000075Y-101322078D01*
X60000072Y-101322091D01*
X59967001Y-101573293D01*
X59967000Y-101573310D01*
X53733000Y-101573310D01*
X53733000Y-101573304D01*
X53699926Y-101322081D01*
X53634344Y-101077324D01*
X53537375Y-100843221D01*
X53537373Y-100843217D01*
X53410680Y-100623777D01*
X53256424Y-100422749D01*
X53256417Y-100422741D01*
X53077259Y-100243583D01*
X53077250Y-100243575D01*
X52876222Y-100089319D01*
X52656782Y-99962626D01*
X52656767Y-99962619D01*
X52422676Y-99865656D01*
X52177919Y-99800074D01*
X52177913Y-99800073D01*
X52177908Y-99800072D01*
X51926706Y-99767001D01*
X51926701Y-99767000D01*
X51926696Y-99767000D01*
X51673304Y-99767000D01*
X51673298Y-99767000D01*
X51673293Y-99767001D01*
X51422091Y-99800072D01*
X51422084Y-99800073D01*
X51422081Y-99800074D01*
X51318630Y-99827793D01*
X51177323Y-99865656D01*
X50943232Y-99962619D01*
X50943217Y-99962626D01*
X50723777Y-100089319D01*
X50522749Y-100243575D01*
X50343575Y-100422749D01*
X50189319Y-100623777D01*
X50062626Y-100843217D01*
X50062619Y-100843232D01*
X49965656Y-101077323D01*
X49900075Y-101322078D01*
X49900072Y-101322091D01*
X49867001Y-101573293D01*
X49867000Y-101573310D01*
X42900500Y-101573310D01*
X42900500Y-96268996D01*
X43999499Y-96268996D01*
X44026418Y-96404322D01*
X44026421Y-96404332D01*
X44079222Y-96531807D01*
X44155887Y-96646545D01*
X45253454Y-97744112D01*
X45368192Y-97820777D01*
X45495667Y-97873578D01*
X45495672Y-97873580D01*
X45495676Y-97873580D01*
X45495677Y-97873581D01*
X45631003Y-97900500D01*
X45631006Y-97900500D01*
X45631007Y-97900500D01*
X45977148Y-97900500D01*
X46044187Y-97920185D01*
X46064829Y-97936819D01*
X46085551Y-97957541D01*
X46085555Y-97957544D01*
X46190232Y-98037867D01*
X46190236Y-98037869D01*
X46190243Y-98037875D01*
X46190250Y-98037879D01*
X46304248Y-98103696D01*
X46304249Y-98103697D01*
X46304252Y-98103698D01*
X46304257Y-98103701D01*
X46426171Y-98154200D01*
X46553338Y-98188275D01*
X46684174Y-98205500D01*
X46684181Y-98205500D01*
X47315819Y-98205500D01*
X47315826Y-98205500D01*
X47446662Y-98188275D01*
X47573829Y-98154200D01*
X47695743Y-98103701D01*
X47809757Y-98037875D01*
X47914449Y-97957541D01*
X47935171Y-97936819D01*
X47996494Y-97903334D01*
X48022852Y-97900500D01*
X56418996Y-97900500D01*
X56510040Y-97882389D01*
X56554328Y-97873580D01*
X56618069Y-97847177D01*
X56681807Y-97820777D01*
X56681808Y-97820776D01*
X56681811Y-97820775D01*
X56796543Y-97744114D01*
X59053838Y-95486817D01*
X59115161Y-95453333D01*
X59141519Y-95450499D01*
X59558480Y-95450499D01*
X59625519Y-95470184D01*
X59646161Y-95486818D01*
X61703453Y-97544111D01*
X61703454Y-97544112D01*
X61818192Y-97620777D01*
X61945667Y-97673578D01*
X61945672Y-97673580D01*
X61945676Y-97673580D01*
X61945677Y-97673581D01*
X62081003Y-97700500D01*
X62081006Y-97700500D01*
X74368996Y-97700500D01*
X74460040Y-97682389D01*
X74504328Y-97673580D01*
X74568069Y-97647177D01*
X74631807Y-97620777D01*
X74631808Y-97620776D01*
X74631811Y-97620775D01*
X74746543Y-97544114D01*
X76803838Y-95486817D01*
X76865161Y-95453333D01*
X76891519Y-95450499D01*
X77308480Y-95450499D01*
X77375519Y-95470184D01*
X77396161Y-95486818D01*
X79453453Y-97544111D01*
X79453454Y-97544112D01*
X79568192Y-97620777D01*
X79695667Y-97673578D01*
X79695672Y-97673580D01*
X79695676Y-97673580D01*
X79695677Y-97673581D01*
X79831003Y-97700500D01*
X79831006Y-97700500D01*
X91518996Y-97700500D01*
X91610040Y-97682389D01*
X91654328Y-97673580D01*
X91718069Y-97647177D01*
X91781807Y-97620777D01*
X91781808Y-97620776D01*
X91781811Y-97620775D01*
X91896543Y-97544114D01*
X93953838Y-95486817D01*
X94015161Y-95453333D01*
X94041519Y-95450499D01*
X94458480Y-95450499D01*
X94525519Y-95470184D01*
X94546161Y-95486818D01*
X96003453Y-96944111D01*
X96003454Y-96944112D01*
X96118192Y-97020777D01*
X96245667Y-97073578D01*
X96245672Y-97073580D01*
X96245676Y-97073580D01*
X96245677Y-97073581D01*
X96381003Y-97100500D01*
X96381006Y-97100500D01*
X109318996Y-97100500D01*
X109410040Y-97082389D01*
X109454328Y-97073580D01*
X109518069Y-97047177D01*
X109581807Y-97020777D01*
X109581808Y-97020776D01*
X109581811Y-97020775D01*
X109696543Y-96944114D01*
X111153838Y-95486817D01*
X111215161Y-95453333D01*
X111241519Y-95450499D01*
X112247871Y-95450499D01*
X112247872Y-95450499D01*
X112307483Y-95444091D01*
X112442331Y-95393796D01*
X112557546Y-95307546D01*
X112643796Y-95192331D01*
X112694091Y-95057483D01*
X112700500Y-94997873D01*
X112700499Y-93402128D01*
X112694091Y-93342517D01*
X112658157Y-93246174D01*
X112643797Y-93207671D01*
X112643793Y-93207664D01*
X112557547Y-93092455D01*
X112557544Y-93092452D01*
X112442335Y-93006206D01*
X112442328Y-93006202D01*
X112307482Y-92955908D01*
X112307483Y-92955908D01*
X112247883Y-92949501D01*
X112247881Y-92949500D01*
X112247873Y-92949500D01*
X112247864Y-92949500D01*
X110652129Y-92949500D01*
X110652123Y-92949501D01*
X110592516Y-92955908D01*
X110457671Y-93006202D01*
X110457664Y-93006206D01*
X110342455Y-93092452D01*
X110342452Y-93092455D01*
X110256206Y-93207664D01*
X110256202Y-93207671D01*
X110205908Y-93342517D01*
X110201303Y-93385354D01*
X110199501Y-93402123D01*
X110199500Y-93402135D01*
X110199500Y-93410678D01*
X110179815Y-93477717D01*
X110127011Y-93523472D01*
X110057853Y-93533416D01*
X109994297Y-93504391D01*
X109975182Y-93483564D01*
X109970934Y-93477717D01*
X109903828Y-93385354D01*
X109764646Y-93246172D01*
X109605405Y-93130476D01*
X109583838Y-93119487D01*
X109430029Y-93041117D01*
X109242826Y-92980290D01*
X109048422Y-92949500D01*
X109048417Y-92949500D01*
X108851583Y-92949500D01*
X108851578Y-92949500D01*
X108683067Y-92976189D01*
X108613773Y-92967234D01*
X108575988Y-92941397D01*
X107120822Y-91486232D01*
X107110859Y-91476269D01*
X107110858Y-91476267D01*
X107023733Y-91389142D01*
X106972509Y-91354915D01*
X106921286Y-91320688D01*
X106921283Y-91320686D01*
X106921280Y-91320685D01*
X106847603Y-91290168D01*
X106847601Y-91290167D01*
X106840792Y-91287347D01*
X106807452Y-91273537D01*
X106747029Y-91261518D01*
X106742306Y-91260578D01*
X106742304Y-91260578D01*
X106686610Y-91249500D01*
X106686607Y-91249500D01*
X106686606Y-91249500D01*
X56850706Y-91249500D01*
X56783667Y-91229815D01*
X56763025Y-91213181D01*
X53686819Y-88136975D01*
X53653334Y-88075652D01*
X53650500Y-88049294D01*
X53650500Y-82718753D01*
X56797100Y-82718753D01*
X56797100Y-82876446D01*
X56827861Y-83031089D01*
X56827864Y-83031101D01*
X56888202Y-83176772D01*
X56888209Y-83176785D01*
X56975810Y-83307888D01*
X56975813Y-83307892D01*
X57087307Y-83419386D01*
X57087311Y-83419389D01*
X57218414Y-83506990D01*
X57218427Y-83506997D01*
X57360875Y-83566000D01*
X57364103Y-83567337D01*
X57447969Y-83584019D01*
X57518753Y-83598099D01*
X57518756Y-83598100D01*
X57518758Y-83598100D01*
X57676444Y-83598100D01*
X57676445Y-83598099D01*
X57831097Y-83567337D01*
X57919441Y-83530744D01*
X57975464Y-83507539D01*
X58022916Y-83498100D01*
X60812150Y-83498100D01*
X60879189Y-83517785D01*
X60924944Y-83570589D01*
X60934888Y-83639747D01*
X60930081Y-83660418D01*
X60899489Y-83754571D01*
X60865900Y-83966643D01*
X60865900Y-84181356D01*
X60899489Y-84393428D01*
X60965837Y-84597630D01*
X60965838Y-84597633D01*
X61063317Y-84788944D01*
X61189523Y-84962651D01*
X61341349Y-85114477D01*
X61497777Y-85228129D01*
X61518998Y-85243547D01*
X61517624Y-85245437D01*
X61558030Y-85290152D01*
X61569411Y-85359089D01*
X61541715Y-85423235D01*
X61518314Y-85443511D01*
X61518998Y-85444453D01*
X61515056Y-85447316D01*
X61515056Y-85447317D01*
X61341349Y-85573523D01*
X61341347Y-85573525D01*
X61341346Y-85573525D01*
X61189525Y-85725346D01*
X61189525Y-85725347D01*
X61189523Y-85725349D01*
X61143902Y-85788141D01*
X61063317Y-85899055D01*
X60965838Y-86090366D01*
X60965837Y-86090369D01*
X60899489Y-86294571D01*
X60882637Y-86400968D01*
X60865900Y-86506643D01*
X60865900Y-86721357D01*
X60872180Y-86761009D01*
X60899489Y-86933428D01*
X60965837Y-87137630D01*
X60965838Y-87137633D01*
X61034680Y-87272741D01*
X61063317Y-87328944D01*
X61189523Y-87502651D01*
X61341349Y-87654477D01*
X61515056Y-87780683D01*
X61706367Y-87878161D01*
X61722938Y-87883545D01*
X61780615Y-87922981D01*
X61807814Y-87987339D01*
X61795902Y-88056186D01*
X61748659Y-88107663D01*
X61740919Y-88111961D01*
X61627004Y-88170004D01*
X61480505Y-88276441D01*
X61480500Y-88276445D01*
X61352445Y-88404500D01*
X61352441Y-88404505D01*
X61246006Y-88551002D01*
X61163788Y-88712360D01*
X61163787Y-88712363D01*
X61107829Y-88884589D01*
X61079500Y-89063448D01*
X61079500Y-89244551D01*
X61107829Y-89423410D01*
X61163787Y-89595636D01*
X61163788Y-89595639D01*
X61216972Y-89700016D01*
X61241023Y-89747219D01*
X61246006Y-89756997D01*
X61352441Y-89903494D01*
X61352445Y-89903499D01*
X61480500Y-90031554D01*
X61480505Y-90031558D01*
X61581891Y-90105218D01*
X61627006Y-90137996D01*
X61729065Y-90189998D01*
X61788360Y-90220211D01*
X61788363Y-90220212D01*
X61857607Y-90242710D01*
X61960591Y-90276171D01*
X62043429Y-90289291D01*
X62139449Y-90304500D01*
X62139454Y-90304500D01*
X62320551Y-90304500D01*
X62407259Y-90290765D01*
X62499409Y-90276171D01*
X62671639Y-90220211D01*
X62832994Y-90137996D01*
X62979501Y-90031553D01*
X63107553Y-89903501D01*
X63213996Y-89756994D01*
X63296211Y-89595639D01*
X63352171Y-89423409D01*
X63366765Y-89331259D01*
X63380500Y-89244551D01*
X63380500Y-89063448D01*
X63364019Y-88959397D01*
X63352171Y-88884591D01*
X63307333Y-88746591D01*
X63296212Y-88712363D01*
X63296211Y-88712360D01*
X63244079Y-88610047D01*
X63213996Y-88551006D01*
X63173181Y-88494828D01*
X63107558Y-88404505D01*
X63107554Y-88404500D01*
X62979499Y-88276445D01*
X62979494Y-88276441D01*
X62832997Y-88170006D01*
X62832996Y-88170005D01*
X62832994Y-88170004D01*
X62719081Y-88111962D01*
X62668285Y-88063987D01*
X62651490Y-87996166D01*
X62674028Y-87930031D01*
X62728743Y-87886580D01*
X62737057Y-87883546D01*
X62753633Y-87878161D01*
X62944944Y-87780683D01*
X63118651Y-87654477D01*
X63270477Y-87502651D01*
X63396683Y-87328944D01*
X63494161Y-87137633D01*
X63560511Y-86933427D01*
X63594100Y-86721357D01*
X63594100Y-86506643D01*
X63572472Y-86370088D01*
X63563858Y-86315704D01*
X63563297Y-86312166D01*
X63560511Y-86294573D01*
X63521360Y-86174077D01*
X63494162Y-86090369D01*
X63494161Y-86090366D01*
X63396682Y-85899055D01*
X63384154Y-85881812D01*
X63270477Y-85725349D01*
X63118651Y-85573523D01*
X62944944Y-85447317D01*
X62944943Y-85447316D01*
X62941002Y-85444453D01*
X62942405Y-85442521D01*
X62902078Y-85398073D01*
X62890558Y-85329160D01*
X62918125Y-85264958D01*
X62941709Y-85244521D01*
X62941002Y-85243547D01*
X62962223Y-85228129D01*
X63118651Y-85114477D01*
X63270477Y-84962651D01*
X63396683Y-84788944D01*
X63494161Y-84597633D01*
X63560511Y-84393427D01*
X63594100Y-84181357D01*
X63594100Y-83966643D01*
X63560511Y-83754573D01*
X63532219Y-83667498D01*
X63529919Y-83660418D01*
X63527924Y-83590576D01*
X63564005Y-83530744D01*
X63626706Y-83499916D01*
X63647850Y-83498100D01*
X70771396Y-83498100D01*
X70862440Y-83479989D01*
X70906728Y-83471180D01*
X70975372Y-83442747D01*
X71034207Y-83418377D01*
X71034208Y-83418376D01*
X71034211Y-83418375D01*
X71148943Y-83341714D01*
X71553838Y-82936819D01*
X71615161Y-82903334D01*
X71641519Y-82900500D01*
X72392505Y-82900500D01*
X72459544Y-82920185D01*
X72502989Y-82968205D01*
X72509783Y-82981538D01*
X72644214Y-83166566D01*
X72805934Y-83328286D01*
X72890864Y-83389991D01*
X72933529Y-83445321D01*
X72939508Y-83514935D01*
X72906902Y-83576730D01*
X72890864Y-83590627D01*
X72806257Y-83652097D01*
X72644597Y-83813757D01*
X72510211Y-83998723D01*
X72406417Y-84202429D01*
X72335765Y-84419871D01*
X72321491Y-84510000D01*
X73309252Y-84510000D01*
X73287482Y-84547708D01*
X73250000Y-84687591D01*
X73250000Y-84832409D01*
X73287482Y-84972292D01*
X73309252Y-85010000D01*
X72321491Y-85010000D01*
X72335765Y-85100128D01*
X72406417Y-85317570D01*
X72510213Y-85521279D01*
X72643011Y-85704060D01*
X72666491Y-85769866D01*
X72650666Y-85837920D01*
X72600560Y-85886615D01*
X72586026Y-85893127D01*
X72557671Y-85903702D01*
X72557664Y-85903706D01*
X72442455Y-85989952D01*
X72442452Y-85989955D01*
X72356206Y-86105164D01*
X72356202Y-86105171D01*
X72305908Y-86240017D01*
X72300043Y-86294573D01*
X72299501Y-86299623D01*
X72299500Y-86299635D01*
X72299500Y-88300370D01*
X72299501Y-88300376D01*
X72305908Y-88359983D01*
X72356202Y-88494828D01*
X72356206Y-88494835D01*
X72442452Y-88610044D01*
X72442455Y-88610047D01*
X72557664Y-88696293D01*
X72557671Y-88696297D01*
X72692517Y-88746591D01*
X72692516Y-88746591D01*
X72699444Y-88747335D01*
X72752127Y-88753000D01*
X74847872Y-88752999D01*
X74907483Y-88746591D01*
X75042331Y-88696296D01*
X75157546Y-88610046D01*
X75243796Y-88494831D01*
X75294091Y-88359983D01*
X75300500Y-88300373D01*
X75300500Y-88299983D01*
X81199500Y-88299983D01*
X81199500Y-89500001D01*
X81199501Y-89500018D01*
X81210000Y-89602796D01*
X81210001Y-89602799D01*
X81242214Y-89700009D01*
X81265186Y-89769334D01*
X81357288Y-89918656D01*
X81481344Y-90042712D01*
X81630666Y-90134814D01*
X81797203Y-90189999D01*
X81899991Y-90200500D01*
X83100008Y-90200499D01*
X83202797Y-90189999D01*
X83369334Y-90134814D01*
X83518656Y-90042712D01*
X83642712Y-89918656D01*
X83734814Y-89769334D01*
X83789999Y-89602797D01*
X83800500Y-89500009D01*
X83800499Y-88797648D01*
X89399500Y-88797648D01*
X89399500Y-89002351D01*
X89431522Y-89204534D01*
X89494781Y-89399223D01*
X89546135Y-89500009D01*
X89579628Y-89565743D01*
X89587715Y-89581613D01*
X89708028Y-89747213D01*
X89852786Y-89891971D01*
X90007749Y-90004556D01*
X90018390Y-90012287D01*
X90134607Y-90071503D01*
X90200776Y-90105218D01*
X90200778Y-90105218D01*
X90200781Y-90105220D01*
X90291856Y-90134812D01*
X90395465Y-90168477D01*
X90496557Y-90184488D01*
X90597648Y-90200500D01*
X90597649Y-90200500D01*
X90802351Y-90200500D01*
X90802352Y-90200500D01*
X91004534Y-90168477D01*
X91199219Y-90105220D01*
X91381610Y-90012287D01*
X91510482Y-89918657D01*
X91547213Y-89891971D01*
X91547215Y-89891968D01*
X91547219Y-89891966D01*
X91691966Y-89747219D01*
X91691968Y-89747215D01*
X91691971Y-89747213D01*
X91796892Y-89602799D01*
X91812287Y-89581610D01*
X91905220Y-89399219D01*
X91968477Y-89204534D01*
X92000500Y-89002352D01*
X92000500Y-88797648D01*
X91986992Y-88712361D01*
X91968477Y-88595465D01*
X91905218Y-88400776D01*
X91871503Y-88334607D01*
X91812287Y-88218390D01*
X91796892Y-88197200D01*
X91691971Y-88052786D01*
X91547213Y-87908028D01*
X91381611Y-87787713D01*
X91327621Y-87760203D01*
X91276825Y-87712228D01*
X91260031Y-87644407D01*
X91282569Y-87578272D01*
X91299645Y-87558757D01*
X91363084Y-87499983D01*
X111599500Y-87499983D01*
X111599500Y-89700001D01*
X111599501Y-89700018D01*
X111610000Y-89802796D01*
X111610001Y-89802799D01*
X111643370Y-89903499D01*
X111665186Y-89969334D01*
X111757288Y-90118656D01*
X111881344Y-90242712D01*
X112030666Y-90334814D01*
X112197203Y-90389999D01*
X112299991Y-90400500D01*
X114500008Y-90400499D01*
X114602797Y-90389999D01*
X114769334Y-90334814D01*
X114918656Y-90242712D01*
X115042712Y-90118656D01*
X115134814Y-89969334D01*
X115189999Y-89802797D01*
X115200500Y-89700009D01*
X115200499Y-87499992D01*
X115199061Y-87485919D01*
X115189999Y-87397203D01*
X115189998Y-87397200D01*
X115148756Y-87272741D01*
X115134814Y-87230666D01*
X115042712Y-87081344D01*
X114918656Y-86957288D01*
X114824206Y-86899031D01*
X114769336Y-86865187D01*
X114769331Y-86865185D01*
X114715475Y-86847339D01*
X114602797Y-86810001D01*
X114602795Y-86810000D01*
X114500010Y-86799500D01*
X112299998Y-86799500D01*
X112299981Y-86799501D01*
X112197203Y-86810000D01*
X112197200Y-86810001D01*
X112030668Y-86865185D01*
X112030663Y-86865187D01*
X111881342Y-86957289D01*
X111757289Y-87081342D01*
X111665187Y-87230663D01*
X111665186Y-87230666D01*
X111610001Y-87397203D01*
X111610001Y-87397204D01*
X111610000Y-87397204D01*
X111599500Y-87499983D01*
X91363084Y-87499983D01*
X91406348Y-87459900D01*
X90746447Y-86800000D01*
X90752661Y-86800000D01*
X90854394Y-86772741D01*
X90945606Y-86720080D01*
X91020080Y-86645606D01*
X91072741Y-86554394D01*
X91100000Y-86452661D01*
X91100000Y-86446447D01*
X91779474Y-87125921D01*
X91811859Y-87081349D01*
X91904755Y-86899031D01*
X91967990Y-86704417D01*
X92000000Y-86502317D01*
X92000000Y-86297682D01*
X91967990Y-86095582D01*
X91904755Y-85900968D01*
X91811859Y-85718650D01*
X91779474Y-85674077D01*
X91779474Y-85674076D01*
X91100000Y-86353551D01*
X91100000Y-86347339D01*
X91072741Y-86245606D01*
X91020080Y-86154394D01*
X90945606Y-86079920D01*
X90854394Y-86027259D01*
X90752661Y-86000000D01*
X90746446Y-86000000D01*
X91425922Y-85320524D01*
X91425921Y-85320523D01*
X91381359Y-85288147D01*
X91381350Y-85288141D01*
X91199031Y-85195244D01*
X91004417Y-85132009D01*
X90802317Y-85100000D01*
X90597683Y-85100000D01*
X90395582Y-85132009D01*
X90200968Y-85195244D01*
X90018644Y-85288143D01*
X89974077Y-85320523D01*
X89974077Y-85320524D01*
X90653554Y-86000000D01*
X90647339Y-86000000D01*
X90545606Y-86027259D01*
X90454394Y-86079920D01*
X90379920Y-86154394D01*
X90327259Y-86245606D01*
X90300000Y-86347339D01*
X90300000Y-86353553D01*
X89620524Y-85674077D01*
X89620523Y-85674077D01*
X89588143Y-85718644D01*
X89495244Y-85900968D01*
X89432009Y-86095582D01*
X89400000Y-86297682D01*
X89400000Y-86502317D01*
X89432009Y-86704417D01*
X89495244Y-86899031D01*
X89588141Y-87081350D01*
X89588147Y-87081359D01*
X89620523Y-87125921D01*
X89620524Y-87125922D01*
X90300000Y-86446446D01*
X90300000Y-86452661D01*
X90327259Y-86554394D01*
X90379920Y-86645606D01*
X90454394Y-86720080D01*
X90545606Y-86772741D01*
X90647339Y-86800000D01*
X90653553Y-86800000D01*
X89974076Y-87479474D01*
X90018652Y-87511861D01*
X90072376Y-87539234D01*
X90123172Y-87587208D01*
X90139968Y-87655028D01*
X90117431Y-87721164D01*
X90072379Y-87760203D01*
X90018386Y-87787714D01*
X89852786Y-87908028D01*
X89708028Y-88052786D01*
X89587715Y-88218386D01*
X89494781Y-88400776D01*
X89431522Y-88595465D01*
X89399500Y-88797648D01*
X83800499Y-88797648D01*
X83800499Y-88299992D01*
X83800176Y-88296834D01*
X83789999Y-88197203D01*
X83789998Y-88197200D01*
X83761753Y-88111962D01*
X83734814Y-88030666D01*
X83642712Y-87881344D01*
X83573488Y-87812120D01*
X83540003Y-87750797D01*
X83544987Y-87681105D01*
X83560852Y-87651552D01*
X83611858Y-87581349D01*
X83611863Y-87581341D01*
X83704755Y-87399031D01*
X83767990Y-87204417D01*
X83800000Y-87002317D01*
X83800000Y-86797682D01*
X83767990Y-86595582D01*
X83704755Y-86400968D01*
X83678332Y-86349111D01*
X83678331Y-86349109D01*
X83611861Y-86218652D01*
X83579474Y-86174077D01*
X83579474Y-86174076D01*
X82900000Y-86853551D01*
X82900000Y-86847339D01*
X82872741Y-86745606D01*
X82820080Y-86654394D01*
X82745606Y-86579920D01*
X82654394Y-86527259D01*
X82552661Y-86500000D01*
X82546446Y-86500000D01*
X83225922Y-85820524D01*
X83225921Y-85820523D01*
X83181359Y-85788147D01*
X83181350Y-85788141D01*
X82999031Y-85695244D01*
X82804417Y-85632009D01*
X82602317Y-85600000D01*
X82397683Y-85600000D01*
X82195582Y-85632009D01*
X82000968Y-85695244D01*
X81818644Y-85788143D01*
X81774077Y-85820523D01*
X81774077Y-85820524D01*
X82453554Y-86500000D01*
X82447339Y-86500000D01*
X82345606Y-86527259D01*
X82254394Y-86579920D01*
X82179920Y-86654394D01*
X82127259Y-86745606D01*
X82100000Y-86847339D01*
X82100000Y-86853553D01*
X81420524Y-86174077D01*
X81420523Y-86174077D01*
X81388143Y-86218644D01*
X81295244Y-86400968D01*
X81232009Y-86595582D01*
X81200000Y-86797682D01*
X81200000Y-87002317D01*
X81232009Y-87204417D01*
X81295244Y-87399031D01*
X81388142Y-87581352D01*
X81439147Y-87651555D01*
X81462627Y-87717361D01*
X81446802Y-87785415D01*
X81426511Y-87812121D01*
X81357287Y-87881345D01*
X81265187Y-88030663D01*
X81265185Y-88030668D01*
X81259013Y-88049294D01*
X81210001Y-88197203D01*
X81210001Y-88197204D01*
X81210000Y-88197204D01*
X81199500Y-88299983D01*
X75300500Y-88299983D01*
X75300499Y-87300000D01*
X75300499Y-86299629D01*
X75300498Y-86299623D01*
X75300497Y-86299616D01*
X75294091Y-86240017D01*
X75290320Y-86229907D01*
X75243797Y-86105171D01*
X75243793Y-86105164D01*
X75157547Y-85989955D01*
X75130904Y-85970010D01*
X75042331Y-85903704D01*
X75001969Y-85888650D01*
X74991133Y-85881812D01*
X74976165Y-85864824D01*
X74958040Y-85851257D01*
X74953510Y-85839113D01*
X74944942Y-85829389D01*
X74941534Y-85807004D01*
X74933622Y-85785792D01*
X74936376Y-85773128D01*
X74934426Y-85760315D01*
X74943660Y-85739643D01*
X74948473Y-85717519D01*
X74956988Y-85704059D01*
X75089788Y-85521276D01*
X75193580Y-85317573D01*
X75193583Y-85317566D01*
X75264234Y-85100128D01*
X75278509Y-85010000D01*
X74290748Y-85010000D01*
X74312518Y-84972292D01*
X74350000Y-84832409D01*
X74350000Y-84687591D01*
X74312518Y-84547708D01*
X74290748Y-84510000D01*
X75278509Y-84510000D01*
X75264234Y-84419871D01*
X75193582Y-84202429D01*
X75089788Y-83998723D01*
X74955402Y-83813757D01*
X74793742Y-83652097D01*
X74709135Y-83590626D01*
X74693299Y-83570089D01*
X74674556Y-83552173D01*
X74672312Y-83542872D01*
X74666470Y-83535296D01*
X74664251Y-83509461D01*
X74658169Y-83484252D01*
X74661309Y-83475214D01*
X74660491Y-83465682D01*
X74672592Y-83442747D01*
X74681104Y-83418254D01*
X74690532Y-83408747D01*
X74693097Y-83403887D01*
X74695180Y-83402014D01*
X111600000Y-83402014D01*
X111600000Y-83637985D01*
X111630799Y-83871914D01*
X111691870Y-84099837D01*
X111782160Y-84317819D01*
X111782165Y-84317828D01*
X111900144Y-84522171D01*
X111900145Y-84522172D01*
X111962721Y-84603723D01*
X112798958Y-83767487D01*
X112823978Y-83827890D01*
X112895112Y-83934351D01*
X112985649Y-84024888D01*
X113092110Y-84096022D01*
X113152511Y-84121041D01*
X112316275Y-84957277D01*
X112397827Y-85019854D01*
X112397828Y-85019855D01*
X112602171Y-85137834D01*
X112602180Y-85137839D01*
X112820163Y-85228129D01*
X112820161Y-85228129D01*
X113048085Y-85289200D01*
X113282014Y-85319999D01*
X113282029Y-85320000D01*
X113517971Y-85320000D01*
X113517985Y-85319999D01*
X113751914Y-85289200D01*
X113979837Y-85228129D01*
X114197819Y-85137839D01*
X114197828Y-85137834D01*
X114402181Y-85019850D01*
X114483723Y-84957279D01*
X114483723Y-84957276D01*
X113647487Y-84121041D01*
X113707890Y-84096022D01*
X113814351Y-84024888D01*
X113904888Y-83934351D01*
X113976022Y-83827890D01*
X114001041Y-83767488D01*
X114837276Y-84603723D01*
X114837279Y-84603723D01*
X114899850Y-84522181D01*
X115017834Y-84317828D01*
X115017839Y-84317819D01*
X115108129Y-84099837D01*
X115169200Y-83871914D01*
X115199999Y-83637985D01*
X115200000Y-83637971D01*
X115200000Y-83402028D01*
X115199999Y-83402014D01*
X115169200Y-83168085D01*
X115108129Y-82940162D01*
X115017839Y-82722180D01*
X115017834Y-82722171D01*
X114899855Y-82517828D01*
X114899854Y-82517827D01*
X114837277Y-82436275D01*
X114001041Y-83272511D01*
X113976022Y-83212110D01*
X113904888Y-83105649D01*
X113814351Y-83015112D01*
X113707890Y-82943978D01*
X113647488Y-82918958D01*
X114483723Y-82082721D01*
X114402172Y-82020145D01*
X114402171Y-82020144D01*
X114197828Y-81902165D01*
X114197819Y-81902160D01*
X113979836Y-81811870D01*
X113979838Y-81811870D01*
X113751914Y-81750799D01*
X113517985Y-81720000D01*
X113282014Y-81720000D01*
X113048085Y-81750799D01*
X112820162Y-81811870D01*
X112602180Y-81902160D01*
X112602171Y-81902165D01*
X112397828Y-82020144D01*
X112397818Y-82020150D01*
X112316275Y-82082720D01*
X112316275Y-82082721D01*
X113152512Y-82918958D01*
X113092110Y-82943978D01*
X112985649Y-83015112D01*
X112895112Y-83105649D01*
X112823978Y-83212110D01*
X112798958Y-83272511D01*
X111962721Y-82436275D01*
X111962720Y-82436275D01*
X111900150Y-82517818D01*
X111900144Y-82517828D01*
X111782165Y-82722171D01*
X111782160Y-82722180D01*
X111691870Y-82940162D01*
X111630799Y-83168085D01*
X111600000Y-83402014D01*
X74695180Y-83402014D01*
X74705492Y-83392741D01*
X74707256Y-83391356D01*
X74794066Y-83328286D01*
X74955786Y-83166566D01*
X75090217Y-82981538D01*
X75194048Y-82777758D01*
X75263466Y-82564110D01*
X75264721Y-82560249D01*
X75264721Y-82560248D01*
X75264722Y-82560245D01*
X75300500Y-82334354D01*
X75300500Y-82105646D01*
X75264722Y-81879755D01*
X75264721Y-81879751D01*
X75264721Y-81879750D01*
X75194049Y-81662244D01*
X75151747Y-81579222D01*
X75090217Y-81458462D01*
X74955786Y-81273434D01*
X74794066Y-81111714D01*
X74609038Y-80977283D01*
X74526061Y-80935004D01*
X74405255Y-80873450D01*
X74187748Y-80802778D01*
X74018326Y-80775944D01*
X73961854Y-80767000D01*
X73638146Y-80767000D01*
X73562849Y-80778926D01*
X73412253Y-80802778D01*
X73412250Y-80802778D01*
X73194744Y-80873450D01*
X72990961Y-80977283D01*
X72945423Y-81010369D01*
X72805934Y-81111714D01*
X72805932Y-81111716D01*
X72805931Y-81111716D01*
X72644216Y-81273431D01*
X72644216Y-81273432D01*
X72644214Y-81273434D01*
X72583697Y-81356729D01*
X72517104Y-81448386D01*
X72461774Y-81491051D01*
X72416786Y-81499500D01*
X71231004Y-81499500D01*
X71095677Y-81526418D01*
X71095667Y-81526421D01*
X70968192Y-81579222D01*
X70853454Y-81655887D01*
X70853453Y-81655888D01*
X70448562Y-82060781D01*
X70387239Y-82094266D01*
X70360881Y-82097100D01*
X63652009Y-82097100D01*
X63584970Y-82077415D01*
X63539215Y-82024611D01*
X63529271Y-81955453D01*
X63534078Y-81934783D01*
X63560510Y-81853430D01*
X63560509Y-81853430D01*
X63560511Y-81853427D01*
X63594100Y-81641357D01*
X63594100Y-81426643D01*
X63560511Y-81214573D01*
X63494161Y-81010367D01*
X63494161Y-81010366D01*
X63396682Y-80819055D01*
X63382603Y-80799677D01*
X63270477Y-80645349D01*
X63173788Y-80548660D01*
X63140303Y-80487337D01*
X63145287Y-80417645D01*
X63187159Y-80361712D01*
X63218137Y-80344797D01*
X63335684Y-80300955D01*
X63335693Y-80300950D01*
X63450787Y-80214790D01*
X63450790Y-80214787D01*
X63536950Y-80099693D01*
X63536954Y-80099686D01*
X63587196Y-79964979D01*
X63587198Y-79964972D01*
X63593599Y-79905444D01*
X63593600Y-79905427D01*
X63593600Y-79244000D01*
X62672251Y-79244000D01*
X62703381Y-79190081D01*
X62738000Y-79060880D01*
X62738000Y-78927120D01*
X62703381Y-78797919D01*
X62672251Y-78744000D01*
X63593600Y-78744000D01*
X63593600Y-78082572D01*
X63593599Y-78082555D01*
X63587198Y-78023027D01*
X63587196Y-78023020D01*
X63536954Y-77888313D01*
X63536950Y-77888306D01*
X63450790Y-77773212D01*
X63450787Y-77773209D01*
X63335693Y-77687049D01*
X63335686Y-77687045D01*
X63218136Y-77643202D01*
X63162202Y-77601331D01*
X63137785Y-77535866D01*
X63152637Y-77467593D01*
X63173782Y-77439345D01*
X63270477Y-77342651D01*
X63396683Y-77168944D01*
X63407759Y-77147205D01*
X63455732Y-77096410D01*
X63518244Y-77079500D01*
X63821738Y-77079500D01*
X63888777Y-77099185D01*
X63909419Y-77115819D01*
X66292329Y-79498729D01*
X66292332Y-79498733D01*
X66379457Y-79585858D01*
X66383390Y-79588486D01*
X66391044Y-79596034D01*
X66391103Y-79596141D01*
X66391655Y-79596641D01*
X66440620Y-79645606D01*
X66440649Y-79645637D01*
X66530868Y-79735856D01*
X66530871Y-79735858D01*
X66582094Y-79770084D01*
X66633318Y-79804312D01*
X66713811Y-79837652D01*
X66747152Y-79851463D01*
X66807575Y-79863481D01*
X66867997Y-79875500D01*
X93769607Y-79875500D01*
X93830029Y-79863481D01*
X93890452Y-79851463D01*
X93923792Y-79837652D01*
X94004286Y-79804312D01*
X94055509Y-79770084D01*
X94061321Y-79766201D01*
X94068271Y-79761556D01*
X94106733Y-79735858D01*
X94193858Y-79648733D01*
X94193858Y-79648731D01*
X94204066Y-79638524D01*
X94204068Y-79638521D01*
X95938373Y-77904215D01*
X95999694Y-77870732D01*
X96046410Y-77871249D01*
X96046654Y-77869715D01*
X96150101Y-77886099D01*
X96253648Y-77902500D01*
X96253649Y-77902500D01*
X96458351Y-77902500D01*
X96458352Y-77902500D01*
X96660534Y-77870477D01*
X96855219Y-77807220D01*
X97037610Y-77714287D01*
X97159903Y-77625437D01*
X97203213Y-77593971D01*
X97203215Y-77593968D01*
X97203219Y-77593966D01*
X97347966Y-77449219D01*
X97347968Y-77449215D01*
X97347971Y-77449213D01*
X97425391Y-77342652D01*
X97468287Y-77283610D01*
X97561220Y-77101219D01*
X97624477Y-76906534D01*
X97656500Y-76704352D01*
X97656500Y-76499648D01*
X97625322Y-76302799D01*
X97624477Y-76297465D01*
X97592809Y-76200001D01*
X97561220Y-76102781D01*
X97561218Y-76102778D01*
X97561218Y-76102776D01*
X97468287Y-75920390D01*
X97397083Y-75822385D01*
X97373604Y-75756578D01*
X97389430Y-75688524D01*
X97439536Y-75639830D01*
X97497402Y-75625500D01*
X98528701Y-75625500D01*
X98595740Y-75645185D01*
X98641495Y-75697989D01*
X98651439Y-75767147D01*
X98629019Y-75822385D01*
X98588142Y-75878647D01*
X98495244Y-76060968D01*
X98432009Y-76255582D01*
X98400000Y-76457682D01*
X98400000Y-76662317D01*
X98432009Y-76864417D01*
X98495244Y-77059031D01*
X98588141Y-77241350D01*
X98588147Y-77241359D01*
X98620523Y-77285921D01*
X98620524Y-77285922D01*
X99300000Y-76606446D01*
X99300000Y-76612661D01*
X99327259Y-76714394D01*
X99379920Y-76805606D01*
X99454394Y-76880080D01*
X99545606Y-76932741D01*
X99647339Y-76960000D01*
X99653553Y-76960000D01*
X98974076Y-77639474D01*
X99018650Y-77671859D01*
X99200968Y-77764755D01*
X99395582Y-77827990D01*
X99597683Y-77860000D01*
X99802317Y-77860000D01*
X100004417Y-77827990D01*
X100199031Y-77764755D01*
X100381349Y-77671859D01*
X100425921Y-77639474D01*
X99746447Y-76960000D01*
X99752661Y-76960000D01*
X99854394Y-76932741D01*
X99945606Y-76880080D01*
X100020080Y-76805606D01*
X100072741Y-76714394D01*
X100100000Y-76612661D01*
X100100000Y-76606447D01*
X100779474Y-77285921D01*
X100811859Y-77241349D01*
X100904755Y-77059031D01*
X100967990Y-76864417D01*
X101000000Y-76662317D01*
X101000000Y-76457682D01*
X100967990Y-76255582D01*
X100904755Y-76060968D01*
X100811857Y-75878647D01*
X100770981Y-75822385D01*
X100747501Y-75756579D01*
X100763326Y-75688525D01*
X100813432Y-75639830D01*
X100871299Y-75625500D01*
X101187548Y-75625500D01*
X101254587Y-75645185D01*
X101275229Y-75661819D01*
X101711475Y-76098065D01*
X101744960Y-76159388D01*
X101741725Y-76224063D01*
X101731524Y-76255457D01*
X101731523Y-76255464D01*
X101699500Y-76457648D01*
X101699500Y-76662351D01*
X101731522Y-76864534D01*
X101794781Y-77059223D01*
X101838796Y-77145606D01*
X101887585Y-77241359D01*
X101887715Y-77241613D01*
X102008028Y-77407213D01*
X102152786Y-77551971D01*
X102307749Y-77664556D01*
X102318390Y-77672287D01*
X102431342Y-77729839D01*
X102500776Y-77765218D01*
X102500778Y-77765218D01*
X102500781Y-77765220D01*
X102560153Y-77784511D01*
X102695465Y-77828477D01*
X102796557Y-77844488D01*
X102897648Y-77860500D01*
X102897649Y-77860500D01*
X103102351Y-77860500D01*
X103102352Y-77860500D01*
X103304534Y-77828477D01*
X103499219Y-77765220D01*
X103681610Y-77672287D01*
X103789409Y-77593967D01*
X103847213Y-77551971D01*
X103847215Y-77551968D01*
X103847219Y-77551966D01*
X103991966Y-77407219D01*
X104085402Y-77278614D01*
X104140731Y-77235949D01*
X104185720Y-77227500D01*
X104559608Y-77227500D01*
X104559608Y-77227499D01*
X104641006Y-77211309D01*
X104680452Y-77203463D01*
X104713792Y-77189652D01*
X104794286Y-77156312D01*
X104845509Y-77122084D01*
X104854886Y-77115819D01*
X104876736Y-77101219D01*
X104896733Y-77087858D01*
X104983858Y-77000733D01*
X104983859Y-77000731D01*
X104990925Y-76993665D01*
X104990928Y-76993661D01*
X106525988Y-75458600D01*
X106587309Y-75425117D01*
X106633065Y-75423810D01*
X106801578Y-75450500D01*
X106801583Y-75450500D01*
X106998422Y-75450500D01*
X107192826Y-75419709D01*
X107211864Y-75413523D01*
X107380025Y-75358884D01*
X107555405Y-75269524D01*
X107714646Y-75153828D01*
X107853828Y-75014646D01*
X107969524Y-74855405D01*
X108058884Y-74680025D01*
X108119709Y-74492826D01*
X108123810Y-74466932D01*
X108150500Y-74298422D01*
X108150500Y-74101617D01*
X110650000Y-74101617D01*
X110650000Y-74298382D01*
X110680778Y-74492705D01*
X110741581Y-74679835D01*
X110830905Y-74855145D01*
X110856319Y-74890125D01*
X110856320Y-74890125D01*
X111525000Y-74221445D01*
X111525000Y-74249370D01*
X111550556Y-74344745D01*
X111599925Y-74430255D01*
X111669745Y-74500075D01*
X111755255Y-74549444D01*
X111850630Y-74575000D01*
X111878553Y-74575000D01*
X111209873Y-75243677D01*
X111209873Y-75243678D01*
X111244858Y-75269096D01*
X111420164Y-75358418D01*
X111607294Y-75419221D01*
X111801618Y-75450000D01*
X111998382Y-75450000D01*
X112192705Y-75419221D01*
X112379835Y-75358418D01*
X112555143Y-75269095D01*
X112590125Y-75243678D01*
X112590126Y-75243678D01*
X111921448Y-74575000D01*
X111949370Y-74575000D01*
X112044745Y-74549444D01*
X112130255Y-74500075D01*
X112200075Y-74430255D01*
X112249444Y-74344745D01*
X112275000Y-74249370D01*
X112275000Y-74221448D01*
X112943678Y-74890126D01*
X112943678Y-74890125D01*
X112969095Y-74855143D01*
X113058418Y-74679835D01*
X113119221Y-74492705D01*
X113150000Y-74298382D01*
X113150000Y-74101617D01*
X113119221Y-73907294D01*
X113058418Y-73720164D01*
X112969096Y-73544858D01*
X112943678Y-73509873D01*
X112943677Y-73509873D01*
X112275000Y-74178551D01*
X112275000Y-74150630D01*
X112249444Y-74055255D01*
X112200075Y-73969745D01*
X112130255Y-73899925D01*
X112044745Y-73850556D01*
X111949370Y-73825000D01*
X111921447Y-73825000D01*
X112590125Y-73156320D01*
X112590125Y-73156319D01*
X112555145Y-73130905D01*
X112379835Y-73041581D01*
X112192705Y-72980778D01*
X111998382Y-72950000D01*
X111801618Y-72950000D01*
X111607294Y-72980778D01*
X111420161Y-73041582D01*
X111244863Y-73130899D01*
X111244859Y-73130902D01*
X111209873Y-73156320D01*
X111209872Y-73156320D01*
X111878554Y-73825000D01*
X111850630Y-73825000D01*
X111755255Y-73850556D01*
X111669745Y-73899925D01*
X111599925Y-73969745D01*
X111550556Y-74055255D01*
X111525000Y-74150630D01*
X111525000Y-74178552D01*
X110856320Y-73509872D01*
X110856320Y-73509873D01*
X110830902Y-73544859D01*
X110830899Y-73544863D01*
X110741582Y-73720161D01*
X110680778Y-73907294D01*
X110650000Y-74101617D01*
X108150500Y-74101617D01*
X108150500Y-74101577D01*
X108119709Y-73907173D01*
X108068325Y-73749031D01*
X108058884Y-73719975D01*
X108058882Y-73719972D01*
X108058882Y-73719970D01*
X107974588Y-73554534D01*
X107969524Y-73544595D01*
X107853828Y-73385354D01*
X107714646Y-73246172D01*
X107555405Y-73130476D01*
X107380029Y-73041117D01*
X107192826Y-72980290D01*
X106998422Y-72949500D01*
X106998417Y-72949500D01*
X106801583Y-72949500D01*
X106801578Y-72949500D01*
X106607173Y-72980290D01*
X106419970Y-73041117D01*
X106244594Y-73130476D01*
X106153741Y-73196485D01*
X106085354Y-73246172D01*
X106085352Y-73246174D01*
X106085351Y-73246174D01*
X105946174Y-73385351D01*
X105946174Y-73385352D01*
X105946172Y-73385354D01*
X105932339Y-73404394D01*
X105830476Y-73544594D01*
X105741117Y-73719970D01*
X105680290Y-73907173D01*
X105649500Y-74101577D01*
X105649500Y-74298422D01*
X105676189Y-74466932D01*
X105667234Y-74536226D01*
X105641397Y-74574011D01*
X104308826Y-75906583D01*
X104247503Y-75940068D01*
X104177811Y-75935084D01*
X104121878Y-75893212D01*
X104115122Y-75882363D01*
X104114832Y-75882542D01*
X104112287Y-75878389D01*
X103991971Y-75712786D01*
X103847213Y-75568028D01*
X103681613Y-75447715D01*
X103681612Y-75447714D01*
X103681610Y-75447713D01*
X103624653Y-75418691D01*
X103499223Y-75354781D01*
X103304534Y-75291522D01*
X103125933Y-75263235D01*
X103102352Y-75259500D01*
X102897648Y-75259500D01*
X102739434Y-75284558D01*
X102670141Y-75275603D01*
X102632356Y-75249766D01*
X101991150Y-74608560D01*
X101983860Y-74601270D01*
X101983858Y-74601267D01*
X101896733Y-74514142D01*
X101845509Y-74479915D01*
X101794286Y-74445688D01*
X101794283Y-74445686D01*
X101794280Y-74445685D01*
X101721256Y-74415438D01*
X101721251Y-74415436D01*
X101713792Y-74412347D01*
X101680452Y-74398537D01*
X101599580Y-74382451D01*
X101595568Y-74381653D01*
X101595557Y-74381650D01*
X101566851Y-74375941D01*
X101559607Y-74374500D01*
X101559606Y-74374500D01*
X96167741Y-74374500D01*
X96167721Y-74374499D01*
X96161607Y-74374499D01*
X96038394Y-74374499D01*
X95937597Y-74394548D01*
X95937592Y-74394548D01*
X95917549Y-74398536D01*
X95917547Y-74398536D01*
X95870397Y-74418067D01*
X95803719Y-74445685D01*
X95803717Y-74445686D01*
X95701266Y-74514141D01*
X95701263Y-74514144D01*
X92077229Y-78138181D01*
X92015906Y-78171666D01*
X91989548Y-78174500D01*
X75015502Y-78174500D01*
X74948463Y-78154815D01*
X74902708Y-78102011D01*
X74892764Y-78032853D01*
X74909774Y-77985711D01*
X74912282Y-77981616D01*
X74912287Y-77981610D01*
X75005220Y-77799219D01*
X75068477Y-77604534D01*
X75100500Y-77402352D01*
X75100500Y-77197648D01*
X75078545Y-77059031D01*
X75068477Y-76995465D01*
X75030986Y-76880080D01*
X75005220Y-76800781D01*
X75005218Y-76800778D01*
X75005218Y-76800776D01*
X74962750Y-76717429D01*
X74912287Y-76618390D01*
X74899659Y-76601009D01*
X74791971Y-76452786D01*
X74647213Y-76308028D01*
X74481613Y-76187715D01*
X74481612Y-76187714D01*
X74481610Y-76187713D01*
X74411121Y-76151797D01*
X74299223Y-76094781D01*
X74104534Y-76031522D01*
X73929995Y-76003878D01*
X73902352Y-75999500D01*
X73697648Y-75999500D01*
X73673329Y-76003351D01*
X73495465Y-76031522D01*
X73300776Y-76094781D01*
X73118386Y-76187715D01*
X72952786Y-76308028D01*
X72808028Y-76452786D01*
X72687714Y-76618386D01*
X72660203Y-76672379D01*
X72612227Y-76723174D01*
X72544406Y-76739968D01*
X72478272Y-76717429D01*
X72439234Y-76672376D01*
X72411861Y-76618652D01*
X72379474Y-76574077D01*
X72379474Y-76574076D01*
X71700000Y-77253551D01*
X71700000Y-77247339D01*
X71672741Y-77145606D01*
X71620080Y-77054394D01*
X71545606Y-76979920D01*
X71454394Y-76927259D01*
X71352661Y-76900000D01*
X71346446Y-76900000D01*
X72025922Y-76220524D01*
X72025921Y-76220523D01*
X71981359Y-76188147D01*
X71981350Y-76188141D01*
X71799031Y-76095244D01*
X71604417Y-76032009D01*
X71402317Y-76000000D01*
X71197683Y-76000000D01*
X70995582Y-76032009D01*
X70800968Y-76095244D01*
X70618644Y-76188143D01*
X70574077Y-76220523D01*
X70574077Y-76220524D01*
X71253554Y-76900000D01*
X71247339Y-76900000D01*
X71145606Y-76927259D01*
X71054394Y-76979920D01*
X70979920Y-77054394D01*
X70927259Y-77145606D01*
X70900000Y-77247339D01*
X70900000Y-77253553D01*
X70220524Y-76574077D01*
X70220523Y-76574077D01*
X70188143Y-76618644D01*
X70095244Y-76800968D01*
X70032009Y-76995582D01*
X70000000Y-77197682D01*
X70000000Y-77402317D01*
X70032009Y-77604417D01*
X70095244Y-77799031D01*
X70188144Y-77981357D01*
X70190686Y-77985505D01*
X70188707Y-77986717D01*
X70208915Y-78043575D01*
X70193004Y-78111610D01*
X70142838Y-78160242D01*
X70085108Y-78174500D01*
X67426453Y-78174500D01*
X67359414Y-78154815D01*
X67338772Y-78138181D01*
X65556055Y-76355464D01*
X64285105Y-75084515D01*
X64200573Y-74999983D01*
X79399500Y-74999983D01*
X79399500Y-76200001D01*
X79399501Y-76200018D01*
X79410000Y-76302796D01*
X79410001Y-76302799D01*
X79465185Y-76469331D01*
X79465187Y-76469336D01*
X79500069Y-76525888D01*
X79557288Y-76618656D01*
X79681344Y-76742712D01*
X79830666Y-76834814D01*
X79997203Y-76889999D01*
X80099991Y-76900500D01*
X81300008Y-76900499D01*
X81402797Y-76889999D01*
X81569334Y-76834814D01*
X81718656Y-76742712D01*
X81787879Y-76673489D01*
X81849202Y-76640004D01*
X81918894Y-76644988D01*
X81948446Y-76660853D01*
X82018646Y-76711857D01*
X82200968Y-76804755D01*
X82395582Y-76867990D01*
X82597683Y-76900000D01*
X82802317Y-76900000D01*
X83004417Y-76867990D01*
X83199031Y-76804755D01*
X83381349Y-76711859D01*
X83425921Y-76679474D01*
X82746447Y-76000000D01*
X82752661Y-76000000D01*
X82854394Y-75972741D01*
X82945606Y-75920080D01*
X83020080Y-75845606D01*
X83072741Y-75754394D01*
X83100000Y-75652661D01*
X83100000Y-75646447D01*
X83779474Y-76325921D01*
X83811859Y-76281349D01*
X83904755Y-76099031D01*
X83967990Y-75904417D01*
X84000000Y-75702317D01*
X84000000Y-75497682D01*
X83967990Y-75295582D01*
X83904755Y-75100968D01*
X83811859Y-74918650D01*
X83779474Y-74874077D01*
X83779474Y-74874076D01*
X83100000Y-75553551D01*
X83100000Y-75547339D01*
X83072741Y-75445606D01*
X83020080Y-75354394D01*
X82945606Y-75279920D01*
X82854394Y-75227259D01*
X82752661Y-75200000D01*
X82746446Y-75200000D01*
X83425922Y-74520524D01*
X83425921Y-74520523D01*
X83381359Y-74488147D01*
X83381350Y-74488141D01*
X83199031Y-74395244D01*
X83004417Y-74332009D01*
X82802317Y-74300000D01*
X82597683Y-74300000D01*
X82395582Y-74332009D01*
X82200968Y-74395244D01*
X82018651Y-74488139D01*
X81948444Y-74539148D01*
X81882637Y-74562627D01*
X81814583Y-74546801D01*
X81787878Y-74526510D01*
X81718657Y-74457289D01*
X81718656Y-74457288D01*
X81596027Y-74381650D01*
X81569336Y-74365187D01*
X81569331Y-74365185D01*
X81559294Y-74361859D01*
X81402797Y-74310001D01*
X81402795Y-74310000D01*
X81300010Y-74299500D01*
X80099998Y-74299500D01*
X80099981Y-74299501D01*
X79997203Y-74310000D01*
X79997200Y-74310001D01*
X79830668Y-74365185D01*
X79830663Y-74365187D01*
X79681342Y-74457289D01*
X79557289Y-74581342D01*
X79465187Y-74730663D01*
X79465186Y-74730666D01*
X79410001Y-74897203D01*
X79410001Y-74897204D01*
X79410000Y-74897204D01*
X79399500Y-74999983D01*
X64200573Y-74999983D01*
X63583221Y-74382631D01*
X63575927Y-74369274D01*
X63564714Y-74358982D01*
X63559522Y-74339230D01*
X63549736Y-74321308D01*
X63550547Y-74305083D01*
X63546953Y-74291408D01*
X63552970Y-74256634D01*
X63560511Y-74233427D01*
X63594100Y-74021357D01*
X63594100Y-73806643D01*
X63560511Y-73594573D01*
X63494161Y-73390367D01*
X63494161Y-73390366D01*
X63396711Y-73199111D01*
X63396683Y-73199056D01*
X63359357Y-73147682D01*
X70000000Y-73147682D01*
X70000000Y-73352317D01*
X70032009Y-73554417D01*
X70095244Y-73749031D01*
X70188141Y-73931350D01*
X70188147Y-73931359D01*
X70220523Y-73975921D01*
X70220524Y-73975922D01*
X70900000Y-73296446D01*
X70900000Y-73302661D01*
X70927259Y-73404394D01*
X70979920Y-73495606D01*
X71054394Y-73570080D01*
X71145606Y-73622741D01*
X71247339Y-73650000D01*
X71253553Y-73650000D01*
X70574076Y-74329474D01*
X70618650Y-74361859D01*
X70800968Y-74454755D01*
X70995582Y-74517990D01*
X71197683Y-74550000D01*
X71402317Y-74550000D01*
X71604417Y-74517990D01*
X71799031Y-74454755D01*
X71981349Y-74361859D01*
X72025921Y-74329474D01*
X71346447Y-73650000D01*
X71352661Y-73650000D01*
X71454394Y-73622741D01*
X71545606Y-73570080D01*
X71620080Y-73495606D01*
X71672741Y-73404394D01*
X71700000Y-73302661D01*
X71700000Y-73296448D01*
X72379474Y-73975922D01*
X72379474Y-73975921D01*
X72411859Y-73931349D01*
X72439233Y-73877624D01*
X72487207Y-73826827D01*
X72555028Y-73810031D01*
X72621163Y-73832567D01*
X72660203Y-73877621D01*
X72687713Y-73931611D01*
X72808028Y-74097213D01*
X72952786Y-74241971D01*
X73094245Y-74344745D01*
X73118390Y-74362287D01*
X73183072Y-74395244D01*
X73300776Y-74455218D01*
X73300778Y-74455218D01*
X73300781Y-74455220D01*
X73402095Y-74488139D01*
X73495465Y-74518477D01*
X73596557Y-74534488D01*
X73697648Y-74550500D01*
X73697649Y-74550500D01*
X73902351Y-74550500D01*
X73902352Y-74550500D01*
X74104534Y-74518477D01*
X74299219Y-74455220D01*
X74481610Y-74362287D01*
X74579167Y-74291408D01*
X74647213Y-74241971D01*
X74647215Y-74241968D01*
X74647219Y-74241966D01*
X74791966Y-74097219D01*
X74791968Y-74097215D01*
X74791971Y-74097213D01*
X74844732Y-74024590D01*
X74912287Y-73931610D01*
X75005220Y-73749219D01*
X75068477Y-73554534D01*
X75100500Y-73352352D01*
X75100500Y-73147648D01*
X75083627Y-73041116D01*
X75068477Y-72945465D01*
X75037458Y-72850000D01*
X75005220Y-72750781D01*
X75005218Y-72750778D01*
X75005218Y-72750776D01*
X74962750Y-72667429D01*
X74912287Y-72568390D01*
X74880092Y-72524077D01*
X74791971Y-72402786D01*
X74647213Y-72258028D01*
X74481613Y-72137715D01*
X74481612Y-72137714D01*
X74481610Y-72137713D01*
X74385896Y-72088944D01*
X74299223Y-72044781D01*
X74104534Y-71981522D01*
X73929995Y-71953878D01*
X73902352Y-71949500D01*
X73697648Y-71949500D01*
X73673329Y-71953351D01*
X73495465Y-71981522D01*
X73300776Y-72044781D01*
X73118386Y-72137715D01*
X72952786Y-72258028D01*
X72808028Y-72402786D01*
X72687714Y-72568386D01*
X72660203Y-72622379D01*
X72612227Y-72673174D01*
X72544406Y-72689968D01*
X72478272Y-72667429D01*
X72439234Y-72622376D01*
X72411861Y-72568652D01*
X72379474Y-72524077D01*
X72379474Y-72524076D01*
X71700000Y-73203551D01*
X71700000Y-73197339D01*
X71672741Y-73095606D01*
X71620080Y-73004394D01*
X71545606Y-72929920D01*
X71454394Y-72877259D01*
X71352661Y-72850000D01*
X71346446Y-72850000D01*
X72025922Y-72170524D01*
X72025921Y-72170523D01*
X71981359Y-72138147D01*
X71981350Y-72138141D01*
X71799031Y-72045244D01*
X71604417Y-71982009D01*
X71402317Y-71950000D01*
X71197683Y-71950000D01*
X70995582Y-71982009D01*
X70800968Y-72045244D01*
X70618644Y-72138143D01*
X70574077Y-72170523D01*
X70574077Y-72170524D01*
X71253554Y-72850000D01*
X71247339Y-72850000D01*
X71145606Y-72877259D01*
X71054394Y-72929920D01*
X70979920Y-73004394D01*
X70927259Y-73095606D01*
X70900000Y-73197339D01*
X70900000Y-73203553D01*
X70220524Y-72524077D01*
X70220523Y-72524077D01*
X70188143Y-72568644D01*
X70095244Y-72750968D01*
X70032009Y-72945582D01*
X70000000Y-73147682D01*
X63359357Y-73147682D01*
X63270477Y-73025349D01*
X63118651Y-72873523D01*
X62944944Y-72747317D01*
X62944943Y-72747316D01*
X62941002Y-72744453D01*
X62942405Y-72742521D01*
X62902078Y-72698073D01*
X62890558Y-72629160D01*
X62918125Y-72564958D01*
X62941709Y-72544521D01*
X62941002Y-72543547D01*
X62967801Y-72524076D01*
X63118651Y-72414477D01*
X63270477Y-72262651D01*
X63396683Y-72088944D01*
X63494161Y-71897633D01*
X63560511Y-71693427D01*
X63594100Y-71481357D01*
X63594100Y-71266643D01*
X63560511Y-71054573D01*
X63494161Y-70850367D01*
X63494161Y-70850366D01*
X63396682Y-70659055D01*
X63270477Y-70485349D01*
X63118651Y-70333523D01*
X62944944Y-70207317D01*
X62944943Y-70207316D01*
X62941002Y-70204453D01*
X62942405Y-70202521D01*
X62902078Y-70158073D01*
X62890558Y-70089160D01*
X62918125Y-70024958D01*
X62941709Y-70004521D01*
X62941002Y-70003547D01*
X62944944Y-70000683D01*
X63118651Y-69874477D01*
X63270477Y-69722651D01*
X63396683Y-69548944D01*
X63494161Y-69357633D01*
X63560511Y-69153427D01*
X63580044Y-69030101D01*
X63609973Y-68966967D01*
X63669285Y-68930036D01*
X63702517Y-68925500D01*
X64423885Y-68925500D01*
X64490924Y-68945185D01*
X64523606Y-68978571D01*
X64524849Y-68977669D01*
X64648028Y-69147213D01*
X64792786Y-69291971D01*
X64913226Y-69379474D01*
X64958390Y-69412287D01*
X65074607Y-69471503D01*
X65140776Y-69505218D01*
X65140778Y-69505218D01*
X65140781Y-69505220D01*
X65229948Y-69534192D01*
X65335465Y-69568477D01*
X65436557Y-69584488D01*
X65537648Y-69600500D01*
X65537649Y-69600500D01*
X65742351Y-69600500D01*
X65742352Y-69600500D01*
X65944534Y-69568477D01*
X66139219Y-69505220D01*
X66321610Y-69412287D01*
X66414590Y-69344732D01*
X66487213Y-69291971D01*
X66487215Y-69291968D01*
X66487219Y-69291966D01*
X66631966Y-69147219D01*
X66631968Y-69147215D01*
X66631971Y-69147213D01*
X66696156Y-69058868D01*
X66752287Y-68981610D01*
X66845220Y-68799219D01*
X66908477Y-68604534D01*
X66940500Y-68402352D01*
X66940500Y-68197648D01*
X66928052Y-68119055D01*
X66908477Y-67995465D01*
X66871730Y-67882371D01*
X66845220Y-67800781D01*
X66845218Y-67800778D01*
X66845218Y-67800776D01*
X66787000Y-67686518D01*
X66752287Y-67618390D01*
X66725756Y-67581873D01*
X66631971Y-67452786D01*
X66487213Y-67308028D01*
X66321613Y-67187715D01*
X66321612Y-67187714D01*
X66321610Y-67187713D01*
X66264653Y-67158691D01*
X66139223Y-67094781D01*
X65944534Y-67031522D01*
X65769995Y-67003878D01*
X65742352Y-66999500D01*
X65537648Y-66999500D01*
X65513329Y-67003351D01*
X65335465Y-67031522D01*
X65140776Y-67094781D01*
X64958386Y-67187715D01*
X64792786Y-67308028D01*
X64648028Y-67452786D01*
X64524849Y-67622331D01*
X64523176Y-67621115D01*
X64477792Y-67662169D01*
X64423885Y-67674500D01*
X63238389Y-67674500D01*
X63181595Y-67685797D01*
X63181592Y-67685797D01*
X63177971Y-67686518D01*
X63117548Y-67698537D01*
X63091294Y-67709411D01*
X63083061Y-67711565D01*
X63056290Y-67710766D01*
X63029669Y-67713628D01*
X63020461Y-67709697D01*
X63013223Y-67709482D01*
X63002118Y-67701868D01*
X62978804Y-67691917D01*
X62941003Y-67664453D01*
X62942406Y-67662521D01*
X62902078Y-67618073D01*
X62890558Y-67549160D01*
X62918125Y-67484958D01*
X62941709Y-67464521D01*
X62941002Y-67463547D01*
X62955820Y-67452781D01*
X63118651Y-67334477D01*
X63270477Y-67182651D01*
X63396683Y-67008944D01*
X63457770Y-66889052D01*
X63468018Y-66877519D01*
X63473105Y-66865833D01*
X63499356Y-66842250D01*
X63541509Y-66814084D01*
X63592733Y-66779858D01*
X63679858Y-66692733D01*
X63679858Y-66692731D01*
X63690066Y-66682524D01*
X63690067Y-66682521D01*
X64409594Y-65962994D01*
X64470916Y-65929511D01*
X64540608Y-65934495D01*
X64596541Y-65976367D01*
X64597593Y-65977792D01*
X64648034Y-66047219D01*
X64792786Y-66191971D01*
X64938241Y-66297648D01*
X64958390Y-66312287D01*
X65053889Y-66360946D01*
X65140776Y-66405218D01*
X65140778Y-66405218D01*
X65140781Y-66405220D01*
X65220324Y-66431065D01*
X65335465Y-66468477D01*
X65369995Y-66473946D01*
X65537648Y-66500500D01*
X65537649Y-66500500D01*
X65742351Y-66500500D01*
X65742352Y-66500500D01*
X65944534Y-66468477D01*
X66139219Y-66405220D01*
X66321610Y-66312287D01*
X66442283Y-66224614D01*
X66487213Y-66191971D01*
X66487215Y-66191968D01*
X66487219Y-66191966D01*
X66631966Y-66047219D01*
X66631968Y-66047215D01*
X66631971Y-66047213D01*
X66698137Y-65956142D01*
X66752287Y-65881610D01*
X66845220Y-65699219D01*
X66908477Y-65504534D01*
X66940500Y-65302352D01*
X66940500Y-65097648D01*
X66919980Y-64968090D01*
X66908477Y-64895465D01*
X66858781Y-64742517D01*
X66845220Y-64700781D01*
X66845218Y-64700778D01*
X66845218Y-64700776D01*
X66803405Y-64618714D01*
X66752287Y-64518390D01*
X66716363Y-64468944D01*
X66631971Y-64352786D01*
X66487213Y-64208028D01*
X66321613Y-64087715D01*
X66321612Y-64087714D01*
X66321610Y-64087713D01*
X66264653Y-64058691D01*
X66139223Y-63994781D01*
X65944534Y-63931522D01*
X65753527Y-63901270D01*
X65742352Y-63899500D01*
X65537648Y-63899500D01*
X65526473Y-63901270D01*
X65335465Y-63931522D01*
X65140776Y-63994781D01*
X64958386Y-64087715D01*
X64792786Y-64208028D01*
X64648028Y-64352786D01*
X64524849Y-64522331D01*
X64523176Y-64521115D01*
X64521909Y-64522261D01*
X64517598Y-64531703D01*
X64496441Y-64545299D01*
X64477792Y-64562169D01*
X64465991Y-64564868D01*
X64458820Y-64569477D01*
X64423885Y-64574500D01*
X64355741Y-64574500D01*
X64355721Y-64574499D01*
X64349607Y-64574499D01*
X64226394Y-64574499D01*
X64125597Y-64594548D01*
X64125592Y-64594548D01*
X64105553Y-64598535D01*
X64083499Y-64607670D01*
X63991717Y-64645686D01*
X63991708Y-64645691D01*
X63889267Y-64714141D01*
X63889263Y-64714144D01*
X63321949Y-65281459D01*
X63260626Y-65314944D01*
X63190934Y-65309960D01*
X63146587Y-65281459D01*
X63118653Y-65253525D01*
X63118651Y-65253523D01*
X62944944Y-65127317D01*
X62944943Y-65127316D01*
X62941002Y-65124453D01*
X62942405Y-65122521D01*
X62902078Y-65078073D01*
X62890558Y-65009160D01*
X62918125Y-64944958D01*
X62941709Y-64924521D01*
X62941002Y-64923547D01*
X62944944Y-64920683D01*
X63118651Y-64794477D01*
X63270477Y-64642651D01*
X63396683Y-64468944D01*
X63494161Y-64277633D01*
X63560511Y-64073427D01*
X63594100Y-63861357D01*
X63594100Y-63646643D01*
X63560511Y-63434573D01*
X63494161Y-63230367D01*
X63494161Y-63230366D01*
X63426710Y-63097987D01*
X63396683Y-63039056D01*
X63270477Y-62865349D01*
X63118651Y-62713523D01*
X62944944Y-62587317D01*
X62944943Y-62587316D01*
X62941002Y-62584453D01*
X62942405Y-62582521D01*
X62902078Y-62538073D01*
X62890558Y-62469160D01*
X62918125Y-62404958D01*
X62941709Y-62384521D01*
X62941002Y-62383547D01*
X62944944Y-62380683D01*
X63118651Y-62254477D01*
X63270477Y-62102651D01*
X63396683Y-61928944D01*
X63494161Y-61737633D01*
X63560511Y-61533427D01*
X63594100Y-61321357D01*
X63594100Y-61222052D01*
X63613785Y-61155013D01*
X63666589Y-61109258D01*
X63735747Y-61099314D01*
X63799303Y-61128339D01*
X63805781Y-61134371D01*
X64341175Y-61669765D01*
X64374660Y-61731088D01*
X64371694Y-61790490D01*
X64372661Y-61790723D01*
X64371523Y-61795462D01*
X64339500Y-61997648D01*
X64339500Y-62202351D01*
X64371522Y-62404534D01*
X64434781Y-62599223D01*
X64490583Y-62708738D01*
X64520437Y-62767331D01*
X64527715Y-62781613D01*
X64648028Y-62947213D01*
X64792786Y-63091971D01*
X64896258Y-63167146D01*
X64958390Y-63212287D01*
X65074607Y-63271503D01*
X65140776Y-63305218D01*
X65140778Y-63305218D01*
X65140781Y-63305220D01*
X65208515Y-63327228D01*
X65335465Y-63368477D01*
X65436557Y-63384488D01*
X65537648Y-63400500D01*
X65537649Y-63400500D01*
X65742351Y-63400500D01*
X65742352Y-63400500D01*
X65944534Y-63368477D01*
X66139219Y-63305220D01*
X66321610Y-63212287D01*
X66445378Y-63122365D01*
X66487213Y-63091971D01*
X66487215Y-63091968D01*
X66487219Y-63091966D01*
X66631966Y-62947219D01*
X66631968Y-62947215D01*
X66631971Y-62947213D01*
X66690141Y-62867147D01*
X66752287Y-62781610D01*
X66845220Y-62599219D01*
X66908477Y-62404534D01*
X66940500Y-62202352D01*
X66940500Y-61997648D01*
X66920824Y-61873422D01*
X66908477Y-61795465D01*
X66871815Y-61682631D01*
X66845220Y-61600781D01*
X66845218Y-61600778D01*
X66845218Y-61600776D01*
X66797525Y-61507174D01*
X66752287Y-61418390D01*
X66714818Y-61366818D01*
X66631971Y-61252786D01*
X66487213Y-61108028D01*
X66321613Y-60987715D01*
X66321612Y-60987714D01*
X66321610Y-60987713D01*
X66255829Y-60954196D01*
X66139223Y-60894781D01*
X65944534Y-60831522D01*
X65769995Y-60803878D01*
X65742352Y-60799500D01*
X65537648Y-60799500D01*
X65492209Y-60806696D01*
X65343178Y-60830301D01*
X65273884Y-60821346D01*
X65236099Y-60795509D01*
X63583221Y-59142631D01*
X63549736Y-59081308D01*
X63552971Y-59016630D01*
X63560511Y-58993427D01*
X63594100Y-58781357D01*
X63594100Y-58682052D01*
X63613785Y-58615013D01*
X63666589Y-58569258D01*
X63735747Y-58559314D01*
X63799303Y-58588339D01*
X63805781Y-58594371D01*
X64315853Y-59104443D01*
X64349338Y-59165766D01*
X64350645Y-59172725D01*
X64371522Y-59304531D01*
X64371523Y-59304534D01*
X64434780Y-59499219D01*
X64462586Y-59553792D01*
X64527715Y-59681613D01*
X64648028Y-59847213D01*
X64792786Y-59991971D01*
X64947749Y-60104556D01*
X64958390Y-60112287D01*
X65040867Y-60154311D01*
X65140776Y-60205218D01*
X65140778Y-60205218D01*
X65140781Y-60205220D01*
X65242298Y-60238205D01*
X65335465Y-60268477D01*
X65436557Y-60284488D01*
X65537648Y-60300500D01*
X65537649Y-60300500D01*
X65742351Y-60300500D01*
X65742352Y-60300500D01*
X65944534Y-60268477D01*
X66139219Y-60205220D01*
X66321610Y-60112287D01*
X66461511Y-60010644D01*
X66487213Y-59991971D01*
X66487215Y-59991968D01*
X66487219Y-59991966D01*
X66631966Y-59847219D01*
X66631968Y-59847215D01*
X66631971Y-59847213D01*
X66699407Y-59754394D01*
X66752287Y-59681610D01*
X66845220Y-59499219D01*
X66908477Y-59304534D01*
X66940500Y-59102352D01*
X66940500Y-58897648D01*
X74499500Y-58897648D01*
X74499500Y-59102351D01*
X74531522Y-59304534D01*
X74594781Y-59499223D01*
X74687715Y-59681613D01*
X74808028Y-59847213D01*
X74952786Y-59991971D01*
X75107749Y-60104556D01*
X75118390Y-60112287D01*
X75200867Y-60154311D01*
X75300776Y-60205218D01*
X75300778Y-60205218D01*
X75300781Y-60205220D01*
X75402298Y-60238205D01*
X75495465Y-60268477D01*
X75596557Y-60284488D01*
X75697648Y-60300500D01*
X75697649Y-60300500D01*
X75902351Y-60300500D01*
X75902352Y-60300500D01*
X76104534Y-60268477D01*
X76299219Y-60205220D01*
X76481610Y-60112287D01*
X76621511Y-60010644D01*
X76647213Y-59991971D01*
X76647215Y-59991968D01*
X76647219Y-59991966D01*
X76791966Y-59847219D01*
X76791968Y-59847215D01*
X76791971Y-59847213D01*
X76859407Y-59754394D01*
X76912287Y-59681610D01*
X77005220Y-59499219D01*
X77068477Y-59304534D01*
X77100500Y-59102352D01*
X77100500Y-58949501D01*
X77120185Y-58882462D01*
X77172989Y-58836707D01*
X77224500Y-58825501D01*
X78489369Y-58825501D01*
X78556408Y-58845186D01*
X78602163Y-58897990D01*
X78612107Y-58967148D01*
X78599854Y-59005795D01*
X78541582Y-59120161D01*
X78480778Y-59307294D01*
X78450000Y-59501617D01*
X78450000Y-59698382D01*
X78480778Y-59892705D01*
X78541581Y-60079835D01*
X78630905Y-60255145D01*
X78656319Y-60290125D01*
X78656320Y-60290125D01*
X79300000Y-59646445D01*
X79300000Y-59652661D01*
X79327259Y-59754394D01*
X79379920Y-59845606D01*
X79454394Y-59920080D01*
X79545606Y-59972741D01*
X79647339Y-60000000D01*
X79653553Y-60000000D01*
X79009873Y-60643677D01*
X79009873Y-60643678D01*
X79044858Y-60669096D01*
X79220164Y-60758418D01*
X79407294Y-60819221D01*
X79601618Y-60850000D01*
X79798382Y-60850000D01*
X79992705Y-60819221D01*
X80179835Y-60758418D01*
X80355143Y-60669095D01*
X80390125Y-60643678D01*
X80390126Y-60643678D01*
X79746448Y-60000000D01*
X79752661Y-60000000D01*
X79854394Y-59972741D01*
X79945606Y-59920080D01*
X80020080Y-59845606D01*
X80072741Y-59754394D01*
X80100000Y-59652661D01*
X80100000Y-59646447D01*
X80743678Y-60290126D01*
X80743678Y-60290125D01*
X80769097Y-60255141D01*
X80859234Y-60078236D01*
X80907208Y-60027439D01*
X80975029Y-60010644D01*
X81041164Y-60033181D01*
X81080204Y-60078235D01*
X81081115Y-60080024D01*
X81081116Y-60080025D01*
X81170476Y-60255405D01*
X81286172Y-60414646D01*
X81425354Y-60553828D01*
X81584595Y-60669524D01*
X81655155Y-60705476D01*
X81759970Y-60758882D01*
X81759972Y-60758882D01*
X81759975Y-60758884D01*
X81860317Y-60791487D01*
X81947173Y-60819709D01*
X82141578Y-60850500D01*
X82141583Y-60850500D01*
X82338422Y-60850500D01*
X82532826Y-60819709D01*
X82534328Y-60819221D01*
X82720025Y-60758884D01*
X82895405Y-60669524D01*
X83054646Y-60553828D01*
X83193828Y-60414646D01*
X83305184Y-60261378D01*
X83360512Y-60218714D01*
X83430125Y-60212735D01*
X83491920Y-60245341D01*
X83526277Y-60306179D01*
X83529500Y-60334263D01*
X83529500Y-60397869D01*
X83529501Y-60397876D01*
X83535908Y-60457483D01*
X83586202Y-60592328D01*
X83586206Y-60592335D01*
X83672452Y-60707544D01*
X83672455Y-60707547D01*
X83787664Y-60793793D01*
X83787671Y-60793797D01*
X83922517Y-60844091D01*
X83922516Y-60844091D01*
X83929444Y-60844835D01*
X83982127Y-60850500D01*
X85577872Y-60850499D01*
X85637483Y-60844091D01*
X85772331Y-60793796D01*
X85887546Y-60707546D01*
X85973796Y-60592331D01*
X86024091Y-60457483D01*
X86030500Y-60397873D01*
X86030499Y-60360942D01*
X86050182Y-60293906D01*
X86102985Y-60248150D01*
X86172143Y-60238205D01*
X86235699Y-60267228D01*
X86254818Y-60288059D01*
X86256319Y-60290125D01*
X86256320Y-60290125D01*
X86900000Y-59646445D01*
X86900000Y-59652661D01*
X86927259Y-59754394D01*
X86979920Y-59845606D01*
X87054394Y-59920080D01*
X87145606Y-59972741D01*
X87247339Y-60000000D01*
X87253553Y-60000000D01*
X86609873Y-60643677D01*
X86609873Y-60643678D01*
X86644858Y-60669096D01*
X86820164Y-60758418D01*
X87007294Y-60819221D01*
X87201618Y-60850000D01*
X87403249Y-60850000D01*
X87403249Y-60851548D01*
X87464935Y-60864508D01*
X87514691Y-60913559D01*
X87530030Y-60981724D01*
X87506081Y-61047361D01*
X87493967Y-61061442D01*
X87117229Y-61438181D01*
X87055906Y-61471666D01*
X87029548Y-61474500D01*
X77016115Y-61474500D01*
X76949076Y-61454815D01*
X76916393Y-61421428D01*
X76915151Y-61422331D01*
X76791971Y-61252786D01*
X76647213Y-61108028D01*
X76481613Y-60987715D01*
X76481612Y-60987714D01*
X76481610Y-60987713D01*
X76415829Y-60954196D01*
X76299223Y-60894781D01*
X76104534Y-60831522D01*
X75929995Y-60803878D01*
X75902352Y-60799500D01*
X75697648Y-60799500D01*
X75673329Y-60803351D01*
X75495465Y-60831522D01*
X75300776Y-60894781D01*
X75118386Y-60987715D01*
X74952786Y-61108028D01*
X74808028Y-61252786D01*
X74687715Y-61418386D01*
X74594781Y-61600776D01*
X74531522Y-61795465D01*
X74499500Y-61997648D01*
X74499500Y-62202351D01*
X74531522Y-62404534D01*
X74594781Y-62599223D01*
X74650583Y-62708738D01*
X74680437Y-62767331D01*
X74687715Y-62781613D01*
X74808028Y-62947213D01*
X74952786Y-63091971D01*
X75056258Y-63167146D01*
X75118390Y-63212287D01*
X75234607Y-63271503D01*
X75300776Y-63305218D01*
X75300778Y-63305218D01*
X75300781Y-63305220D01*
X75368515Y-63327228D01*
X75495465Y-63368477D01*
X75596557Y-63384488D01*
X75697648Y-63400500D01*
X75697649Y-63400500D01*
X75902351Y-63400500D01*
X75902352Y-63400500D01*
X76104534Y-63368477D01*
X76299219Y-63305220D01*
X76481610Y-63212287D01*
X76605378Y-63122365D01*
X76647213Y-63091971D01*
X76647215Y-63091968D01*
X76647219Y-63091966D01*
X76791966Y-62947219D01*
X76791968Y-62947215D01*
X76791971Y-62947213D01*
X76915151Y-62777669D01*
X76916823Y-62778884D01*
X76962208Y-62737831D01*
X77016115Y-62725500D01*
X86364481Y-62725500D01*
X86431520Y-62745185D01*
X86477275Y-62797989D01*
X86487219Y-62867147D01*
X86458194Y-62930703D01*
X86452162Y-62937181D01*
X85076160Y-64313181D01*
X85014837Y-64346666D01*
X84988479Y-64349500D01*
X83982129Y-64349500D01*
X83982123Y-64349501D01*
X83922516Y-64355908D01*
X83787671Y-64406202D01*
X83787664Y-64406206D01*
X83672455Y-64492452D01*
X83672452Y-64492455D01*
X83586206Y-64607664D01*
X83586204Y-64607669D01*
X83535908Y-64742517D01*
X83531303Y-64785354D01*
X83529501Y-64802123D01*
X83529500Y-64802135D01*
X83529500Y-64865732D01*
X83509815Y-64932771D01*
X83457011Y-64978526D01*
X83387853Y-64988470D01*
X83324297Y-64959445D01*
X83305182Y-64938618D01*
X83206020Y-64802135D01*
X83193828Y-64785354D01*
X83054646Y-64646172D01*
X82895405Y-64530476D01*
X82887698Y-64526549D01*
X82720029Y-64441117D01*
X82532826Y-64380290D01*
X82338422Y-64349500D01*
X82338417Y-64349500D01*
X82141583Y-64349500D01*
X82141578Y-64349500D01*
X81973067Y-64376189D01*
X81903773Y-64367234D01*
X81865988Y-64341397D01*
X81435822Y-63911232D01*
X81425859Y-63901269D01*
X81425858Y-63901267D01*
X81338733Y-63814142D01*
X81287509Y-63779915D01*
X81236286Y-63745688D01*
X81236283Y-63745686D01*
X81236280Y-63745685D01*
X81162603Y-63715168D01*
X81162601Y-63715167D01*
X81155792Y-63712347D01*
X81122452Y-63698537D01*
X81062029Y-63686518D01*
X81057306Y-63685578D01*
X81057304Y-63685578D01*
X81001610Y-63674500D01*
X81001607Y-63674500D01*
X81001606Y-63674500D01*
X76761607Y-63674500D01*
X76638393Y-63674500D01*
X76638389Y-63674500D01*
X76582697Y-63685578D01*
X76577971Y-63686518D01*
X76538688Y-63694332D01*
X76517546Y-63698537D01*
X76403716Y-63745687D01*
X76403707Y-63745692D01*
X76301267Y-63814141D01*
X76301263Y-63814144D01*
X76217627Y-63897781D01*
X76156304Y-63931266D01*
X76109584Y-63930776D01*
X76109346Y-63932285D01*
X76005898Y-63915900D01*
X75902352Y-63899500D01*
X75697648Y-63899500D01*
X75686473Y-63901270D01*
X75495465Y-63931522D01*
X75300776Y-63994781D01*
X75118386Y-64087715D01*
X74952786Y-64208028D01*
X74808028Y-64352786D01*
X74687715Y-64518386D01*
X74594781Y-64700776D01*
X74531522Y-64895465D01*
X74499500Y-65097648D01*
X74499500Y-65302351D01*
X74531522Y-65504534D01*
X74594781Y-65699223D01*
X74687715Y-65881613D01*
X74808028Y-66047213D01*
X74952786Y-66191971D01*
X75098241Y-66297648D01*
X75118390Y-66312287D01*
X75213889Y-66360946D01*
X75300776Y-66405218D01*
X75300778Y-66405218D01*
X75300781Y-66405220D01*
X75380324Y-66431065D01*
X75495465Y-66468477D01*
X75529995Y-66473946D01*
X75697648Y-66500500D01*
X75697649Y-66500500D01*
X75902351Y-66500500D01*
X75902352Y-66500500D01*
X76104534Y-66468477D01*
X76299219Y-66405220D01*
X76481610Y-66312287D01*
X76602283Y-66224614D01*
X76647213Y-66191971D01*
X76647215Y-66191968D01*
X76647219Y-66191966D01*
X76791966Y-66047219D01*
X76791968Y-66047215D01*
X76791971Y-66047213D01*
X76858137Y-65956142D01*
X76912287Y-65881610D01*
X77005220Y-65699219D01*
X77068477Y-65504534D01*
X77100500Y-65302352D01*
X77100500Y-65097648D01*
X77095946Y-65068897D01*
X77104900Y-64999605D01*
X77149896Y-64946153D01*
X77216647Y-64925513D01*
X77218419Y-64925500D01*
X78438418Y-64925500D01*
X78505457Y-64945185D01*
X78551212Y-64997989D01*
X78561156Y-65067147D01*
X78548902Y-65105796D01*
X78541581Y-65120162D01*
X78480778Y-65307294D01*
X78450000Y-65501617D01*
X78450000Y-65698382D01*
X78480778Y-65892705D01*
X78541581Y-66079835D01*
X78630905Y-66255145D01*
X78656319Y-66290125D01*
X78656320Y-66290125D01*
X79300000Y-65646445D01*
X79300000Y-65652661D01*
X79327259Y-65754394D01*
X79379920Y-65845606D01*
X79454394Y-65920080D01*
X79545606Y-65972741D01*
X79647339Y-66000000D01*
X79653553Y-66000000D01*
X79009873Y-66643677D01*
X79009873Y-66643678D01*
X79044858Y-66669096D01*
X79220164Y-66758418D01*
X79407294Y-66819221D01*
X79601618Y-66850000D01*
X79798382Y-66850000D01*
X79992705Y-66819221D01*
X80179835Y-66758418D01*
X80355143Y-66669095D01*
X80390125Y-66643678D01*
X80390126Y-66643678D01*
X79746448Y-66000000D01*
X79752661Y-66000000D01*
X79854394Y-65972741D01*
X79945606Y-65920080D01*
X80020080Y-65845606D01*
X80072741Y-65754394D01*
X80100000Y-65652661D01*
X80100000Y-65646447D01*
X80743678Y-66290126D01*
X80743678Y-66290125D01*
X80769097Y-66255141D01*
X80859234Y-66078236D01*
X80907208Y-66027439D01*
X80975029Y-66010644D01*
X81041164Y-66033181D01*
X81080204Y-66078235D01*
X81081115Y-66080024D01*
X81081116Y-66080025D01*
X81170476Y-66255405D01*
X81286172Y-66414646D01*
X81425354Y-66553828D01*
X81584595Y-66669524D01*
X81659214Y-66707544D01*
X81759970Y-66758882D01*
X81759972Y-66758882D01*
X81759975Y-66758884D01*
X81824523Y-66779857D01*
X81947173Y-66819709D01*
X82141578Y-66850500D01*
X82141583Y-66850500D01*
X82338422Y-66850500D01*
X82532826Y-66819709D01*
X82550138Y-66814084D01*
X82720025Y-66758884D01*
X82895405Y-66669524D01*
X83054646Y-66553828D01*
X83193828Y-66414646D01*
X83305184Y-66261378D01*
X83360512Y-66218714D01*
X83430125Y-66212735D01*
X83491920Y-66245341D01*
X83526277Y-66306179D01*
X83529500Y-66334263D01*
X83529500Y-66397869D01*
X83529501Y-66397876D01*
X83535908Y-66457483D01*
X83586202Y-66592328D01*
X83586206Y-66592335D01*
X83672452Y-66707544D01*
X83672455Y-66707547D01*
X83787664Y-66793793D01*
X83787671Y-66793797D01*
X83922517Y-66844091D01*
X83922516Y-66844091D01*
X83929444Y-66844835D01*
X83982127Y-66850500D01*
X85577872Y-66850499D01*
X85637483Y-66844091D01*
X85772331Y-66793796D01*
X85887546Y-66707546D01*
X85973796Y-66592331D01*
X86024091Y-66457483D01*
X86030500Y-66397873D01*
X86030499Y-66360942D01*
X86050182Y-66293906D01*
X86102985Y-66248150D01*
X86172143Y-66238205D01*
X86235699Y-66267228D01*
X86254818Y-66288059D01*
X86256319Y-66290125D01*
X86256320Y-66290125D01*
X86900000Y-65646445D01*
X86900000Y-65652661D01*
X86927259Y-65754394D01*
X86979920Y-65845606D01*
X87054394Y-65920080D01*
X87145606Y-65972741D01*
X87247339Y-66000000D01*
X87253553Y-66000000D01*
X86609873Y-66643677D01*
X86609873Y-66643678D01*
X86644858Y-66669096D01*
X86820164Y-66758418D01*
X87007294Y-66819221D01*
X87201618Y-66850000D01*
X87403249Y-66850000D01*
X87403249Y-66851549D01*
X87464931Y-66864506D01*
X87514689Y-66913556D01*
X87530029Y-66981721D01*
X87506082Y-67047359D01*
X87493966Y-67061442D01*
X86917229Y-67638181D01*
X86855906Y-67671666D01*
X86829548Y-67674500D01*
X77016115Y-67674500D01*
X76949076Y-67654815D01*
X76916393Y-67621428D01*
X76915151Y-67622331D01*
X76791971Y-67452786D01*
X76647213Y-67308028D01*
X76481613Y-67187715D01*
X76481612Y-67187714D01*
X76481610Y-67187713D01*
X76424653Y-67158691D01*
X76299223Y-67094781D01*
X76104534Y-67031522D01*
X75929995Y-67003878D01*
X75902352Y-66999500D01*
X75697648Y-66999500D01*
X75673329Y-67003351D01*
X75495465Y-67031522D01*
X75300776Y-67094781D01*
X75118386Y-67187715D01*
X74952786Y-67308028D01*
X74808028Y-67452786D01*
X74687715Y-67618386D01*
X74594781Y-67800776D01*
X74531522Y-67995465D01*
X74499500Y-68197648D01*
X74499500Y-68402351D01*
X74531522Y-68604534D01*
X74594781Y-68799223D01*
X74622851Y-68854312D01*
X74687585Y-68981359D01*
X74687715Y-68981613D01*
X74808028Y-69147213D01*
X74952786Y-69291971D01*
X75073226Y-69379474D01*
X75118390Y-69412287D01*
X75234607Y-69471503D01*
X75300776Y-69505218D01*
X75300778Y-69505218D01*
X75300781Y-69505220D01*
X75389948Y-69534192D01*
X75495465Y-69568477D01*
X75596557Y-69584488D01*
X75697648Y-69600500D01*
X75697649Y-69600500D01*
X75902351Y-69600500D01*
X75902352Y-69600500D01*
X76104534Y-69568477D01*
X76299219Y-69505220D01*
X76481610Y-69412287D01*
X76574590Y-69344732D01*
X76647213Y-69291971D01*
X76647215Y-69291968D01*
X76647219Y-69291966D01*
X76791966Y-69147219D01*
X76791968Y-69147215D01*
X76791971Y-69147213D01*
X76915151Y-68977669D01*
X76916823Y-68978884D01*
X76962208Y-68937831D01*
X77016115Y-68925500D01*
X87201607Y-68925500D01*
X87262029Y-68913481D01*
X87322452Y-68901463D01*
X87355792Y-68887652D01*
X87436286Y-68854312D01*
X87487509Y-68820084D01*
X87538733Y-68785858D01*
X87625858Y-68698733D01*
X87625858Y-68698731D01*
X87636066Y-68688524D01*
X87636067Y-68688521D01*
X89465989Y-66858600D01*
X89527310Y-66825117D01*
X89573066Y-66823810D01*
X89741578Y-66850500D01*
X89741583Y-66850500D01*
X89938422Y-66850500D01*
X90132826Y-66819709D01*
X90150138Y-66814084D01*
X90320025Y-66758884D01*
X90495405Y-66669524D01*
X90654646Y-66553828D01*
X90793828Y-66414646D01*
X90905184Y-66261378D01*
X90960512Y-66218714D01*
X91030125Y-66212735D01*
X91091920Y-66245341D01*
X91126277Y-66306179D01*
X91129500Y-66334263D01*
X91129500Y-66397869D01*
X91129501Y-66397876D01*
X91135908Y-66457483D01*
X91186202Y-66592328D01*
X91186206Y-66592335D01*
X91272452Y-66707544D01*
X91272455Y-66707547D01*
X91387664Y-66793793D01*
X91387671Y-66793797D01*
X91522517Y-66844091D01*
X91522516Y-66844091D01*
X91529444Y-66844835D01*
X91582127Y-66850500D01*
X93177872Y-66850499D01*
X93237483Y-66844091D01*
X93372331Y-66793796D01*
X93487546Y-66707546D01*
X93573796Y-66592331D01*
X93624091Y-66457483D01*
X93630500Y-66397873D01*
X93630500Y-66339648D01*
X95055500Y-66339648D01*
X95055500Y-66544352D01*
X95057001Y-66553828D01*
X95087522Y-66746534D01*
X95150781Y-66941223D01*
X95204861Y-67047359D01*
X95229023Y-67094780D01*
X95243715Y-67123613D01*
X95364028Y-67289213D01*
X95508786Y-67433971D01*
X95616577Y-67512284D01*
X95674390Y-67554287D01*
X95790607Y-67613503D01*
X95856776Y-67647218D01*
X95856778Y-67647218D01*
X95856781Y-67647220D01*
X95932018Y-67671666D01*
X96051465Y-67710477D01*
X96071360Y-67713628D01*
X96253648Y-67742500D01*
X96253649Y-67742500D01*
X96458351Y-67742500D01*
X96458352Y-67742500D01*
X96660534Y-67710477D01*
X96855219Y-67647220D01*
X97037610Y-67554287D01*
X97159903Y-67465437D01*
X97203213Y-67433971D01*
X97203215Y-67433968D01*
X97203219Y-67433966D01*
X97347966Y-67289219D01*
X97347968Y-67289215D01*
X97347971Y-67289213D01*
X97400732Y-67216590D01*
X97468287Y-67123610D01*
X97561220Y-66941219D01*
X97624477Y-66746534D01*
X97656500Y-66544352D01*
X97656500Y-66339648D01*
X97624477Y-66137466D01*
X97624477Y-66137465D01*
X97623715Y-66132654D01*
X97625777Y-66132327D01*
X97628784Y-66071304D01*
X97658215Y-66024373D01*
X98971196Y-64711393D01*
X99032516Y-64677910D01*
X99102208Y-64682894D01*
X99158141Y-64724766D01*
X99182558Y-64790230D01*
X99180492Y-64823264D01*
X99174500Y-64853392D01*
X99174500Y-65132182D01*
X99154815Y-65199221D01*
X99106796Y-65242666D01*
X99018388Y-65287713D01*
X98852786Y-65408028D01*
X98708028Y-65552786D01*
X98587715Y-65718386D01*
X98494781Y-65900776D01*
X98431522Y-66095465D01*
X98399500Y-66297648D01*
X98399500Y-66502351D01*
X98431522Y-66704534D01*
X98494781Y-66899223D01*
X98587715Y-67081613D01*
X98708028Y-67247213D01*
X98852786Y-67391971D01*
X98993484Y-67494192D01*
X99018390Y-67512287D01*
X99131342Y-67569839D01*
X99200776Y-67605218D01*
X99200778Y-67605218D01*
X99200781Y-67605220D01*
X99302225Y-67638181D01*
X99395465Y-67668477D01*
X99496557Y-67684488D01*
X99597648Y-67700500D01*
X99597649Y-67700500D01*
X99802351Y-67700500D01*
X99802352Y-67700500D01*
X100004534Y-67668477D01*
X100199219Y-67605220D01*
X100381610Y-67512287D01*
X100489404Y-67433971D01*
X100547213Y-67391971D01*
X100547215Y-67391968D01*
X100547219Y-67391966D01*
X100691966Y-67247219D01*
X100691968Y-67247215D01*
X100691971Y-67247213D01*
X100781772Y-67123610D01*
X100812287Y-67081610D01*
X100905220Y-66899219D01*
X100968477Y-66704534D01*
X101000500Y-66502352D01*
X101000500Y-66297648D01*
X101699500Y-66297648D01*
X101699500Y-66502351D01*
X101731522Y-66704534D01*
X101794781Y-66899223D01*
X101887715Y-67081613D01*
X102008028Y-67247213D01*
X102152786Y-67391971D01*
X102293484Y-67494192D01*
X102318390Y-67512287D01*
X102431342Y-67569839D01*
X102500776Y-67605218D01*
X102500778Y-67605218D01*
X102500781Y-67605220D01*
X102602225Y-67638181D01*
X102695465Y-67668477D01*
X102796557Y-67684488D01*
X102897648Y-67700500D01*
X102897649Y-67700500D01*
X103102351Y-67700500D01*
X103102352Y-67700500D01*
X103304534Y-67668477D01*
X103499219Y-67605220D01*
X103681610Y-67512287D01*
X103789404Y-67433971D01*
X103847213Y-67391971D01*
X103847215Y-67391968D01*
X103847219Y-67391966D01*
X103991966Y-67247219D01*
X104085402Y-67118614D01*
X104140731Y-67075949D01*
X104185720Y-67067500D01*
X104731548Y-67067500D01*
X104798587Y-67087185D01*
X104819229Y-67103819D01*
X105597781Y-67882371D01*
X105631266Y-67943694D01*
X105630785Y-67990416D01*
X105632285Y-67990654D01*
X105599500Y-68197648D01*
X105599500Y-68402351D01*
X105631522Y-68604534D01*
X105694781Y-68799223D01*
X105722851Y-68854312D01*
X105787585Y-68981359D01*
X105787715Y-68981613D01*
X105908028Y-69147213D01*
X106052786Y-69291971D01*
X106173226Y-69379474D01*
X106218390Y-69412287D01*
X106334607Y-69471503D01*
X106400776Y-69505218D01*
X106400778Y-69505218D01*
X106400781Y-69505220D01*
X106489948Y-69534192D01*
X106595465Y-69568477D01*
X106696557Y-69584488D01*
X106797648Y-69600500D01*
X106797649Y-69600500D01*
X107002351Y-69600500D01*
X107002352Y-69600500D01*
X107204534Y-69568477D01*
X107399219Y-69505220D01*
X107581610Y-69412287D01*
X107674590Y-69344732D01*
X107747213Y-69291971D01*
X107747215Y-69291968D01*
X107747219Y-69291966D01*
X107891966Y-69147219D01*
X107891968Y-69147215D01*
X107891971Y-69147213D01*
X107956156Y-69058868D01*
X108012287Y-68981610D01*
X108105220Y-68799219D01*
X108168477Y-68604534D01*
X108200500Y-68402352D01*
X108200500Y-68197682D01*
X110600000Y-68197682D01*
X110600000Y-68402317D01*
X110632009Y-68604417D01*
X110695244Y-68799031D01*
X110788141Y-68981350D01*
X110788147Y-68981359D01*
X110820523Y-69025921D01*
X110820524Y-69025922D01*
X111500000Y-68346446D01*
X111500000Y-68352661D01*
X111527259Y-68454394D01*
X111579920Y-68545606D01*
X111654394Y-68620080D01*
X111745606Y-68672741D01*
X111847339Y-68700000D01*
X111853553Y-68700000D01*
X111174076Y-69379474D01*
X111218650Y-69411859D01*
X111400968Y-69504755D01*
X111595582Y-69567990D01*
X111797683Y-69600000D01*
X112002317Y-69600000D01*
X112204417Y-69567990D01*
X112399031Y-69504755D01*
X112581349Y-69411859D01*
X112625921Y-69379474D01*
X111946447Y-68700000D01*
X111952661Y-68700000D01*
X112054394Y-68672741D01*
X112145606Y-68620080D01*
X112220080Y-68545606D01*
X112272741Y-68454394D01*
X112300000Y-68352661D01*
X112300000Y-68346447D01*
X112979474Y-69025921D01*
X113011859Y-68981349D01*
X113104755Y-68799031D01*
X113167990Y-68604417D01*
X113200000Y-68402317D01*
X113200000Y-68197682D01*
X113167990Y-67995582D01*
X113104755Y-67800968D01*
X113011859Y-67618650D01*
X112979474Y-67574077D01*
X112979474Y-67574076D01*
X112300000Y-68253551D01*
X112300000Y-68247339D01*
X112272741Y-68145606D01*
X112220080Y-68054394D01*
X112145606Y-67979920D01*
X112054394Y-67927259D01*
X111952661Y-67900000D01*
X111946446Y-67900000D01*
X112625922Y-67220524D01*
X112625921Y-67220523D01*
X112581359Y-67188147D01*
X112581350Y-67188141D01*
X112399031Y-67095244D01*
X112204417Y-67032009D01*
X112002317Y-67000000D01*
X111797683Y-67000000D01*
X111595582Y-67032009D01*
X111400968Y-67095244D01*
X111218644Y-67188143D01*
X111174077Y-67220523D01*
X111174077Y-67220524D01*
X111853554Y-67900000D01*
X111847339Y-67900000D01*
X111745606Y-67927259D01*
X111654394Y-67979920D01*
X111579920Y-68054394D01*
X111527259Y-68145606D01*
X111500000Y-68247339D01*
X111500000Y-68253553D01*
X110820524Y-67574077D01*
X110820523Y-67574077D01*
X110788143Y-67618644D01*
X110695244Y-67800968D01*
X110632009Y-67995582D01*
X110600000Y-68197682D01*
X108200500Y-68197682D01*
X108200500Y-68197648D01*
X108168477Y-67995466D01*
X108168249Y-67994765D01*
X108167367Y-67989085D01*
X108171305Y-67959305D01*
X108172784Y-67929304D01*
X108175939Y-67924271D01*
X108176529Y-67919818D01*
X108185021Y-67909790D01*
X108202215Y-67882373D01*
X112135857Y-63948734D01*
X112139192Y-63943744D01*
X112204311Y-63846286D01*
X112251463Y-63732452D01*
X112275500Y-63611606D01*
X112275500Y-62954432D01*
X112295185Y-62887393D01*
X112326611Y-62854116D01*
X112464646Y-62753828D01*
X112603828Y-62614646D01*
X112719524Y-62455405D01*
X112808884Y-62280025D01*
X112808884Y-62280022D01*
X112809795Y-62278236D01*
X112857769Y-62227440D01*
X112925590Y-62210644D01*
X112991725Y-62233181D01*
X113030765Y-62278235D01*
X113120905Y-62455145D01*
X113146319Y-62490125D01*
X113146320Y-62490125D01*
X113790000Y-61846445D01*
X113790000Y-61852661D01*
X113817259Y-61954394D01*
X113869920Y-62045606D01*
X113944394Y-62120080D01*
X114035606Y-62172741D01*
X114137339Y-62200000D01*
X114143553Y-62200000D01*
X113499873Y-62843677D01*
X113499873Y-62843678D01*
X113534858Y-62869096D01*
X113710164Y-62958418D01*
X113897294Y-63019221D01*
X114091618Y-63050000D01*
X114288382Y-63050000D01*
X114482705Y-63019221D01*
X114669835Y-62958418D01*
X114845143Y-62869095D01*
X114880125Y-62843678D01*
X114880126Y-62843678D01*
X114236448Y-62200000D01*
X114242661Y-62200000D01*
X114344394Y-62172741D01*
X114435606Y-62120080D01*
X114510080Y-62045606D01*
X114562741Y-61954394D01*
X114590000Y-61852661D01*
X114590000Y-61846448D01*
X115233678Y-62490126D01*
X115233678Y-62490125D01*
X115259095Y-62455143D01*
X115348418Y-62279835D01*
X115409221Y-62092705D01*
X115440000Y-61898382D01*
X115440000Y-61701617D01*
X115409221Y-61507294D01*
X115348418Y-61320164D01*
X115259096Y-61144858D01*
X115233678Y-61109873D01*
X115233677Y-61109873D01*
X114590000Y-61753551D01*
X114590000Y-61747339D01*
X114562741Y-61645606D01*
X114510080Y-61554394D01*
X114435606Y-61479920D01*
X114344394Y-61427259D01*
X114242661Y-61400000D01*
X114236447Y-61400000D01*
X114880125Y-60756320D01*
X114880125Y-60756319D01*
X114845145Y-60730905D01*
X114669835Y-60641581D01*
X114482705Y-60580778D01*
X114288382Y-60550000D01*
X114091618Y-60550000D01*
X113897294Y-60580778D01*
X113710161Y-60641582D01*
X113534863Y-60730899D01*
X113534859Y-60730902D01*
X113499873Y-60756320D01*
X113499872Y-60756320D01*
X114143554Y-61400000D01*
X114137339Y-61400000D01*
X114035606Y-61427259D01*
X113944394Y-61479920D01*
X113869920Y-61554394D01*
X113817259Y-61645606D01*
X113790000Y-61747339D01*
X113790000Y-61753552D01*
X113146320Y-61109872D01*
X113146320Y-61109873D01*
X113120902Y-61144859D01*
X113030765Y-61321764D01*
X112982790Y-61372560D01*
X112914969Y-61389355D01*
X112848835Y-61366818D01*
X112809795Y-61321763D01*
X112719525Y-61144596D01*
X112664469Y-61068819D01*
X112603828Y-60985354D01*
X112464646Y-60846172D01*
X112305405Y-60730476D01*
X112130029Y-60641117D01*
X111942826Y-60580290D01*
X111748422Y-60549500D01*
X111748417Y-60549500D01*
X111551583Y-60549500D01*
X111551581Y-60549500D01*
X111522333Y-60554132D01*
X111453040Y-60545176D01*
X111399588Y-60500178D01*
X111378950Y-60433427D01*
X111397676Y-60366113D01*
X111415251Y-60343982D01*
X114772416Y-56986819D01*
X114833739Y-56953334D01*
X114860097Y-56950500D01*
X116244922Y-56950500D01*
X116311961Y-56970185D01*
X116355407Y-57018206D01*
X116387713Y-57081611D01*
X116508028Y-57247213D01*
X116652786Y-57391971D01*
X116746162Y-57459811D01*
X116818390Y-57512287D01*
X116934607Y-57571503D01*
X117000776Y-57605218D01*
X117000778Y-57605218D01*
X117000781Y-57605220D01*
X117087889Y-57633523D01*
X117195465Y-57668477D01*
X117267688Y-57679916D01*
X117397648Y-57700500D01*
X117397649Y-57700500D01*
X117602351Y-57700500D01*
X117602352Y-57700500D01*
X117804534Y-57668477D01*
X117999219Y-57605220D01*
X118181610Y-57512287D01*
X118274590Y-57444732D01*
X118347213Y-57391971D01*
X118347215Y-57391968D01*
X118347219Y-57391966D01*
X118491966Y-57247219D01*
X118491968Y-57247215D01*
X118491971Y-57247213D01*
X118544818Y-57174474D01*
X118612287Y-57081610D01*
X118705220Y-56899219D01*
X118768477Y-56704534D01*
X118800500Y-56502352D01*
X118800500Y-56297648D01*
X118768477Y-56095466D01*
X118705220Y-55900781D01*
X118705218Y-55900778D01*
X118705218Y-55900776D01*
X118661294Y-55814571D01*
X118612287Y-55718390D01*
X118576283Y-55668834D01*
X118491971Y-55552786D01*
X118347213Y-55408028D01*
X118181613Y-55287715D01*
X118181612Y-55287714D01*
X118181610Y-55287713D01*
X118124653Y-55258691D01*
X117999223Y-55194781D01*
X117804534Y-55131522D01*
X117629995Y-55103878D01*
X117602352Y-55099500D01*
X117397648Y-55099500D01*
X117359599Y-55105526D01*
X117195468Y-55131522D01*
X117193053Y-55132102D01*
X117192108Y-55132054D01*
X117190654Y-55132285D01*
X117190605Y-55131979D01*
X117123271Y-55128602D01*
X117076440Y-55099205D01*
X114558819Y-52581584D01*
X114525334Y-52520261D01*
X114522500Y-52493903D01*
X114522500Y-51624499D01*
X114542185Y-51557460D01*
X114594989Y-51511705D01*
X114646500Y-51500499D01*
X114700002Y-51500499D01*
X114700008Y-51500499D01*
X114802797Y-51489999D01*
X114969334Y-51434814D01*
X115118656Y-51342712D01*
X115242712Y-51218656D01*
X115334814Y-51069334D01*
X115389999Y-50902797D01*
X115400500Y-50800009D01*
X115400499Y-49199992D01*
X115393440Y-49130893D01*
X115389999Y-49097203D01*
X115389998Y-49097200D01*
X115334814Y-48930666D01*
X115242712Y-48781344D01*
X115118656Y-48657288D01*
X114969334Y-48565186D01*
X114802797Y-48510001D01*
X114802795Y-48510000D01*
X114700010Y-48499500D01*
X113099998Y-48499500D01*
X113099981Y-48499501D01*
X112997203Y-48510000D01*
X112997200Y-48510001D01*
X112830668Y-48565185D01*
X112830663Y-48565187D01*
X112681342Y-48657289D01*
X112557289Y-48781342D01*
X112465187Y-48930663D01*
X112465186Y-48930666D01*
X112410001Y-49097203D01*
X112410001Y-49097204D01*
X112410000Y-49097204D01*
X112399500Y-49199983D01*
X112399500Y-50800001D01*
X112399501Y-50800018D01*
X112410000Y-50902796D01*
X112410001Y-50902799D01*
X112434759Y-50977512D01*
X112465186Y-51069334D01*
X112557288Y-51218656D01*
X112681344Y-51342712D01*
X112830666Y-51434814D01*
X112997203Y-51489999D01*
X113099991Y-51500500D01*
X113197500Y-51500499D01*
X113264538Y-51520183D01*
X113310294Y-51572986D01*
X113321500Y-51624499D01*
X113321500Y-52707330D01*
X113321499Y-52707348D01*
X113321499Y-52873054D01*
X113321498Y-52873054D01*
X113362423Y-53025785D01*
X113381604Y-53059007D01*
X113381603Y-53059007D01*
X113381604Y-53059008D01*
X113441475Y-53162709D01*
X113441481Y-53162717D01*
X113560349Y-53281585D01*
X113560355Y-53281590D01*
X115816584Y-55537819D01*
X115850069Y-55599142D01*
X115845085Y-55668834D01*
X115803213Y-55724767D01*
X115737749Y-55749184D01*
X115728903Y-55749500D01*
X114646669Y-55749500D01*
X114646653Y-55749499D01*
X114639057Y-55749499D01*
X114480943Y-55749499D01*
X114373587Y-55778265D01*
X114328210Y-55790424D01*
X114328209Y-55790425D01*
X114278096Y-55819359D01*
X114278095Y-55819360D01*
X114234689Y-55844420D01*
X114191285Y-55869479D01*
X114191282Y-55869481D01*
X114079478Y-55981286D01*
X109547582Y-60513181D01*
X109486259Y-60546666D01*
X109459901Y-60549500D01*
X108312129Y-60549500D01*
X108312123Y-60549501D01*
X108252516Y-60555908D01*
X108117671Y-60606202D01*
X108117664Y-60606206D01*
X108002455Y-60692452D01*
X108002452Y-60692455D01*
X107916206Y-60807664D01*
X107916202Y-60807671D01*
X107865908Y-60942517D01*
X107859501Y-61002116D01*
X107859500Y-61002135D01*
X107859500Y-62597870D01*
X107859501Y-62597876D01*
X107865908Y-62657483D01*
X107916202Y-62792328D01*
X107916206Y-62792335D01*
X108002452Y-62907544D01*
X108002455Y-62907547D01*
X108117664Y-62993793D01*
X108117671Y-62993797D01*
X108252517Y-63044091D01*
X108252516Y-63044091D01*
X108259444Y-63044835D01*
X108312127Y-63050500D01*
X109907872Y-63050499D01*
X109967483Y-63044091D01*
X110102331Y-62993796D01*
X110217546Y-62907546D01*
X110303796Y-62792331D01*
X110354091Y-62657483D01*
X110360500Y-62597873D01*
X110360499Y-62534265D01*
X110380183Y-62467229D01*
X110432986Y-62421473D01*
X110502144Y-62411529D01*
X110565700Y-62440553D01*
X110584816Y-62461381D01*
X110684966Y-62599223D01*
X110696172Y-62614646D01*
X110835354Y-62753828D01*
X110973387Y-62854115D01*
X111016051Y-62909444D01*
X111024500Y-62954432D01*
X111024500Y-63239547D01*
X111004815Y-63306586D01*
X110988181Y-63327228D01*
X107317627Y-66997781D01*
X107256304Y-67031266D01*
X107209584Y-67030776D01*
X107209346Y-67032285D01*
X107061965Y-67008942D01*
X107002352Y-66999500D01*
X106797648Y-66999500D01*
X106738035Y-67008942D01*
X106590654Y-67032285D01*
X106590333Y-67030262D01*
X106529120Y-67027149D01*
X106482371Y-66997781D01*
X105532198Y-66047608D01*
X105532178Y-66047586D01*
X105440736Y-65956144D01*
X105440732Y-65956141D01*
X105363507Y-65904541D01*
X105355909Y-65899464D01*
X105338286Y-65887688D01*
X105257792Y-65854347D01*
X105224452Y-65840537D01*
X105224448Y-65840536D01*
X105224444Y-65840535D01*
X105151190Y-65825964D01*
X105151189Y-65825964D01*
X105103611Y-65816500D01*
X105103607Y-65816500D01*
X105103606Y-65816500D01*
X104238264Y-65816500D01*
X104171225Y-65796815D01*
X104127779Y-65748795D01*
X104112287Y-65718390D01*
X104112285Y-65718387D01*
X104112284Y-65718385D01*
X103991971Y-65552786D01*
X103847213Y-65408028D01*
X103681613Y-65287715D01*
X103681612Y-65287714D01*
X103681610Y-65287713D01*
X103620192Y-65256419D01*
X103499223Y-65194781D01*
X103304534Y-65131522D01*
X103125933Y-65103235D01*
X103102352Y-65099500D01*
X102897648Y-65099500D01*
X102874067Y-65103235D01*
X102695465Y-65131522D01*
X102500776Y-65194781D01*
X102318386Y-65287715D01*
X102152786Y-65408028D01*
X102008028Y-65552786D01*
X101887715Y-65718386D01*
X101794781Y-65900776D01*
X101731522Y-66095465D01*
X101699500Y-66297648D01*
X101000500Y-66297648D01*
X100968477Y-66095466D01*
X100962878Y-66078235D01*
X100925435Y-65962996D01*
X100905220Y-65900781D01*
X100905218Y-65900778D01*
X100905218Y-65900776D01*
X100867099Y-65825964D01*
X100812287Y-65718390D01*
X100804556Y-65707749D01*
X100691971Y-65552786D01*
X100547221Y-65408036D01*
X100547219Y-65408034D01*
X100476613Y-65356735D01*
X100473273Y-65352404D01*
X100468297Y-65350132D01*
X100452166Y-65325032D01*
X100433949Y-65301407D01*
X100432696Y-65294735D01*
X100430523Y-65291354D01*
X100425500Y-65256419D01*
X100425500Y-65225452D01*
X100445185Y-65158413D01*
X100461819Y-65137771D01*
X101511877Y-64087713D01*
X102565989Y-63033600D01*
X102627310Y-63000117D01*
X102673066Y-62998810D01*
X102841578Y-63025500D01*
X102841583Y-63025500D01*
X103038422Y-63025500D01*
X103232826Y-62994709D01*
X103235645Y-62993793D01*
X103420025Y-62933884D01*
X103595405Y-62844524D01*
X103754646Y-62728828D01*
X103893828Y-62589646D01*
X104009524Y-62430405D01*
X104098884Y-62255025D01*
X104159709Y-62067826D01*
X104177675Y-61954394D01*
X104190500Y-61873422D01*
X104190500Y-61676577D01*
X104159709Y-61482173D01*
X104107456Y-61321357D01*
X104098884Y-61294975D01*
X104098882Y-61294972D01*
X104098882Y-61294970D01*
X104027570Y-61155013D01*
X104009524Y-61119595D01*
X103893828Y-60960354D01*
X103754646Y-60821172D01*
X103616612Y-60720884D01*
X103573949Y-60665556D01*
X103565500Y-60620568D01*
X103565500Y-56297648D01*
X106039500Y-56297648D01*
X106039500Y-56502351D01*
X106071522Y-56704534D01*
X106134781Y-56899223D01*
X106227715Y-57081613D01*
X106348028Y-57247213D01*
X106492786Y-57391971D01*
X106586162Y-57459811D01*
X106658390Y-57512287D01*
X106774607Y-57571503D01*
X106840776Y-57605218D01*
X106840778Y-57605218D01*
X106840781Y-57605220D01*
X106927889Y-57633523D01*
X107035465Y-57668477D01*
X107107688Y-57679916D01*
X107237648Y-57700500D01*
X107237649Y-57700500D01*
X107442351Y-57700500D01*
X107442352Y-57700500D01*
X107644534Y-57668477D01*
X107839219Y-57605220D01*
X108021610Y-57512287D01*
X108114590Y-57444732D01*
X108187213Y-57391971D01*
X108187215Y-57391968D01*
X108187219Y-57391966D01*
X108331966Y-57247219D01*
X108331968Y-57247215D01*
X108331971Y-57247213D01*
X108384818Y-57174474D01*
X108452287Y-57081610D01*
X108545220Y-56899219D01*
X108608477Y-56704534D01*
X108640500Y-56502352D01*
X108640500Y-56297648D01*
X108608477Y-56095466D01*
X108586169Y-56026812D01*
X108584175Y-55956972D01*
X108616418Y-55900815D01*
X110592520Y-53924716D01*
X110671577Y-53787784D01*
X110712501Y-53635057D01*
X110712501Y-53476942D01*
X110712501Y-53469347D01*
X110712500Y-53469329D01*
X110712500Y-51442858D01*
X110732185Y-51375819D01*
X110780206Y-51332373D01*
X110868008Y-51287636D01*
X110876433Y-51283343D01*
X111067510Y-51144517D01*
X111234517Y-50977510D01*
X111373343Y-50786433D01*
X111480568Y-50575992D01*
X111553553Y-50351368D01*
X111555717Y-50337708D01*
X111590500Y-50118097D01*
X111590500Y-49881902D01*
X111553553Y-49648631D01*
X111480566Y-49424003D01*
X111424002Y-49312991D01*
X111373343Y-49213567D01*
X111234517Y-49022490D01*
X111067510Y-48855483D01*
X110876433Y-48716657D01*
X110665996Y-48609433D01*
X110441368Y-48536446D01*
X110208097Y-48499500D01*
X110208092Y-48499500D01*
X109971908Y-48499500D01*
X109971903Y-48499500D01*
X109738631Y-48536446D01*
X109514003Y-48609433D01*
X109303566Y-48716657D01*
X109220047Y-48777338D01*
X109112490Y-48855483D01*
X109112488Y-48855485D01*
X109112487Y-48855485D01*
X108945485Y-49022487D01*
X108945485Y-49022488D01*
X108945483Y-49022490D01*
X108891203Y-49097200D01*
X108806657Y-49213566D01*
X108699433Y-49424003D01*
X108626446Y-49648631D01*
X108589500Y-49881902D01*
X108589500Y-50118097D01*
X108626446Y-50351368D01*
X108699433Y-50575996D01*
X108780232Y-50734571D01*
X108806657Y-50786433D01*
X108945483Y-50977510D01*
X109112490Y-51144517D01*
X109214535Y-51218657D01*
X109303568Y-51283344D01*
X109399794Y-51332373D01*
X109420081Y-51342710D01*
X109443794Y-51354792D01*
X109494591Y-51402766D01*
X109511500Y-51465277D01*
X109511500Y-53255902D01*
X109491815Y-53322941D01*
X109475181Y-53343583D01*
X107726077Y-55092686D01*
X107664754Y-55126171D01*
X107618998Y-55127478D01*
X107489932Y-55107036D01*
X107442352Y-55099500D01*
X107237648Y-55099500D01*
X107213329Y-55103351D01*
X107035465Y-55131522D01*
X106840776Y-55194781D01*
X106658386Y-55287715D01*
X106492786Y-55408028D01*
X106348028Y-55552786D01*
X106227715Y-55718386D01*
X106134781Y-55900776D01*
X106071522Y-56095465D01*
X106039500Y-56297648D01*
X103565500Y-56297648D01*
X103565500Y-53672451D01*
X103585185Y-53605412D01*
X103601814Y-53584775D01*
X105719726Y-51466862D01*
X105781047Y-51433379D01*
X105845722Y-51436613D01*
X105886428Y-51449840D01*
X105928631Y-51463553D01*
X106161903Y-51500500D01*
X106161908Y-51500500D01*
X106398097Y-51500500D01*
X106631368Y-51463553D01*
X106668771Y-51451400D01*
X106855992Y-51390568D01*
X107066433Y-51283343D01*
X107257510Y-51144517D01*
X107424517Y-50977510D01*
X107563343Y-50786433D01*
X107670568Y-50575992D01*
X107743553Y-50351368D01*
X107745717Y-50337708D01*
X107780500Y-50118097D01*
X107780500Y-49881902D01*
X107743553Y-49648631D01*
X107670566Y-49424003D01*
X107614002Y-49312991D01*
X107563343Y-49213567D01*
X107424517Y-49022490D01*
X107257510Y-48855483D01*
X107066433Y-48716657D01*
X106855996Y-48609433D01*
X106631368Y-48536446D01*
X106398097Y-48499500D01*
X106398092Y-48499500D01*
X106161908Y-48499500D01*
X106161903Y-48499500D01*
X105928631Y-48536446D01*
X105704003Y-48609433D01*
X105493566Y-48716657D01*
X105410047Y-48777338D01*
X105302490Y-48855483D01*
X105302488Y-48855485D01*
X105302487Y-48855485D01*
X105135485Y-49022487D01*
X105135485Y-49022488D01*
X105135483Y-49022490D01*
X105081203Y-49097200D01*
X104996657Y-49213566D01*
X104889433Y-49424003D01*
X104816446Y-49648631D01*
X104779500Y-49881902D01*
X104779500Y-50118097D01*
X104816447Y-50351369D01*
X104816447Y-50351372D01*
X104854175Y-50467484D01*
X104856170Y-50537325D01*
X104823925Y-50593483D01*
X103679929Y-51737480D01*
X102541270Y-52876139D01*
X102541267Y-52876142D01*
X102497703Y-52919705D01*
X102454140Y-52963268D01*
X102434776Y-52992248D01*
X102434767Y-52992262D01*
X102431988Y-52996423D01*
X102385688Y-53065714D01*
X102364737Y-53116296D01*
X102361995Y-53122913D01*
X102361994Y-53122917D01*
X102338538Y-53179545D01*
X102338535Y-53179555D01*
X102314500Y-53300389D01*
X102314500Y-60620568D01*
X102294815Y-60687607D01*
X102263388Y-60720883D01*
X102125354Y-60821172D01*
X102125352Y-60821174D01*
X102125351Y-60821174D01*
X101986174Y-60960351D01*
X101986174Y-60960352D01*
X101986172Y-60960354D01*
X101966293Y-60987715D01*
X101870476Y-61119594D01*
X101780485Y-61296213D01*
X101732511Y-61347009D01*
X101664690Y-61363804D01*
X101598555Y-61341267D01*
X101559515Y-61296213D01*
X101517752Y-61214249D01*
X101469524Y-61119595D01*
X101353828Y-60960354D01*
X101214646Y-60821172D01*
X101055405Y-60705476D01*
X101020335Y-60687607D01*
X100880029Y-60616117D01*
X100692826Y-60555290D01*
X100498422Y-60524500D01*
X100498417Y-60524500D01*
X100301583Y-60524500D01*
X100301578Y-60524500D01*
X100107173Y-60555290D01*
X99919970Y-60616117D01*
X99744594Y-60705476D01*
X99653741Y-60771485D01*
X99585354Y-60821172D01*
X99585352Y-60821174D01*
X99585351Y-60821174D01*
X99446173Y-60960352D01*
X99334817Y-61113620D01*
X99279486Y-61156285D01*
X99209873Y-61162264D01*
X99148078Y-61129658D01*
X99113721Y-61068819D01*
X99110499Y-61040734D01*
X99110499Y-60977129D01*
X99110498Y-60977123D01*
X99110497Y-60977116D01*
X99104091Y-60917517D01*
X99095533Y-60894573D01*
X99053797Y-60782671D01*
X99053793Y-60782664D01*
X98967547Y-60667455D01*
X98967544Y-60667452D01*
X98852335Y-60581206D01*
X98852328Y-60581202D01*
X98717482Y-60530908D01*
X98717483Y-60530908D01*
X98657883Y-60524501D01*
X98657881Y-60524500D01*
X98657873Y-60524500D01*
X98657864Y-60524500D01*
X97062129Y-60524500D01*
X97062123Y-60524501D01*
X97002516Y-60530908D01*
X96867671Y-60581202D01*
X96867664Y-60581206D01*
X96752455Y-60667452D01*
X96752452Y-60667455D01*
X96666206Y-60782664D01*
X96666202Y-60782671D01*
X96615908Y-60917517D01*
X96611303Y-60960354D01*
X96609501Y-60977123D01*
X96609500Y-60977135D01*
X96609500Y-62572870D01*
X96609501Y-62572876D01*
X96615908Y-62632483D01*
X96666202Y-62767328D01*
X96666206Y-62767335D01*
X96752452Y-62882544D01*
X96752455Y-62882547D01*
X96867664Y-62968793D01*
X96867671Y-62968797D01*
X97002517Y-63019091D01*
X97002516Y-63019091D01*
X97009444Y-63019835D01*
X97062127Y-63025500D01*
X98588547Y-63025499D01*
X98655586Y-63045184D01*
X98701341Y-63097987D01*
X98711285Y-63167146D01*
X98682260Y-63230702D01*
X98676228Y-63237180D01*
X96773627Y-65139781D01*
X96712304Y-65173266D01*
X96665584Y-65172776D01*
X96665346Y-65174285D01*
X96561898Y-65157900D01*
X96458352Y-65141500D01*
X96253648Y-65141500D01*
X96229329Y-65145351D01*
X96051465Y-65173522D01*
X95856776Y-65236781D01*
X95674386Y-65329715D01*
X95508786Y-65450028D01*
X95364028Y-65594786D01*
X95243715Y-65760386D01*
X95150781Y-65942776D01*
X95087522Y-66137465D01*
X95056353Y-66334263D01*
X95055500Y-66339648D01*
X93630500Y-66339648D01*
X93630499Y-65599999D01*
X93630499Y-64802129D01*
X93630498Y-64802123D01*
X93630497Y-64802116D01*
X93624091Y-64742517D01*
X93617470Y-64724766D01*
X93573796Y-64607669D01*
X93573793Y-64607664D01*
X93487547Y-64492455D01*
X93487544Y-64492452D01*
X93372335Y-64406206D01*
X93372328Y-64406202D01*
X93237483Y-64355908D01*
X93191243Y-64350937D01*
X93126693Y-64324199D01*
X93086845Y-64266806D01*
X93080500Y-64227648D01*
X93080500Y-63210046D01*
X93100185Y-63143007D01*
X93116819Y-63122365D01*
X96016107Y-60223077D01*
X96016113Y-60223071D01*
X96062057Y-60154312D01*
X96092775Y-60108339D01*
X96145580Y-59980856D01*
X96157669Y-59920080D01*
X96172500Y-59845523D01*
X96172500Y-53469518D01*
X96192185Y-53402479D01*
X96208814Y-53381842D01*
X98117891Y-51472764D01*
X98179212Y-51439281D01*
X98243887Y-51442515D01*
X98308632Y-51463553D01*
X98396110Y-51477408D01*
X98541903Y-51500500D01*
X98541908Y-51500500D01*
X98778097Y-51500500D01*
X99011368Y-51463553D01*
X99048771Y-51451400D01*
X99235992Y-51390568D01*
X99446433Y-51283343D01*
X99637510Y-51144517D01*
X99804517Y-50977510D01*
X99943343Y-50786433D01*
X100050568Y-50575992D01*
X100123553Y-50351368D01*
X100125717Y-50337708D01*
X100160500Y-50118097D01*
X100160500Y-49881902D01*
X100969500Y-49881902D01*
X100969500Y-50118097D01*
X101006446Y-50351368D01*
X101079433Y-50575996D01*
X101160232Y-50734571D01*
X101186657Y-50786433D01*
X101325483Y-50977510D01*
X101492490Y-51144517D01*
X101683567Y-51283343D01*
X101723793Y-51303839D01*
X101894003Y-51390566D01*
X101894005Y-51390566D01*
X101894008Y-51390568D01*
X101981620Y-51419035D01*
X102118631Y-51463553D01*
X102351903Y-51500500D01*
X102351908Y-51500500D01*
X102588097Y-51500500D01*
X102821368Y-51463553D01*
X102858771Y-51451400D01*
X103045992Y-51390568D01*
X103256433Y-51283343D01*
X103447510Y-51144517D01*
X103614517Y-50977510D01*
X103753343Y-50786433D01*
X103860568Y-50575992D01*
X103933553Y-50351368D01*
X103935717Y-50337708D01*
X103970500Y-50118097D01*
X103970500Y-49881902D01*
X103933553Y-49648631D01*
X103860566Y-49424003D01*
X103804002Y-49312991D01*
X103753343Y-49213567D01*
X103614517Y-49022490D01*
X103447510Y-48855483D01*
X103256433Y-48716657D01*
X103045996Y-48609433D01*
X102821368Y-48536446D01*
X102588097Y-48499500D01*
X102588092Y-48499500D01*
X102351908Y-48499500D01*
X102351903Y-48499500D01*
X102118631Y-48536446D01*
X101894003Y-48609433D01*
X101683566Y-48716657D01*
X101600047Y-48777338D01*
X101492490Y-48855483D01*
X101492488Y-48855485D01*
X101492487Y-48855485D01*
X101325485Y-49022487D01*
X101325485Y-49022488D01*
X101325483Y-49022490D01*
X101271203Y-49097200D01*
X101186657Y-49213566D01*
X101079433Y-49424003D01*
X101006446Y-49648631D01*
X100969500Y-49881902D01*
X100160500Y-49881902D01*
X100123553Y-49648631D01*
X100050566Y-49424003D01*
X99994002Y-49312991D01*
X99943343Y-49213567D01*
X99804517Y-49022490D01*
X99637510Y-48855483D01*
X99446433Y-48716657D01*
X99235996Y-48609433D01*
X99011368Y-48536446D01*
X98778097Y-48499500D01*
X98778092Y-48499500D01*
X98541908Y-48499500D01*
X98541903Y-48499500D01*
X98308631Y-48536446D01*
X98084003Y-48609433D01*
X97873566Y-48716657D01*
X97790047Y-48777338D01*
X97682490Y-48855483D01*
X97682488Y-48855485D01*
X97682487Y-48855485D01*
X97515485Y-49022487D01*
X97515485Y-49022488D01*
X97515483Y-49022490D01*
X97461203Y-49097200D01*
X97376657Y-49213566D01*
X97269433Y-49424003D01*
X97196446Y-49648631D01*
X97159500Y-49881902D01*
X97159500Y-50118097D01*
X97194975Y-50342079D01*
X97186020Y-50411373D01*
X97160183Y-50449158D01*
X95784181Y-51825161D01*
X95722858Y-51858646D01*
X95653166Y-51853662D01*
X95597233Y-51811790D01*
X95572816Y-51746326D01*
X95572500Y-51737480D01*
X95572500Y-51391905D01*
X95592185Y-51324866D01*
X95633358Y-51287636D01*
X95632285Y-51285884D01*
X95636418Y-51283350D01*
X95636433Y-51283343D01*
X95827510Y-51144517D01*
X95994517Y-50977510D01*
X96133343Y-50786433D01*
X96240568Y-50575992D01*
X96313553Y-50351368D01*
X96315717Y-50337708D01*
X96350500Y-50118097D01*
X96350500Y-49881902D01*
X96313553Y-49648631D01*
X96240566Y-49424003D01*
X96184002Y-49312991D01*
X96133343Y-49213567D01*
X95994517Y-49022490D01*
X95827510Y-48855483D01*
X95636433Y-48716657D01*
X95425996Y-48609433D01*
X95201368Y-48536446D01*
X94968097Y-48499500D01*
X94968092Y-48499500D01*
X94731908Y-48499500D01*
X94731903Y-48499500D01*
X94498631Y-48536446D01*
X94274003Y-48609433D01*
X94063566Y-48716657D01*
X93980047Y-48777338D01*
X93872490Y-48855483D01*
X93872488Y-48855485D01*
X93872487Y-48855485D01*
X93705485Y-49022487D01*
X93705485Y-49022488D01*
X93705483Y-49022490D01*
X93651203Y-49097200D01*
X93566657Y-49213566D01*
X93459433Y-49424003D01*
X93386446Y-49648631D01*
X93349500Y-49881902D01*
X93349500Y-50118097D01*
X93386446Y-50351368D01*
X93459433Y-50575996D01*
X93540232Y-50734571D01*
X93566657Y-50786433D01*
X93705483Y-50977510D01*
X93872490Y-51144517D01*
X94063567Y-51283343D01*
X94103795Y-51303839D01*
X94154590Y-51351813D01*
X94171500Y-51414324D01*
X94171500Y-59186481D01*
X94151815Y-59253520D01*
X94135181Y-59274162D01*
X93842180Y-59567163D01*
X93780857Y-59600648D01*
X93711165Y-59595664D01*
X93655232Y-59553792D01*
X93630815Y-59488328D01*
X93630499Y-59479482D01*
X93630499Y-58802129D01*
X93630498Y-58802123D01*
X93630497Y-58802116D01*
X93624091Y-58742517D01*
X93613513Y-58714157D01*
X93573797Y-58607671D01*
X93573793Y-58607664D01*
X93487547Y-58492455D01*
X93487544Y-58492452D01*
X93372335Y-58406206D01*
X93372328Y-58406202D01*
X93237483Y-58355908D01*
X93191243Y-58350937D01*
X93126693Y-58324199D01*
X93086845Y-58266806D01*
X93080500Y-58227648D01*
X93080500Y-51249004D01*
X93053581Y-51113677D01*
X93053580Y-51113676D01*
X93053580Y-51113672D01*
X93053578Y-51113667D01*
X93000778Y-50986195D01*
X93000771Y-50986182D01*
X92924115Y-50871459D01*
X92921760Y-50869104D01*
X92826542Y-50773886D01*
X92532875Y-50480219D01*
X92499390Y-50418896D01*
X92502534Y-50356135D01*
X92502415Y-50356107D01*
X92502567Y-50355472D01*
X92502630Y-50354206D01*
X92503553Y-50351368D01*
X92508012Y-50323211D01*
X92540500Y-50118097D01*
X92540500Y-49881902D01*
X92503553Y-49648631D01*
X92430566Y-49424003D01*
X92374002Y-49312991D01*
X92323343Y-49213567D01*
X92184517Y-49022490D01*
X92017510Y-48855483D01*
X91826433Y-48716657D01*
X91615996Y-48609433D01*
X91391368Y-48536446D01*
X91158097Y-48499500D01*
X91158092Y-48499500D01*
X90921908Y-48499500D01*
X90921903Y-48499500D01*
X90688631Y-48536446D01*
X90464003Y-48609433D01*
X90253566Y-48716657D01*
X90170047Y-48777338D01*
X90062490Y-48855483D01*
X90062488Y-48855485D01*
X90062487Y-48855485D01*
X89895485Y-49022487D01*
X89895485Y-49022488D01*
X89895483Y-49022490D01*
X89841203Y-49097200D01*
X89756657Y-49213566D01*
X89649433Y-49424003D01*
X89576446Y-49648631D01*
X89539500Y-49881902D01*
X89539500Y-50118097D01*
X89576446Y-50351368D01*
X89649433Y-50575996D01*
X89730232Y-50734571D01*
X89756657Y-50786433D01*
X89895483Y-50977510D01*
X90062490Y-51144517D01*
X90253567Y-51283343D01*
X90293793Y-51303839D01*
X90464003Y-51390566D01*
X90464005Y-51390566D01*
X90464008Y-51390568D01*
X90551620Y-51419035D01*
X90688631Y-51463553D01*
X90921903Y-51500500D01*
X90921908Y-51500500D01*
X91158097Y-51500500D01*
X91264126Y-51483705D01*
X91391368Y-51463553D01*
X91427432Y-51451834D01*
X91442642Y-51451400D01*
X91456902Y-51446082D01*
X91476857Y-51450423D01*
X91497270Y-51449840D01*
X91511356Y-51457927D01*
X91525175Y-51460934D01*
X91553429Y-51482085D01*
X91643181Y-51571837D01*
X91676666Y-51633160D01*
X91679500Y-51659518D01*
X91679500Y-58227648D01*
X91659815Y-58294687D01*
X91607011Y-58340442D01*
X91568755Y-58350938D01*
X91522516Y-58355909D01*
X91387671Y-58406202D01*
X91387664Y-58406206D01*
X91272455Y-58492452D01*
X91272452Y-58492455D01*
X91186206Y-58607664D01*
X91186202Y-58607671D01*
X91135908Y-58742517D01*
X91131303Y-58785354D01*
X91129501Y-58802123D01*
X91129500Y-58802135D01*
X91129500Y-58865732D01*
X91109815Y-58932771D01*
X91057011Y-58978526D01*
X90987853Y-58988470D01*
X90924297Y-58959445D01*
X90905182Y-58938618D01*
X90824461Y-58827517D01*
X90793828Y-58785354D01*
X90654646Y-58646172D01*
X90495405Y-58530476D01*
X90320029Y-58441117D01*
X90132826Y-58380290D01*
X89938422Y-58349500D01*
X89938417Y-58349500D01*
X89741583Y-58349500D01*
X89741578Y-58349500D01*
X89547173Y-58380290D01*
X89359970Y-58441117D01*
X89184594Y-58530476D01*
X89131216Y-58569258D01*
X89025354Y-58646172D01*
X89025352Y-58646174D01*
X89025351Y-58646174D01*
X88886174Y-58785351D01*
X88886174Y-58785352D01*
X88886172Y-58785354D01*
X88855539Y-58827517D01*
X88770476Y-58944594D01*
X88680204Y-59121764D01*
X88632229Y-59172560D01*
X88564408Y-59189355D01*
X88498274Y-59166818D01*
X88459234Y-59121764D01*
X88369096Y-58944858D01*
X88343678Y-58909873D01*
X88343677Y-58909873D01*
X87700000Y-59553552D01*
X87700000Y-59547339D01*
X87672741Y-59445606D01*
X87620080Y-59354394D01*
X87545606Y-59279920D01*
X87454394Y-59227259D01*
X87352661Y-59200000D01*
X87346445Y-59200000D01*
X87990125Y-58556320D01*
X87990125Y-58556319D01*
X87955145Y-58530905D01*
X87779835Y-58441581D01*
X87592705Y-58380778D01*
X87398382Y-58350000D01*
X87320019Y-58350000D01*
X87252980Y-58330315D01*
X87207225Y-58277511D01*
X87197281Y-58208353D01*
X87226306Y-58144797D01*
X87232338Y-58138319D01*
X87796112Y-57574545D01*
X87796112Y-57574544D01*
X87796114Y-57574543D01*
X87872775Y-57459811D01*
X87925580Y-57332328D01*
X87934389Y-57288040D01*
X87952500Y-57196996D01*
X87952500Y-51391905D01*
X87972185Y-51324866D01*
X88013358Y-51287636D01*
X88012285Y-51285884D01*
X88016418Y-51283350D01*
X88016433Y-51283343D01*
X88207510Y-51144517D01*
X88374517Y-50977510D01*
X88513343Y-50786433D01*
X88620568Y-50575992D01*
X88693553Y-50351368D01*
X88695717Y-50337708D01*
X88730500Y-50118097D01*
X88730500Y-49881902D01*
X88693553Y-49648631D01*
X88620566Y-49424003D01*
X88564002Y-49312991D01*
X88513343Y-49213567D01*
X88374517Y-49022490D01*
X88207510Y-48855483D01*
X88016433Y-48716657D01*
X87805996Y-48609433D01*
X87581368Y-48536446D01*
X87348097Y-48499500D01*
X87348092Y-48499500D01*
X87111908Y-48499500D01*
X87111903Y-48499500D01*
X86878631Y-48536446D01*
X86654003Y-48609433D01*
X86443566Y-48716657D01*
X86360047Y-48777338D01*
X86252490Y-48855483D01*
X86252488Y-48855485D01*
X86252487Y-48855485D01*
X86085485Y-49022487D01*
X86085485Y-49022488D01*
X86085483Y-49022490D01*
X86031203Y-49097200D01*
X85946657Y-49213566D01*
X85839433Y-49424003D01*
X85766446Y-49648631D01*
X85729500Y-49881902D01*
X85729500Y-50118097D01*
X85766446Y-50351368D01*
X85839433Y-50575996D01*
X85920232Y-50734571D01*
X85946657Y-50786433D01*
X86085483Y-50977510D01*
X86252490Y-51144517D01*
X86443567Y-51283343D01*
X86483795Y-51303839D01*
X86534590Y-51351813D01*
X86551500Y-51414324D01*
X86551500Y-56786480D01*
X86531815Y-56853519D01*
X86515181Y-56874161D01*
X85076160Y-58313181D01*
X85014837Y-58346666D01*
X84988479Y-58349500D01*
X83982129Y-58349500D01*
X83982123Y-58349501D01*
X83922516Y-58355908D01*
X83787671Y-58406202D01*
X83787664Y-58406206D01*
X83672455Y-58492452D01*
X83672452Y-58492455D01*
X83586206Y-58607664D01*
X83586202Y-58607671D01*
X83535908Y-58742517D01*
X83531303Y-58785354D01*
X83529501Y-58802123D01*
X83529500Y-58802135D01*
X83529500Y-58865732D01*
X83509815Y-58932771D01*
X83457011Y-58978526D01*
X83387853Y-58988470D01*
X83324297Y-58959445D01*
X83305182Y-58938618D01*
X83224461Y-58827517D01*
X83193828Y-58785354D01*
X83054646Y-58646172D01*
X82895405Y-58530476D01*
X82720029Y-58441117D01*
X82532826Y-58380290D01*
X82338422Y-58349500D01*
X82338417Y-58349500D01*
X82141583Y-58349500D01*
X82141578Y-58349500D01*
X81973067Y-58376189D01*
X81903773Y-58367234D01*
X81865988Y-58341397D01*
X81335823Y-57811233D01*
X81325860Y-57801270D01*
X81325859Y-57801268D01*
X81238734Y-57714143D01*
X81187510Y-57679916D01*
X81136287Y-57645689D01*
X81136284Y-57645687D01*
X81136281Y-57645686D01*
X81062604Y-57615169D01*
X81062602Y-57615168D01*
X81055793Y-57612348D01*
X81022453Y-57598538D01*
X80962030Y-57586519D01*
X80957307Y-57585579D01*
X80957305Y-57585579D01*
X80901611Y-57574501D01*
X80901608Y-57574501D01*
X80901607Y-57574501D01*
X76661605Y-57574501D01*
X76538392Y-57574501D01*
X76538387Y-57574501D01*
X76417554Y-57598536D01*
X76417546Y-57598538D01*
X76303715Y-57645688D01*
X76221686Y-57700499D01*
X76221684Y-57700501D01*
X76201657Y-57713882D01*
X76134979Y-57734758D01*
X76109397Y-57731961D01*
X76109346Y-57732285D01*
X75993155Y-57713882D01*
X75902352Y-57699500D01*
X75697648Y-57699500D01*
X75673329Y-57703351D01*
X75495465Y-57731522D01*
X75300776Y-57794781D01*
X75118386Y-57887715D01*
X74952786Y-58008028D01*
X74808028Y-58152786D01*
X74687715Y-58318386D01*
X74594781Y-58500776D01*
X74531522Y-58695465D01*
X74499500Y-58897648D01*
X66940500Y-58897648D01*
X66927785Y-58817369D01*
X66908477Y-58695465D01*
X66873669Y-58588339D01*
X66845220Y-58500781D01*
X66845218Y-58500778D01*
X66845218Y-58500776D01*
X66811503Y-58434607D01*
X66752287Y-58318390D01*
X66722587Y-58277511D01*
X66631971Y-58152786D01*
X66487213Y-58008028D01*
X66321613Y-57887715D01*
X66321612Y-57887714D01*
X66321610Y-57887713D01*
X66256261Y-57854416D01*
X66139223Y-57794781D01*
X65944534Y-57731522D01*
X65769995Y-57703878D01*
X65742352Y-57699500D01*
X65537648Y-57699500D01*
X65513329Y-57703351D01*
X65335465Y-57731522D01*
X65183759Y-57780815D01*
X65140781Y-57794780D01*
X65140778Y-57794781D01*
X65140776Y-57794782D01*
X64978982Y-57877220D01*
X64910312Y-57890116D01*
X64845572Y-57863839D01*
X64835006Y-57854416D01*
X63583221Y-56602631D01*
X63549736Y-56541308D01*
X63552971Y-56476630D01*
X63560511Y-56453427D01*
X63594100Y-56241357D01*
X63594100Y-56026643D01*
X63560511Y-55814573D01*
X63494161Y-55610367D01*
X63494161Y-55610366D01*
X63396682Y-55419055D01*
X63388675Y-55408034D01*
X63270477Y-55245349D01*
X63118651Y-55093523D01*
X62944944Y-54967317D01*
X62944943Y-54967316D01*
X62941002Y-54964453D01*
X62942405Y-54962521D01*
X62902078Y-54918073D01*
X62890558Y-54849160D01*
X62918125Y-54784958D01*
X62941709Y-54764521D01*
X62941002Y-54763547D01*
X62944944Y-54760683D01*
X63118651Y-54634477D01*
X63270477Y-54482651D01*
X63396683Y-54308944D01*
X63494161Y-54117633D01*
X63560511Y-53913427D01*
X63594100Y-53701357D01*
X63594100Y-53486643D01*
X63560511Y-53274573D01*
X63524167Y-53162716D01*
X63494162Y-53070369D01*
X63494161Y-53070366D01*
X63396682Y-52879055D01*
X63270477Y-52705349D01*
X63118651Y-52553523D01*
X62944944Y-52427317D01*
X62944943Y-52427316D01*
X62941002Y-52424453D01*
X62942405Y-52422521D01*
X62902078Y-52378073D01*
X62890558Y-52309160D01*
X62918125Y-52244958D01*
X62941709Y-52224521D01*
X62941002Y-52223547D01*
X62944944Y-52220683D01*
X63118651Y-52094477D01*
X63270477Y-51942651D01*
X63396683Y-51768944D01*
X63494161Y-51577633D01*
X63560511Y-51373427D01*
X63594100Y-51161357D01*
X63594100Y-50946643D01*
X63560511Y-50734573D01*
X63527336Y-50632470D01*
X63494162Y-50530369D01*
X63494161Y-50530366D01*
X63405047Y-50355472D01*
X63396683Y-50339056D01*
X63270477Y-50165349D01*
X63118651Y-50013523D01*
X62944944Y-49887317D01*
X62934405Y-49881947D01*
X78110000Y-49881947D01*
X78110000Y-50118052D01*
X78146934Y-50351247D01*
X78219897Y-50575802D01*
X78327087Y-50786174D01*
X78387338Y-50869104D01*
X78387340Y-50869105D01*
X79086212Y-50170233D01*
X79097482Y-50212292D01*
X79169890Y-50337708D01*
X79272292Y-50440110D01*
X79397708Y-50512518D01*
X79439765Y-50523787D01*
X78740893Y-51222658D01*
X78823828Y-51282914D01*
X79034197Y-51390102D01*
X79258752Y-51463065D01*
X79258751Y-51463065D01*
X79491948Y-51500000D01*
X79728052Y-51500000D01*
X79961247Y-51463065D01*
X80185802Y-51390102D01*
X80396163Y-51282918D01*
X80396169Y-51282914D01*
X80479104Y-51222658D01*
X80479105Y-51222658D01*
X79780233Y-50523787D01*
X79822292Y-50512518D01*
X79947708Y-50440110D01*
X80050110Y-50337708D01*
X80122518Y-50212292D01*
X80133787Y-50170234D01*
X80832658Y-50869105D01*
X80832658Y-50869104D01*
X80892914Y-50786169D01*
X80892918Y-50786163D01*
X81000102Y-50575802D01*
X81073065Y-50351247D01*
X81110000Y-50118052D01*
X81110000Y-49881947D01*
X81109993Y-49881902D01*
X81919500Y-49881902D01*
X81919500Y-50118097D01*
X81956446Y-50351368D01*
X82029433Y-50575996D01*
X82110232Y-50734571D01*
X82136657Y-50786433D01*
X82275483Y-50977510D01*
X82442490Y-51144517D01*
X82633567Y-51283343D01*
X82673793Y-51303839D01*
X82844003Y-51390566D01*
X82844005Y-51390566D01*
X82844008Y-51390568D01*
X82931620Y-51419035D01*
X83068631Y-51463553D01*
X83301903Y-51500500D01*
X83301908Y-51500500D01*
X83538097Y-51500500D01*
X83771368Y-51463553D01*
X83808771Y-51451400D01*
X83995992Y-51390568D01*
X84206433Y-51283343D01*
X84397510Y-51144517D01*
X84564517Y-50977510D01*
X84703343Y-50786433D01*
X84810568Y-50575992D01*
X84883553Y-50351368D01*
X84885717Y-50337708D01*
X84920500Y-50118097D01*
X84920500Y-49881902D01*
X84883553Y-49648631D01*
X84810566Y-49424003D01*
X84754002Y-49312991D01*
X84703343Y-49213567D01*
X84564517Y-49022490D01*
X84397510Y-48855483D01*
X84206433Y-48716657D01*
X83995996Y-48609433D01*
X83771368Y-48536446D01*
X83538097Y-48499500D01*
X83538092Y-48499500D01*
X83301908Y-48499500D01*
X83301903Y-48499500D01*
X83068631Y-48536446D01*
X82844003Y-48609433D01*
X82633566Y-48716657D01*
X82550047Y-48777338D01*
X82442490Y-48855483D01*
X82442488Y-48855485D01*
X82442487Y-48855485D01*
X82275485Y-49022487D01*
X82275485Y-49022488D01*
X82275483Y-49022490D01*
X82221203Y-49097200D01*
X82136657Y-49213566D01*
X82029433Y-49424003D01*
X81956446Y-49648631D01*
X81919500Y-49881902D01*
X81109993Y-49881902D01*
X81073065Y-49648752D01*
X81000102Y-49424197D01*
X80892914Y-49213828D01*
X80832658Y-49130894D01*
X80832658Y-49130893D01*
X80133787Y-49829765D01*
X80122518Y-49787708D01*
X80050110Y-49662292D01*
X79947708Y-49559890D01*
X79822292Y-49487482D01*
X79780234Y-49476212D01*
X80479105Y-48777340D01*
X80479104Y-48777338D01*
X80396174Y-48717087D01*
X80185802Y-48609897D01*
X79961247Y-48536934D01*
X79961248Y-48536934D01*
X79728052Y-48500000D01*
X79491948Y-48500000D01*
X79258752Y-48536934D01*
X79034197Y-48609897D01*
X78823830Y-48717084D01*
X78740894Y-48777340D01*
X79439766Y-49476212D01*
X79397708Y-49487482D01*
X79272292Y-49559890D01*
X79169890Y-49662292D01*
X79097482Y-49787708D01*
X79086212Y-49829766D01*
X78387340Y-49130894D01*
X78327084Y-49213830D01*
X78219897Y-49424197D01*
X78146934Y-49648752D01*
X78110000Y-49881947D01*
X62934405Y-49881947D01*
X62753633Y-49789839D01*
X62753621Y-49789835D01*
X62737057Y-49784453D01*
X62679382Y-49745015D01*
X62652184Y-49680656D01*
X62664099Y-49611810D01*
X62711343Y-49560334D01*
X62719060Y-49556048D01*
X62832994Y-49497996D01*
X62979501Y-49391553D01*
X63107553Y-49263501D01*
X63213996Y-49116994D01*
X63296211Y-48955639D01*
X63296213Y-48955633D01*
X63351238Y-48786282D01*
X63351238Y-48786281D01*
X63351239Y-48786279D01*
X63352170Y-48783411D01*
X63352171Y-48783409D01*
X63365291Y-48700570D01*
X63380500Y-48604551D01*
X63380500Y-48423448D01*
X63364019Y-48319397D01*
X63352171Y-48244591D01*
X63296211Y-48072361D01*
X63296211Y-48072360D01*
X63267740Y-48016484D01*
X63213996Y-47911006D01*
X63200396Y-47892287D01*
X63107558Y-47764505D01*
X63107554Y-47764500D01*
X62979499Y-47636445D01*
X62979494Y-47636441D01*
X62832997Y-47530006D01*
X62832996Y-47530005D01*
X62832994Y-47530004D01*
X62781300Y-47503664D01*
X62671639Y-47447788D01*
X62671636Y-47447787D01*
X62499410Y-47391829D01*
X62320551Y-47363500D01*
X62320546Y-47363500D01*
X62139454Y-47363500D01*
X62139449Y-47363500D01*
X61960589Y-47391829D01*
X61788363Y-47447787D01*
X61788360Y-47447788D01*
X61627002Y-47530006D01*
X61480505Y-47636441D01*
X61480500Y-47636445D01*
X61352445Y-47764500D01*
X61352441Y-47764505D01*
X61246006Y-47911002D01*
X61163788Y-48072360D01*
X61163787Y-48072363D01*
X61107829Y-48244589D01*
X61079500Y-48423448D01*
X61079500Y-48604551D01*
X61107829Y-48783410D01*
X61163787Y-48955636D01*
X61163788Y-48955639D01*
X61219664Y-49065300D01*
X61235920Y-49097204D01*
X61246006Y-49116997D01*
X61352441Y-49263494D01*
X61352445Y-49263499D01*
X61480500Y-49391554D01*
X61480505Y-49391558D01*
X61608287Y-49484396D01*
X61627006Y-49497996D01*
X61740918Y-49556037D01*
X61791714Y-49604012D01*
X61808509Y-49671833D01*
X61785972Y-49737968D01*
X61731257Y-49781419D01*
X61722943Y-49784452D01*
X61706374Y-49789835D01*
X61706366Y-49789838D01*
X61515055Y-49887317D01*
X61415949Y-49959322D01*
X61341349Y-50013523D01*
X61341347Y-50013525D01*
X61341346Y-50013525D01*
X61189525Y-50165346D01*
X61189525Y-50165347D01*
X61189523Y-50165349D01*
X61155417Y-50212292D01*
X61063317Y-50339055D01*
X60965838Y-50530366D01*
X60965837Y-50530369D01*
X60899489Y-50734571D01*
X60865900Y-50946643D01*
X60865900Y-51161356D01*
X60899489Y-51373428D01*
X60965837Y-51577630D01*
X60965838Y-51577633D01*
X61063317Y-51768944D01*
X61189523Y-51942651D01*
X61341349Y-52094477D01*
X61515056Y-52220683D01*
X61518998Y-52223547D01*
X61517624Y-52225437D01*
X61558030Y-52270152D01*
X61569411Y-52339089D01*
X61541715Y-52403235D01*
X61518314Y-52423511D01*
X61518998Y-52424453D01*
X61515056Y-52427316D01*
X61515056Y-52427317D01*
X61341349Y-52553523D01*
X61341347Y-52553525D01*
X61341346Y-52553525D01*
X61189525Y-52705346D01*
X61189525Y-52705347D01*
X61189523Y-52705349D01*
X61182553Y-52714943D01*
X61063317Y-52879055D01*
X60965838Y-53070366D01*
X60965837Y-53070369D01*
X60899489Y-53274571D01*
X60865900Y-53486643D01*
X60865900Y-53701356D01*
X60899489Y-53913428D01*
X60965837Y-54117630D01*
X60965838Y-54117633D01*
X61063317Y-54308944D01*
X61189523Y-54482651D01*
X61341349Y-54634477D01*
X61515056Y-54760683D01*
X61518998Y-54763547D01*
X61517624Y-54765437D01*
X61558030Y-54810152D01*
X61569411Y-54879089D01*
X61541715Y-54943235D01*
X61518314Y-54963511D01*
X61518998Y-54964453D01*
X61515056Y-54967316D01*
X61515056Y-54967317D01*
X61341349Y-55093523D01*
X61341347Y-55093525D01*
X61341346Y-55093525D01*
X61189525Y-55245346D01*
X61189525Y-55245347D01*
X61189523Y-55245349D01*
X61158744Y-55287713D01*
X61063317Y-55419055D01*
X60965838Y-55610366D01*
X60965837Y-55610369D01*
X60899489Y-55814571D01*
X60865900Y-56026643D01*
X60865900Y-56241356D01*
X60899489Y-56453428D01*
X60965837Y-56657630D01*
X60965838Y-56657633D01*
X60989736Y-56704534D01*
X61063317Y-56848944D01*
X61189523Y-57022651D01*
X61341349Y-57174477D01*
X61515056Y-57300683D01*
X61518998Y-57303547D01*
X61517624Y-57305437D01*
X61558030Y-57350152D01*
X61569411Y-57419089D01*
X61541715Y-57483235D01*
X61518314Y-57503511D01*
X61518998Y-57504453D01*
X61515056Y-57507316D01*
X61515056Y-57507317D01*
X61341349Y-57633523D01*
X61341347Y-57633525D01*
X61341346Y-57633525D01*
X61189525Y-57785346D01*
X61189525Y-57785347D01*
X61189523Y-57785349D01*
X61177956Y-57801270D01*
X61063317Y-57959055D01*
X60965838Y-58150366D01*
X60965837Y-58150369D01*
X60899489Y-58354571D01*
X60877650Y-58492455D01*
X60865900Y-58566643D01*
X60865900Y-58781357D01*
X60874548Y-58835959D01*
X60899489Y-58993428D01*
X60965837Y-59197630D01*
X60965838Y-59197633D01*
X61045713Y-59354394D01*
X61063317Y-59388944D01*
X61189523Y-59562651D01*
X61341349Y-59714477D01*
X61515056Y-59840683D01*
X61518998Y-59843547D01*
X61517624Y-59845437D01*
X61558030Y-59890152D01*
X61569411Y-59959089D01*
X61541715Y-60023235D01*
X61518314Y-60043511D01*
X61518998Y-60044453D01*
X61515056Y-60047316D01*
X61515056Y-60047317D01*
X61341349Y-60173523D01*
X61341347Y-60173525D01*
X61341346Y-60173525D01*
X61189525Y-60325346D01*
X61189525Y-60325347D01*
X61189523Y-60325349D01*
X61183047Y-60334263D01*
X61063317Y-60499055D01*
X60965838Y-60690366D01*
X60965837Y-60690369D01*
X60899489Y-60894571D01*
X60877397Y-61034052D01*
X60865900Y-61106643D01*
X60865900Y-61321357D01*
X60869963Y-61347009D01*
X60899489Y-61533428D01*
X60965837Y-61737630D01*
X60965838Y-61737633D01*
X61035027Y-61873422D01*
X61063317Y-61928944D01*
X61189523Y-62102651D01*
X61341349Y-62254477D01*
X61403318Y-62299500D01*
X61518998Y-62383547D01*
X61517624Y-62385437D01*
X61558030Y-62430152D01*
X61569411Y-62499089D01*
X61541715Y-62563235D01*
X61518314Y-62583511D01*
X61518998Y-62584453D01*
X61515056Y-62587316D01*
X61515056Y-62587317D01*
X61341349Y-62713523D01*
X61341347Y-62713525D01*
X61341346Y-62713525D01*
X61189525Y-62865346D01*
X61189525Y-62865347D01*
X61189523Y-62865349D01*
X61158865Y-62907546D01*
X61063317Y-63039055D01*
X60965838Y-63230366D01*
X60965837Y-63230369D01*
X60899489Y-63434571D01*
X60865900Y-63646643D01*
X60865900Y-63861356D01*
X60899489Y-64073428D01*
X60965837Y-64277630D01*
X60965838Y-64277633D01*
X61018394Y-64380778D01*
X61063317Y-64468944D01*
X61189523Y-64642651D01*
X61341349Y-64794477D01*
X61515056Y-64920683D01*
X61518998Y-64923547D01*
X61517624Y-64925437D01*
X61558030Y-64970152D01*
X61569411Y-65039089D01*
X61541715Y-65103235D01*
X61518314Y-65123511D01*
X61518998Y-65124453D01*
X61515056Y-65127316D01*
X61515056Y-65127317D01*
X61341349Y-65253523D01*
X61341347Y-65253525D01*
X61341346Y-65253525D01*
X61189525Y-65405346D01*
X61189525Y-65405347D01*
X61189523Y-65405349D01*
X61137161Y-65477419D01*
X61063317Y-65579055D01*
X60965838Y-65770366D01*
X60965837Y-65770369D01*
X60899489Y-65974571D01*
X60888609Y-66043267D01*
X60865900Y-66186643D01*
X60865900Y-66401357D01*
X60874790Y-66457483D01*
X60899489Y-66613428D01*
X60965837Y-66817630D01*
X60965838Y-66817633D01*
X60996352Y-66877519D01*
X61063317Y-67008944D01*
X61189523Y-67182651D01*
X61341349Y-67334477D01*
X61504180Y-67452781D01*
X61518998Y-67463547D01*
X61517624Y-67465437D01*
X61558030Y-67510152D01*
X61569411Y-67579089D01*
X61541715Y-67643235D01*
X61518314Y-67663511D01*
X61518998Y-67664453D01*
X61515056Y-67667316D01*
X61515056Y-67667317D01*
X61341349Y-67793523D01*
X61341347Y-67793525D01*
X61341346Y-67793525D01*
X61189525Y-67945346D01*
X61189525Y-67945347D01*
X61189523Y-67945349D01*
X61135322Y-68019949D01*
X61063317Y-68119055D01*
X60965838Y-68310366D01*
X60965837Y-68310369D01*
X60899489Y-68514571D01*
X60865900Y-68726643D01*
X60865900Y-68941356D01*
X60899489Y-69153428D01*
X60965837Y-69357630D01*
X60965838Y-69357633D01*
X61041037Y-69505218D01*
X61063317Y-69548944D01*
X61189523Y-69722651D01*
X61341349Y-69874477D01*
X61515056Y-70000683D01*
X61518998Y-70003547D01*
X61517624Y-70005437D01*
X61558030Y-70050152D01*
X61569411Y-70119089D01*
X61541715Y-70183235D01*
X61518314Y-70203511D01*
X61518998Y-70204453D01*
X61515056Y-70207316D01*
X61515056Y-70207317D01*
X61341349Y-70333523D01*
X61341347Y-70333525D01*
X61341346Y-70333525D01*
X61189525Y-70485346D01*
X61189525Y-70485347D01*
X61189523Y-70485349D01*
X61135322Y-70559949D01*
X61063317Y-70659055D01*
X60965838Y-70850366D01*
X60965837Y-70850369D01*
X60899489Y-71054571D01*
X60880661Y-71173446D01*
X60865900Y-71266643D01*
X60865900Y-71481357D01*
X60874548Y-71535959D01*
X60899489Y-71693428D01*
X60965837Y-71897630D01*
X60965838Y-71897633D01*
X61063317Y-72088944D01*
X61189523Y-72262651D01*
X61341349Y-72414477D01*
X61492199Y-72524076D01*
X61518998Y-72543547D01*
X61517624Y-72545437D01*
X61558030Y-72590152D01*
X61569411Y-72659089D01*
X61541715Y-72723235D01*
X61518314Y-72743511D01*
X61518998Y-72744453D01*
X61515056Y-72747316D01*
X61515056Y-72747317D01*
X61341349Y-72873523D01*
X61341347Y-72873525D01*
X61341346Y-72873525D01*
X61189525Y-73025346D01*
X61189525Y-73025347D01*
X61189523Y-73025349D01*
X61178068Y-73041116D01*
X61063317Y-73199055D01*
X60965838Y-73390366D01*
X60965837Y-73390369D01*
X60899489Y-73594571D01*
X60865900Y-73806643D01*
X60865900Y-74021356D01*
X60899489Y-74233428D01*
X60965837Y-74437630D01*
X60965838Y-74437633D01*
X61049215Y-74601267D01*
X61063317Y-74628944D01*
X61189523Y-74802651D01*
X61341349Y-74954477D01*
X61515056Y-75080683D01*
X61518998Y-75083547D01*
X61517624Y-75085437D01*
X61558030Y-75130152D01*
X61569411Y-75199089D01*
X61541715Y-75263235D01*
X61518314Y-75283511D01*
X61518998Y-75284453D01*
X61515056Y-75287316D01*
X61515056Y-75287317D01*
X61341349Y-75413523D01*
X61341347Y-75413525D01*
X61341346Y-75413525D01*
X61189525Y-75565346D01*
X61189525Y-75565347D01*
X61189523Y-75565349D01*
X61145821Y-75625500D01*
X61063317Y-75739055D01*
X60965838Y-75930366D01*
X60965837Y-75930369D01*
X60899489Y-76134571D01*
X60880341Y-76255466D01*
X60865900Y-76346643D01*
X60865900Y-76561357D01*
X60874975Y-76618652D01*
X60899489Y-76773428D01*
X60965837Y-76977630D01*
X60965838Y-76977633D01*
X61039441Y-77122085D01*
X61063317Y-77168944D01*
X61189523Y-77342651D01*
X61189525Y-77342653D01*
X61286211Y-77439339D01*
X61319696Y-77500662D01*
X61314712Y-77570354D01*
X61272840Y-77626287D01*
X61241863Y-77643202D01*
X61124313Y-77687045D01*
X61124306Y-77687049D01*
X61009212Y-77773209D01*
X61009209Y-77773212D01*
X60923049Y-77888306D01*
X60923045Y-77888313D01*
X60872803Y-78023020D01*
X60872801Y-78023027D01*
X60866400Y-78082555D01*
X60866400Y-78744000D01*
X61787749Y-78744000D01*
X61756619Y-78797919D01*
X61722000Y-78927120D01*
X61722000Y-79060880D01*
X61756619Y-79190081D01*
X61787749Y-79244000D01*
X60866400Y-79244000D01*
X60866400Y-79905444D01*
X60872801Y-79964972D01*
X60872803Y-79964979D01*
X60923045Y-80099686D01*
X60923049Y-80099693D01*
X61009209Y-80214787D01*
X61009212Y-80214790D01*
X61124306Y-80300950D01*
X61124313Y-80300954D01*
X61241863Y-80344797D01*
X61297797Y-80386668D01*
X61322214Y-80452132D01*
X61307363Y-80520405D01*
X61286212Y-80548660D01*
X61189522Y-80645350D01*
X61063317Y-80819055D01*
X60965838Y-81010366D01*
X60965837Y-81010369D01*
X60899489Y-81214571D01*
X60887528Y-81290088D01*
X60865900Y-81426643D01*
X60865900Y-81641357D01*
X60871604Y-81677369D01*
X60899489Y-81853430D01*
X60925922Y-81934783D01*
X60927917Y-82004624D01*
X60891836Y-82064456D01*
X60829135Y-82095284D01*
X60807991Y-82097100D01*
X58022916Y-82097100D01*
X57975464Y-82087661D01*
X57831101Y-82027864D01*
X57831089Y-82027861D01*
X57676445Y-81997100D01*
X57676442Y-81997100D01*
X57518758Y-81997100D01*
X57518755Y-81997100D01*
X57364110Y-82027861D01*
X57364098Y-82027864D01*
X57218427Y-82088202D01*
X57218414Y-82088209D01*
X57087311Y-82175810D01*
X57087307Y-82175813D01*
X56975813Y-82287307D01*
X56975810Y-82287311D01*
X56888209Y-82418414D01*
X56888202Y-82418427D01*
X56827864Y-82564098D01*
X56827861Y-82564110D01*
X56797100Y-82718753D01*
X53650500Y-82718753D01*
X53650500Y-64647394D01*
X53649557Y-64642652D01*
X53642598Y-64607669D01*
X53626463Y-64526549D01*
X53623083Y-64518390D01*
X53619256Y-64509152D01*
X53619256Y-64509149D01*
X53606933Y-64479399D01*
X53606932Y-64479398D01*
X53606932Y-64479397D01*
X53579312Y-64412715D01*
X53572666Y-64402769D01*
X53545162Y-64361605D01*
X53545162Y-64361606D01*
X53510858Y-64310267D01*
X53510855Y-64310263D01*
X53420637Y-64220045D01*
X53420606Y-64220016D01*
X48343221Y-59142631D01*
X48309736Y-59081308D01*
X48312971Y-59016630D01*
X48320511Y-58993427D01*
X48354100Y-58781357D01*
X48354100Y-58566643D01*
X48320511Y-58354573D01*
X48254947Y-58152786D01*
X48254162Y-58150369D01*
X48254161Y-58150366D01*
X48204492Y-58052888D01*
X48156683Y-57959056D01*
X48030477Y-57785349D01*
X47878651Y-57633523D01*
X47704944Y-57507317D01*
X47704943Y-57507316D01*
X47701002Y-57504453D01*
X47702405Y-57502521D01*
X47662078Y-57458073D01*
X47650558Y-57389160D01*
X47678125Y-57324958D01*
X47701709Y-57304521D01*
X47701002Y-57303547D01*
X47704944Y-57300683D01*
X47878651Y-57174477D01*
X48030477Y-57022651D01*
X48156683Y-56848944D01*
X48254161Y-56657633D01*
X48320511Y-56453427D01*
X48354100Y-56241357D01*
X48354100Y-56026643D01*
X48320511Y-55814573D01*
X48254161Y-55610367D01*
X48254161Y-55610366D01*
X48156682Y-55419055D01*
X48148675Y-55408034D01*
X48030477Y-55245349D01*
X47878651Y-55093523D01*
X47704944Y-54967317D01*
X47704943Y-54967316D01*
X47701002Y-54964453D01*
X47702405Y-54962521D01*
X47662078Y-54918073D01*
X47650558Y-54849160D01*
X47678125Y-54784958D01*
X47701709Y-54764521D01*
X47701002Y-54763547D01*
X47704944Y-54760683D01*
X47878651Y-54634477D01*
X48030477Y-54482651D01*
X48156683Y-54308944D01*
X48254161Y-54117633D01*
X48320511Y-53913427D01*
X48354100Y-53701357D01*
X48354100Y-53486643D01*
X48320511Y-53274573D01*
X48284167Y-53162716D01*
X48254162Y-53070369D01*
X48254161Y-53070366D01*
X48156682Y-52879055D01*
X48030477Y-52705349D01*
X47878651Y-52553523D01*
X47704944Y-52427317D01*
X47704943Y-52427316D01*
X47701002Y-52424453D01*
X47702405Y-52422521D01*
X47662078Y-52378073D01*
X47650558Y-52309160D01*
X47678125Y-52244958D01*
X47701709Y-52224521D01*
X47701002Y-52223547D01*
X47704944Y-52220683D01*
X47878651Y-52094477D01*
X48030477Y-51942651D01*
X48156683Y-51768944D01*
X48254161Y-51577633D01*
X48320511Y-51373427D01*
X48354100Y-51161357D01*
X48354100Y-50946643D01*
X48320511Y-50734573D01*
X48287336Y-50632470D01*
X48254162Y-50530369D01*
X48254161Y-50530366D01*
X48165047Y-50355472D01*
X48156683Y-50339056D01*
X48030477Y-50165349D01*
X47878651Y-50013523D01*
X47704944Y-49887317D01*
X47513633Y-49789839D01*
X47513621Y-49789835D01*
X47497057Y-49784453D01*
X47439382Y-49745015D01*
X47412184Y-49680656D01*
X47424099Y-49611810D01*
X47471343Y-49560334D01*
X47479060Y-49556048D01*
X47592994Y-49497996D01*
X47739501Y-49391553D01*
X47867553Y-49263501D01*
X47973996Y-49116994D01*
X48056211Y-48955639D01*
X48112171Y-48783409D01*
X48126765Y-48691259D01*
X48140500Y-48604551D01*
X48140500Y-48423448D01*
X48124019Y-48319397D01*
X48112171Y-48244591D01*
X48056211Y-48072361D01*
X48056211Y-48072360D01*
X48027740Y-48016484D01*
X47973996Y-47911006D01*
X47960396Y-47892287D01*
X47867558Y-47764505D01*
X47867554Y-47764500D01*
X47739499Y-47636445D01*
X47739494Y-47636441D01*
X47592997Y-47530006D01*
X47592996Y-47530005D01*
X47592994Y-47530004D01*
X47541300Y-47503664D01*
X47431639Y-47447788D01*
X47431636Y-47447787D01*
X47259410Y-47391829D01*
X47080551Y-47363500D01*
X47080546Y-47363500D01*
X46899454Y-47363500D01*
X46899449Y-47363500D01*
X46720589Y-47391829D01*
X46548363Y-47447787D01*
X46548360Y-47447788D01*
X46387002Y-47530006D01*
X46240505Y-47636441D01*
X46240500Y-47636445D01*
X46112445Y-47764500D01*
X46112441Y-47764505D01*
X46006006Y-47911002D01*
X45923788Y-48072360D01*
X45923787Y-48072363D01*
X45867829Y-48244589D01*
X45839500Y-48423448D01*
X45839500Y-48604551D01*
X45867829Y-48783410D01*
X45923787Y-48955636D01*
X45923788Y-48955639D01*
X45979664Y-49065300D01*
X45995920Y-49097204D01*
X46006006Y-49116997D01*
X46112441Y-49263494D01*
X46112445Y-49263499D01*
X46240500Y-49391554D01*
X46240505Y-49391558D01*
X46368287Y-49484396D01*
X46387006Y-49497996D01*
X46500918Y-49556037D01*
X46551714Y-49604012D01*
X46568509Y-49671833D01*
X46545972Y-49737968D01*
X46491257Y-49781419D01*
X46482943Y-49784452D01*
X46466374Y-49789835D01*
X46466366Y-49789838D01*
X46275055Y-49887317D01*
X46175949Y-49959322D01*
X46101349Y-50013523D01*
X46101347Y-50013525D01*
X46101346Y-50013525D01*
X45949525Y-50165346D01*
X45949525Y-50165347D01*
X45949523Y-50165349D01*
X45915417Y-50212292D01*
X45823317Y-50339055D01*
X45725838Y-50530366D01*
X45725837Y-50530369D01*
X45659489Y-50734571D01*
X45625900Y-50946643D01*
X45625900Y-51161356D01*
X45659489Y-51373428D01*
X45725837Y-51577630D01*
X45725838Y-51577633D01*
X45823317Y-51768944D01*
X45949523Y-51942651D01*
X46101349Y-52094477D01*
X46275056Y-52220683D01*
X46278998Y-52223547D01*
X46277624Y-52225437D01*
X46318030Y-52270152D01*
X46329411Y-52339089D01*
X46301715Y-52403235D01*
X46278314Y-52423511D01*
X46278998Y-52424453D01*
X46275056Y-52427316D01*
X46275056Y-52427317D01*
X46101349Y-52553523D01*
X46101347Y-52553525D01*
X46101346Y-52553525D01*
X45949525Y-52705346D01*
X45949525Y-52705347D01*
X45949523Y-52705349D01*
X45942553Y-52714943D01*
X45823317Y-52879055D01*
X45725838Y-53070366D01*
X45725837Y-53070369D01*
X45659489Y-53274571D01*
X45625900Y-53486643D01*
X45625900Y-53701356D01*
X45659489Y-53913428D01*
X45725837Y-54117630D01*
X45725838Y-54117633D01*
X45823317Y-54308944D01*
X45949523Y-54482651D01*
X46101349Y-54634477D01*
X46275056Y-54760683D01*
X46278998Y-54763547D01*
X46277624Y-54765437D01*
X46318030Y-54810152D01*
X46329411Y-54879089D01*
X46301715Y-54943235D01*
X46278314Y-54963511D01*
X46278998Y-54964453D01*
X46275056Y-54967316D01*
X46275056Y-54967317D01*
X46101349Y-55093523D01*
X46101347Y-55093525D01*
X46101346Y-55093525D01*
X45949525Y-55245346D01*
X45949525Y-55245347D01*
X45949523Y-55245349D01*
X45918744Y-55287713D01*
X45823317Y-55419055D01*
X45725838Y-55610366D01*
X45725837Y-55610369D01*
X45659489Y-55814571D01*
X45625900Y-56026643D01*
X45625900Y-56241357D01*
X45625899Y-56241357D01*
X45652397Y-56408658D01*
X45643442Y-56477951D01*
X45617605Y-56515736D01*
X44155887Y-57977454D01*
X44079222Y-58092192D01*
X44026421Y-58219667D01*
X44026418Y-58219679D01*
X44007047Y-58317062D01*
X44007037Y-58317113D01*
X44006784Y-58318390D01*
X43999500Y-58355007D01*
X43999500Y-96131006D01*
X43999500Y-96268994D01*
X43999500Y-96268996D01*
X43999499Y-96268996D01*
X42900500Y-96268996D01*
X42900500Y-46558676D01*
X42920185Y-46491637D01*
X42936819Y-46470995D01*
X44170995Y-45236819D01*
X44232318Y-45203334D01*
X44258676Y-45200500D01*
X120141324Y-45200500D01*
X120208363Y-45220185D01*
G37*
%TD.AperFunction*%
%TD*%
M02*
