%TF.GenerationSoftware,KiCad,Pcbnew,10.0.3*%
%TF.CreationDate,2026-06-12T10:22:29+02:00*%
%TF.ProjectId,OpenFlex_Proto_THT,4f70656e-466c-4657-985f-50726f746f5f,rev?*%
%TF.SameCoordinates,Original*%
%TF.FileFunction,AssemblyDrawing,Top*%
%FSLAX46Y46*%
G04 Gerber Fmt 4.6, Leading zero omitted, Abs format (unit mm)*
G04 Created by KiCad (PCBNEW 10.0.3) date 2026-06-12 10:22:29*
%MOMM*%
%LPD*%
G01*
G04 APERTURE LIST*
%ADD10C,0.150000*%
%ADD11C,0.120000*%
%ADD12C,0.100000*%
%ADD13C,0.025400*%
%ADD14C,0.508000*%
%ADD15C,0.127000*%
%ADD16C,0.200000*%
G04 APERTURE END LIST*
D10*
X225504819Y-100380475D02*
X225504819Y-99809047D01*
X226504819Y-100094761D02*
X225504819Y-100094761D01*
X226409580Y-98904285D02*
X226457200Y-98951904D01*
X226457200Y-98951904D02*
X226504819Y-99094761D01*
X226504819Y-99094761D02*
X226504819Y-99189999D01*
X226504819Y-99189999D02*
X226457200Y-99332856D01*
X226457200Y-99332856D02*
X226361961Y-99428094D01*
X226361961Y-99428094D02*
X226266723Y-99475713D01*
X226266723Y-99475713D02*
X226076247Y-99523332D01*
X226076247Y-99523332D02*
X225933390Y-99523332D01*
X225933390Y-99523332D02*
X225742914Y-99475713D01*
X225742914Y-99475713D02*
X225647676Y-99428094D01*
X225647676Y-99428094D02*
X225552438Y-99332856D01*
X225552438Y-99332856D02*
X225504819Y-99189999D01*
X225504819Y-99189999D02*
X225504819Y-99094761D01*
X225504819Y-99094761D02*
X225552438Y-98951904D01*
X225552438Y-98951904D02*
X225600057Y-98904285D01*
X225838152Y-98047142D02*
X226504819Y-98047142D01*
X225457200Y-98285237D02*
X226171485Y-98523332D01*
X226171485Y-98523332D02*
X226171485Y-97904285D01*
X225838152Y-97094761D02*
X226504819Y-97094761D01*
X225457200Y-97332856D02*
X226171485Y-97570951D01*
X226171485Y-97570951D02*
X226171485Y-96951904D01*
X225600057Y-96618570D02*
X225552438Y-96570951D01*
X225552438Y-96570951D02*
X225504819Y-96475713D01*
X225504819Y-96475713D02*
X225504819Y-96237618D01*
X225504819Y-96237618D02*
X225552438Y-96142380D01*
X225552438Y-96142380D02*
X225600057Y-96094761D01*
X225600057Y-96094761D02*
X225695295Y-96047142D01*
X225695295Y-96047142D02*
X225790533Y-96047142D01*
X225790533Y-96047142D02*
X225933390Y-96094761D01*
X225933390Y-96094761D02*
X226504819Y-96666189D01*
X226504819Y-96666189D02*
X226504819Y-96047142D01*
X225838152Y-95189999D02*
X226504819Y-95189999D01*
X225457200Y-95428094D02*
X226171485Y-95666189D01*
X226171485Y-95666189D02*
X226171485Y-95047142D01*
X219148095Y-97144819D02*
X219148095Y-97954342D01*
X219148095Y-97954342D02*
X219195714Y-98049580D01*
X219195714Y-98049580D02*
X219243333Y-98097200D01*
X219243333Y-98097200D02*
X219338571Y-98144819D01*
X219338571Y-98144819D02*
X219529047Y-98144819D01*
X219529047Y-98144819D02*
X219624285Y-98097200D01*
X219624285Y-98097200D02*
X219671904Y-98049580D01*
X219671904Y-98049580D02*
X219719523Y-97954342D01*
X219719523Y-97954342D02*
X219719523Y-97144819D01*
X220624285Y-97478152D02*
X220624285Y-98144819D01*
X220386190Y-97097200D02*
X220148095Y-97811485D01*
X220148095Y-97811485D02*
X220767142Y-97811485D01*
X214460746Y-52554819D02*
X214460746Y-51554819D01*
X214460746Y-51554819D02*
X214698841Y-51554819D01*
X214698841Y-51554819D02*
X214841698Y-51602438D01*
X214841698Y-51602438D02*
X214936936Y-51697676D01*
X214936936Y-51697676D02*
X214984555Y-51792914D01*
X214984555Y-51792914D02*
X215032174Y-51983390D01*
X215032174Y-51983390D02*
X215032174Y-52126247D01*
X215032174Y-52126247D02*
X214984555Y-52316723D01*
X214984555Y-52316723D02*
X214936936Y-52411961D01*
X214936936Y-52411961D02*
X214841698Y-52507200D01*
X214841698Y-52507200D02*
X214698841Y-52554819D01*
X214698841Y-52554819D02*
X214460746Y-52554819D01*
D11*
X213932175Y-54463855D02*
X213932175Y-53663855D01*
X213932175Y-53663855D02*
X214122651Y-53663855D01*
X214122651Y-53663855D02*
X214236937Y-53701950D01*
X214236937Y-53701950D02*
X214313127Y-53778140D01*
X214313127Y-53778140D02*
X214351222Y-53854331D01*
X214351222Y-53854331D02*
X214389318Y-54006712D01*
X214389318Y-54006712D02*
X214389318Y-54120998D01*
X214389318Y-54120998D02*
X214351222Y-54273379D01*
X214351222Y-54273379D02*
X214313127Y-54349569D01*
X214313127Y-54349569D02*
X214236937Y-54425760D01*
X214236937Y-54425760D02*
X214122651Y-54463855D01*
X214122651Y-54463855D02*
X213932175Y-54463855D01*
X214655984Y-53663855D02*
X215151222Y-53663855D01*
X215151222Y-53663855D02*
X214884556Y-53968617D01*
X214884556Y-53968617D02*
X214998841Y-53968617D01*
X214998841Y-53968617D02*
X215075032Y-54006712D01*
X215075032Y-54006712D02*
X215113127Y-54044807D01*
X215113127Y-54044807D02*
X215151222Y-54120998D01*
X215151222Y-54120998D02*
X215151222Y-54311474D01*
X215151222Y-54311474D02*
X215113127Y-54387664D01*
X215113127Y-54387664D02*
X215075032Y-54425760D01*
X215075032Y-54425760D02*
X214998841Y-54463855D01*
X214998841Y-54463855D02*
X214770270Y-54463855D01*
X214770270Y-54463855D02*
X214694079Y-54425760D01*
X214694079Y-54425760D02*
X214655984Y-54387664D01*
D10*
X220000746Y-53804819D02*
X220000746Y-52804819D01*
X220572174Y-53804819D02*
X220143603Y-53233390D01*
X220572174Y-52804819D02*
X220000746Y-53376247D01*
X164754819Y-73971428D02*
X164754819Y-74542856D01*
X164754819Y-74257142D02*
X163754819Y-74257142D01*
X163754819Y-74257142D02*
X163897676Y-74352380D01*
X163897676Y-74352380D02*
X163992914Y-74447618D01*
X163992914Y-74447618D02*
X164040533Y-74542856D01*
X163754819Y-73352380D02*
X163754819Y-73257142D01*
X163754819Y-73257142D02*
X163802438Y-73161904D01*
X163802438Y-73161904D02*
X163850057Y-73114285D01*
X163850057Y-73114285D02*
X163945295Y-73066666D01*
X163945295Y-73066666D02*
X164135771Y-73019047D01*
X164135771Y-73019047D02*
X164373866Y-73019047D01*
X164373866Y-73019047D02*
X164564342Y-73066666D01*
X164564342Y-73066666D02*
X164659580Y-73114285D01*
X164659580Y-73114285D02*
X164707200Y-73161904D01*
X164707200Y-73161904D02*
X164754819Y-73257142D01*
X164754819Y-73257142D02*
X164754819Y-73352380D01*
X164754819Y-73352380D02*
X164707200Y-73447618D01*
X164707200Y-73447618D02*
X164659580Y-73495237D01*
X164659580Y-73495237D02*
X164564342Y-73542856D01*
X164564342Y-73542856D02*
X164373866Y-73590475D01*
X164373866Y-73590475D02*
X164135771Y-73590475D01*
X164135771Y-73590475D02*
X163945295Y-73542856D01*
X163945295Y-73542856D02*
X163850057Y-73495237D01*
X163850057Y-73495237D02*
X163802438Y-73447618D01*
X163802438Y-73447618D02*
X163754819Y-73352380D01*
X164088152Y-72161904D02*
X164754819Y-72161904D01*
X164088152Y-72590475D02*
X164611961Y-72590475D01*
X164611961Y-72590475D02*
X164707200Y-72542856D01*
X164707200Y-72542856D02*
X164754819Y-72447618D01*
X164754819Y-72447618D02*
X164754819Y-72304761D01*
X164754819Y-72304761D02*
X164707200Y-72209523D01*
X164707200Y-72209523D02*
X164659580Y-72161904D01*
X164231009Y-71352380D02*
X164231009Y-71685713D01*
X164754819Y-71685713D02*
X163754819Y-71685713D01*
X163754819Y-71685713D02*
X163754819Y-71209523D01*
X168159580Y-72566666D02*
X168207200Y-72614285D01*
X168207200Y-72614285D02*
X168254819Y-72757142D01*
X168254819Y-72757142D02*
X168254819Y-72852380D01*
X168254819Y-72852380D02*
X168207200Y-72995237D01*
X168207200Y-72995237D02*
X168111961Y-73090475D01*
X168111961Y-73090475D02*
X168016723Y-73138094D01*
X168016723Y-73138094D02*
X167826247Y-73185713D01*
X167826247Y-73185713D02*
X167683390Y-73185713D01*
X167683390Y-73185713D02*
X167492914Y-73138094D01*
X167492914Y-73138094D02*
X167397676Y-73090475D01*
X167397676Y-73090475D02*
X167302438Y-72995237D01*
X167302438Y-72995237D02*
X167254819Y-72852380D01*
X167254819Y-72852380D02*
X167254819Y-72757142D01*
X167254819Y-72757142D02*
X167302438Y-72614285D01*
X167302438Y-72614285D02*
X167350057Y-72566666D01*
X167588152Y-71709523D02*
X168254819Y-71709523D01*
X167207200Y-71947618D02*
X167921485Y-72185713D01*
X167921485Y-72185713D02*
X167921485Y-71566666D01*
X189960952Y-57724819D02*
X189389524Y-57724819D01*
X189675238Y-57724819D02*
X189675238Y-56724819D01*
X189675238Y-56724819D02*
X189580000Y-56867676D01*
X189580000Y-56867676D02*
X189484762Y-56962914D01*
X189484762Y-56962914D02*
X189389524Y-57010533D01*
X190389524Y-57724819D02*
X190389524Y-56724819D01*
X190484762Y-57343866D02*
X190770476Y-57724819D01*
X190770476Y-57058152D02*
X190389524Y-57439104D01*
X189913333Y-55354819D02*
X189580000Y-54878628D01*
X189341905Y-55354819D02*
X189341905Y-54354819D01*
X189341905Y-54354819D02*
X189722857Y-54354819D01*
X189722857Y-54354819D02*
X189818095Y-54402438D01*
X189818095Y-54402438D02*
X189865714Y-54450057D01*
X189865714Y-54450057D02*
X189913333Y-54545295D01*
X189913333Y-54545295D02*
X189913333Y-54688152D01*
X189913333Y-54688152D02*
X189865714Y-54783390D01*
X189865714Y-54783390D02*
X189818095Y-54831009D01*
X189818095Y-54831009D02*
X189722857Y-54878628D01*
X189722857Y-54878628D02*
X189341905Y-54878628D01*
X190770476Y-54354819D02*
X190580000Y-54354819D01*
X190580000Y-54354819D02*
X190484762Y-54402438D01*
X190484762Y-54402438D02*
X190437143Y-54450057D01*
X190437143Y-54450057D02*
X190341905Y-54592914D01*
X190341905Y-54592914D02*
X190294286Y-54783390D01*
X190294286Y-54783390D02*
X190294286Y-55164342D01*
X190294286Y-55164342D02*
X190341905Y-55259580D01*
X190341905Y-55259580D02*
X190389524Y-55307200D01*
X190389524Y-55307200D02*
X190484762Y-55354819D01*
X190484762Y-55354819D02*
X190675238Y-55354819D01*
X190675238Y-55354819D02*
X190770476Y-55307200D01*
X190770476Y-55307200D02*
X190818095Y-55259580D01*
X190818095Y-55259580D02*
X190865714Y-55164342D01*
X190865714Y-55164342D02*
X190865714Y-54926247D01*
X190865714Y-54926247D02*
X190818095Y-54831009D01*
X190818095Y-54831009D02*
X190770476Y-54783390D01*
X190770476Y-54783390D02*
X190675238Y-54735771D01*
X190675238Y-54735771D02*
X190484762Y-54735771D01*
X190484762Y-54735771D02*
X190389524Y-54783390D01*
X190389524Y-54783390D02*
X190341905Y-54831009D01*
X190341905Y-54831009D02*
X190294286Y-54926247D01*
X225154819Y-51109523D02*
X224154819Y-51109523D01*
X224154819Y-51109523D02*
X224869104Y-50776190D01*
X224869104Y-50776190D02*
X224154819Y-50442857D01*
X224154819Y-50442857D02*
X225154819Y-50442857D01*
X224154819Y-50061904D02*
X224154819Y-49442857D01*
X224154819Y-49442857D02*
X224535771Y-49776190D01*
X224535771Y-49776190D02*
X224535771Y-49633333D01*
X224535771Y-49633333D02*
X224583390Y-49538095D01*
X224583390Y-49538095D02*
X224631009Y-49490476D01*
X224631009Y-49490476D02*
X224726247Y-49442857D01*
X224726247Y-49442857D02*
X224964342Y-49442857D01*
X224964342Y-49442857D02*
X225059580Y-49490476D01*
X225059580Y-49490476D02*
X225107200Y-49538095D01*
X225107200Y-49538095D02*
X225154819Y-49633333D01*
X225154819Y-49633333D02*
X225154819Y-49919047D01*
X225154819Y-49919047D02*
X225107200Y-50014285D01*
X225107200Y-50014285D02*
X225059580Y-50061904D01*
X184204761Y-93254819D02*
X183633333Y-93254819D01*
X183919047Y-93254819D02*
X183919047Y-92254819D01*
X183919047Y-92254819D02*
X183823809Y-92397676D01*
X183823809Y-92397676D02*
X183728571Y-92492914D01*
X183728571Y-92492914D02*
X183633333Y-92540533D01*
X184823809Y-92254819D02*
X184919047Y-92254819D01*
X184919047Y-92254819D02*
X185014285Y-92302438D01*
X185014285Y-92302438D02*
X185061904Y-92350057D01*
X185061904Y-92350057D02*
X185109523Y-92445295D01*
X185109523Y-92445295D02*
X185157142Y-92635771D01*
X185157142Y-92635771D02*
X185157142Y-92873866D01*
X185157142Y-92873866D02*
X185109523Y-93064342D01*
X185109523Y-93064342D02*
X185061904Y-93159580D01*
X185061904Y-93159580D02*
X185014285Y-93207200D01*
X185014285Y-93207200D02*
X184919047Y-93254819D01*
X184919047Y-93254819D02*
X184823809Y-93254819D01*
X184823809Y-93254819D02*
X184728571Y-93207200D01*
X184728571Y-93207200D02*
X184680952Y-93159580D01*
X184680952Y-93159580D02*
X184633333Y-93064342D01*
X184633333Y-93064342D02*
X184585714Y-92873866D01*
X184585714Y-92873866D02*
X184585714Y-92635771D01*
X184585714Y-92635771D02*
X184633333Y-92445295D01*
X184633333Y-92445295D02*
X184680952Y-92350057D01*
X184680952Y-92350057D02*
X184728571Y-92302438D01*
X184728571Y-92302438D02*
X184823809Y-92254819D01*
X185585714Y-93254819D02*
X185585714Y-92254819D01*
X185680952Y-92873866D02*
X185966666Y-93254819D01*
X185966666Y-92588152D02*
X185585714Y-92969104D01*
X185254819Y-99746666D02*
X184778628Y-100079999D01*
X185254819Y-100318094D02*
X184254819Y-100318094D01*
X184254819Y-100318094D02*
X184254819Y-99937142D01*
X184254819Y-99937142D02*
X184302438Y-99841904D01*
X184302438Y-99841904D02*
X184350057Y-99794285D01*
X184350057Y-99794285D02*
X184445295Y-99746666D01*
X184445295Y-99746666D02*
X184588152Y-99746666D01*
X184588152Y-99746666D02*
X184683390Y-99794285D01*
X184683390Y-99794285D02*
X184731009Y-99841904D01*
X184731009Y-99841904D02*
X184778628Y-99937142D01*
X184778628Y-99937142D02*
X184778628Y-100318094D01*
X184588152Y-98889523D02*
X185254819Y-98889523D01*
X184207200Y-99127618D02*
X184921485Y-99365713D01*
X184921485Y-99365713D02*
X184921485Y-98746666D01*
X200229793Y-53814819D02*
X199753603Y-53814819D01*
X199753603Y-53814819D02*
X199753603Y-52814819D01*
X200563127Y-53291009D02*
X200896460Y-53291009D01*
X201039317Y-53814819D02*
X200563127Y-53814819D01*
X200563127Y-53814819D02*
X200563127Y-52814819D01*
X200563127Y-52814819D02*
X201039317Y-52814819D01*
X201467889Y-53814819D02*
X201467889Y-52814819D01*
X201467889Y-52814819D02*
X201705984Y-52814819D01*
X201705984Y-52814819D02*
X201848841Y-52862438D01*
X201848841Y-52862438D02*
X201944079Y-52957676D01*
X201944079Y-52957676D02*
X201991698Y-53052914D01*
X201991698Y-53052914D02*
X202039317Y-53243390D01*
X202039317Y-53243390D02*
X202039317Y-53386247D01*
X202039317Y-53386247D02*
X201991698Y-53576723D01*
X201991698Y-53576723D02*
X201944079Y-53671961D01*
X201944079Y-53671961D02*
X201848841Y-53767200D01*
X201848841Y-53767200D02*
X201705984Y-53814819D01*
X201705984Y-53814819D02*
X201467889Y-53814819D01*
D11*
X201486506Y-50720475D02*
X200686506Y-50720475D01*
X200686506Y-50720475D02*
X200686506Y-50529999D01*
X200686506Y-50529999D02*
X200724601Y-50415713D01*
X200724601Y-50415713D02*
X200800791Y-50339523D01*
X200800791Y-50339523D02*
X200876982Y-50301428D01*
X200876982Y-50301428D02*
X201029363Y-50263332D01*
X201029363Y-50263332D02*
X201143649Y-50263332D01*
X201143649Y-50263332D02*
X201296030Y-50301428D01*
X201296030Y-50301428D02*
X201372220Y-50339523D01*
X201372220Y-50339523D02*
X201448411Y-50415713D01*
X201448411Y-50415713D02*
X201486506Y-50529999D01*
X201486506Y-50529999D02*
X201486506Y-50720475D01*
X200686506Y-49539523D02*
X200686506Y-49920475D01*
X200686506Y-49920475D02*
X201067458Y-49958571D01*
X201067458Y-49958571D02*
X201029363Y-49920475D01*
X201029363Y-49920475D02*
X200991268Y-49844285D01*
X200991268Y-49844285D02*
X200991268Y-49653809D01*
X200991268Y-49653809D02*
X201029363Y-49577618D01*
X201029363Y-49577618D02*
X201067458Y-49539523D01*
X201067458Y-49539523D02*
X201143649Y-49501428D01*
X201143649Y-49501428D02*
X201334125Y-49501428D01*
X201334125Y-49501428D02*
X201410315Y-49539523D01*
X201410315Y-49539523D02*
X201448411Y-49577618D01*
X201448411Y-49577618D02*
X201486506Y-49653809D01*
X201486506Y-49653809D02*
X201486506Y-49844285D01*
X201486506Y-49844285D02*
X201448411Y-49920475D01*
X201448411Y-49920475D02*
X201410315Y-49958571D01*
D10*
X181004761Y-93254819D02*
X180433333Y-93254819D01*
X180719047Y-93254819D02*
X180719047Y-92254819D01*
X180719047Y-92254819D02*
X180623809Y-92397676D01*
X180623809Y-92397676D02*
X180528571Y-92492914D01*
X180528571Y-92492914D02*
X180433333Y-92540533D01*
X181623809Y-92254819D02*
X181719047Y-92254819D01*
X181719047Y-92254819D02*
X181814285Y-92302438D01*
X181814285Y-92302438D02*
X181861904Y-92350057D01*
X181861904Y-92350057D02*
X181909523Y-92445295D01*
X181909523Y-92445295D02*
X181957142Y-92635771D01*
X181957142Y-92635771D02*
X181957142Y-92873866D01*
X181957142Y-92873866D02*
X181909523Y-93064342D01*
X181909523Y-93064342D02*
X181861904Y-93159580D01*
X181861904Y-93159580D02*
X181814285Y-93207200D01*
X181814285Y-93207200D02*
X181719047Y-93254819D01*
X181719047Y-93254819D02*
X181623809Y-93254819D01*
X181623809Y-93254819D02*
X181528571Y-93207200D01*
X181528571Y-93207200D02*
X181480952Y-93159580D01*
X181480952Y-93159580D02*
X181433333Y-93064342D01*
X181433333Y-93064342D02*
X181385714Y-92873866D01*
X181385714Y-92873866D02*
X181385714Y-92635771D01*
X181385714Y-92635771D02*
X181433333Y-92445295D01*
X181433333Y-92445295D02*
X181480952Y-92350057D01*
X181480952Y-92350057D02*
X181528571Y-92302438D01*
X181528571Y-92302438D02*
X181623809Y-92254819D01*
X182385714Y-93254819D02*
X182385714Y-92254819D01*
X182480952Y-92873866D02*
X182766666Y-93254819D01*
X182766666Y-92588152D02*
X182385714Y-92969104D01*
X182054819Y-99746666D02*
X181578628Y-100079999D01*
X182054819Y-100318094D02*
X181054819Y-100318094D01*
X181054819Y-100318094D02*
X181054819Y-99937142D01*
X181054819Y-99937142D02*
X181102438Y-99841904D01*
X181102438Y-99841904D02*
X181150057Y-99794285D01*
X181150057Y-99794285D02*
X181245295Y-99746666D01*
X181245295Y-99746666D02*
X181388152Y-99746666D01*
X181388152Y-99746666D02*
X181483390Y-99794285D01*
X181483390Y-99794285D02*
X181531009Y-99841904D01*
X181531009Y-99841904D02*
X181578628Y-99937142D01*
X181578628Y-99937142D02*
X181578628Y-100318094D01*
X181054819Y-99413332D02*
X181054819Y-98794285D01*
X181054819Y-98794285D02*
X181435771Y-99127618D01*
X181435771Y-99127618D02*
X181435771Y-98984761D01*
X181435771Y-98984761D02*
X181483390Y-98889523D01*
X181483390Y-98889523D02*
X181531009Y-98841904D01*
X181531009Y-98841904D02*
X181626247Y-98794285D01*
X181626247Y-98794285D02*
X181864342Y-98794285D01*
X181864342Y-98794285D02*
X181959580Y-98841904D01*
X181959580Y-98841904D02*
X182007200Y-98889523D01*
X182007200Y-98889523D02*
X182054819Y-98984761D01*
X182054819Y-98984761D02*
X182054819Y-99270475D01*
X182054819Y-99270475D02*
X182007200Y-99365713D01*
X182007200Y-99365713D02*
X181959580Y-99413332D01*
X213077470Y-48542857D02*
X213077470Y-49019047D01*
X213077470Y-49019047D02*
X212077470Y-49019047D01*
X212553660Y-48209523D02*
X212553660Y-47876190D01*
X213077470Y-47733333D02*
X213077470Y-48209523D01*
X213077470Y-48209523D02*
X212077470Y-48209523D01*
X212077470Y-48209523D02*
X212077470Y-47733333D01*
X213077470Y-47304761D02*
X212077470Y-47304761D01*
X212077470Y-47304761D02*
X212077470Y-47066666D01*
X212077470Y-47066666D02*
X212125089Y-46923809D01*
X212125089Y-46923809D02*
X212220327Y-46828571D01*
X212220327Y-46828571D02*
X212315565Y-46780952D01*
X212315565Y-46780952D02*
X212506041Y-46733333D01*
X212506041Y-46733333D02*
X212648898Y-46733333D01*
X212648898Y-46733333D02*
X212839374Y-46780952D01*
X212839374Y-46780952D02*
X212934612Y-46828571D01*
X212934612Y-46828571D02*
X213029851Y-46923809D01*
X213029851Y-46923809D02*
X213077470Y-47066666D01*
X213077470Y-47066666D02*
X213077470Y-47304761D01*
D11*
X210486506Y-50720475D02*
X209686506Y-50720475D01*
X209686506Y-50720475D02*
X209686506Y-50529999D01*
X209686506Y-50529999D02*
X209724601Y-50415713D01*
X209724601Y-50415713D02*
X209800791Y-50339523D01*
X209800791Y-50339523D02*
X209876982Y-50301428D01*
X209876982Y-50301428D02*
X210029363Y-50263332D01*
X210029363Y-50263332D02*
X210143649Y-50263332D01*
X210143649Y-50263332D02*
X210296030Y-50301428D01*
X210296030Y-50301428D02*
X210372220Y-50339523D01*
X210372220Y-50339523D02*
X210448411Y-50415713D01*
X210448411Y-50415713D02*
X210486506Y-50529999D01*
X210486506Y-50529999D02*
X210486506Y-50720475D01*
X209686506Y-49996666D02*
X209686506Y-49463332D01*
X209686506Y-49463332D02*
X210486506Y-49806190D01*
D10*
X163990476Y-110654819D02*
X163990476Y-109654819D01*
X163990476Y-109654819D02*
X164323809Y-110369104D01*
X164323809Y-110369104D02*
X164657142Y-109654819D01*
X164657142Y-109654819D02*
X164657142Y-110654819D01*
X165038095Y-109654819D02*
X165657142Y-109654819D01*
X165657142Y-109654819D02*
X165323809Y-110035771D01*
X165323809Y-110035771D02*
X165466666Y-110035771D01*
X165466666Y-110035771D02*
X165561904Y-110083390D01*
X165561904Y-110083390D02*
X165609523Y-110131009D01*
X165609523Y-110131009D02*
X165657142Y-110226247D01*
X165657142Y-110226247D02*
X165657142Y-110464342D01*
X165657142Y-110464342D02*
X165609523Y-110559580D01*
X165609523Y-110559580D02*
X165561904Y-110607200D01*
X165561904Y-110607200D02*
X165466666Y-110654819D01*
X165466666Y-110654819D02*
X165180952Y-110654819D01*
X165180952Y-110654819D02*
X165085714Y-110607200D01*
X165085714Y-110607200D02*
X165038095Y-110559580D01*
X163890476Y-50754819D02*
X163890476Y-49754819D01*
X163890476Y-49754819D02*
X164223809Y-50469104D01*
X164223809Y-50469104D02*
X164557142Y-49754819D01*
X164557142Y-49754819D02*
X164557142Y-50754819D01*
X164938095Y-49754819D02*
X165557142Y-49754819D01*
X165557142Y-49754819D02*
X165223809Y-50135771D01*
X165223809Y-50135771D02*
X165366666Y-50135771D01*
X165366666Y-50135771D02*
X165461904Y-50183390D01*
X165461904Y-50183390D02*
X165509523Y-50231009D01*
X165509523Y-50231009D02*
X165557142Y-50326247D01*
X165557142Y-50326247D02*
X165557142Y-50564342D01*
X165557142Y-50564342D02*
X165509523Y-50659580D01*
X165509523Y-50659580D02*
X165461904Y-50707200D01*
X165461904Y-50707200D02*
X165366666Y-50754819D01*
X165366666Y-50754819D02*
X165080952Y-50754819D01*
X165080952Y-50754819D02*
X164985714Y-50707200D01*
X164985714Y-50707200D02*
X164938095Y-50659580D01*
X187880952Y-49154819D02*
X187309524Y-49154819D01*
X187595238Y-49154819D02*
X187595238Y-48154819D01*
X187595238Y-48154819D02*
X187500000Y-48297676D01*
X187500000Y-48297676D02*
X187404762Y-48392914D01*
X187404762Y-48392914D02*
X187309524Y-48440533D01*
X188309524Y-49154819D02*
X188309524Y-48154819D01*
X188404762Y-48773866D02*
X188690476Y-49154819D01*
X188690476Y-48488152D02*
X188309524Y-48869104D01*
X189913333Y-49154819D02*
X189580000Y-48678628D01*
X189341905Y-49154819D02*
X189341905Y-48154819D01*
X189341905Y-48154819D02*
X189722857Y-48154819D01*
X189722857Y-48154819D02*
X189818095Y-48202438D01*
X189818095Y-48202438D02*
X189865714Y-48250057D01*
X189865714Y-48250057D02*
X189913333Y-48345295D01*
X189913333Y-48345295D02*
X189913333Y-48488152D01*
X189913333Y-48488152D02*
X189865714Y-48583390D01*
X189865714Y-48583390D02*
X189818095Y-48631009D01*
X189818095Y-48631009D02*
X189722857Y-48678628D01*
X189722857Y-48678628D02*
X189341905Y-48678628D01*
X190484762Y-48583390D02*
X190389524Y-48535771D01*
X190389524Y-48535771D02*
X190341905Y-48488152D01*
X190341905Y-48488152D02*
X190294286Y-48392914D01*
X190294286Y-48392914D02*
X190294286Y-48345295D01*
X190294286Y-48345295D02*
X190341905Y-48250057D01*
X190341905Y-48250057D02*
X190389524Y-48202438D01*
X190389524Y-48202438D02*
X190484762Y-48154819D01*
X190484762Y-48154819D02*
X190675238Y-48154819D01*
X190675238Y-48154819D02*
X190770476Y-48202438D01*
X190770476Y-48202438D02*
X190818095Y-48250057D01*
X190818095Y-48250057D02*
X190865714Y-48345295D01*
X190865714Y-48345295D02*
X190865714Y-48392914D01*
X190865714Y-48392914D02*
X190818095Y-48488152D01*
X190818095Y-48488152D02*
X190770476Y-48535771D01*
X190770476Y-48535771D02*
X190675238Y-48583390D01*
X190675238Y-48583390D02*
X190484762Y-48583390D01*
X190484762Y-48583390D02*
X190389524Y-48631009D01*
X190389524Y-48631009D02*
X190341905Y-48678628D01*
X190341905Y-48678628D02*
X190294286Y-48773866D01*
X190294286Y-48773866D02*
X190294286Y-48964342D01*
X190294286Y-48964342D02*
X190341905Y-49059580D01*
X190341905Y-49059580D02*
X190389524Y-49107200D01*
X190389524Y-49107200D02*
X190484762Y-49154819D01*
X190484762Y-49154819D02*
X190675238Y-49154819D01*
X190675238Y-49154819D02*
X190770476Y-49107200D01*
X190770476Y-49107200D02*
X190818095Y-49059580D01*
X190818095Y-49059580D02*
X190865714Y-48964342D01*
X190865714Y-48964342D02*
X190865714Y-48773866D01*
X190865714Y-48773866D02*
X190818095Y-48678628D01*
X190818095Y-48678628D02*
X190770476Y-48631009D01*
X190770476Y-48631009D02*
X190675238Y-48583390D01*
X186052380Y-109354819D02*
X185480952Y-109354819D01*
X185766666Y-109354819D02*
X185766666Y-108354819D01*
X185766666Y-108354819D02*
X185671428Y-108497676D01*
X185671428Y-108497676D02*
X185576190Y-108592914D01*
X185576190Y-108592914D02*
X185480952Y-108640533D01*
X186671428Y-108354819D02*
X186766666Y-108354819D01*
X186766666Y-108354819D02*
X186861904Y-108402438D01*
X186861904Y-108402438D02*
X186909523Y-108450057D01*
X186909523Y-108450057D02*
X186957142Y-108545295D01*
X186957142Y-108545295D02*
X187004761Y-108735771D01*
X187004761Y-108735771D02*
X187004761Y-108973866D01*
X187004761Y-108973866D02*
X186957142Y-109164342D01*
X186957142Y-109164342D02*
X186909523Y-109259580D01*
X186909523Y-109259580D02*
X186861904Y-109307200D01*
X186861904Y-109307200D02*
X186766666Y-109354819D01*
X186766666Y-109354819D02*
X186671428Y-109354819D01*
X186671428Y-109354819D02*
X186576190Y-109307200D01*
X186576190Y-109307200D02*
X186528571Y-109259580D01*
X186528571Y-109259580D02*
X186480952Y-109164342D01*
X186480952Y-109164342D02*
X186433333Y-108973866D01*
X186433333Y-108973866D02*
X186433333Y-108735771D01*
X186433333Y-108735771D02*
X186480952Y-108545295D01*
X186480952Y-108545295D02*
X186528571Y-108450057D01*
X186528571Y-108450057D02*
X186576190Y-108402438D01*
X186576190Y-108402438D02*
X186671428Y-108354819D01*
X187623809Y-108354819D02*
X187719047Y-108354819D01*
X187719047Y-108354819D02*
X187814285Y-108402438D01*
X187814285Y-108402438D02*
X187861904Y-108450057D01*
X187861904Y-108450057D02*
X187909523Y-108545295D01*
X187909523Y-108545295D02*
X187957142Y-108735771D01*
X187957142Y-108735771D02*
X187957142Y-108973866D01*
X187957142Y-108973866D02*
X187909523Y-109164342D01*
X187909523Y-109164342D02*
X187861904Y-109259580D01*
X187861904Y-109259580D02*
X187814285Y-109307200D01*
X187814285Y-109307200D02*
X187719047Y-109354819D01*
X187719047Y-109354819D02*
X187623809Y-109354819D01*
X187623809Y-109354819D02*
X187528571Y-109307200D01*
X187528571Y-109307200D02*
X187480952Y-109259580D01*
X187480952Y-109259580D02*
X187433333Y-109164342D01*
X187433333Y-109164342D02*
X187385714Y-108973866D01*
X187385714Y-108973866D02*
X187385714Y-108735771D01*
X187385714Y-108735771D02*
X187433333Y-108545295D01*
X187433333Y-108545295D02*
X187480952Y-108450057D01*
X187480952Y-108450057D02*
X187528571Y-108402438D01*
X187528571Y-108402438D02*
X187623809Y-108354819D01*
X188385714Y-108688152D02*
X188385714Y-109354819D01*
X188385714Y-108783390D02*
X188433333Y-108735771D01*
X188433333Y-108735771D02*
X188528571Y-108688152D01*
X188528571Y-108688152D02*
X188671428Y-108688152D01*
X188671428Y-108688152D02*
X188766666Y-108735771D01*
X188766666Y-108735771D02*
X188814285Y-108831009D01*
X188814285Y-108831009D02*
X188814285Y-109354819D01*
X189623809Y-108831009D02*
X189290476Y-108831009D01*
X189290476Y-109354819D02*
X189290476Y-108354819D01*
X189290476Y-108354819D02*
X189766666Y-108354819D01*
X187433333Y-111759580D02*
X187385714Y-111807200D01*
X187385714Y-111807200D02*
X187242857Y-111854819D01*
X187242857Y-111854819D02*
X187147619Y-111854819D01*
X187147619Y-111854819D02*
X187004762Y-111807200D01*
X187004762Y-111807200D02*
X186909524Y-111711961D01*
X186909524Y-111711961D02*
X186861905Y-111616723D01*
X186861905Y-111616723D02*
X186814286Y-111426247D01*
X186814286Y-111426247D02*
X186814286Y-111283390D01*
X186814286Y-111283390D02*
X186861905Y-111092914D01*
X186861905Y-111092914D02*
X186909524Y-110997676D01*
X186909524Y-110997676D02*
X187004762Y-110902438D01*
X187004762Y-110902438D02*
X187147619Y-110854819D01*
X187147619Y-110854819D02*
X187242857Y-110854819D01*
X187242857Y-110854819D02*
X187385714Y-110902438D01*
X187385714Y-110902438D02*
X187433333Y-110950057D01*
X188385714Y-111854819D02*
X187814286Y-111854819D01*
X188100000Y-111854819D02*
X188100000Y-110854819D01*
X188100000Y-110854819D02*
X188004762Y-110997676D01*
X188004762Y-110997676D02*
X187909524Y-111092914D01*
X187909524Y-111092914D02*
X187814286Y-111140533D01*
X217577470Y-48502857D02*
X217577470Y-48979047D01*
X217577470Y-48979047D02*
X216577470Y-48979047D01*
X217053660Y-48169523D02*
X217053660Y-47836190D01*
X217577470Y-47693333D02*
X217577470Y-48169523D01*
X217577470Y-48169523D02*
X216577470Y-48169523D01*
X216577470Y-48169523D02*
X216577470Y-47693333D01*
X217577470Y-47264761D02*
X216577470Y-47264761D01*
X216577470Y-47264761D02*
X216577470Y-47026666D01*
X216577470Y-47026666D02*
X216625089Y-46883809D01*
X216625089Y-46883809D02*
X216720327Y-46788571D01*
X216720327Y-46788571D02*
X216815565Y-46740952D01*
X216815565Y-46740952D02*
X217006041Y-46693333D01*
X217006041Y-46693333D02*
X217148898Y-46693333D01*
X217148898Y-46693333D02*
X217339374Y-46740952D01*
X217339374Y-46740952D02*
X217434612Y-46788571D01*
X217434612Y-46788571D02*
X217529851Y-46883809D01*
X217529851Y-46883809D02*
X217577470Y-47026666D01*
X217577470Y-47026666D02*
X217577470Y-47264761D01*
D11*
X214986506Y-50680475D02*
X214186506Y-50680475D01*
X214186506Y-50680475D02*
X214186506Y-50489999D01*
X214186506Y-50489999D02*
X214224601Y-50375713D01*
X214224601Y-50375713D02*
X214300791Y-50299523D01*
X214300791Y-50299523D02*
X214376982Y-50261428D01*
X214376982Y-50261428D02*
X214529363Y-50223332D01*
X214529363Y-50223332D02*
X214643649Y-50223332D01*
X214643649Y-50223332D02*
X214796030Y-50261428D01*
X214796030Y-50261428D02*
X214872220Y-50299523D01*
X214872220Y-50299523D02*
X214948411Y-50375713D01*
X214948411Y-50375713D02*
X214986506Y-50489999D01*
X214986506Y-50489999D02*
X214986506Y-50680475D01*
X214529363Y-49766190D02*
X214491268Y-49842380D01*
X214491268Y-49842380D02*
X214453172Y-49880475D01*
X214453172Y-49880475D02*
X214376982Y-49918571D01*
X214376982Y-49918571D02*
X214338887Y-49918571D01*
X214338887Y-49918571D02*
X214262696Y-49880475D01*
X214262696Y-49880475D02*
X214224601Y-49842380D01*
X214224601Y-49842380D02*
X214186506Y-49766190D01*
X214186506Y-49766190D02*
X214186506Y-49613809D01*
X214186506Y-49613809D02*
X214224601Y-49537618D01*
X214224601Y-49537618D02*
X214262696Y-49499523D01*
X214262696Y-49499523D02*
X214338887Y-49461428D01*
X214338887Y-49461428D02*
X214376982Y-49461428D01*
X214376982Y-49461428D02*
X214453172Y-49499523D01*
X214453172Y-49499523D02*
X214491268Y-49537618D01*
X214491268Y-49537618D02*
X214529363Y-49613809D01*
X214529363Y-49613809D02*
X214529363Y-49766190D01*
X214529363Y-49766190D02*
X214567458Y-49842380D01*
X214567458Y-49842380D02*
X214605553Y-49880475D01*
X214605553Y-49880475D02*
X214681744Y-49918571D01*
X214681744Y-49918571D02*
X214834125Y-49918571D01*
X214834125Y-49918571D02*
X214910315Y-49880475D01*
X214910315Y-49880475D02*
X214948411Y-49842380D01*
X214948411Y-49842380D02*
X214986506Y-49766190D01*
X214986506Y-49766190D02*
X214986506Y-49613809D01*
X214986506Y-49613809D02*
X214948411Y-49537618D01*
X214948411Y-49537618D02*
X214910315Y-49499523D01*
X214910315Y-49499523D02*
X214834125Y-49461428D01*
X214834125Y-49461428D02*
X214681744Y-49461428D01*
X214681744Y-49461428D02*
X214605553Y-49499523D01*
X214605553Y-49499523D02*
X214567458Y-49537618D01*
X214567458Y-49537618D02*
X214529363Y-49613809D01*
D10*
X204550057Y-111019047D02*
X204502438Y-110971428D01*
X204502438Y-110971428D02*
X204454819Y-110876190D01*
X204454819Y-110876190D02*
X204454819Y-110638095D01*
X204454819Y-110638095D02*
X204502438Y-110542857D01*
X204502438Y-110542857D02*
X204550057Y-110495238D01*
X204550057Y-110495238D02*
X204645295Y-110447619D01*
X204645295Y-110447619D02*
X204740533Y-110447619D01*
X204740533Y-110447619D02*
X204883390Y-110495238D01*
X204883390Y-110495238D02*
X205454819Y-111066666D01*
X205454819Y-111066666D02*
X205454819Y-110447619D01*
X204550057Y-110066666D02*
X204502438Y-110019047D01*
X204502438Y-110019047D02*
X204454819Y-109923809D01*
X204454819Y-109923809D02*
X204454819Y-109685714D01*
X204454819Y-109685714D02*
X204502438Y-109590476D01*
X204502438Y-109590476D02*
X204550057Y-109542857D01*
X204550057Y-109542857D02*
X204645295Y-109495238D01*
X204645295Y-109495238D02*
X204740533Y-109495238D01*
X204740533Y-109495238D02*
X204883390Y-109542857D01*
X204883390Y-109542857D02*
X205454819Y-110114285D01*
X205454819Y-110114285D02*
X205454819Y-109495238D01*
X204454819Y-108876190D02*
X204454819Y-108780952D01*
X204454819Y-108780952D02*
X204502438Y-108685714D01*
X204502438Y-108685714D02*
X204550057Y-108638095D01*
X204550057Y-108638095D02*
X204645295Y-108590476D01*
X204645295Y-108590476D02*
X204835771Y-108542857D01*
X204835771Y-108542857D02*
X205073866Y-108542857D01*
X205073866Y-108542857D02*
X205264342Y-108590476D01*
X205264342Y-108590476D02*
X205359580Y-108638095D01*
X205359580Y-108638095D02*
X205407200Y-108685714D01*
X205407200Y-108685714D02*
X205454819Y-108780952D01*
X205454819Y-108780952D02*
X205454819Y-108876190D01*
X205454819Y-108876190D02*
X205407200Y-108971428D01*
X205407200Y-108971428D02*
X205359580Y-109019047D01*
X205359580Y-109019047D02*
X205264342Y-109066666D01*
X205264342Y-109066666D02*
X205073866Y-109114285D01*
X205073866Y-109114285D02*
X204835771Y-109114285D01*
X204835771Y-109114285D02*
X204645295Y-109066666D01*
X204645295Y-109066666D02*
X204550057Y-109019047D01*
X204550057Y-109019047D02*
X204502438Y-108971428D01*
X204502438Y-108971428D02*
X204454819Y-108876190D01*
X204788152Y-108114285D02*
X205454819Y-108114285D01*
X204883390Y-108114285D02*
X204835771Y-108066666D01*
X204835771Y-108066666D02*
X204788152Y-107971428D01*
X204788152Y-107971428D02*
X204788152Y-107828571D01*
X204788152Y-107828571D02*
X204835771Y-107733333D01*
X204835771Y-107733333D02*
X204931009Y-107685714D01*
X204931009Y-107685714D02*
X205454819Y-107685714D01*
X204931009Y-106876190D02*
X204931009Y-107209523D01*
X205454819Y-107209523D02*
X204454819Y-107209523D01*
X204454819Y-107209523D02*
X204454819Y-106733333D01*
X202859580Y-109066666D02*
X202907200Y-109114285D01*
X202907200Y-109114285D02*
X202954819Y-109257142D01*
X202954819Y-109257142D02*
X202954819Y-109352380D01*
X202954819Y-109352380D02*
X202907200Y-109495237D01*
X202907200Y-109495237D02*
X202811961Y-109590475D01*
X202811961Y-109590475D02*
X202716723Y-109638094D01*
X202716723Y-109638094D02*
X202526247Y-109685713D01*
X202526247Y-109685713D02*
X202383390Y-109685713D01*
X202383390Y-109685713D02*
X202192914Y-109638094D01*
X202192914Y-109638094D02*
X202097676Y-109590475D01*
X202097676Y-109590475D02*
X202002438Y-109495237D01*
X202002438Y-109495237D02*
X201954819Y-109352380D01*
X201954819Y-109352380D02*
X201954819Y-109257142D01*
X201954819Y-109257142D02*
X202002438Y-109114285D01*
X202002438Y-109114285D02*
X202050057Y-109066666D01*
X202050057Y-108685713D02*
X202002438Y-108638094D01*
X202002438Y-108638094D02*
X201954819Y-108542856D01*
X201954819Y-108542856D02*
X201954819Y-108304761D01*
X201954819Y-108304761D02*
X202002438Y-108209523D01*
X202002438Y-108209523D02*
X202050057Y-108161904D01*
X202050057Y-108161904D02*
X202145295Y-108114285D01*
X202145295Y-108114285D02*
X202240533Y-108114285D01*
X202240533Y-108114285D02*
X202383390Y-108161904D01*
X202383390Y-108161904D02*
X202954819Y-108733332D01*
X202954819Y-108733332D02*
X202954819Y-108114285D01*
X165907200Y-75883809D02*
X165954819Y-75740952D01*
X165954819Y-75740952D02*
X165954819Y-75502857D01*
X165954819Y-75502857D02*
X165907200Y-75407619D01*
X165907200Y-75407619D02*
X165859580Y-75360000D01*
X165859580Y-75360000D02*
X165764342Y-75312381D01*
X165764342Y-75312381D02*
X165669104Y-75312381D01*
X165669104Y-75312381D02*
X165573866Y-75360000D01*
X165573866Y-75360000D02*
X165526247Y-75407619D01*
X165526247Y-75407619D02*
X165478628Y-75502857D01*
X165478628Y-75502857D02*
X165431009Y-75693333D01*
X165431009Y-75693333D02*
X165383390Y-75788571D01*
X165383390Y-75788571D02*
X165335771Y-75836190D01*
X165335771Y-75836190D02*
X165240533Y-75883809D01*
X165240533Y-75883809D02*
X165145295Y-75883809D01*
X165145295Y-75883809D02*
X165050057Y-75836190D01*
X165050057Y-75836190D02*
X165002438Y-75788571D01*
X165002438Y-75788571D02*
X164954819Y-75693333D01*
X164954819Y-75693333D02*
X164954819Y-75455238D01*
X164954819Y-75455238D02*
X165002438Y-75312381D01*
X165431009Y-74550476D02*
X165478628Y-74407619D01*
X165478628Y-74407619D02*
X165526247Y-74360000D01*
X165526247Y-74360000D02*
X165621485Y-74312381D01*
X165621485Y-74312381D02*
X165764342Y-74312381D01*
X165764342Y-74312381D02*
X165859580Y-74360000D01*
X165859580Y-74360000D02*
X165907200Y-74407619D01*
X165907200Y-74407619D02*
X165954819Y-74502857D01*
X165954819Y-74502857D02*
X165954819Y-74883809D01*
X165954819Y-74883809D02*
X164954819Y-74883809D01*
X164954819Y-74883809D02*
X164954819Y-74550476D01*
X164954819Y-74550476D02*
X165002438Y-74455238D01*
X165002438Y-74455238D02*
X165050057Y-74407619D01*
X165050057Y-74407619D02*
X165145295Y-74360000D01*
X165145295Y-74360000D02*
X165240533Y-74360000D01*
X165240533Y-74360000D02*
X165335771Y-74407619D01*
X165335771Y-74407619D02*
X165383390Y-74455238D01*
X165383390Y-74455238D02*
X165431009Y-74550476D01*
X165431009Y-74550476D02*
X165431009Y-74883809D01*
X165050057Y-73931428D02*
X165002438Y-73883809D01*
X165002438Y-73883809D02*
X164954819Y-73788571D01*
X164954819Y-73788571D02*
X164954819Y-73550476D01*
X164954819Y-73550476D02*
X165002438Y-73455238D01*
X165002438Y-73455238D02*
X165050057Y-73407619D01*
X165050057Y-73407619D02*
X165145295Y-73360000D01*
X165145295Y-73360000D02*
X165240533Y-73360000D01*
X165240533Y-73360000D02*
X165383390Y-73407619D01*
X165383390Y-73407619D02*
X165954819Y-73979047D01*
X165954819Y-73979047D02*
X165954819Y-73360000D01*
X164954819Y-73026666D02*
X164954819Y-72407619D01*
X164954819Y-72407619D02*
X165335771Y-72740952D01*
X165335771Y-72740952D02*
X165335771Y-72598095D01*
X165335771Y-72598095D02*
X165383390Y-72502857D01*
X165383390Y-72502857D02*
X165431009Y-72455238D01*
X165431009Y-72455238D02*
X165526247Y-72407619D01*
X165526247Y-72407619D02*
X165764342Y-72407619D01*
X165764342Y-72407619D02*
X165859580Y-72455238D01*
X165859580Y-72455238D02*
X165907200Y-72502857D01*
X165907200Y-72502857D02*
X165954819Y-72598095D01*
X165954819Y-72598095D02*
X165954819Y-72883809D01*
X165954819Y-72883809D02*
X165907200Y-72979047D01*
X165907200Y-72979047D02*
X165859580Y-73026666D01*
X164954819Y-71788571D02*
X164954819Y-71693333D01*
X164954819Y-71693333D02*
X165002438Y-71598095D01*
X165002438Y-71598095D02*
X165050057Y-71550476D01*
X165050057Y-71550476D02*
X165145295Y-71502857D01*
X165145295Y-71502857D02*
X165335771Y-71455238D01*
X165335771Y-71455238D02*
X165573866Y-71455238D01*
X165573866Y-71455238D02*
X165764342Y-71502857D01*
X165764342Y-71502857D02*
X165859580Y-71550476D01*
X165859580Y-71550476D02*
X165907200Y-71598095D01*
X165907200Y-71598095D02*
X165954819Y-71693333D01*
X165954819Y-71693333D02*
X165954819Y-71788571D01*
X165954819Y-71788571D02*
X165907200Y-71883809D01*
X165907200Y-71883809D02*
X165859580Y-71931428D01*
X165859580Y-71931428D02*
X165764342Y-71979047D01*
X165764342Y-71979047D02*
X165573866Y-72026666D01*
X165573866Y-72026666D02*
X165335771Y-72026666D01*
X165335771Y-72026666D02*
X165145295Y-71979047D01*
X165145295Y-71979047D02*
X165050057Y-71931428D01*
X165050057Y-71931428D02*
X165002438Y-71883809D01*
X165002438Y-71883809D02*
X164954819Y-71788571D01*
X164954819Y-71169523D02*
X164954819Y-70598095D01*
X165954819Y-70883809D02*
X164954819Y-70883809D01*
X165669104Y-70312380D02*
X165669104Y-69836190D01*
X165954819Y-70407618D02*
X164954819Y-70074285D01*
X164954819Y-70074285D02*
X165954819Y-69740952D01*
X163454819Y-65371904D02*
X162454819Y-65371904D01*
X163454819Y-64800476D02*
X162883390Y-65229047D01*
X162454819Y-64800476D02*
X163026247Y-65371904D01*
X163454819Y-71538094D02*
X162454819Y-71538094D01*
X162454819Y-71538094D02*
X162454819Y-71299999D01*
X162454819Y-71299999D02*
X162502438Y-71157142D01*
X162502438Y-71157142D02*
X162597676Y-71061904D01*
X162597676Y-71061904D02*
X162692914Y-71014285D01*
X162692914Y-71014285D02*
X162883390Y-70966666D01*
X162883390Y-70966666D02*
X163026247Y-70966666D01*
X163026247Y-70966666D02*
X163216723Y-71014285D01*
X163216723Y-71014285D02*
X163311961Y-71061904D01*
X163311961Y-71061904D02*
X163407200Y-71157142D01*
X163407200Y-71157142D02*
X163454819Y-71299999D01*
X163454819Y-71299999D02*
X163454819Y-71538094D01*
X163454819Y-70490475D02*
X163454819Y-70299999D01*
X163454819Y-70299999D02*
X163407200Y-70204761D01*
X163407200Y-70204761D02*
X163359580Y-70157142D01*
X163359580Y-70157142D02*
X163216723Y-70061904D01*
X163216723Y-70061904D02*
X163026247Y-70014285D01*
X163026247Y-70014285D02*
X162645295Y-70014285D01*
X162645295Y-70014285D02*
X162550057Y-70061904D01*
X162550057Y-70061904D02*
X162502438Y-70109523D01*
X162502438Y-70109523D02*
X162454819Y-70204761D01*
X162454819Y-70204761D02*
X162454819Y-70395237D01*
X162454819Y-70395237D02*
X162502438Y-70490475D01*
X162502438Y-70490475D02*
X162550057Y-70538094D01*
X162550057Y-70538094D02*
X162645295Y-70585713D01*
X162645295Y-70585713D02*
X162883390Y-70585713D01*
X162883390Y-70585713D02*
X162978628Y-70538094D01*
X162978628Y-70538094D02*
X163026247Y-70490475D01*
X163026247Y-70490475D02*
X163073866Y-70395237D01*
X163073866Y-70395237D02*
X163073866Y-70204761D01*
X163073866Y-70204761D02*
X163026247Y-70109523D01*
X163026247Y-70109523D02*
X162978628Y-70061904D01*
X162978628Y-70061904D02*
X162883390Y-70014285D01*
X189960952Y-54624819D02*
X189389524Y-54624819D01*
X189675238Y-54624819D02*
X189675238Y-53624819D01*
X189675238Y-53624819D02*
X189580000Y-53767676D01*
X189580000Y-53767676D02*
X189484762Y-53862914D01*
X189484762Y-53862914D02*
X189389524Y-53910533D01*
X190389524Y-54624819D02*
X190389524Y-53624819D01*
X190484762Y-54243866D02*
X190770476Y-54624819D01*
X190770476Y-53958152D02*
X190389524Y-54339104D01*
X189913333Y-52254819D02*
X189580000Y-51778628D01*
X189341905Y-52254819D02*
X189341905Y-51254819D01*
X189341905Y-51254819D02*
X189722857Y-51254819D01*
X189722857Y-51254819D02*
X189818095Y-51302438D01*
X189818095Y-51302438D02*
X189865714Y-51350057D01*
X189865714Y-51350057D02*
X189913333Y-51445295D01*
X189913333Y-51445295D02*
X189913333Y-51588152D01*
X189913333Y-51588152D02*
X189865714Y-51683390D01*
X189865714Y-51683390D02*
X189818095Y-51731009D01*
X189818095Y-51731009D02*
X189722857Y-51778628D01*
X189722857Y-51778628D02*
X189341905Y-51778628D01*
X190246667Y-51254819D02*
X190913333Y-51254819D01*
X190913333Y-51254819D02*
X190484762Y-52254819D01*
X162504761Y-93154819D02*
X161933333Y-93154819D01*
X162219047Y-93154819D02*
X162219047Y-92154819D01*
X162219047Y-92154819D02*
X162123809Y-92297676D01*
X162123809Y-92297676D02*
X162028571Y-92392914D01*
X162028571Y-92392914D02*
X161933333Y-92440533D01*
X163123809Y-92154819D02*
X163219047Y-92154819D01*
X163219047Y-92154819D02*
X163314285Y-92202438D01*
X163314285Y-92202438D02*
X163361904Y-92250057D01*
X163361904Y-92250057D02*
X163409523Y-92345295D01*
X163409523Y-92345295D02*
X163457142Y-92535771D01*
X163457142Y-92535771D02*
X163457142Y-92773866D01*
X163457142Y-92773866D02*
X163409523Y-92964342D01*
X163409523Y-92964342D02*
X163361904Y-93059580D01*
X163361904Y-93059580D02*
X163314285Y-93107200D01*
X163314285Y-93107200D02*
X163219047Y-93154819D01*
X163219047Y-93154819D02*
X163123809Y-93154819D01*
X163123809Y-93154819D02*
X163028571Y-93107200D01*
X163028571Y-93107200D02*
X162980952Y-93059580D01*
X162980952Y-93059580D02*
X162933333Y-92964342D01*
X162933333Y-92964342D02*
X162885714Y-92773866D01*
X162885714Y-92773866D02*
X162885714Y-92535771D01*
X162885714Y-92535771D02*
X162933333Y-92345295D01*
X162933333Y-92345295D02*
X162980952Y-92250057D01*
X162980952Y-92250057D02*
X163028571Y-92202438D01*
X163028571Y-92202438D02*
X163123809Y-92154819D01*
X163885714Y-93154819D02*
X163885714Y-92154819D01*
X163980952Y-92773866D02*
X164266666Y-93154819D01*
X164266666Y-92488152D02*
X163885714Y-92869104D01*
X163654819Y-99766666D02*
X163178628Y-100099999D01*
X163654819Y-100338094D02*
X162654819Y-100338094D01*
X162654819Y-100338094D02*
X162654819Y-99957142D01*
X162654819Y-99957142D02*
X162702438Y-99861904D01*
X162702438Y-99861904D02*
X162750057Y-99814285D01*
X162750057Y-99814285D02*
X162845295Y-99766666D01*
X162845295Y-99766666D02*
X162988152Y-99766666D01*
X162988152Y-99766666D02*
X163083390Y-99814285D01*
X163083390Y-99814285D02*
X163131009Y-99861904D01*
X163131009Y-99861904D02*
X163178628Y-99957142D01*
X163178628Y-99957142D02*
X163178628Y-100338094D01*
X163654819Y-98814285D02*
X163654819Y-99385713D01*
X163654819Y-99099999D02*
X162654819Y-99099999D01*
X162654819Y-99099999D02*
X162797676Y-99195237D01*
X162797676Y-99195237D02*
X162892914Y-99290475D01*
X162892914Y-99290475D02*
X162940533Y-99385713D01*
X180438152Y-72966666D02*
X181104819Y-72966666D01*
X180057200Y-73204761D02*
X180771485Y-73442856D01*
X180771485Y-73442856D02*
X180771485Y-72823809D01*
X180104819Y-72538094D02*
X180104819Y-71871428D01*
X180104819Y-71871428D02*
X181104819Y-72299999D01*
X180438152Y-71061904D02*
X181104819Y-71061904D01*
X180438152Y-71490475D02*
X180961961Y-71490475D01*
X180961961Y-71490475D02*
X181057200Y-71442856D01*
X181057200Y-71442856D02*
X181104819Y-71347618D01*
X181104819Y-71347618D02*
X181104819Y-71204761D01*
X181104819Y-71204761D02*
X181057200Y-71109523D01*
X181057200Y-71109523D02*
X181009580Y-71061904D01*
X180581009Y-70252380D02*
X180581009Y-70585713D01*
X181104819Y-70585713D02*
X180104819Y-70585713D01*
X180104819Y-70585713D02*
X180104819Y-70109523D01*
X175759580Y-74466666D02*
X175807200Y-74514285D01*
X175807200Y-74514285D02*
X175854819Y-74657142D01*
X175854819Y-74657142D02*
X175854819Y-74752380D01*
X175854819Y-74752380D02*
X175807200Y-74895237D01*
X175807200Y-74895237D02*
X175711961Y-74990475D01*
X175711961Y-74990475D02*
X175616723Y-75038094D01*
X175616723Y-75038094D02*
X175426247Y-75085713D01*
X175426247Y-75085713D02*
X175283390Y-75085713D01*
X175283390Y-75085713D02*
X175092914Y-75038094D01*
X175092914Y-75038094D02*
X174997676Y-74990475D01*
X174997676Y-74990475D02*
X174902438Y-74895237D01*
X174902438Y-74895237D02*
X174854819Y-74752380D01*
X174854819Y-74752380D02*
X174854819Y-74657142D01*
X174854819Y-74657142D02*
X174902438Y-74514285D01*
X174902438Y-74514285D02*
X174950057Y-74466666D01*
X174854819Y-74133332D02*
X174854819Y-73466666D01*
X174854819Y-73466666D02*
X175854819Y-73895237D01*
X159245180Y-72869043D02*
X160245180Y-72869043D01*
X160245180Y-72869043D02*
X159530895Y-73202376D01*
X159530895Y-73202376D02*
X160245180Y-73535709D01*
X160245180Y-73535709D02*
X159245180Y-73535709D01*
X159245180Y-74154757D02*
X159292800Y-74059519D01*
X159292800Y-74059519D02*
X159340419Y-74011900D01*
X159340419Y-74011900D02*
X159435657Y-73964281D01*
X159435657Y-73964281D02*
X159721371Y-73964281D01*
X159721371Y-73964281D02*
X159816609Y-74011900D01*
X159816609Y-74011900D02*
X159864228Y-74059519D01*
X159864228Y-74059519D02*
X159911847Y-74154757D01*
X159911847Y-74154757D02*
X159911847Y-74297614D01*
X159911847Y-74297614D02*
X159864228Y-74392852D01*
X159864228Y-74392852D02*
X159816609Y-74440471D01*
X159816609Y-74440471D02*
X159721371Y-74488090D01*
X159721371Y-74488090D02*
X159435657Y-74488090D01*
X159435657Y-74488090D02*
X159340419Y-74440471D01*
X159340419Y-74440471D02*
X159292800Y-74392852D01*
X159292800Y-74392852D02*
X159245180Y-74297614D01*
X159245180Y-74297614D02*
X159245180Y-74154757D01*
X159245180Y-75059519D02*
X159292800Y-74964281D01*
X159292800Y-74964281D02*
X159388038Y-74916662D01*
X159388038Y-74916662D02*
X160245180Y-74916662D01*
X159292800Y-75821424D02*
X159245180Y-75726186D01*
X159245180Y-75726186D02*
X159245180Y-75535710D01*
X159245180Y-75535710D02*
X159292800Y-75440472D01*
X159292800Y-75440472D02*
X159388038Y-75392853D01*
X159388038Y-75392853D02*
X159768990Y-75392853D01*
X159768990Y-75392853D02*
X159864228Y-75440472D01*
X159864228Y-75440472D02*
X159911847Y-75535710D01*
X159911847Y-75535710D02*
X159911847Y-75726186D01*
X159911847Y-75726186D02*
X159864228Y-75821424D01*
X159864228Y-75821424D02*
X159768990Y-75869043D01*
X159768990Y-75869043D02*
X159673752Y-75869043D01*
X159673752Y-75869043D02*
X159578514Y-75392853D01*
X159245180Y-76202377D02*
X159911847Y-76726186D01*
X159911847Y-76202377D02*
X159245180Y-76726186D01*
X159245180Y-77869044D02*
X160245180Y-77869044D01*
X160245180Y-77869044D02*
X159530895Y-78202377D01*
X159530895Y-78202377D02*
X160245180Y-78535710D01*
X160245180Y-78535710D02*
X159245180Y-78535710D01*
X159530895Y-78964282D02*
X159530895Y-79440472D01*
X159245180Y-78869044D02*
X160245180Y-79202377D01*
X160245180Y-79202377D02*
X159245180Y-79535710D01*
X160245180Y-79773806D02*
X159245180Y-80440472D01*
X160245180Y-80440472D02*
X159245180Y-79773806D01*
X159245180Y-81345234D02*
X159245180Y-80773806D01*
X159245180Y-81059520D02*
X160245180Y-81059520D01*
X160245180Y-81059520D02*
X160102323Y-80964282D01*
X160102323Y-80964282D02*
X160007085Y-80869044D01*
X160007085Y-80869044D02*
X159959466Y-80773806D01*
X160245180Y-82249996D02*
X160245180Y-81773806D01*
X160245180Y-81773806D02*
X159768990Y-81726187D01*
X159768990Y-81726187D02*
X159816609Y-81773806D01*
X159816609Y-81773806D02*
X159864228Y-81869044D01*
X159864228Y-81869044D02*
X159864228Y-82107139D01*
X159864228Y-82107139D02*
X159816609Y-82202377D01*
X159816609Y-82202377D02*
X159768990Y-82249996D01*
X159768990Y-82249996D02*
X159673752Y-82297615D01*
X159673752Y-82297615D02*
X159435657Y-82297615D01*
X159435657Y-82297615D02*
X159340419Y-82249996D01*
X159340419Y-82249996D02*
X159292800Y-82202377D01*
X159292800Y-82202377D02*
X159245180Y-82107139D01*
X159245180Y-82107139D02*
X159245180Y-81869044D01*
X159245180Y-81869044D02*
X159292800Y-81773806D01*
X159292800Y-81773806D02*
X159340419Y-81726187D01*
X160245180Y-82916663D02*
X160245180Y-83011901D01*
X160245180Y-83011901D02*
X160197561Y-83107139D01*
X160197561Y-83107139D02*
X160149942Y-83154758D01*
X160149942Y-83154758D02*
X160054704Y-83202377D01*
X160054704Y-83202377D02*
X159864228Y-83249996D01*
X159864228Y-83249996D02*
X159626133Y-83249996D01*
X159626133Y-83249996D02*
X159435657Y-83202377D01*
X159435657Y-83202377D02*
X159340419Y-83154758D01*
X159340419Y-83154758D02*
X159292800Y-83107139D01*
X159292800Y-83107139D02*
X159245180Y-83011901D01*
X159245180Y-83011901D02*
X159245180Y-82916663D01*
X159245180Y-82916663D02*
X159292800Y-82821425D01*
X159292800Y-82821425D02*
X159340419Y-82773806D01*
X159340419Y-82773806D02*
X159435657Y-82726187D01*
X159435657Y-82726187D02*
X159626133Y-82678568D01*
X159626133Y-82678568D02*
X159864228Y-82678568D01*
X159864228Y-82678568D02*
X160054704Y-82726187D01*
X160054704Y-82726187D02*
X160149942Y-82773806D01*
X160149942Y-82773806D02*
X160197561Y-82821425D01*
X160197561Y-82821425D02*
X160245180Y-82916663D01*
X159149942Y-83440473D02*
X159149942Y-84202377D01*
X160149942Y-84392854D02*
X160197561Y-84440473D01*
X160197561Y-84440473D02*
X160245180Y-84535711D01*
X160245180Y-84535711D02*
X160245180Y-84773806D01*
X160245180Y-84773806D02*
X160197561Y-84869044D01*
X160197561Y-84869044D02*
X160149942Y-84916663D01*
X160149942Y-84916663D02*
X160054704Y-84964282D01*
X160054704Y-84964282D02*
X159959466Y-84964282D01*
X159959466Y-84964282D02*
X159816609Y-84916663D01*
X159816609Y-84916663D02*
X159245180Y-84345235D01*
X159245180Y-84345235D02*
X159245180Y-84964282D01*
X159245180Y-85297616D02*
X159911847Y-85821425D01*
X159911847Y-85297616D02*
X159245180Y-85821425D01*
X159245180Y-86726187D02*
X159245180Y-86154759D01*
X159245180Y-86440473D02*
X160245180Y-86440473D01*
X160245180Y-86440473D02*
X160102323Y-86345235D01*
X160102323Y-86345235D02*
X160007085Y-86249997D01*
X160007085Y-86249997D02*
X159959466Y-86154759D01*
X160245180Y-87345235D02*
X160245180Y-87440473D01*
X160245180Y-87440473D02*
X160197561Y-87535711D01*
X160197561Y-87535711D02*
X160149942Y-87583330D01*
X160149942Y-87583330D02*
X160054704Y-87630949D01*
X160054704Y-87630949D02*
X159864228Y-87678568D01*
X159864228Y-87678568D02*
X159626133Y-87678568D01*
X159626133Y-87678568D02*
X159435657Y-87630949D01*
X159435657Y-87630949D02*
X159340419Y-87583330D01*
X159340419Y-87583330D02*
X159292800Y-87535711D01*
X159292800Y-87535711D02*
X159245180Y-87440473D01*
X159245180Y-87440473D02*
X159245180Y-87345235D01*
X159245180Y-87345235D02*
X159292800Y-87249997D01*
X159292800Y-87249997D02*
X159340419Y-87202378D01*
X159340419Y-87202378D02*
X159435657Y-87154759D01*
X159435657Y-87154759D02*
X159626133Y-87107140D01*
X159626133Y-87107140D02*
X159864228Y-87107140D01*
X159864228Y-87107140D02*
X160054704Y-87154759D01*
X160054704Y-87154759D02*
X160149942Y-87202378D01*
X160149942Y-87202378D02*
X160197561Y-87249997D01*
X160197561Y-87249997D02*
X160245180Y-87345235D01*
X159254819Y-58133333D02*
X159969104Y-58133333D01*
X159969104Y-58133333D02*
X160111961Y-58180952D01*
X160111961Y-58180952D02*
X160207200Y-58276190D01*
X160207200Y-58276190D02*
X160254819Y-58419047D01*
X160254819Y-58419047D02*
X160254819Y-58514285D01*
X159350057Y-57704761D02*
X159302438Y-57657142D01*
X159302438Y-57657142D02*
X159254819Y-57561904D01*
X159254819Y-57561904D02*
X159254819Y-57323809D01*
X159254819Y-57323809D02*
X159302438Y-57228571D01*
X159302438Y-57228571D02*
X159350057Y-57180952D01*
X159350057Y-57180952D02*
X159445295Y-57133333D01*
X159445295Y-57133333D02*
X159540533Y-57133333D01*
X159540533Y-57133333D02*
X159683390Y-57180952D01*
X159683390Y-57180952D02*
X160254819Y-57752380D01*
X160254819Y-57752380D02*
X160254819Y-57133333D01*
X166554819Y-64345237D02*
X166554819Y-63773809D01*
X167554819Y-64059523D02*
X166554819Y-64059523D01*
X167554819Y-63440475D02*
X166554819Y-63440475D01*
X166554819Y-63440475D02*
X166554819Y-63059523D01*
X166554819Y-63059523D02*
X166602438Y-62964285D01*
X166602438Y-62964285D02*
X166650057Y-62916666D01*
X166650057Y-62916666D02*
X166745295Y-62869047D01*
X166745295Y-62869047D02*
X166888152Y-62869047D01*
X166888152Y-62869047D02*
X166983390Y-62916666D01*
X166983390Y-62916666D02*
X167031009Y-62964285D01*
X167031009Y-62964285D02*
X167078628Y-63059523D01*
X167078628Y-63059523D02*
X167078628Y-63440475D01*
X166554819Y-62011904D02*
X166554819Y-62202380D01*
X166554819Y-62202380D02*
X166602438Y-62297618D01*
X166602438Y-62297618D02*
X166650057Y-62345237D01*
X166650057Y-62345237D02*
X166792914Y-62440475D01*
X166792914Y-62440475D02*
X166983390Y-62488094D01*
X166983390Y-62488094D02*
X167364342Y-62488094D01*
X167364342Y-62488094D02*
X167459580Y-62440475D01*
X167459580Y-62440475D02*
X167507200Y-62392856D01*
X167507200Y-62392856D02*
X167554819Y-62297618D01*
X167554819Y-62297618D02*
X167554819Y-62107142D01*
X167554819Y-62107142D02*
X167507200Y-62011904D01*
X167507200Y-62011904D02*
X167459580Y-61964285D01*
X167459580Y-61964285D02*
X167364342Y-61916666D01*
X167364342Y-61916666D02*
X167126247Y-61916666D01*
X167126247Y-61916666D02*
X167031009Y-61964285D01*
X167031009Y-61964285D02*
X166983390Y-62011904D01*
X166983390Y-62011904D02*
X166935771Y-62107142D01*
X166935771Y-62107142D02*
X166935771Y-62297618D01*
X166935771Y-62297618D02*
X166983390Y-62392856D01*
X166983390Y-62392856D02*
X167031009Y-62440475D01*
X167031009Y-62440475D02*
X167126247Y-62488094D01*
X167554819Y-61488094D02*
X166554819Y-61488094D01*
X167554819Y-60916666D02*
X166983390Y-61345237D01*
X166554819Y-60916666D02*
X167126247Y-61488094D01*
X167031009Y-60488094D02*
X167031009Y-60154761D01*
X167554819Y-60011904D02*
X167554819Y-60488094D01*
X167554819Y-60488094D02*
X166554819Y-60488094D01*
X166554819Y-60488094D02*
X166554819Y-60011904D01*
X166888152Y-59154761D02*
X167554819Y-59154761D01*
X166507200Y-59392856D02*
X167221485Y-59630951D01*
X167221485Y-59630951D02*
X167221485Y-59011904D01*
X166554819Y-58726189D02*
X166554819Y-58059523D01*
X166554819Y-58059523D02*
X167554819Y-58488094D01*
X167269104Y-57726189D02*
X167269104Y-57249999D01*
X167554819Y-57821427D02*
X166554819Y-57488094D01*
X166554819Y-57488094D02*
X167554819Y-57154761D01*
X166838095Y-67554819D02*
X166838095Y-66554819D01*
X167409523Y-67554819D02*
X166980952Y-66983390D01*
X167409523Y-66554819D02*
X166838095Y-67126247D01*
X170554819Y-61394285D02*
X169554819Y-61394285D01*
X169554819Y-61394285D02*
X169554819Y-61156190D01*
X169554819Y-61156190D02*
X169602438Y-61013333D01*
X169602438Y-61013333D02*
X169697676Y-60918095D01*
X169697676Y-60918095D02*
X169792914Y-60870476D01*
X169792914Y-60870476D02*
X169983390Y-60822857D01*
X169983390Y-60822857D02*
X170126247Y-60822857D01*
X170126247Y-60822857D02*
X170316723Y-60870476D01*
X170316723Y-60870476D02*
X170411961Y-60918095D01*
X170411961Y-60918095D02*
X170507200Y-61013333D01*
X170507200Y-61013333D02*
X170554819Y-61156190D01*
X170554819Y-61156190D02*
X170554819Y-61394285D01*
X170554819Y-59870476D02*
X170554819Y-60441904D01*
X170554819Y-60156190D02*
X169554819Y-60156190D01*
X169554819Y-60156190D02*
X169697676Y-60251428D01*
X169697676Y-60251428D02*
X169792914Y-60346666D01*
X169792914Y-60346666D02*
X169840533Y-60441904D01*
X169554819Y-59251428D02*
X169554819Y-59156190D01*
X169554819Y-59156190D02*
X169602438Y-59060952D01*
X169602438Y-59060952D02*
X169650057Y-59013333D01*
X169650057Y-59013333D02*
X169745295Y-58965714D01*
X169745295Y-58965714D02*
X169935771Y-58918095D01*
X169935771Y-58918095D02*
X170173866Y-58918095D01*
X170173866Y-58918095D02*
X170364342Y-58965714D01*
X170364342Y-58965714D02*
X170459580Y-59013333D01*
X170459580Y-59013333D02*
X170507200Y-59060952D01*
X170507200Y-59060952D02*
X170554819Y-59156190D01*
X170554819Y-59156190D02*
X170554819Y-59251428D01*
X170554819Y-59251428D02*
X170507200Y-59346666D01*
X170507200Y-59346666D02*
X170459580Y-59394285D01*
X170459580Y-59394285D02*
X170364342Y-59441904D01*
X170364342Y-59441904D02*
X170173866Y-59489523D01*
X170173866Y-59489523D02*
X169935771Y-59489523D01*
X169935771Y-59489523D02*
X169745295Y-59441904D01*
X169745295Y-59441904D02*
X169650057Y-59394285D01*
X169650057Y-59394285D02*
X169602438Y-59346666D01*
X169602438Y-59346666D02*
X169554819Y-59251428D01*
X196480057Y-107724761D02*
X196432438Y-107677142D01*
X196432438Y-107677142D02*
X196384819Y-107581904D01*
X196384819Y-107581904D02*
X196384819Y-107343809D01*
X196384819Y-107343809D02*
X196432438Y-107248571D01*
X196432438Y-107248571D02*
X196480057Y-107200952D01*
X196480057Y-107200952D02*
X196575295Y-107153333D01*
X196575295Y-107153333D02*
X196670533Y-107153333D01*
X196670533Y-107153333D02*
X196813390Y-107200952D01*
X196813390Y-107200952D02*
X197384819Y-107772380D01*
X197384819Y-107772380D02*
X197384819Y-107153333D01*
X197289580Y-106724761D02*
X197337200Y-106677142D01*
X197337200Y-106677142D02*
X197384819Y-106724761D01*
X197384819Y-106724761D02*
X197337200Y-106772380D01*
X197337200Y-106772380D02*
X197289580Y-106724761D01*
X197289580Y-106724761D02*
X197384819Y-106724761D01*
X196718152Y-105820000D02*
X197384819Y-105820000D01*
X196337200Y-106058095D02*
X197051485Y-106296190D01*
X197051485Y-106296190D02*
X197051485Y-105677143D01*
X197384819Y-105296190D02*
X196384819Y-105296190D01*
X197003866Y-105200952D02*
X197384819Y-104915238D01*
X196718152Y-104915238D02*
X197099104Y-105296190D01*
X199754819Y-106962857D02*
X199278628Y-107296190D01*
X199754819Y-107534285D02*
X198754819Y-107534285D01*
X198754819Y-107534285D02*
X198754819Y-107153333D01*
X198754819Y-107153333D02*
X198802438Y-107058095D01*
X198802438Y-107058095D02*
X198850057Y-107010476D01*
X198850057Y-107010476D02*
X198945295Y-106962857D01*
X198945295Y-106962857D02*
X199088152Y-106962857D01*
X199088152Y-106962857D02*
X199183390Y-107010476D01*
X199183390Y-107010476D02*
X199231009Y-107058095D01*
X199231009Y-107058095D02*
X199278628Y-107153333D01*
X199278628Y-107153333D02*
X199278628Y-107534285D01*
X199754819Y-106010476D02*
X199754819Y-106581904D01*
X199754819Y-106296190D02*
X198754819Y-106296190D01*
X198754819Y-106296190D02*
X198897676Y-106391428D01*
X198897676Y-106391428D02*
X198992914Y-106486666D01*
X198992914Y-106486666D02*
X199040533Y-106581904D01*
X199754819Y-105058095D02*
X199754819Y-105629523D01*
X199754819Y-105343809D02*
X198754819Y-105343809D01*
X198754819Y-105343809D02*
X198897676Y-105439047D01*
X198897676Y-105439047D02*
X198992914Y-105534285D01*
X198992914Y-105534285D02*
X199040533Y-105629523D01*
X186654819Y-67528571D02*
X185654819Y-67528571D01*
X185654819Y-67528571D02*
X185654819Y-67147619D01*
X185654819Y-67147619D02*
X185702438Y-67052381D01*
X185702438Y-67052381D02*
X185750057Y-67004762D01*
X185750057Y-67004762D02*
X185845295Y-66957143D01*
X185845295Y-66957143D02*
X185988152Y-66957143D01*
X185988152Y-66957143D02*
X186083390Y-67004762D01*
X186083390Y-67004762D02*
X186131009Y-67052381D01*
X186131009Y-67052381D02*
X186178628Y-67147619D01*
X186178628Y-67147619D02*
X186178628Y-67528571D01*
X186654819Y-66385714D02*
X186607200Y-66480952D01*
X186607200Y-66480952D02*
X186559580Y-66528571D01*
X186559580Y-66528571D02*
X186464342Y-66576190D01*
X186464342Y-66576190D02*
X186178628Y-66576190D01*
X186178628Y-66576190D02*
X186083390Y-66528571D01*
X186083390Y-66528571D02*
X186035771Y-66480952D01*
X186035771Y-66480952D02*
X185988152Y-66385714D01*
X185988152Y-66385714D02*
X185988152Y-66242857D01*
X185988152Y-66242857D02*
X186035771Y-66147619D01*
X186035771Y-66147619D02*
X186083390Y-66100000D01*
X186083390Y-66100000D02*
X186178628Y-66052381D01*
X186178628Y-66052381D02*
X186464342Y-66052381D01*
X186464342Y-66052381D02*
X186559580Y-66100000D01*
X186559580Y-66100000D02*
X186607200Y-66147619D01*
X186607200Y-66147619D02*
X186654819Y-66242857D01*
X186654819Y-66242857D02*
X186654819Y-66385714D01*
X186654819Y-65480952D02*
X186607200Y-65576190D01*
X186607200Y-65576190D02*
X186511961Y-65623809D01*
X186511961Y-65623809D02*
X185654819Y-65623809D01*
X185988152Y-65195237D02*
X186654819Y-64957142D01*
X185988152Y-64719047D02*
X186654819Y-64957142D01*
X186654819Y-64957142D02*
X186892914Y-65052380D01*
X186892914Y-65052380D02*
X186940533Y-65099999D01*
X186940533Y-65099999D02*
X186988152Y-65195237D01*
X185988152Y-64480951D02*
X185988152Y-64099999D01*
X186654819Y-64338094D02*
X185797676Y-64338094D01*
X185797676Y-64338094D02*
X185702438Y-64290475D01*
X185702438Y-64290475D02*
X185654819Y-64195237D01*
X185654819Y-64195237D02*
X185654819Y-64099999D01*
X185988152Y-63338094D02*
X186654819Y-63338094D01*
X185988152Y-63766665D02*
X186511961Y-63766665D01*
X186511961Y-63766665D02*
X186607200Y-63719046D01*
X186607200Y-63719046D02*
X186654819Y-63623808D01*
X186654819Y-63623808D02*
X186654819Y-63480951D01*
X186654819Y-63480951D02*
X186607200Y-63385713D01*
X186607200Y-63385713D02*
X186559580Y-63338094D01*
X186607200Y-62909522D02*
X186654819Y-62814284D01*
X186654819Y-62814284D02*
X186654819Y-62623808D01*
X186654819Y-62623808D02*
X186607200Y-62528570D01*
X186607200Y-62528570D02*
X186511961Y-62480951D01*
X186511961Y-62480951D02*
X186464342Y-62480951D01*
X186464342Y-62480951D02*
X186369104Y-62528570D01*
X186369104Y-62528570D02*
X186321485Y-62623808D01*
X186321485Y-62623808D02*
X186321485Y-62766665D01*
X186321485Y-62766665D02*
X186273866Y-62861903D01*
X186273866Y-62861903D02*
X186178628Y-62909522D01*
X186178628Y-62909522D02*
X186131009Y-62909522D01*
X186131009Y-62909522D02*
X186035771Y-62861903D01*
X186035771Y-62861903D02*
X185988152Y-62766665D01*
X185988152Y-62766665D02*
X185988152Y-62623808D01*
X185988152Y-62623808D02*
X186035771Y-62528570D01*
X186607200Y-61671427D02*
X186654819Y-61766665D01*
X186654819Y-61766665D02*
X186654819Y-61957141D01*
X186654819Y-61957141D02*
X186607200Y-62052379D01*
X186607200Y-62052379D02*
X186511961Y-62099998D01*
X186511961Y-62099998D02*
X186131009Y-62099998D01*
X186131009Y-62099998D02*
X186035771Y-62052379D01*
X186035771Y-62052379D02*
X185988152Y-61957141D01*
X185988152Y-61957141D02*
X185988152Y-61766665D01*
X185988152Y-61766665D02*
X186035771Y-61671427D01*
X186035771Y-61671427D02*
X186131009Y-61623808D01*
X186131009Y-61623808D02*
X186226247Y-61623808D01*
X186226247Y-61623808D02*
X186321485Y-62099998D01*
X191531009Y-66143333D02*
X191531009Y-66476666D01*
X192054819Y-66476666D02*
X191054819Y-66476666D01*
X191054819Y-66476666D02*
X191054819Y-66000476D01*
X192054819Y-65095714D02*
X192054819Y-65667142D01*
X192054819Y-65381428D02*
X191054819Y-65381428D01*
X191054819Y-65381428D02*
X191197676Y-65476666D01*
X191197676Y-65476666D02*
X191292914Y-65571904D01*
X191292914Y-65571904D02*
X191340533Y-65667142D01*
X208697470Y-48542857D02*
X208697470Y-49019047D01*
X208697470Y-49019047D02*
X207697470Y-49019047D01*
X208173660Y-48209523D02*
X208173660Y-47876190D01*
X208697470Y-47733333D02*
X208697470Y-48209523D01*
X208697470Y-48209523D02*
X207697470Y-48209523D01*
X207697470Y-48209523D02*
X207697470Y-47733333D01*
X208697470Y-47304761D02*
X207697470Y-47304761D01*
X207697470Y-47304761D02*
X207697470Y-47066666D01*
X207697470Y-47066666D02*
X207745089Y-46923809D01*
X207745089Y-46923809D02*
X207840327Y-46828571D01*
X207840327Y-46828571D02*
X207935565Y-46780952D01*
X207935565Y-46780952D02*
X208126041Y-46733333D01*
X208126041Y-46733333D02*
X208268898Y-46733333D01*
X208268898Y-46733333D02*
X208459374Y-46780952D01*
X208459374Y-46780952D02*
X208554612Y-46828571D01*
X208554612Y-46828571D02*
X208649851Y-46923809D01*
X208649851Y-46923809D02*
X208697470Y-47066666D01*
X208697470Y-47066666D02*
X208697470Y-47304761D01*
D11*
X205986506Y-50720475D02*
X205186506Y-50720475D01*
X205186506Y-50720475D02*
X205186506Y-50529999D01*
X205186506Y-50529999D02*
X205224601Y-50415713D01*
X205224601Y-50415713D02*
X205300791Y-50339523D01*
X205300791Y-50339523D02*
X205376982Y-50301428D01*
X205376982Y-50301428D02*
X205529363Y-50263332D01*
X205529363Y-50263332D02*
X205643649Y-50263332D01*
X205643649Y-50263332D02*
X205796030Y-50301428D01*
X205796030Y-50301428D02*
X205872220Y-50339523D01*
X205872220Y-50339523D02*
X205948411Y-50415713D01*
X205948411Y-50415713D02*
X205986506Y-50529999D01*
X205986506Y-50529999D02*
X205986506Y-50720475D01*
X205186506Y-49577618D02*
X205186506Y-49729999D01*
X205186506Y-49729999D02*
X205224601Y-49806190D01*
X205224601Y-49806190D02*
X205262696Y-49844285D01*
X205262696Y-49844285D02*
X205376982Y-49920475D01*
X205376982Y-49920475D02*
X205529363Y-49958571D01*
X205529363Y-49958571D02*
X205834125Y-49958571D01*
X205834125Y-49958571D02*
X205910315Y-49920475D01*
X205910315Y-49920475D02*
X205948411Y-49882380D01*
X205948411Y-49882380D02*
X205986506Y-49806190D01*
X205986506Y-49806190D02*
X205986506Y-49653809D01*
X205986506Y-49653809D02*
X205948411Y-49577618D01*
X205948411Y-49577618D02*
X205910315Y-49539523D01*
X205910315Y-49539523D02*
X205834125Y-49501428D01*
X205834125Y-49501428D02*
X205643649Y-49501428D01*
X205643649Y-49501428D02*
X205567458Y-49539523D01*
X205567458Y-49539523D02*
X205529363Y-49577618D01*
X205529363Y-49577618D02*
X205491268Y-49653809D01*
X205491268Y-49653809D02*
X205491268Y-49806190D01*
X205491268Y-49806190D02*
X205529363Y-49882380D01*
X205529363Y-49882380D02*
X205567458Y-49920475D01*
X205567458Y-49920475D02*
X205643649Y-49958571D01*
D10*
X172209523Y-110409819D02*
X171733333Y-110409819D01*
X171733333Y-110409819D02*
X171733333Y-109409819D01*
X172542857Y-110409819D02*
X172542857Y-109409819D01*
X172542857Y-109409819D02*
X172876190Y-110124104D01*
X172876190Y-110124104D02*
X173209523Y-109409819D01*
X173209523Y-109409819D02*
X173209523Y-110409819D01*
X173590476Y-109409819D02*
X174209523Y-109409819D01*
X174209523Y-109409819D02*
X173876190Y-109790771D01*
X173876190Y-109790771D02*
X174019047Y-109790771D01*
X174019047Y-109790771D02*
X174114285Y-109838390D01*
X174114285Y-109838390D02*
X174161904Y-109886009D01*
X174161904Y-109886009D02*
X174209523Y-109981247D01*
X174209523Y-109981247D02*
X174209523Y-110219342D01*
X174209523Y-110219342D02*
X174161904Y-110314580D01*
X174161904Y-110314580D02*
X174114285Y-110362200D01*
X174114285Y-110362200D02*
X174019047Y-110409819D01*
X174019047Y-110409819D02*
X173733333Y-110409819D01*
X173733333Y-110409819D02*
X173638095Y-110362200D01*
X173638095Y-110362200D02*
X173590476Y-110314580D01*
X174590476Y-109505057D02*
X174638095Y-109457438D01*
X174638095Y-109457438D02*
X174733333Y-109409819D01*
X174733333Y-109409819D02*
X174971428Y-109409819D01*
X174971428Y-109409819D02*
X175066666Y-109457438D01*
X175066666Y-109457438D02*
X175114285Y-109505057D01*
X175114285Y-109505057D02*
X175161904Y-109600295D01*
X175161904Y-109600295D02*
X175161904Y-109695533D01*
X175161904Y-109695533D02*
X175114285Y-109838390D01*
X175114285Y-109838390D02*
X174542857Y-110409819D01*
X174542857Y-110409819D02*
X175161904Y-110409819D01*
X176019047Y-109743152D02*
X176019047Y-110409819D01*
X175780952Y-109362200D02*
X175542857Y-110076485D01*
X175542857Y-110076485D02*
X176161904Y-110076485D01*
X173354819Y-100766904D02*
X174164342Y-100766904D01*
X174164342Y-100766904D02*
X174259580Y-100719285D01*
X174259580Y-100719285D02*
X174307200Y-100671666D01*
X174307200Y-100671666D02*
X174354819Y-100576428D01*
X174354819Y-100576428D02*
X174354819Y-100385952D01*
X174354819Y-100385952D02*
X174307200Y-100290714D01*
X174307200Y-100290714D02*
X174259580Y-100243095D01*
X174259580Y-100243095D02*
X174164342Y-100195476D01*
X174164342Y-100195476D02*
X173354819Y-100195476D01*
X173450057Y-99766904D02*
X173402438Y-99719285D01*
X173402438Y-99719285D02*
X173354819Y-99624047D01*
X173354819Y-99624047D02*
X173354819Y-99385952D01*
X173354819Y-99385952D02*
X173402438Y-99290714D01*
X173402438Y-99290714D02*
X173450057Y-99243095D01*
X173450057Y-99243095D02*
X173545295Y-99195476D01*
X173545295Y-99195476D02*
X173640533Y-99195476D01*
X173640533Y-99195476D02*
X173783390Y-99243095D01*
X173783390Y-99243095D02*
X174354819Y-99814523D01*
X174354819Y-99814523D02*
X174354819Y-99195476D01*
X173164968Y-69754819D02*
X172688778Y-69754819D01*
X172688778Y-69754819D02*
X172688778Y-68754819D01*
X173498302Y-69754819D02*
X173498302Y-68754819D01*
X173498302Y-68754819D02*
X173831635Y-69469104D01*
X173831635Y-69469104D02*
X174164968Y-68754819D01*
X174164968Y-68754819D02*
X174164968Y-69754819D01*
X174593540Y-68850057D02*
X174641159Y-68802438D01*
X174641159Y-68802438D02*
X174736397Y-68754819D01*
X174736397Y-68754819D02*
X174974492Y-68754819D01*
X174974492Y-68754819D02*
X175069730Y-68802438D01*
X175069730Y-68802438D02*
X175117349Y-68850057D01*
X175117349Y-68850057D02*
X175164968Y-68945295D01*
X175164968Y-68945295D02*
X175164968Y-69040533D01*
X175164968Y-69040533D02*
X175117349Y-69183390D01*
X175117349Y-69183390D02*
X174545921Y-69754819D01*
X174545921Y-69754819D02*
X175164968Y-69754819D01*
X175641159Y-69754819D02*
X175831635Y-69754819D01*
X175831635Y-69754819D02*
X175926873Y-69707200D01*
X175926873Y-69707200D02*
X175974492Y-69659580D01*
X175974492Y-69659580D02*
X176069730Y-69516723D01*
X176069730Y-69516723D02*
X176117349Y-69326247D01*
X176117349Y-69326247D02*
X176117349Y-68945295D01*
X176117349Y-68945295D02*
X176069730Y-68850057D01*
X176069730Y-68850057D02*
X176022111Y-68802438D01*
X176022111Y-68802438D02*
X175926873Y-68754819D01*
X175926873Y-68754819D02*
X175736397Y-68754819D01*
X175736397Y-68754819D02*
X175641159Y-68802438D01*
X175641159Y-68802438D02*
X175593540Y-68850057D01*
X175593540Y-68850057D02*
X175545921Y-68945295D01*
X175545921Y-68945295D02*
X175545921Y-69183390D01*
X175545921Y-69183390D02*
X175593540Y-69278628D01*
X175593540Y-69278628D02*
X175641159Y-69326247D01*
X175641159Y-69326247D02*
X175736397Y-69373866D01*
X175736397Y-69373866D02*
X175926873Y-69373866D01*
X175926873Y-69373866D02*
X176022111Y-69326247D01*
X176022111Y-69326247D02*
X176069730Y-69278628D01*
X176069730Y-69278628D02*
X176117349Y-69183390D01*
X176974492Y-69088152D02*
X176974492Y-69754819D01*
X176736397Y-68707200D02*
X176498302Y-69421485D01*
X176498302Y-69421485D02*
X177117349Y-69421485D01*
X177688778Y-68754819D02*
X177784016Y-68754819D01*
X177784016Y-68754819D02*
X177879254Y-68802438D01*
X177879254Y-68802438D02*
X177926873Y-68850057D01*
X177926873Y-68850057D02*
X177974492Y-68945295D01*
X177974492Y-68945295D02*
X178022111Y-69135771D01*
X178022111Y-69135771D02*
X178022111Y-69373866D01*
X178022111Y-69373866D02*
X177974492Y-69564342D01*
X177974492Y-69564342D02*
X177926873Y-69659580D01*
X177926873Y-69659580D02*
X177879254Y-69707200D01*
X177879254Y-69707200D02*
X177784016Y-69754819D01*
X177784016Y-69754819D02*
X177688778Y-69754819D01*
X177688778Y-69754819D02*
X177593540Y-69707200D01*
X177593540Y-69707200D02*
X177545921Y-69659580D01*
X177545921Y-69659580D02*
X177498302Y-69564342D01*
X177498302Y-69564342D02*
X177450683Y-69373866D01*
X177450683Y-69373866D02*
X177450683Y-69135771D01*
X177450683Y-69135771D02*
X177498302Y-68945295D01*
X177498302Y-68945295D02*
X177545921Y-68850057D01*
X177545921Y-68850057D02*
X177593540Y-68802438D01*
X177593540Y-68802438D02*
X177688778Y-68754819D01*
X178403064Y-69707200D02*
X178545921Y-69754819D01*
X178545921Y-69754819D02*
X178784016Y-69754819D01*
X178784016Y-69754819D02*
X178879254Y-69707200D01*
X178879254Y-69707200D02*
X178926873Y-69659580D01*
X178926873Y-69659580D02*
X178974492Y-69564342D01*
X178974492Y-69564342D02*
X178974492Y-69469104D01*
X178974492Y-69469104D02*
X178926873Y-69373866D01*
X178926873Y-69373866D02*
X178879254Y-69326247D01*
X178879254Y-69326247D02*
X178784016Y-69278628D01*
X178784016Y-69278628D02*
X178593540Y-69231009D01*
X178593540Y-69231009D02*
X178498302Y-69183390D01*
X178498302Y-69183390D02*
X178450683Y-69135771D01*
X178450683Y-69135771D02*
X178403064Y-69040533D01*
X178403064Y-69040533D02*
X178403064Y-68945295D01*
X178403064Y-68945295D02*
X178450683Y-68850057D01*
X178450683Y-68850057D02*
X178498302Y-68802438D01*
X178498302Y-68802438D02*
X178593540Y-68754819D01*
X178593540Y-68754819D02*
X178831635Y-68754819D01*
X178831635Y-68754819D02*
X178974492Y-68802438D01*
X179403064Y-69373866D02*
X180164969Y-69373866D01*
X181117349Y-68754819D02*
X180641159Y-68754819D01*
X180641159Y-68754819D02*
X180593540Y-69231009D01*
X180593540Y-69231009D02*
X180641159Y-69183390D01*
X180641159Y-69183390D02*
X180736397Y-69135771D01*
X180736397Y-69135771D02*
X180974492Y-69135771D01*
X180974492Y-69135771D02*
X181069730Y-69183390D01*
X181069730Y-69183390D02*
X181117349Y-69231009D01*
X181117349Y-69231009D02*
X181164968Y-69326247D01*
X181164968Y-69326247D02*
X181164968Y-69564342D01*
X181164968Y-69564342D02*
X181117349Y-69659580D01*
X181117349Y-69659580D02*
X181069730Y-69707200D01*
X181069730Y-69707200D02*
X180974492Y-69754819D01*
X180974492Y-69754819D02*
X180736397Y-69754819D01*
X180736397Y-69754819D02*
X180641159Y-69707200D01*
X180641159Y-69707200D02*
X180593540Y-69659580D01*
X181593540Y-69659580D02*
X181641159Y-69707200D01*
X181641159Y-69707200D02*
X181593540Y-69754819D01*
X181593540Y-69754819D02*
X181545921Y-69707200D01*
X181545921Y-69707200D02*
X181593540Y-69659580D01*
X181593540Y-69659580D02*
X181593540Y-69754819D01*
X182260206Y-68754819D02*
X182355444Y-68754819D01*
X182355444Y-68754819D02*
X182450682Y-68802438D01*
X182450682Y-68802438D02*
X182498301Y-68850057D01*
X182498301Y-68850057D02*
X182545920Y-68945295D01*
X182545920Y-68945295D02*
X182593539Y-69135771D01*
X182593539Y-69135771D02*
X182593539Y-69373866D01*
X182593539Y-69373866D02*
X182545920Y-69564342D01*
X182545920Y-69564342D02*
X182498301Y-69659580D01*
X182498301Y-69659580D02*
X182450682Y-69707200D01*
X182450682Y-69707200D02*
X182355444Y-69754819D01*
X182355444Y-69754819D02*
X182260206Y-69754819D01*
X182260206Y-69754819D02*
X182164968Y-69707200D01*
X182164968Y-69707200D02*
X182117349Y-69659580D01*
X182117349Y-69659580D02*
X182069730Y-69564342D01*
X182069730Y-69564342D02*
X182022111Y-69373866D01*
X182022111Y-69373866D02*
X182022111Y-69135771D01*
X182022111Y-69135771D02*
X182069730Y-68945295D01*
X182069730Y-68945295D02*
X182117349Y-68850057D01*
X182117349Y-68850057D02*
X182164968Y-68802438D01*
X182164968Y-68802438D02*
X182260206Y-68754819D01*
X176915444Y-46154819D02*
X176915444Y-46964342D01*
X176915444Y-46964342D02*
X176963063Y-47059580D01*
X176963063Y-47059580D02*
X177010682Y-47107200D01*
X177010682Y-47107200D02*
X177105920Y-47154819D01*
X177105920Y-47154819D02*
X177296396Y-47154819D01*
X177296396Y-47154819D02*
X177391634Y-47107200D01*
X177391634Y-47107200D02*
X177439253Y-47059580D01*
X177439253Y-47059580D02*
X177486872Y-46964342D01*
X177486872Y-46964342D02*
X177486872Y-46154819D01*
X178439253Y-46154819D02*
X177963063Y-46154819D01*
X177963063Y-46154819D02*
X177915444Y-46631009D01*
X177915444Y-46631009D02*
X177963063Y-46583390D01*
X177963063Y-46583390D02*
X178058301Y-46535771D01*
X178058301Y-46535771D02*
X178296396Y-46535771D01*
X178296396Y-46535771D02*
X178391634Y-46583390D01*
X178391634Y-46583390D02*
X178439253Y-46631009D01*
X178439253Y-46631009D02*
X178486872Y-46726247D01*
X178486872Y-46726247D02*
X178486872Y-46964342D01*
X178486872Y-46964342D02*
X178439253Y-47059580D01*
X178439253Y-47059580D02*
X178391634Y-47107200D01*
X178391634Y-47107200D02*
X178296396Y-47154819D01*
X178296396Y-47154819D02*
X178058301Y-47154819D01*
X178058301Y-47154819D02*
X177963063Y-47107200D01*
X177963063Y-47107200D02*
X177915444Y-47059580D01*
X214570746Y-55034819D02*
X214570746Y-54034819D01*
X214570746Y-54034819D02*
X214808841Y-54034819D01*
X214808841Y-54034819D02*
X214951698Y-54082438D01*
X214951698Y-54082438D02*
X215046936Y-54177676D01*
X215046936Y-54177676D02*
X215094555Y-54272914D01*
X215094555Y-54272914D02*
X215142174Y-54463390D01*
X215142174Y-54463390D02*
X215142174Y-54606247D01*
X215142174Y-54606247D02*
X215094555Y-54796723D01*
X215094555Y-54796723D02*
X215046936Y-54891961D01*
X215046936Y-54891961D02*
X214951698Y-54987200D01*
X214951698Y-54987200D02*
X214808841Y-55034819D01*
X214808841Y-55034819D02*
X214570746Y-55034819D01*
D11*
X213942175Y-57063855D02*
X213942175Y-56263855D01*
X213942175Y-56263855D02*
X214132651Y-56263855D01*
X214132651Y-56263855D02*
X214246937Y-56301950D01*
X214246937Y-56301950D02*
X214323127Y-56378140D01*
X214323127Y-56378140D02*
X214361222Y-56454331D01*
X214361222Y-56454331D02*
X214399318Y-56606712D01*
X214399318Y-56606712D02*
X214399318Y-56720998D01*
X214399318Y-56720998D02*
X214361222Y-56873379D01*
X214361222Y-56873379D02*
X214323127Y-56949569D01*
X214323127Y-56949569D02*
X214246937Y-57025760D01*
X214246937Y-57025760D02*
X214132651Y-57063855D01*
X214132651Y-57063855D02*
X213942175Y-57063855D01*
X215085032Y-56530521D02*
X215085032Y-57063855D01*
X214894556Y-56225760D02*
X214704079Y-56797188D01*
X214704079Y-56797188D02*
X215199318Y-56797188D01*
D10*
X220130746Y-56404819D02*
X220130746Y-55404819D01*
X220702174Y-56404819D02*
X220273603Y-55833390D01*
X220702174Y-55404819D02*
X220130746Y-55976247D01*
X165604761Y-93154819D02*
X165033333Y-93154819D01*
X165319047Y-93154819D02*
X165319047Y-92154819D01*
X165319047Y-92154819D02*
X165223809Y-92297676D01*
X165223809Y-92297676D02*
X165128571Y-92392914D01*
X165128571Y-92392914D02*
X165033333Y-92440533D01*
X166223809Y-92154819D02*
X166319047Y-92154819D01*
X166319047Y-92154819D02*
X166414285Y-92202438D01*
X166414285Y-92202438D02*
X166461904Y-92250057D01*
X166461904Y-92250057D02*
X166509523Y-92345295D01*
X166509523Y-92345295D02*
X166557142Y-92535771D01*
X166557142Y-92535771D02*
X166557142Y-92773866D01*
X166557142Y-92773866D02*
X166509523Y-92964342D01*
X166509523Y-92964342D02*
X166461904Y-93059580D01*
X166461904Y-93059580D02*
X166414285Y-93107200D01*
X166414285Y-93107200D02*
X166319047Y-93154819D01*
X166319047Y-93154819D02*
X166223809Y-93154819D01*
X166223809Y-93154819D02*
X166128571Y-93107200D01*
X166128571Y-93107200D02*
X166080952Y-93059580D01*
X166080952Y-93059580D02*
X166033333Y-92964342D01*
X166033333Y-92964342D02*
X165985714Y-92773866D01*
X165985714Y-92773866D02*
X165985714Y-92535771D01*
X165985714Y-92535771D02*
X166033333Y-92345295D01*
X166033333Y-92345295D02*
X166080952Y-92250057D01*
X166080952Y-92250057D02*
X166128571Y-92202438D01*
X166128571Y-92202438D02*
X166223809Y-92154819D01*
X166985714Y-93154819D02*
X166985714Y-92154819D01*
X167080952Y-92773866D02*
X167366666Y-93154819D01*
X167366666Y-92488152D02*
X166985714Y-92869104D01*
X166654819Y-99766666D02*
X166178628Y-100099999D01*
X166654819Y-100338094D02*
X165654819Y-100338094D01*
X165654819Y-100338094D02*
X165654819Y-99957142D01*
X165654819Y-99957142D02*
X165702438Y-99861904D01*
X165702438Y-99861904D02*
X165750057Y-99814285D01*
X165750057Y-99814285D02*
X165845295Y-99766666D01*
X165845295Y-99766666D02*
X165988152Y-99766666D01*
X165988152Y-99766666D02*
X166083390Y-99814285D01*
X166083390Y-99814285D02*
X166131009Y-99861904D01*
X166131009Y-99861904D02*
X166178628Y-99957142D01*
X166178628Y-99957142D02*
X166178628Y-100338094D01*
X165750057Y-99385713D02*
X165702438Y-99338094D01*
X165702438Y-99338094D02*
X165654819Y-99242856D01*
X165654819Y-99242856D02*
X165654819Y-99004761D01*
X165654819Y-99004761D02*
X165702438Y-98909523D01*
X165702438Y-98909523D02*
X165750057Y-98861904D01*
X165750057Y-98861904D02*
X165845295Y-98814285D01*
X165845295Y-98814285D02*
X165940533Y-98814285D01*
X165940533Y-98814285D02*
X166083390Y-98861904D01*
X166083390Y-98861904D02*
X166654819Y-99433332D01*
X166654819Y-99433332D02*
X166654819Y-98814285D01*
X186750057Y-105919047D02*
X186702438Y-105871428D01*
X186702438Y-105871428D02*
X186654819Y-105776190D01*
X186654819Y-105776190D02*
X186654819Y-105538095D01*
X186654819Y-105538095D02*
X186702438Y-105442857D01*
X186702438Y-105442857D02*
X186750057Y-105395238D01*
X186750057Y-105395238D02*
X186845295Y-105347619D01*
X186845295Y-105347619D02*
X186940533Y-105347619D01*
X186940533Y-105347619D02*
X187083390Y-105395238D01*
X187083390Y-105395238D02*
X187654819Y-105966666D01*
X187654819Y-105966666D02*
X187654819Y-105347619D01*
X186750057Y-104966666D02*
X186702438Y-104919047D01*
X186702438Y-104919047D02*
X186654819Y-104823809D01*
X186654819Y-104823809D02*
X186654819Y-104585714D01*
X186654819Y-104585714D02*
X186702438Y-104490476D01*
X186702438Y-104490476D02*
X186750057Y-104442857D01*
X186750057Y-104442857D02*
X186845295Y-104395238D01*
X186845295Y-104395238D02*
X186940533Y-104395238D01*
X186940533Y-104395238D02*
X187083390Y-104442857D01*
X187083390Y-104442857D02*
X187654819Y-105014285D01*
X187654819Y-105014285D02*
X187654819Y-104395238D01*
X186654819Y-103776190D02*
X186654819Y-103680952D01*
X186654819Y-103680952D02*
X186702438Y-103585714D01*
X186702438Y-103585714D02*
X186750057Y-103538095D01*
X186750057Y-103538095D02*
X186845295Y-103490476D01*
X186845295Y-103490476D02*
X187035771Y-103442857D01*
X187035771Y-103442857D02*
X187273866Y-103442857D01*
X187273866Y-103442857D02*
X187464342Y-103490476D01*
X187464342Y-103490476D02*
X187559580Y-103538095D01*
X187559580Y-103538095D02*
X187607200Y-103585714D01*
X187607200Y-103585714D02*
X187654819Y-103680952D01*
X187654819Y-103680952D02*
X187654819Y-103776190D01*
X187654819Y-103776190D02*
X187607200Y-103871428D01*
X187607200Y-103871428D02*
X187559580Y-103919047D01*
X187559580Y-103919047D02*
X187464342Y-103966666D01*
X187464342Y-103966666D02*
X187273866Y-104014285D01*
X187273866Y-104014285D02*
X187035771Y-104014285D01*
X187035771Y-104014285D02*
X186845295Y-103966666D01*
X186845295Y-103966666D02*
X186750057Y-103919047D01*
X186750057Y-103919047D02*
X186702438Y-103871428D01*
X186702438Y-103871428D02*
X186654819Y-103776190D01*
X186988152Y-103014285D02*
X187654819Y-103014285D01*
X187083390Y-103014285D02*
X187035771Y-102966666D01*
X187035771Y-102966666D02*
X186988152Y-102871428D01*
X186988152Y-102871428D02*
X186988152Y-102728571D01*
X186988152Y-102728571D02*
X187035771Y-102633333D01*
X187035771Y-102633333D02*
X187131009Y-102585714D01*
X187131009Y-102585714D02*
X187654819Y-102585714D01*
X187131009Y-101776190D02*
X187131009Y-102109523D01*
X187654819Y-102109523D02*
X186654819Y-102109523D01*
X186654819Y-102109523D02*
X186654819Y-101633333D01*
X190059580Y-103966666D02*
X190107200Y-104014285D01*
X190107200Y-104014285D02*
X190154819Y-104157142D01*
X190154819Y-104157142D02*
X190154819Y-104252380D01*
X190154819Y-104252380D02*
X190107200Y-104395237D01*
X190107200Y-104395237D02*
X190011961Y-104490475D01*
X190011961Y-104490475D02*
X189916723Y-104538094D01*
X189916723Y-104538094D02*
X189726247Y-104585713D01*
X189726247Y-104585713D02*
X189583390Y-104585713D01*
X189583390Y-104585713D02*
X189392914Y-104538094D01*
X189392914Y-104538094D02*
X189297676Y-104490475D01*
X189297676Y-104490475D02*
X189202438Y-104395237D01*
X189202438Y-104395237D02*
X189154819Y-104252380D01*
X189154819Y-104252380D02*
X189154819Y-104157142D01*
X189154819Y-104157142D02*
X189202438Y-104014285D01*
X189202438Y-104014285D02*
X189250057Y-103966666D01*
X189154819Y-103633332D02*
X189154819Y-103014285D01*
X189154819Y-103014285D02*
X189535771Y-103347618D01*
X189535771Y-103347618D02*
X189535771Y-103204761D01*
X189535771Y-103204761D02*
X189583390Y-103109523D01*
X189583390Y-103109523D02*
X189631009Y-103061904D01*
X189631009Y-103061904D02*
X189726247Y-103014285D01*
X189726247Y-103014285D02*
X189964342Y-103014285D01*
X189964342Y-103014285D02*
X190059580Y-103061904D01*
X190059580Y-103061904D02*
X190107200Y-103109523D01*
X190107200Y-103109523D02*
X190154819Y-103204761D01*
X190154819Y-103204761D02*
X190154819Y-103490475D01*
X190154819Y-103490475D02*
X190107200Y-103585713D01*
X190107200Y-103585713D02*
X190059580Y-103633332D01*
X190318152Y-107581904D02*
X190984819Y-107581904D01*
X189937200Y-107819999D02*
X190651485Y-108058094D01*
X190651485Y-108058094D02*
X190651485Y-107439047D01*
X189984819Y-107153332D02*
X189984819Y-106486666D01*
X189984819Y-106486666D02*
X190984819Y-106915237D01*
X189984819Y-105915237D02*
X189984819Y-105819999D01*
X189984819Y-105819999D02*
X190032438Y-105724761D01*
X190032438Y-105724761D02*
X190080057Y-105677142D01*
X190080057Y-105677142D02*
X190175295Y-105629523D01*
X190175295Y-105629523D02*
X190365771Y-105581904D01*
X190365771Y-105581904D02*
X190603866Y-105581904D01*
X190603866Y-105581904D02*
X190794342Y-105629523D01*
X190794342Y-105629523D02*
X190889580Y-105677142D01*
X190889580Y-105677142D02*
X190937200Y-105724761D01*
X190937200Y-105724761D02*
X190984819Y-105819999D01*
X190984819Y-105819999D02*
X190984819Y-105915237D01*
X190984819Y-105915237D02*
X190937200Y-106010475D01*
X190937200Y-106010475D02*
X190889580Y-106058094D01*
X190889580Y-106058094D02*
X190794342Y-106105713D01*
X190794342Y-106105713D02*
X190603866Y-106153332D01*
X190603866Y-106153332D02*
X190365771Y-106153332D01*
X190365771Y-106153332D02*
X190175295Y-106105713D01*
X190175295Y-106105713D02*
X190080057Y-106058094D01*
X190080057Y-106058094D02*
X190032438Y-106010475D01*
X190032438Y-106010475D02*
X189984819Y-105915237D01*
X190984819Y-104581904D02*
X190508628Y-104915237D01*
X190984819Y-105153332D02*
X189984819Y-105153332D01*
X189984819Y-105153332D02*
X189984819Y-104772380D01*
X189984819Y-104772380D02*
X190032438Y-104677142D01*
X190032438Y-104677142D02*
X190080057Y-104629523D01*
X190080057Y-104629523D02*
X190175295Y-104581904D01*
X190175295Y-104581904D02*
X190318152Y-104581904D01*
X190318152Y-104581904D02*
X190413390Y-104629523D01*
X190413390Y-104629523D02*
X190461009Y-104677142D01*
X190461009Y-104677142D02*
X190508628Y-104772380D01*
X190508628Y-104772380D02*
X190508628Y-105153332D01*
X193354819Y-106962857D02*
X192878628Y-107296190D01*
X193354819Y-107534285D02*
X192354819Y-107534285D01*
X192354819Y-107534285D02*
X192354819Y-107153333D01*
X192354819Y-107153333D02*
X192402438Y-107058095D01*
X192402438Y-107058095D02*
X192450057Y-107010476D01*
X192450057Y-107010476D02*
X192545295Y-106962857D01*
X192545295Y-106962857D02*
X192688152Y-106962857D01*
X192688152Y-106962857D02*
X192783390Y-107010476D01*
X192783390Y-107010476D02*
X192831009Y-107058095D01*
X192831009Y-107058095D02*
X192878628Y-107153333D01*
X192878628Y-107153333D02*
X192878628Y-107534285D01*
X193354819Y-106010476D02*
X193354819Y-106581904D01*
X193354819Y-106296190D02*
X192354819Y-106296190D01*
X192354819Y-106296190D02*
X192497676Y-106391428D01*
X192497676Y-106391428D02*
X192592914Y-106486666D01*
X192592914Y-106486666D02*
X192640533Y-106581904D01*
X192354819Y-105391428D02*
X192354819Y-105296190D01*
X192354819Y-105296190D02*
X192402438Y-105200952D01*
X192402438Y-105200952D02*
X192450057Y-105153333D01*
X192450057Y-105153333D02*
X192545295Y-105105714D01*
X192545295Y-105105714D02*
X192735771Y-105058095D01*
X192735771Y-105058095D02*
X192973866Y-105058095D01*
X192973866Y-105058095D02*
X193164342Y-105105714D01*
X193164342Y-105105714D02*
X193259580Y-105153333D01*
X193259580Y-105153333D02*
X193307200Y-105200952D01*
X193307200Y-105200952D02*
X193354819Y-105296190D01*
X193354819Y-105296190D02*
X193354819Y-105391428D01*
X193354819Y-105391428D02*
X193307200Y-105486666D01*
X193307200Y-105486666D02*
X193259580Y-105534285D01*
X193259580Y-105534285D02*
X193164342Y-105581904D01*
X193164342Y-105581904D02*
X192973866Y-105629523D01*
X192973866Y-105629523D02*
X192735771Y-105629523D01*
X192735771Y-105629523D02*
X192545295Y-105581904D01*
X192545295Y-105581904D02*
X192450057Y-105534285D01*
X192450057Y-105534285D02*
X192402438Y-105486666D01*
X192402438Y-105486666D02*
X192354819Y-105391428D01*
X223890476Y-110754819D02*
X223890476Y-109754819D01*
X223890476Y-109754819D02*
X224223809Y-110469104D01*
X224223809Y-110469104D02*
X224557142Y-109754819D01*
X224557142Y-109754819D02*
X224557142Y-110754819D01*
X224938095Y-109754819D02*
X225557142Y-109754819D01*
X225557142Y-109754819D02*
X225223809Y-110135771D01*
X225223809Y-110135771D02*
X225366666Y-110135771D01*
X225366666Y-110135771D02*
X225461904Y-110183390D01*
X225461904Y-110183390D02*
X225509523Y-110231009D01*
X225509523Y-110231009D02*
X225557142Y-110326247D01*
X225557142Y-110326247D02*
X225557142Y-110564342D01*
X225557142Y-110564342D02*
X225509523Y-110659580D01*
X225509523Y-110659580D02*
X225461904Y-110707200D01*
X225461904Y-110707200D02*
X225366666Y-110754819D01*
X225366666Y-110754819D02*
X225080952Y-110754819D01*
X225080952Y-110754819D02*
X224985714Y-110707200D01*
X224985714Y-110707200D02*
X224938095Y-110659580D01*
X202764762Y-85207200D02*
X202907619Y-85254819D01*
X202907619Y-85254819D02*
X203145714Y-85254819D01*
X203145714Y-85254819D02*
X203240952Y-85207200D01*
X203240952Y-85207200D02*
X203288571Y-85159580D01*
X203288571Y-85159580D02*
X203336190Y-85064342D01*
X203336190Y-85064342D02*
X203336190Y-84969104D01*
X203336190Y-84969104D02*
X203288571Y-84873866D01*
X203288571Y-84873866D02*
X203240952Y-84826247D01*
X203240952Y-84826247D02*
X203145714Y-84778628D01*
X203145714Y-84778628D02*
X202955238Y-84731009D01*
X202955238Y-84731009D02*
X202860000Y-84683390D01*
X202860000Y-84683390D02*
X202812381Y-84635771D01*
X202812381Y-84635771D02*
X202764762Y-84540533D01*
X202764762Y-84540533D02*
X202764762Y-84445295D01*
X202764762Y-84445295D02*
X202812381Y-84350057D01*
X202812381Y-84350057D02*
X202860000Y-84302438D01*
X202860000Y-84302438D02*
X202955238Y-84254819D01*
X202955238Y-84254819D02*
X203193333Y-84254819D01*
X203193333Y-84254819D02*
X203336190Y-84302438D01*
X203621905Y-84254819D02*
X204193333Y-84254819D01*
X203907619Y-85254819D02*
X203907619Y-84254819D01*
X204526667Y-85254819D02*
X204526667Y-84254819D01*
X204526667Y-84254819D02*
X204907619Y-84254819D01*
X204907619Y-84254819D02*
X205002857Y-84302438D01*
X205002857Y-84302438D02*
X205050476Y-84350057D01*
X205050476Y-84350057D02*
X205098095Y-84445295D01*
X205098095Y-84445295D02*
X205098095Y-84588152D01*
X205098095Y-84588152D02*
X205050476Y-84683390D01*
X205050476Y-84683390D02*
X205002857Y-84731009D01*
X205002857Y-84731009D02*
X204907619Y-84778628D01*
X204907619Y-84778628D02*
X204526667Y-84778628D01*
X205669524Y-84683390D02*
X205574286Y-84635771D01*
X205574286Y-84635771D02*
X205526667Y-84588152D01*
X205526667Y-84588152D02*
X205479048Y-84492914D01*
X205479048Y-84492914D02*
X205479048Y-84445295D01*
X205479048Y-84445295D02*
X205526667Y-84350057D01*
X205526667Y-84350057D02*
X205574286Y-84302438D01*
X205574286Y-84302438D02*
X205669524Y-84254819D01*
X205669524Y-84254819D02*
X205860000Y-84254819D01*
X205860000Y-84254819D02*
X205955238Y-84302438D01*
X205955238Y-84302438D02*
X206002857Y-84350057D01*
X206002857Y-84350057D02*
X206050476Y-84445295D01*
X206050476Y-84445295D02*
X206050476Y-84492914D01*
X206050476Y-84492914D02*
X206002857Y-84588152D01*
X206002857Y-84588152D02*
X205955238Y-84635771D01*
X205955238Y-84635771D02*
X205860000Y-84683390D01*
X205860000Y-84683390D02*
X205669524Y-84683390D01*
X205669524Y-84683390D02*
X205574286Y-84731009D01*
X205574286Y-84731009D02*
X205526667Y-84778628D01*
X205526667Y-84778628D02*
X205479048Y-84873866D01*
X205479048Y-84873866D02*
X205479048Y-85064342D01*
X205479048Y-85064342D02*
X205526667Y-85159580D01*
X205526667Y-85159580D02*
X205574286Y-85207200D01*
X205574286Y-85207200D02*
X205669524Y-85254819D01*
X205669524Y-85254819D02*
X205860000Y-85254819D01*
X205860000Y-85254819D02*
X205955238Y-85207200D01*
X205955238Y-85207200D02*
X206002857Y-85159580D01*
X206002857Y-85159580D02*
X206050476Y-85064342D01*
X206050476Y-85064342D02*
X206050476Y-84873866D01*
X206050476Y-84873866D02*
X206002857Y-84778628D01*
X206002857Y-84778628D02*
X205955238Y-84731009D01*
X205955238Y-84731009D02*
X205860000Y-84683390D01*
X206669524Y-84254819D02*
X206764762Y-84254819D01*
X206764762Y-84254819D02*
X206860000Y-84302438D01*
X206860000Y-84302438D02*
X206907619Y-84350057D01*
X206907619Y-84350057D02*
X206955238Y-84445295D01*
X206955238Y-84445295D02*
X207002857Y-84635771D01*
X207002857Y-84635771D02*
X207002857Y-84873866D01*
X207002857Y-84873866D02*
X206955238Y-85064342D01*
X206955238Y-85064342D02*
X206907619Y-85159580D01*
X206907619Y-85159580D02*
X206860000Y-85207200D01*
X206860000Y-85207200D02*
X206764762Y-85254819D01*
X206764762Y-85254819D02*
X206669524Y-85254819D01*
X206669524Y-85254819D02*
X206574286Y-85207200D01*
X206574286Y-85207200D02*
X206526667Y-85159580D01*
X206526667Y-85159580D02*
X206479048Y-85064342D01*
X206479048Y-85064342D02*
X206431429Y-84873866D01*
X206431429Y-84873866D02*
X206431429Y-84635771D01*
X206431429Y-84635771D02*
X206479048Y-84445295D01*
X206479048Y-84445295D02*
X206526667Y-84350057D01*
X206526667Y-84350057D02*
X206574286Y-84302438D01*
X206574286Y-84302438D02*
X206669524Y-84254819D01*
X207431429Y-85254819D02*
X207431429Y-84254819D01*
X207431429Y-84254819D02*
X208002857Y-85254819D01*
X208002857Y-85254819D02*
X208002857Y-84254819D01*
X208812381Y-84731009D02*
X208479048Y-84731009D01*
X208479048Y-85254819D02*
X208479048Y-84254819D01*
X208479048Y-84254819D02*
X208955238Y-84254819D01*
X209812381Y-84254819D02*
X209336191Y-84254819D01*
X209336191Y-84254819D02*
X209288572Y-84731009D01*
X209288572Y-84731009D02*
X209336191Y-84683390D01*
X209336191Y-84683390D02*
X209431429Y-84635771D01*
X209431429Y-84635771D02*
X209669524Y-84635771D01*
X209669524Y-84635771D02*
X209764762Y-84683390D01*
X209764762Y-84683390D02*
X209812381Y-84731009D01*
X209812381Y-84731009D02*
X209860000Y-84826247D01*
X209860000Y-84826247D02*
X209860000Y-85064342D01*
X209860000Y-85064342D02*
X209812381Y-85159580D01*
X209812381Y-85159580D02*
X209764762Y-85207200D01*
X209764762Y-85207200D02*
X209669524Y-85254819D01*
X209669524Y-85254819D02*
X209431429Y-85254819D01*
X209431429Y-85254819D02*
X209336191Y-85207200D01*
X209336191Y-85207200D02*
X209288572Y-85159580D01*
X210764762Y-84254819D02*
X210288572Y-84254819D01*
X210288572Y-84254819D02*
X210240953Y-84731009D01*
X210240953Y-84731009D02*
X210288572Y-84683390D01*
X210288572Y-84683390D02*
X210383810Y-84635771D01*
X210383810Y-84635771D02*
X210621905Y-84635771D01*
X210621905Y-84635771D02*
X210717143Y-84683390D01*
X210717143Y-84683390D02*
X210764762Y-84731009D01*
X210764762Y-84731009D02*
X210812381Y-84826247D01*
X210812381Y-84826247D02*
X210812381Y-85064342D01*
X210812381Y-85064342D02*
X210764762Y-85159580D01*
X210764762Y-85159580D02*
X210717143Y-85207200D01*
X210717143Y-85207200D02*
X210621905Y-85254819D01*
X210621905Y-85254819D02*
X210383810Y-85254819D01*
X210383810Y-85254819D02*
X210288572Y-85207200D01*
X210288572Y-85207200D02*
X210240953Y-85159580D01*
X211240953Y-84873866D02*
X212002858Y-84873866D01*
X212669524Y-84254819D02*
X212764762Y-84254819D01*
X212764762Y-84254819D02*
X212860000Y-84302438D01*
X212860000Y-84302438D02*
X212907619Y-84350057D01*
X212907619Y-84350057D02*
X212955238Y-84445295D01*
X212955238Y-84445295D02*
X213002857Y-84635771D01*
X213002857Y-84635771D02*
X213002857Y-84873866D01*
X213002857Y-84873866D02*
X212955238Y-85064342D01*
X212955238Y-85064342D02*
X212907619Y-85159580D01*
X212907619Y-85159580D02*
X212860000Y-85207200D01*
X212860000Y-85207200D02*
X212764762Y-85254819D01*
X212764762Y-85254819D02*
X212669524Y-85254819D01*
X212669524Y-85254819D02*
X212574286Y-85207200D01*
X212574286Y-85207200D02*
X212526667Y-85159580D01*
X212526667Y-85159580D02*
X212479048Y-85064342D01*
X212479048Y-85064342D02*
X212431429Y-84873866D01*
X212431429Y-84873866D02*
X212431429Y-84635771D01*
X212431429Y-84635771D02*
X212479048Y-84445295D01*
X212479048Y-84445295D02*
X212526667Y-84350057D01*
X212526667Y-84350057D02*
X212574286Y-84302438D01*
X212574286Y-84302438D02*
X212669524Y-84254819D01*
X213574286Y-84683390D02*
X213479048Y-84635771D01*
X213479048Y-84635771D02*
X213431429Y-84588152D01*
X213431429Y-84588152D02*
X213383810Y-84492914D01*
X213383810Y-84492914D02*
X213383810Y-84445295D01*
X213383810Y-84445295D02*
X213431429Y-84350057D01*
X213431429Y-84350057D02*
X213479048Y-84302438D01*
X213479048Y-84302438D02*
X213574286Y-84254819D01*
X213574286Y-84254819D02*
X213764762Y-84254819D01*
X213764762Y-84254819D02*
X213860000Y-84302438D01*
X213860000Y-84302438D02*
X213907619Y-84350057D01*
X213907619Y-84350057D02*
X213955238Y-84445295D01*
X213955238Y-84445295D02*
X213955238Y-84492914D01*
X213955238Y-84492914D02*
X213907619Y-84588152D01*
X213907619Y-84588152D02*
X213860000Y-84635771D01*
X213860000Y-84635771D02*
X213764762Y-84683390D01*
X213764762Y-84683390D02*
X213574286Y-84683390D01*
X213574286Y-84683390D02*
X213479048Y-84731009D01*
X213479048Y-84731009D02*
X213431429Y-84778628D01*
X213431429Y-84778628D02*
X213383810Y-84873866D01*
X213383810Y-84873866D02*
X213383810Y-85064342D01*
X213383810Y-85064342D02*
X213431429Y-85159580D01*
X213431429Y-85159580D02*
X213479048Y-85207200D01*
X213479048Y-85207200D02*
X213574286Y-85254819D01*
X213574286Y-85254819D02*
X213764762Y-85254819D01*
X213764762Y-85254819D02*
X213860000Y-85207200D01*
X213860000Y-85207200D02*
X213907619Y-85159580D01*
X213907619Y-85159580D02*
X213955238Y-85064342D01*
X213955238Y-85064342D02*
X213955238Y-84873866D01*
X213955238Y-84873866D02*
X213907619Y-84778628D01*
X213907619Y-84778628D02*
X213860000Y-84731009D01*
X213860000Y-84731009D02*
X213764762Y-84683390D01*
X208264761Y-69850057D02*
X208169523Y-69802438D01*
X208169523Y-69802438D02*
X208074285Y-69707200D01*
X208074285Y-69707200D02*
X207931428Y-69564342D01*
X207931428Y-69564342D02*
X207836190Y-69516723D01*
X207836190Y-69516723D02*
X207740952Y-69516723D01*
X207788571Y-69754819D02*
X207693333Y-69707200D01*
X207693333Y-69707200D02*
X207598095Y-69611961D01*
X207598095Y-69611961D02*
X207550476Y-69421485D01*
X207550476Y-69421485D02*
X207550476Y-69088152D01*
X207550476Y-69088152D02*
X207598095Y-68897676D01*
X207598095Y-68897676D02*
X207693333Y-68802438D01*
X207693333Y-68802438D02*
X207788571Y-68754819D01*
X207788571Y-68754819D02*
X207979047Y-68754819D01*
X207979047Y-68754819D02*
X208074285Y-68802438D01*
X208074285Y-68802438D02*
X208169523Y-68897676D01*
X208169523Y-68897676D02*
X208217142Y-69088152D01*
X208217142Y-69088152D02*
X208217142Y-69421485D01*
X208217142Y-69421485D02*
X208169523Y-69611961D01*
X208169523Y-69611961D02*
X208074285Y-69707200D01*
X208074285Y-69707200D02*
X207979047Y-69754819D01*
X207979047Y-69754819D02*
X207788571Y-69754819D01*
X208550476Y-68754819D02*
X209169523Y-68754819D01*
X209169523Y-68754819D02*
X208836190Y-69135771D01*
X208836190Y-69135771D02*
X208979047Y-69135771D01*
X208979047Y-69135771D02*
X209074285Y-69183390D01*
X209074285Y-69183390D02*
X209121904Y-69231009D01*
X209121904Y-69231009D02*
X209169523Y-69326247D01*
X209169523Y-69326247D02*
X209169523Y-69564342D01*
X209169523Y-69564342D02*
X209121904Y-69659580D01*
X209121904Y-69659580D02*
X209074285Y-69707200D01*
X209074285Y-69707200D02*
X208979047Y-69754819D01*
X208979047Y-69754819D02*
X208693333Y-69754819D01*
X208693333Y-69754819D02*
X208598095Y-69707200D01*
X208598095Y-69707200D02*
X208550476Y-69659580D01*
X180404762Y-85207200D02*
X180547619Y-85254819D01*
X180547619Y-85254819D02*
X180785714Y-85254819D01*
X180785714Y-85254819D02*
X180880952Y-85207200D01*
X180880952Y-85207200D02*
X180928571Y-85159580D01*
X180928571Y-85159580D02*
X180976190Y-85064342D01*
X180976190Y-85064342D02*
X180976190Y-84969104D01*
X180976190Y-84969104D02*
X180928571Y-84873866D01*
X180928571Y-84873866D02*
X180880952Y-84826247D01*
X180880952Y-84826247D02*
X180785714Y-84778628D01*
X180785714Y-84778628D02*
X180595238Y-84731009D01*
X180595238Y-84731009D02*
X180500000Y-84683390D01*
X180500000Y-84683390D02*
X180452381Y-84635771D01*
X180452381Y-84635771D02*
X180404762Y-84540533D01*
X180404762Y-84540533D02*
X180404762Y-84445295D01*
X180404762Y-84445295D02*
X180452381Y-84350057D01*
X180452381Y-84350057D02*
X180500000Y-84302438D01*
X180500000Y-84302438D02*
X180595238Y-84254819D01*
X180595238Y-84254819D02*
X180833333Y-84254819D01*
X180833333Y-84254819D02*
X180976190Y-84302438D01*
X181261905Y-84254819D02*
X181833333Y-84254819D01*
X181547619Y-85254819D02*
X181547619Y-84254819D01*
X182166667Y-85254819D02*
X182166667Y-84254819D01*
X182166667Y-84254819D02*
X182547619Y-84254819D01*
X182547619Y-84254819D02*
X182642857Y-84302438D01*
X182642857Y-84302438D02*
X182690476Y-84350057D01*
X182690476Y-84350057D02*
X182738095Y-84445295D01*
X182738095Y-84445295D02*
X182738095Y-84588152D01*
X182738095Y-84588152D02*
X182690476Y-84683390D01*
X182690476Y-84683390D02*
X182642857Y-84731009D01*
X182642857Y-84731009D02*
X182547619Y-84778628D01*
X182547619Y-84778628D02*
X182166667Y-84778628D01*
X183309524Y-84683390D02*
X183214286Y-84635771D01*
X183214286Y-84635771D02*
X183166667Y-84588152D01*
X183166667Y-84588152D02*
X183119048Y-84492914D01*
X183119048Y-84492914D02*
X183119048Y-84445295D01*
X183119048Y-84445295D02*
X183166667Y-84350057D01*
X183166667Y-84350057D02*
X183214286Y-84302438D01*
X183214286Y-84302438D02*
X183309524Y-84254819D01*
X183309524Y-84254819D02*
X183500000Y-84254819D01*
X183500000Y-84254819D02*
X183595238Y-84302438D01*
X183595238Y-84302438D02*
X183642857Y-84350057D01*
X183642857Y-84350057D02*
X183690476Y-84445295D01*
X183690476Y-84445295D02*
X183690476Y-84492914D01*
X183690476Y-84492914D02*
X183642857Y-84588152D01*
X183642857Y-84588152D02*
X183595238Y-84635771D01*
X183595238Y-84635771D02*
X183500000Y-84683390D01*
X183500000Y-84683390D02*
X183309524Y-84683390D01*
X183309524Y-84683390D02*
X183214286Y-84731009D01*
X183214286Y-84731009D02*
X183166667Y-84778628D01*
X183166667Y-84778628D02*
X183119048Y-84873866D01*
X183119048Y-84873866D02*
X183119048Y-85064342D01*
X183119048Y-85064342D02*
X183166667Y-85159580D01*
X183166667Y-85159580D02*
X183214286Y-85207200D01*
X183214286Y-85207200D02*
X183309524Y-85254819D01*
X183309524Y-85254819D02*
X183500000Y-85254819D01*
X183500000Y-85254819D02*
X183595238Y-85207200D01*
X183595238Y-85207200D02*
X183642857Y-85159580D01*
X183642857Y-85159580D02*
X183690476Y-85064342D01*
X183690476Y-85064342D02*
X183690476Y-84873866D01*
X183690476Y-84873866D02*
X183642857Y-84778628D01*
X183642857Y-84778628D02*
X183595238Y-84731009D01*
X183595238Y-84731009D02*
X183500000Y-84683390D01*
X184309524Y-84254819D02*
X184404762Y-84254819D01*
X184404762Y-84254819D02*
X184500000Y-84302438D01*
X184500000Y-84302438D02*
X184547619Y-84350057D01*
X184547619Y-84350057D02*
X184595238Y-84445295D01*
X184595238Y-84445295D02*
X184642857Y-84635771D01*
X184642857Y-84635771D02*
X184642857Y-84873866D01*
X184642857Y-84873866D02*
X184595238Y-85064342D01*
X184595238Y-85064342D02*
X184547619Y-85159580D01*
X184547619Y-85159580D02*
X184500000Y-85207200D01*
X184500000Y-85207200D02*
X184404762Y-85254819D01*
X184404762Y-85254819D02*
X184309524Y-85254819D01*
X184309524Y-85254819D02*
X184214286Y-85207200D01*
X184214286Y-85207200D02*
X184166667Y-85159580D01*
X184166667Y-85159580D02*
X184119048Y-85064342D01*
X184119048Y-85064342D02*
X184071429Y-84873866D01*
X184071429Y-84873866D02*
X184071429Y-84635771D01*
X184071429Y-84635771D02*
X184119048Y-84445295D01*
X184119048Y-84445295D02*
X184166667Y-84350057D01*
X184166667Y-84350057D02*
X184214286Y-84302438D01*
X184214286Y-84302438D02*
X184309524Y-84254819D01*
X185071429Y-85254819D02*
X185071429Y-84254819D01*
X185071429Y-84254819D02*
X185642857Y-85254819D01*
X185642857Y-85254819D02*
X185642857Y-84254819D01*
X186452381Y-84731009D02*
X186119048Y-84731009D01*
X186119048Y-85254819D02*
X186119048Y-84254819D01*
X186119048Y-84254819D02*
X186595238Y-84254819D01*
X187452381Y-84254819D02*
X186976191Y-84254819D01*
X186976191Y-84254819D02*
X186928572Y-84731009D01*
X186928572Y-84731009D02*
X186976191Y-84683390D01*
X186976191Y-84683390D02*
X187071429Y-84635771D01*
X187071429Y-84635771D02*
X187309524Y-84635771D01*
X187309524Y-84635771D02*
X187404762Y-84683390D01*
X187404762Y-84683390D02*
X187452381Y-84731009D01*
X187452381Y-84731009D02*
X187500000Y-84826247D01*
X187500000Y-84826247D02*
X187500000Y-85064342D01*
X187500000Y-85064342D02*
X187452381Y-85159580D01*
X187452381Y-85159580D02*
X187404762Y-85207200D01*
X187404762Y-85207200D02*
X187309524Y-85254819D01*
X187309524Y-85254819D02*
X187071429Y-85254819D01*
X187071429Y-85254819D02*
X186976191Y-85207200D01*
X186976191Y-85207200D02*
X186928572Y-85159580D01*
X188404762Y-84254819D02*
X187928572Y-84254819D01*
X187928572Y-84254819D02*
X187880953Y-84731009D01*
X187880953Y-84731009D02*
X187928572Y-84683390D01*
X187928572Y-84683390D02*
X188023810Y-84635771D01*
X188023810Y-84635771D02*
X188261905Y-84635771D01*
X188261905Y-84635771D02*
X188357143Y-84683390D01*
X188357143Y-84683390D02*
X188404762Y-84731009D01*
X188404762Y-84731009D02*
X188452381Y-84826247D01*
X188452381Y-84826247D02*
X188452381Y-85064342D01*
X188452381Y-85064342D02*
X188404762Y-85159580D01*
X188404762Y-85159580D02*
X188357143Y-85207200D01*
X188357143Y-85207200D02*
X188261905Y-85254819D01*
X188261905Y-85254819D02*
X188023810Y-85254819D01*
X188023810Y-85254819D02*
X187928572Y-85207200D01*
X187928572Y-85207200D02*
X187880953Y-85159580D01*
X188880953Y-84873866D02*
X189642858Y-84873866D01*
X190309524Y-84254819D02*
X190404762Y-84254819D01*
X190404762Y-84254819D02*
X190500000Y-84302438D01*
X190500000Y-84302438D02*
X190547619Y-84350057D01*
X190547619Y-84350057D02*
X190595238Y-84445295D01*
X190595238Y-84445295D02*
X190642857Y-84635771D01*
X190642857Y-84635771D02*
X190642857Y-84873866D01*
X190642857Y-84873866D02*
X190595238Y-85064342D01*
X190595238Y-85064342D02*
X190547619Y-85159580D01*
X190547619Y-85159580D02*
X190500000Y-85207200D01*
X190500000Y-85207200D02*
X190404762Y-85254819D01*
X190404762Y-85254819D02*
X190309524Y-85254819D01*
X190309524Y-85254819D02*
X190214286Y-85207200D01*
X190214286Y-85207200D02*
X190166667Y-85159580D01*
X190166667Y-85159580D02*
X190119048Y-85064342D01*
X190119048Y-85064342D02*
X190071429Y-84873866D01*
X190071429Y-84873866D02*
X190071429Y-84635771D01*
X190071429Y-84635771D02*
X190119048Y-84445295D01*
X190119048Y-84445295D02*
X190166667Y-84350057D01*
X190166667Y-84350057D02*
X190214286Y-84302438D01*
X190214286Y-84302438D02*
X190309524Y-84254819D01*
X191214286Y-84683390D02*
X191119048Y-84635771D01*
X191119048Y-84635771D02*
X191071429Y-84588152D01*
X191071429Y-84588152D02*
X191023810Y-84492914D01*
X191023810Y-84492914D02*
X191023810Y-84445295D01*
X191023810Y-84445295D02*
X191071429Y-84350057D01*
X191071429Y-84350057D02*
X191119048Y-84302438D01*
X191119048Y-84302438D02*
X191214286Y-84254819D01*
X191214286Y-84254819D02*
X191404762Y-84254819D01*
X191404762Y-84254819D02*
X191500000Y-84302438D01*
X191500000Y-84302438D02*
X191547619Y-84350057D01*
X191547619Y-84350057D02*
X191595238Y-84445295D01*
X191595238Y-84445295D02*
X191595238Y-84492914D01*
X191595238Y-84492914D02*
X191547619Y-84588152D01*
X191547619Y-84588152D02*
X191500000Y-84635771D01*
X191500000Y-84635771D02*
X191404762Y-84683390D01*
X191404762Y-84683390D02*
X191214286Y-84683390D01*
X191214286Y-84683390D02*
X191119048Y-84731009D01*
X191119048Y-84731009D02*
X191071429Y-84778628D01*
X191071429Y-84778628D02*
X191023810Y-84873866D01*
X191023810Y-84873866D02*
X191023810Y-85064342D01*
X191023810Y-85064342D02*
X191071429Y-85159580D01*
X191071429Y-85159580D02*
X191119048Y-85207200D01*
X191119048Y-85207200D02*
X191214286Y-85254819D01*
X191214286Y-85254819D02*
X191404762Y-85254819D01*
X191404762Y-85254819D02*
X191500000Y-85207200D01*
X191500000Y-85207200D02*
X191547619Y-85159580D01*
X191547619Y-85159580D02*
X191595238Y-85064342D01*
X191595238Y-85064342D02*
X191595238Y-84873866D01*
X191595238Y-84873866D02*
X191547619Y-84778628D01*
X191547619Y-84778628D02*
X191500000Y-84731009D01*
X191500000Y-84731009D02*
X191404762Y-84683390D01*
X185904761Y-69850057D02*
X185809523Y-69802438D01*
X185809523Y-69802438D02*
X185714285Y-69707200D01*
X185714285Y-69707200D02*
X185571428Y-69564342D01*
X185571428Y-69564342D02*
X185476190Y-69516723D01*
X185476190Y-69516723D02*
X185380952Y-69516723D01*
X185428571Y-69754819D02*
X185333333Y-69707200D01*
X185333333Y-69707200D02*
X185238095Y-69611961D01*
X185238095Y-69611961D02*
X185190476Y-69421485D01*
X185190476Y-69421485D02*
X185190476Y-69088152D01*
X185190476Y-69088152D02*
X185238095Y-68897676D01*
X185238095Y-68897676D02*
X185333333Y-68802438D01*
X185333333Y-68802438D02*
X185428571Y-68754819D01*
X185428571Y-68754819D02*
X185619047Y-68754819D01*
X185619047Y-68754819D02*
X185714285Y-68802438D01*
X185714285Y-68802438D02*
X185809523Y-68897676D01*
X185809523Y-68897676D02*
X185857142Y-69088152D01*
X185857142Y-69088152D02*
X185857142Y-69421485D01*
X185857142Y-69421485D02*
X185809523Y-69611961D01*
X185809523Y-69611961D02*
X185714285Y-69707200D01*
X185714285Y-69707200D02*
X185619047Y-69754819D01*
X185619047Y-69754819D02*
X185428571Y-69754819D01*
X186809523Y-69754819D02*
X186238095Y-69754819D01*
X186523809Y-69754819D02*
X186523809Y-68754819D01*
X186523809Y-68754819D02*
X186428571Y-68897676D01*
X186428571Y-68897676D02*
X186333333Y-68992914D01*
X186333333Y-68992914D02*
X186238095Y-69040533D01*
X213964762Y-83607200D02*
X214107619Y-83654819D01*
X214107619Y-83654819D02*
X214345714Y-83654819D01*
X214345714Y-83654819D02*
X214440952Y-83607200D01*
X214440952Y-83607200D02*
X214488571Y-83559580D01*
X214488571Y-83559580D02*
X214536190Y-83464342D01*
X214536190Y-83464342D02*
X214536190Y-83369104D01*
X214536190Y-83369104D02*
X214488571Y-83273866D01*
X214488571Y-83273866D02*
X214440952Y-83226247D01*
X214440952Y-83226247D02*
X214345714Y-83178628D01*
X214345714Y-83178628D02*
X214155238Y-83131009D01*
X214155238Y-83131009D02*
X214060000Y-83083390D01*
X214060000Y-83083390D02*
X214012381Y-83035771D01*
X214012381Y-83035771D02*
X213964762Y-82940533D01*
X213964762Y-82940533D02*
X213964762Y-82845295D01*
X213964762Y-82845295D02*
X214012381Y-82750057D01*
X214012381Y-82750057D02*
X214060000Y-82702438D01*
X214060000Y-82702438D02*
X214155238Y-82654819D01*
X214155238Y-82654819D02*
X214393333Y-82654819D01*
X214393333Y-82654819D02*
X214536190Y-82702438D01*
X214821905Y-82654819D02*
X215393333Y-82654819D01*
X215107619Y-83654819D02*
X215107619Y-82654819D01*
X215726667Y-83654819D02*
X215726667Y-82654819D01*
X215726667Y-82654819D02*
X216107619Y-82654819D01*
X216107619Y-82654819D02*
X216202857Y-82702438D01*
X216202857Y-82702438D02*
X216250476Y-82750057D01*
X216250476Y-82750057D02*
X216298095Y-82845295D01*
X216298095Y-82845295D02*
X216298095Y-82988152D01*
X216298095Y-82988152D02*
X216250476Y-83083390D01*
X216250476Y-83083390D02*
X216202857Y-83131009D01*
X216202857Y-83131009D02*
X216107619Y-83178628D01*
X216107619Y-83178628D02*
X215726667Y-83178628D01*
X216869524Y-83083390D02*
X216774286Y-83035771D01*
X216774286Y-83035771D02*
X216726667Y-82988152D01*
X216726667Y-82988152D02*
X216679048Y-82892914D01*
X216679048Y-82892914D02*
X216679048Y-82845295D01*
X216679048Y-82845295D02*
X216726667Y-82750057D01*
X216726667Y-82750057D02*
X216774286Y-82702438D01*
X216774286Y-82702438D02*
X216869524Y-82654819D01*
X216869524Y-82654819D02*
X217060000Y-82654819D01*
X217060000Y-82654819D02*
X217155238Y-82702438D01*
X217155238Y-82702438D02*
X217202857Y-82750057D01*
X217202857Y-82750057D02*
X217250476Y-82845295D01*
X217250476Y-82845295D02*
X217250476Y-82892914D01*
X217250476Y-82892914D02*
X217202857Y-82988152D01*
X217202857Y-82988152D02*
X217155238Y-83035771D01*
X217155238Y-83035771D02*
X217060000Y-83083390D01*
X217060000Y-83083390D02*
X216869524Y-83083390D01*
X216869524Y-83083390D02*
X216774286Y-83131009D01*
X216774286Y-83131009D02*
X216726667Y-83178628D01*
X216726667Y-83178628D02*
X216679048Y-83273866D01*
X216679048Y-83273866D02*
X216679048Y-83464342D01*
X216679048Y-83464342D02*
X216726667Y-83559580D01*
X216726667Y-83559580D02*
X216774286Y-83607200D01*
X216774286Y-83607200D02*
X216869524Y-83654819D01*
X216869524Y-83654819D02*
X217060000Y-83654819D01*
X217060000Y-83654819D02*
X217155238Y-83607200D01*
X217155238Y-83607200D02*
X217202857Y-83559580D01*
X217202857Y-83559580D02*
X217250476Y-83464342D01*
X217250476Y-83464342D02*
X217250476Y-83273866D01*
X217250476Y-83273866D02*
X217202857Y-83178628D01*
X217202857Y-83178628D02*
X217155238Y-83131009D01*
X217155238Y-83131009D02*
X217060000Y-83083390D01*
X217869524Y-82654819D02*
X217964762Y-82654819D01*
X217964762Y-82654819D02*
X218060000Y-82702438D01*
X218060000Y-82702438D02*
X218107619Y-82750057D01*
X218107619Y-82750057D02*
X218155238Y-82845295D01*
X218155238Y-82845295D02*
X218202857Y-83035771D01*
X218202857Y-83035771D02*
X218202857Y-83273866D01*
X218202857Y-83273866D02*
X218155238Y-83464342D01*
X218155238Y-83464342D02*
X218107619Y-83559580D01*
X218107619Y-83559580D02*
X218060000Y-83607200D01*
X218060000Y-83607200D02*
X217964762Y-83654819D01*
X217964762Y-83654819D02*
X217869524Y-83654819D01*
X217869524Y-83654819D02*
X217774286Y-83607200D01*
X217774286Y-83607200D02*
X217726667Y-83559580D01*
X217726667Y-83559580D02*
X217679048Y-83464342D01*
X217679048Y-83464342D02*
X217631429Y-83273866D01*
X217631429Y-83273866D02*
X217631429Y-83035771D01*
X217631429Y-83035771D02*
X217679048Y-82845295D01*
X217679048Y-82845295D02*
X217726667Y-82750057D01*
X217726667Y-82750057D02*
X217774286Y-82702438D01*
X217774286Y-82702438D02*
X217869524Y-82654819D01*
X218631429Y-83654819D02*
X218631429Y-82654819D01*
X218631429Y-82654819D02*
X219202857Y-83654819D01*
X219202857Y-83654819D02*
X219202857Y-82654819D01*
X220012381Y-83131009D02*
X219679048Y-83131009D01*
X219679048Y-83654819D02*
X219679048Y-82654819D01*
X219679048Y-82654819D02*
X220155238Y-82654819D01*
X221012381Y-82654819D02*
X220536191Y-82654819D01*
X220536191Y-82654819D02*
X220488572Y-83131009D01*
X220488572Y-83131009D02*
X220536191Y-83083390D01*
X220536191Y-83083390D02*
X220631429Y-83035771D01*
X220631429Y-83035771D02*
X220869524Y-83035771D01*
X220869524Y-83035771D02*
X220964762Y-83083390D01*
X220964762Y-83083390D02*
X221012381Y-83131009D01*
X221012381Y-83131009D02*
X221060000Y-83226247D01*
X221060000Y-83226247D02*
X221060000Y-83464342D01*
X221060000Y-83464342D02*
X221012381Y-83559580D01*
X221012381Y-83559580D02*
X220964762Y-83607200D01*
X220964762Y-83607200D02*
X220869524Y-83654819D01*
X220869524Y-83654819D02*
X220631429Y-83654819D01*
X220631429Y-83654819D02*
X220536191Y-83607200D01*
X220536191Y-83607200D02*
X220488572Y-83559580D01*
X221964762Y-82654819D02*
X221488572Y-82654819D01*
X221488572Y-82654819D02*
X221440953Y-83131009D01*
X221440953Y-83131009D02*
X221488572Y-83083390D01*
X221488572Y-83083390D02*
X221583810Y-83035771D01*
X221583810Y-83035771D02*
X221821905Y-83035771D01*
X221821905Y-83035771D02*
X221917143Y-83083390D01*
X221917143Y-83083390D02*
X221964762Y-83131009D01*
X221964762Y-83131009D02*
X222012381Y-83226247D01*
X222012381Y-83226247D02*
X222012381Y-83464342D01*
X222012381Y-83464342D02*
X221964762Y-83559580D01*
X221964762Y-83559580D02*
X221917143Y-83607200D01*
X221917143Y-83607200D02*
X221821905Y-83654819D01*
X221821905Y-83654819D02*
X221583810Y-83654819D01*
X221583810Y-83654819D02*
X221488572Y-83607200D01*
X221488572Y-83607200D02*
X221440953Y-83559580D01*
X222440953Y-83273866D02*
X223202858Y-83273866D01*
X223869524Y-82654819D02*
X223964762Y-82654819D01*
X223964762Y-82654819D02*
X224060000Y-82702438D01*
X224060000Y-82702438D02*
X224107619Y-82750057D01*
X224107619Y-82750057D02*
X224155238Y-82845295D01*
X224155238Y-82845295D02*
X224202857Y-83035771D01*
X224202857Y-83035771D02*
X224202857Y-83273866D01*
X224202857Y-83273866D02*
X224155238Y-83464342D01*
X224155238Y-83464342D02*
X224107619Y-83559580D01*
X224107619Y-83559580D02*
X224060000Y-83607200D01*
X224060000Y-83607200D02*
X223964762Y-83654819D01*
X223964762Y-83654819D02*
X223869524Y-83654819D01*
X223869524Y-83654819D02*
X223774286Y-83607200D01*
X223774286Y-83607200D02*
X223726667Y-83559580D01*
X223726667Y-83559580D02*
X223679048Y-83464342D01*
X223679048Y-83464342D02*
X223631429Y-83273866D01*
X223631429Y-83273866D02*
X223631429Y-83035771D01*
X223631429Y-83035771D02*
X223679048Y-82845295D01*
X223679048Y-82845295D02*
X223726667Y-82750057D01*
X223726667Y-82750057D02*
X223774286Y-82702438D01*
X223774286Y-82702438D02*
X223869524Y-82654819D01*
X224774286Y-83083390D02*
X224679048Y-83035771D01*
X224679048Y-83035771D02*
X224631429Y-82988152D01*
X224631429Y-82988152D02*
X224583810Y-82892914D01*
X224583810Y-82892914D02*
X224583810Y-82845295D01*
X224583810Y-82845295D02*
X224631429Y-82750057D01*
X224631429Y-82750057D02*
X224679048Y-82702438D01*
X224679048Y-82702438D02*
X224774286Y-82654819D01*
X224774286Y-82654819D02*
X224964762Y-82654819D01*
X224964762Y-82654819D02*
X225060000Y-82702438D01*
X225060000Y-82702438D02*
X225107619Y-82750057D01*
X225107619Y-82750057D02*
X225155238Y-82845295D01*
X225155238Y-82845295D02*
X225155238Y-82892914D01*
X225155238Y-82892914D02*
X225107619Y-82988152D01*
X225107619Y-82988152D02*
X225060000Y-83035771D01*
X225060000Y-83035771D02*
X224964762Y-83083390D01*
X224964762Y-83083390D02*
X224774286Y-83083390D01*
X224774286Y-83083390D02*
X224679048Y-83131009D01*
X224679048Y-83131009D02*
X224631429Y-83178628D01*
X224631429Y-83178628D02*
X224583810Y-83273866D01*
X224583810Y-83273866D02*
X224583810Y-83464342D01*
X224583810Y-83464342D02*
X224631429Y-83559580D01*
X224631429Y-83559580D02*
X224679048Y-83607200D01*
X224679048Y-83607200D02*
X224774286Y-83654819D01*
X224774286Y-83654819D02*
X224964762Y-83654819D01*
X224964762Y-83654819D02*
X225060000Y-83607200D01*
X225060000Y-83607200D02*
X225107619Y-83559580D01*
X225107619Y-83559580D02*
X225155238Y-83464342D01*
X225155238Y-83464342D02*
X225155238Y-83273866D01*
X225155238Y-83273866D02*
X225107619Y-83178628D01*
X225107619Y-83178628D02*
X225060000Y-83131009D01*
X225060000Y-83131009D02*
X224964762Y-83083390D01*
X219464761Y-69850057D02*
X219369523Y-69802438D01*
X219369523Y-69802438D02*
X219274285Y-69707200D01*
X219274285Y-69707200D02*
X219131428Y-69564342D01*
X219131428Y-69564342D02*
X219036190Y-69516723D01*
X219036190Y-69516723D02*
X218940952Y-69516723D01*
X218988571Y-69754819D02*
X218893333Y-69707200D01*
X218893333Y-69707200D02*
X218798095Y-69611961D01*
X218798095Y-69611961D02*
X218750476Y-69421485D01*
X218750476Y-69421485D02*
X218750476Y-69088152D01*
X218750476Y-69088152D02*
X218798095Y-68897676D01*
X218798095Y-68897676D02*
X218893333Y-68802438D01*
X218893333Y-68802438D02*
X218988571Y-68754819D01*
X218988571Y-68754819D02*
X219179047Y-68754819D01*
X219179047Y-68754819D02*
X219274285Y-68802438D01*
X219274285Y-68802438D02*
X219369523Y-68897676D01*
X219369523Y-68897676D02*
X219417142Y-69088152D01*
X219417142Y-69088152D02*
X219417142Y-69421485D01*
X219417142Y-69421485D02*
X219369523Y-69611961D01*
X219369523Y-69611961D02*
X219274285Y-69707200D01*
X219274285Y-69707200D02*
X219179047Y-69754819D01*
X219179047Y-69754819D02*
X218988571Y-69754819D01*
X220274285Y-69088152D02*
X220274285Y-69754819D01*
X220036190Y-68707200D02*
X219798095Y-69421485D01*
X219798095Y-69421485D02*
X220417142Y-69421485D01*
X213064819Y-100400475D02*
X213064819Y-99829047D01*
X214064819Y-100114761D02*
X213064819Y-100114761D01*
X213969580Y-98924285D02*
X214017200Y-98971904D01*
X214017200Y-98971904D02*
X214064819Y-99114761D01*
X214064819Y-99114761D02*
X214064819Y-99209999D01*
X214064819Y-99209999D02*
X214017200Y-99352856D01*
X214017200Y-99352856D02*
X213921961Y-99448094D01*
X213921961Y-99448094D02*
X213826723Y-99495713D01*
X213826723Y-99495713D02*
X213636247Y-99543332D01*
X213636247Y-99543332D02*
X213493390Y-99543332D01*
X213493390Y-99543332D02*
X213302914Y-99495713D01*
X213302914Y-99495713D02*
X213207676Y-99448094D01*
X213207676Y-99448094D02*
X213112438Y-99352856D01*
X213112438Y-99352856D02*
X213064819Y-99209999D01*
X213064819Y-99209999D02*
X213064819Y-99114761D01*
X213064819Y-99114761D02*
X213112438Y-98971904D01*
X213112438Y-98971904D02*
X213160057Y-98924285D01*
X213398152Y-98067142D02*
X214064819Y-98067142D01*
X213017200Y-98305237D02*
X213731485Y-98543332D01*
X213731485Y-98543332D02*
X213731485Y-97924285D01*
X213398152Y-97114761D02*
X214064819Y-97114761D01*
X213017200Y-97352856D02*
X213731485Y-97590951D01*
X213731485Y-97590951D02*
X213731485Y-96971904D01*
X213160057Y-96638570D02*
X213112438Y-96590951D01*
X213112438Y-96590951D02*
X213064819Y-96495713D01*
X213064819Y-96495713D02*
X213064819Y-96257618D01*
X213064819Y-96257618D02*
X213112438Y-96162380D01*
X213112438Y-96162380D02*
X213160057Y-96114761D01*
X213160057Y-96114761D02*
X213255295Y-96067142D01*
X213255295Y-96067142D02*
X213350533Y-96067142D01*
X213350533Y-96067142D02*
X213493390Y-96114761D01*
X213493390Y-96114761D02*
X214064819Y-96686189D01*
X214064819Y-96686189D02*
X214064819Y-96067142D01*
X213398152Y-95209999D02*
X214064819Y-95209999D01*
X213017200Y-95448094D02*
X213731485Y-95686189D01*
X213731485Y-95686189D02*
X213731485Y-95067142D01*
X206708095Y-97164819D02*
X206708095Y-97974342D01*
X206708095Y-97974342D02*
X206755714Y-98069580D01*
X206755714Y-98069580D02*
X206803333Y-98117200D01*
X206803333Y-98117200D02*
X206898571Y-98164819D01*
X206898571Y-98164819D02*
X207089047Y-98164819D01*
X207089047Y-98164819D02*
X207184285Y-98117200D01*
X207184285Y-98117200D02*
X207231904Y-98069580D01*
X207231904Y-98069580D02*
X207279523Y-97974342D01*
X207279523Y-97974342D02*
X207279523Y-97164819D01*
X207660476Y-97164819D02*
X208279523Y-97164819D01*
X208279523Y-97164819D02*
X207946190Y-97545771D01*
X207946190Y-97545771D02*
X208089047Y-97545771D01*
X208089047Y-97545771D02*
X208184285Y-97593390D01*
X208184285Y-97593390D02*
X208231904Y-97641009D01*
X208231904Y-97641009D02*
X208279523Y-97736247D01*
X208279523Y-97736247D02*
X208279523Y-97974342D01*
X208279523Y-97974342D02*
X208231904Y-98069580D01*
X208231904Y-98069580D02*
X208184285Y-98117200D01*
X208184285Y-98117200D02*
X208089047Y-98164819D01*
X208089047Y-98164819D02*
X207803333Y-98164819D01*
X207803333Y-98164819D02*
X207708095Y-98117200D01*
X207708095Y-98117200D02*
X207660476Y-98069580D01*
X168354819Y-66442856D02*
X168354819Y-66347618D01*
X168354819Y-66347618D02*
X168402438Y-66252380D01*
X168402438Y-66252380D02*
X168450057Y-66204761D01*
X168450057Y-66204761D02*
X168545295Y-66157142D01*
X168545295Y-66157142D02*
X168735771Y-66109523D01*
X168735771Y-66109523D02*
X168973866Y-66109523D01*
X168973866Y-66109523D02*
X169164342Y-66157142D01*
X169164342Y-66157142D02*
X169259580Y-66204761D01*
X169259580Y-66204761D02*
X169307200Y-66252380D01*
X169307200Y-66252380D02*
X169354819Y-66347618D01*
X169354819Y-66347618D02*
X169354819Y-66442856D01*
X169354819Y-66442856D02*
X169307200Y-66538094D01*
X169307200Y-66538094D02*
X169259580Y-66585713D01*
X169259580Y-66585713D02*
X169164342Y-66633332D01*
X169164342Y-66633332D02*
X168973866Y-66680951D01*
X168973866Y-66680951D02*
X168735771Y-66680951D01*
X168735771Y-66680951D02*
X168545295Y-66633332D01*
X168545295Y-66633332D02*
X168450057Y-66585713D01*
X168450057Y-66585713D02*
X168402438Y-66538094D01*
X168402438Y-66538094D02*
X168354819Y-66442856D01*
X169259580Y-65680951D02*
X169307200Y-65633332D01*
X169307200Y-65633332D02*
X169354819Y-65680951D01*
X169354819Y-65680951D02*
X169307200Y-65728570D01*
X169307200Y-65728570D02*
X169259580Y-65680951D01*
X169259580Y-65680951D02*
X169354819Y-65680951D01*
X169354819Y-64680952D02*
X169354819Y-65252380D01*
X169354819Y-64966666D02*
X168354819Y-64966666D01*
X168354819Y-64966666D02*
X168497676Y-65061904D01*
X168497676Y-65061904D02*
X168592914Y-65157142D01*
X168592914Y-65157142D02*
X168640533Y-65252380D01*
X168688152Y-63823809D02*
X169354819Y-63823809D01*
X168688152Y-64252380D02*
X169211961Y-64252380D01*
X169211961Y-64252380D02*
X169307200Y-64204761D01*
X169307200Y-64204761D02*
X169354819Y-64109523D01*
X169354819Y-64109523D02*
X169354819Y-63966666D01*
X169354819Y-63966666D02*
X169307200Y-63871428D01*
X169307200Y-63871428D02*
X169259580Y-63823809D01*
X168831009Y-63014285D02*
X168831009Y-63347618D01*
X169354819Y-63347618D02*
X168354819Y-63347618D01*
X168354819Y-63347618D02*
X168354819Y-62871428D01*
X166759580Y-64966666D02*
X166807200Y-65014285D01*
X166807200Y-65014285D02*
X166854819Y-65157142D01*
X166854819Y-65157142D02*
X166854819Y-65252380D01*
X166854819Y-65252380D02*
X166807200Y-65395237D01*
X166807200Y-65395237D02*
X166711961Y-65490475D01*
X166711961Y-65490475D02*
X166616723Y-65538094D01*
X166616723Y-65538094D02*
X166426247Y-65585713D01*
X166426247Y-65585713D02*
X166283390Y-65585713D01*
X166283390Y-65585713D02*
X166092914Y-65538094D01*
X166092914Y-65538094D02*
X165997676Y-65490475D01*
X165997676Y-65490475D02*
X165902438Y-65395237D01*
X165902438Y-65395237D02*
X165854819Y-65252380D01*
X165854819Y-65252380D02*
X165854819Y-65157142D01*
X165854819Y-65157142D02*
X165902438Y-65014285D01*
X165902438Y-65014285D02*
X165950057Y-64966666D01*
X165854819Y-64061904D02*
X165854819Y-64538094D01*
X165854819Y-64538094D02*
X166331009Y-64585713D01*
X166331009Y-64585713D02*
X166283390Y-64538094D01*
X166283390Y-64538094D02*
X166235771Y-64442856D01*
X166235771Y-64442856D02*
X166235771Y-64204761D01*
X166235771Y-64204761D02*
X166283390Y-64109523D01*
X166283390Y-64109523D02*
X166331009Y-64061904D01*
X166331009Y-64061904D02*
X166426247Y-64014285D01*
X166426247Y-64014285D02*
X166664342Y-64014285D01*
X166664342Y-64014285D02*
X166759580Y-64061904D01*
X166759580Y-64061904D02*
X166807200Y-64109523D01*
X166807200Y-64109523D02*
X166854819Y-64204761D01*
X166854819Y-64204761D02*
X166854819Y-64442856D01*
X166854819Y-64442856D02*
X166807200Y-64538094D01*
X166807200Y-64538094D02*
X166759580Y-64585713D01*
X182004819Y-66442856D02*
X182004819Y-66347618D01*
X182004819Y-66347618D02*
X182052438Y-66252380D01*
X182052438Y-66252380D02*
X182100057Y-66204761D01*
X182100057Y-66204761D02*
X182195295Y-66157142D01*
X182195295Y-66157142D02*
X182385771Y-66109523D01*
X182385771Y-66109523D02*
X182623866Y-66109523D01*
X182623866Y-66109523D02*
X182814342Y-66157142D01*
X182814342Y-66157142D02*
X182909580Y-66204761D01*
X182909580Y-66204761D02*
X182957200Y-66252380D01*
X182957200Y-66252380D02*
X183004819Y-66347618D01*
X183004819Y-66347618D02*
X183004819Y-66442856D01*
X183004819Y-66442856D02*
X182957200Y-66538094D01*
X182957200Y-66538094D02*
X182909580Y-66585713D01*
X182909580Y-66585713D02*
X182814342Y-66633332D01*
X182814342Y-66633332D02*
X182623866Y-66680951D01*
X182623866Y-66680951D02*
X182385771Y-66680951D01*
X182385771Y-66680951D02*
X182195295Y-66633332D01*
X182195295Y-66633332D02*
X182100057Y-66585713D01*
X182100057Y-66585713D02*
X182052438Y-66538094D01*
X182052438Y-66538094D02*
X182004819Y-66442856D01*
X182909580Y-65680951D02*
X182957200Y-65633332D01*
X182957200Y-65633332D02*
X183004819Y-65680951D01*
X183004819Y-65680951D02*
X182957200Y-65728570D01*
X182957200Y-65728570D02*
X182909580Y-65680951D01*
X182909580Y-65680951D02*
X183004819Y-65680951D01*
X183004819Y-64680952D02*
X183004819Y-65252380D01*
X183004819Y-64966666D02*
X182004819Y-64966666D01*
X182004819Y-64966666D02*
X182147676Y-65061904D01*
X182147676Y-65061904D02*
X182242914Y-65157142D01*
X182242914Y-65157142D02*
X182290533Y-65252380D01*
X182338152Y-63823809D02*
X183004819Y-63823809D01*
X182338152Y-64252380D02*
X182861961Y-64252380D01*
X182861961Y-64252380D02*
X182957200Y-64204761D01*
X182957200Y-64204761D02*
X183004819Y-64109523D01*
X183004819Y-64109523D02*
X183004819Y-63966666D01*
X183004819Y-63966666D02*
X182957200Y-63871428D01*
X182957200Y-63871428D02*
X182909580Y-63823809D01*
X182481009Y-63014285D02*
X182481009Y-63347618D01*
X183004819Y-63347618D02*
X182004819Y-63347618D01*
X182004819Y-63347618D02*
X182004819Y-62871428D01*
X185159580Y-64966666D02*
X185207200Y-65014285D01*
X185207200Y-65014285D02*
X185254819Y-65157142D01*
X185254819Y-65157142D02*
X185254819Y-65252380D01*
X185254819Y-65252380D02*
X185207200Y-65395237D01*
X185207200Y-65395237D02*
X185111961Y-65490475D01*
X185111961Y-65490475D02*
X185016723Y-65538094D01*
X185016723Y-65538094D02*
X184826247Y-65585713D01*
X184826247Y-65585713D02*
X184683390Y-65585713D01*
X184683390Y-65585713D02*
X184492914Y-65538094D01*
X184492914Y-65538094D02*
X184397676Y-65490475D01*
X184397676Y-65490475D02*
X184302438Y-65395237D01*
X184302438Y-65395237D02*
X184254819Y-65252380D01*
X184254819Y-65252380D02*
X184254819Y-65157142D01*
X184254819Y-65157142D02*
X184302438Y-65014285D01*
X184302438Y-65014285D02*
X184350057Y-64966666D01*
X184254819Y-64109523D02*
X184254819Y-64299999D01*
X184254819Y-64299999D02*
X184302438Y-64395237D01*
X184302438Y-64395237D02*
X184350057Y-64442856D01*
X184350057Y-64442856D02*
X184492914Y-64538094D01*
X184492914Y-64538094D02*
X184683390Y-64585713D01*
X184683390Y-64585713D02*
X185064342Y-64585713D01*
X185064342Y-64585713D02*
X185159580Y-64538094D01*
X185159580Y-64538094D02*
X185207200Y-64490475D01*
X185207200Y-64490475D02*
X185254819Y-64395237D01*
X185254819Y-64395237D02*
X185254819Y-64204761D01*
X185254819Y-64204761D02*
X185207200Y-64109523D01*
X185207200Y-64109523D02*
X185159580Y-64061904D01*
X185159580Y-64061904D02*
X185064342Y-64014285D01*
X185064342Y-64014285D02*
X184826247Y-64014285D01*
X184826247Y-64014285D02*
X184731009Y-64061904D01*
X184731009Y-64061904D02*
X184683390Y-64109523D01*
X184683390Y-64109523D02*
X184635771Y-64204761D01*
X184635771Y-64204761D02*
X184635771Y-64395237D01*
X184635771Y-64395237D02*
X184683390Y-64490475D01*
X184683390Y-64490475D02*
X184731009Y-64538094D01*
X184731009Y-64538094D02*
X184826247Y-64585713D01*
X203780746Y-52554819D02*
X203780746Y-51554819D01*
X203780746Y-51554819D02*
X204018841Y-51554819D01*
X204018841Y-51554819D02*
X204161698Y-51602438D01*
X204161698Y-51602438D02*
X204256936Y-51697676D01*
X204256936Y-51697676D02*
X204304555Y-51792914D01*
X204304555Y-51792914D02*
X204352174Y-51983390D01*
X204352174Y-51983390D02*
X204352174Y-52126247D01*
X204352174Y-52126247D02*
X204304555Y-52316723D01*
X204304555Y-52316723D02*
X204256936Y-52411961D01*
X204256936Y-52411961D02*
X204161698Y-52507200D01*
X204161698Y-52507200D02*
X204018841Y-52554819D01*
X204018841Y-52554819D02*
X203780746Y-52554819D01*
D11*
X203342175Y-54463855D02*
X203342175Y-53663855D01*
X203342175Y-53663855D02*
X203532651Y-53663855D01*
X203532651Y-53663855D02*
X203646937Y-53701950D01*
X203646937Y-53701950D02*
X203723127Y-53778140D01*
X203723127Y-53778140D02*
X203761222Y-53854331D01*
X203761222Y-53854331D02*
X203799318Y-54006712D01*
X203799318Y-54006712D02*
X203799318Y-54120998D01*
X203799318Y-54120998D02*
X203761222Y-54273379D01*
X203761222Y-54273379D02*
X203723127Y-54349569D01*
X203723127Y-54349569D02*
X203646937Y-54425760D01*
X203646937Y-54425760D02*
X203532651Y-54463855D01*
X203532651Y-54463855D02*
X203342175Y-54463855D01*
X204561222Y-54463855D02*
X204104079Y-54463855D01*
X204332651Y-54463855D02*
X204332651Y-53663855D01*
X204332651Y-53663855D02*
X204256460Y-53778140D01*
X204256460Y-53778140D02*
X204180270Y-53854331D01*
X204180270Y-53854331D02*
X204104079Y-53892426D01*
D10*
X209260746Y-54554819D02*
X209260746Y-53554819D01*
X209832174Y-54554819D02*
X209403603Y-53983390D01*
X209832174Y-53554819D02*
X209260746Y-54126247D01*
X191664762Y-83607200D02*
X191807619Y-83654819D01*
X191807619Y-83654819D02*
X192045714Y-83654819D01*
X192045714Y-83654819D02*
X192140952Y-83607200D01*
X192140952Y-83607200D02*
X192188571Y-83559580D01*
X192188571Y-83559580D02*
X192236190Y-83464342D01*
X192236190Y-83464342D02*
X192236190Y-83369104D01*
X192236190Y-83369104D02*
X192188571Y-83273866D01*
X192188571Y-83273866D02*
X192140952Y-83226247D01*
X192140952Y-83226247D02*
X192045714Y-83178628D01*
X192045714Y-83178628D02*
X191855238Y-83131009D01*
X191855238Y-83131009D02*
X191760000Y-83083390D01*
X191760000Y-83083390D02*
X191712381Y-83035771D01*
X191712381Y-83035771D02*
X191664762Y-82940533D01*
X191664762Y-82940533D02*
X191664762Y-82845295D01*
X191664762Y-82845295D02*
X191712381Y-82750057D01*
X191712381Y-82750057D02*
X191760000Y-82702438D01*
X191760000Y-82702438D02*
X191855238Y-82654819D01*
X191855238Y-82654819D02*
X192093333Y-82654819D01*
X192093333Y-82654819D02*
X192236190Y-82702438D01*
X192521905Y-82654819D02*
X193093333Y-82654819D01*
X192807619Y-83654819D02*
X192807619Y-82654819D01*
X193426667Y-83654819D02*
X193426667Y-82654819D01*
X193426667Y-82654819D02*
X193807619Y-82654819D01*
X193807619Y-82654819D02*
X193902857Y-82702438D01*
X193902857Y-82702438D02*
X193950476Y-82750057D01*
X193950476Y-82750057D02*
X193998095Y-82845295D01*
X193998095Y-82845295D02*
X193998095Y-82988152D01*
X193998095Y-82988152D02*
X193950476Y-83083390D01*
X193950476Y-83083390D02*
X193902857Y-83131009D01*
X193902857Y-83131009D02*
X193807619Y-83178628D01*
X193807619Y-83178628D02*
X193426667Y-83178628D01*
X194569524Y-83083390D02*
X194474286Y-83035771D01*
X194474286Y-83035771D02*
X194426667Y-82988152D01*
X194426667Y-82988152D02*
X194379048Y-82892914D01*
X194379048Y-82892914D02*
X194379048Y-82845295D01*
X194379048Y-82845295D02*
X194426667Y-82750057D01*
X194426667Y-82750057D02*
X194474286Y-82702438D01*
X194474286Y-82702438D02*
X194569524Y-82654819D01*
X194569524Y-82654819D02*
X194760000Y-82654819D01*
X194760000Y-82654819D02*
X194855238Y-82702438D01*
X194855238Y-82702438D02*
X194902857Y-82750057D01*
X194902857Y-82750057D02*
X194950476Y-82845295D01*
X194950476Y-82845295D02*
X194950476Y-82892914D01*
X194950476Y-82892914D02*
X194902857Y-82988152D01*
X194902857Y-82988152D02*
X194855238Y-83035771D01*
X194855238Y-83035771D02*
X194760000Y-83083390D01*
X194760000Y-83083390D02*
X194569524Y-83083390D01*
X194569524Y-83083390D02*
X194474286Y-83131009D01*
X194474286Y-83131009D02*
X194426667Y-83178628D01*
X194426667Y-83178628D02*
X194379048Y-83273866D01*
X194379048Y-83273866D02*
X194379048Y-83464342D01*
X194379048Y-83464342D02*
X194426667Y-83559580D01*
X194426667Y-83559580D02*
X194474286Y-83607200D01*
X194474286Y-83607200D02*
X194569524Y-83654819D01*
X194569524Y-83654819D02*
X194760000Y-83654819D01*
X194760000Y-83654819D02*
X194855238Y-83607200D01*
X194855238Y-83607200D02*
X194902857Y-83559580D01*
X194902857Y-83559580D02*
X194950476Y-83464342D01*
X194950476Y-83464342D02*
X194950476Y-83273866D01*
X194950476Y-83273866D02*
X194902857Y-83178628D01*
X194902857Y-83178628D02*
X194855238Y-83131009D01*
X194855238Y-83131009D02*
X194760000Y-83083390D01*
X195569524Y-82654819D02*
X195664762Y-82654819D01*
X195664762Y-82654819D02*
X195760000Y-82702438D01*
X195760000Y-82702438D02*
X195807619Y-82750057D01*
X195807619Y-82750057D02*
X195855238Y-82845295D01*
X195855238Y-82845295D02*
X195902857Y-83035771D01*
X195902857Y-83035771D02*
X195902857Y-83273866D01*
X195902857Y-83273866D02*
X195855238Y-83464342D01*
X195855238Y-83464342D02*
X195807619Y-83559580D01*
X195807619Y-83559580D02*
X195760000Y-83607200D01*
X195760000Y-83607200D02*
X195664762Y-83654819D01*
X195664762Y-83654819D02*
X195569524Y-83654819D01*
X195569524Y-83654819D02*
X195474286Y-83607200D01*
X195474286Y-83607200D02*
X195426667Y-83559580D01*
X195426667Y-83559580D02*
X195379048Y-83464342D01*
X195379048Y-83464342D02*
X195331429Y-83273866D01*
X195331429Y-83273866D02*
X195331429Y-83035771D01*
X195331429Y-83035771D02*
X195379048Y-82845295D01*
X195379048Y-82845295D02*
X195426667Y-82750057D01*
X195426667Y-82750057D02*
X195474286Y-82702438D01*
X195474286Y-82702438D02*
X195569524Y-82654819D01*
X196331429Y-83654819D02*
X196331429Y-82654819D01*
X196331429Y-82654819D02*
X196902857Y-83654819D01*
X196902857Y-83654819D02*
X196902857Y-82654819D01*
X197712381Y-83131009D02*
X197379048Y-83131009D01*
X197379048Y-83654819D02*
X197379048Y-82654819D01*
X197379048Y-82654819D02*
X197855238Y-82654819D01*
X198712381Y-82654819D02*
X198236191Y-82654819D01*
X198236191Y-82654819D02*
X198188572Y-83131009D01*
X198188572Y-83131009D02*
X198236191Y-83083390D01*
X198236191Y-83083390D02*
X198331429Y-83035771D01*
X198331429Y-83035771D02*
X198569524Y-83035771D01*
X198569524Y-83035771D02*
X198664762Y-83083390D01*
X198664762Y-83083390D02*
X198712381Y-83131009D01*
X198712381Y-83131009D02*
X198760000Y-83226247D01*
X198760000Y-83226247D02*
X198760000Y-83464342D01*
X198760000Y-83464342D02*
X198712381Y-83559580D01*
X198712381Y-83559580D02*
X198664762Y-83607200D01*
X198664762Y-83607200D02*
X198569524Y-83654819D01*
X198569524Y-83654819D02*
X198331429Y-83654819D01*
X198331429Y-83654819D02*
X198236191Y-83607200D01*
X198236191Y-83607200D02*
X198188572Y-83559580D01*
X199664762Y-82654819D02*
X199188572Y-82654819D01*
X199188572Y-82654819D02*
X199140953Y-83131009D01*
X199140953Y-83131009D02*
X199188572Y-83083390D01*
X199188572Y-83083390D02*
X199283810Y-83035771D01*
X199283810Y-83035771D02*
X199521905Y-83035771D01*
X199521905Y-83035771D02*
X199617143Y-83083390D01*
X199617143Y-83083390D02*
X199664762Y-83131009D01*
X199664762Y-83131009D02*
X199712381Y-83226247D01*
X199712381Y-83226247D02*
X199712381Y-83464342D01*
X199712381Y-83464342D02*
X199664762Y-83559580D01*
X199664762Y-83559580D02*
X199617143Y-83607200D01*
X199617143Y-83607200D02*
X199521905Y-83654819D01*
X199521905Y-83654819D02*
X199283810Y-83654819D01*
X199283810Y-83654819D02*
X199188572Y-83607200D01*
X199188572Y-83607200D02*
X199140953Y-83559580D01*
X200140953Y-83273866D02*
X200902858Y-83273866D01*
X201569524Y-82654819D02*
X201664762Y-82654819D01*
X201664762Y-82654819D02*
X201760000Y-82702438D01*
X201760000Y-82702438D02*
X201807619Y-82750057D01*
X201807619Y-82750057D02*
X201855238Y-82845295D01*
X201855238Y-82845295D02*
X201902857Y-83035771D01*
X201902857Y-83035771D02*
X201902857Y-83273866D01*
X201902857Y-83273866D02*
X201855238Y-83464342D01*
X201855238Y-83464342D02*
X201807619Y-83559580D01*
X201807619Y-83559580D02*
X201760000Y-83607200D01*
X201760000Y-83607200D02*
X201664762Y-83654819D01*
X201664762Y-83654819D02*
X201569524Y-83654819D01*
X201569524Y-83654819D02*
X201474286Y-83607200D01*
X201474286Y-83607200D02*
X201426667Y-83559580D01*
X201426667Y-83559580D02*
X201379048Y-83464342D01*
X201379048Y-83464342D02*
X201331429Y-83273866D01*
X201331429Y-83273866D02*
X201331429Y-83035771D01*
X201331429Y-83035771D02*
X201379048Y-82845295D01*
X201379048Y-82845295D02*
X201426667Y-82750057D01*
X201426667Y-82750057D02*
X201474286Y-82702438D01*
X201474286Y-82702438D02*
X201569524Y-82654819D01*
X202474286Y-83083390D02*
X202379048Y-83035771D01*
X202379048Y-83035771D02*
X202331429Y-82988152D01*
X202331429Y-82988152D02*
X202283810Y-82892914D01*
X202283810Y-82892914D02*
X202283810Y-82845295D01*
X202283810Y-82845295D02*
X202331429Y-82750057D01*
X202331429Y-82750057D02*
X202379048Y-82702438D01*
X202379048Y-82702438D02*
X202474286Y-82654819D01*
X202474286Y-82654819D02*
X202664762Y-82654819D01*
X202664762Y-82654819D02*
X202760000Y-82702438D01*
X202760000Y-82702438D02*
X202807619Y-82750057D01*
X202807619Y-82750057D02*
X202855238Y-82845295D01*
X202855238Y-82845295D02*
X202855238Y-82892914D01*
X202855238Y-82892914D02*
X202807619Y-82988152D01*
X202807619Y-82988152D02*
X202760000Y-83035771D01*
X202760000Y-83035771D02*
X202664762Y-83083390D01*
X202664762Y-83083390D02*
X202474286Y-83083390D01*
X202474286Y-83083390D02*
X202379048Y-83131009D01*
X202379048Y-83131009D02*
X202331429Y-83178628D01*
X202331429Y-83178628D02*
X202283810Y-83273866D01*
X202283810Y-83273866D02*
X202283810Y-83464342D01*
X202283810Y-83464342D02*
X202331429Y-83559580D01*
X202331429Y-83559580D02*
X202379048Y-83607200D01*
X202379048Y-83607200D02*
X202474286Y-83654819D01*
X202474286Y-83654819D02*
X202664762Y-83654819D01*
X202664762Y-83654819D02*
X202760000Y-83607200D01*
X202760000Y-83607200D02*
X202807619Y-83559580D01*
X202807619Y-83559580D02*
X202855238Y-83464342D01*
X202855238Y-83464342D02*
X202855238Y-83273866D01*
X202855238Y-83273866D02*
X202807619Y-83178628D01*
X202807619Y-83178628D02*
X202760000Y-83131009D01*
X202760000Y-83131009D02*
X202664762Y-83083390D01*
X197164761Y-69850057D02*
X197069523Y-69802438D01*
X197069523Y-69802438D02*
X196974285Y-69707200D01*
X196974285Y-69707200D02*
X196831428Y-69564342D01*
X196831428Y-69564342D02*
X196736190Y-69516723D01*
X196736190Y-69516723D02*
X196640952Y-69516723D01*
X196688571Y-69754819D02*
X196593333Y-69707200D01*
X196593333Y-69707200D02*
X196498095Y-69611961D01*
X196498095Y-69611961D02*
X196450476Y-69421485D01*
X196450476Y-69421485D02*
X196450476Y-69088152D01*
X196450476Y-69088152D02*
X196498095Y-68897676D01*
X196498095Y-68897676D02*
X196593333Y-68802438D01*
X196593333Y-68802438D02*
X196688571Y-68754819D01*
X196688571Y-68754819D02*
X196879047Y-68754819D01*
X196879047Y-68754819D02*
X196974285Y-68802438D01*
X196974285Y-68802438D02*
X197069523Y-68897676D01*
X197069523Y-68897676D02*
X197117142Y-69088152D01*
X197117142Y-69088152D02*
X197117142Y-69421485D01*
X197117142Y-69421485D02*
X197069523Y-69611961D01*
X197069523Y-69611961D02*
X196974285Y-69707200D01*
X196974285Y-69707200D02*
X196879047Y-69754819D01*
X196879047Y-69754819D02*
X196688571Y-69754819D01*
X197498095Y-68850057D02*
X197545714Y-68802438D01*
X197545714Y-68802438D02*
X197640952Y-68754819D01*
X197640952Y-68754819D02*
X197879047Y-68754819D01*
X197879047Y-68754819D02*
X197974285Y-68802438D01*
X197974285Y-68802438D02*
X198021904Y-68850057D01*
X198021904Y-68850057D02*
X198069523Y-68945295D01*
X198069523Y-68945295D02*
X198069523Y-69040533D01*
X198069523Y-69040533D02*
X198021904Y-69183390D01*
X198021904Y-69183390D02*
X197450476Y-69754819D01*
X197450476Y-69754819D02*
X198069523Y-69754819D01*
X203670746Y-55034819D02*
X203670746Y-54034819D01*
X203670746Y-54034819D02*
X203908841Y-54034819D01*
X203908841Y-54034819D02*
X204051698Y-54082438D01*
X204051698Y-54082438D02*
X204146936Y-54177676D01*
X204146936Y-54177676D02*
X204194555Y-54272914D01*
X204194555Y-54272914D02*
X204242174Y-54463390D01*
X204242174Y-54463390D02*
X204242174Y-54606247D01*
X204242174Y-54606247D02*
X204194555Y-54796723D01*
X204194555Y-54796723D02*
X204146936Y-54891961D01*
X204146936Y-54891961D02*
X204051698Y-54987200D01*
X204051698Y-54987200D02*
X203908841Y-55034819D01*
X203908841Y-55034819D02*
X203670746Y-55034819D01*
D11*
X203352175Y-57063855D02*
X203352175Y-56263855D01*
X203352175Y-56263855D02*
X203542651Y-56263855D01*
X203542651Y-56263855D02*
X203656937Y-56301950D01*
X203656937Y-56301950D02*
X203733127Y-56378140D01*
X203733127Y-56378140D02*
X203771222Y-56454331D01*
X203771222Y-56454331D02*
X203809318Y-56606712D01*
X203809318Y-56606712D02*
X203809318Y-56720998D01*
X203809318Y-56720998D02*
X203771222Y-56873379D01*
X203771222Y-56873379D02*
X203733127Y-56949569D01*
X203733127Y-56949569D02*
X203656937Y-57025760D01*
X203656937Y-57025760D02*
X203542651Y-57063855D01*
X203542651Y-57063855D02*
X203352175Y-57063855D01*
X204114079Y-56340045D02*
X204152175Y-56301950D01*
X204152175Y-56301950D02*
X204228365Y-56263855D01*
X204228365Y-56263855D02*
X204418841Y-56263855D01*
X204418841Y-56263855D02*
X204495032Y-56301950D01*
X204495032Y-56301950D02*
X204533127Y-56340045D01*
X204533127Y-56340045D02*
X204571222Y-56416236D01*
X204571222Y-56416236D02*
X204571222Y-56492426D01*
X204571222Y-56492426D02*
X204533127Y-56606712D01*
X204533127Y-56606712D02*
X204075984Y-57063855D01*
X204075984Y-57063855D02*
X204571222Y-57063855D01*
D10*
X209370746Y-57154819D02*
X209370746Y-56154819D01*
X209942174Y-57154819D02*
X209513603Y-56583390D01*
X209942174Y-56154819D02*
X209370746Y-56726247D01*
X189960952Y-60824819D02*
X189389524Y-60824819D01*
X189675238Y-60824819D02*
X189675238Y-59824819D01*
X189675238Y-59824819D02*
X189580000Y-59967676D01*
X189580000Y-59967676D02*
X189484762Y-60062914D01*
X189484762Y-60062914D02*
X189389524Y-60110533D01*
X190389524Y-60824819D02*
X190389524Y-59824819D01*
X190484762Y-60443866D02*
X190770476Y-60824819D01*
X190770476Y-60158152D02*
X190389524Y-60539104D01*
X189913333Y-58454819D02*
X189580000Y-57978628D01*
X189341905Y-58454819D02*
X189341905Y-57454819D01*
X189341905Y-57454819D02*
X189722857Y-57454819D01*
X189722857Y-57454819D02*
X189818095Y-57502438D01*
X189818095Y-57502438D02*
X189865714Y-57550057D01*
X189865714Y-57550057D02*
X189913333Y-57645295D01*
X189913333Y-57645295D02*
X189913333Y-57788152D01*
X189913333Y-57788152D02*
X189865714Y-57883390D01*
X189865714Y-57883390D02*
X189818095Y-57931009D01*
X189818095Y-57931009D02*
X189722857Y-57978628D01*
X189722857Y-57978628D02*
X189341905Y-57978628D01*
X190818095Y-57454819D02*
X190341905Y-57454819D01*
X190341905Y-57454819D02*
X190294286Y-57931009D01*
X190294286Y-57931009D02*
X190341905Y-57883390D01*
X190341905Y-57883390D02*
X190437143Y-57835771D01*
X190437143Y-57835771D02*
X190675238Y-57835771D01*
X190675238Y-57835771D02*
X190770476Y-57883390D01*
X190770476Y-57883390D02*
X190818095Y-57931009D01*
X190818095Y-57931009D02*
X190865714Y-58026247D01*
X190865714Y-58026247D02*
X190865714Y-58264342D01*
X190865714Y-58264342D02*
X190818095Y-58359580D01*
X190818095Y-58359580D02*
X190770476Y-58407200D01*
X190770476Y-58407200D02*
X190675238Y-58454819D01*
X190675238Y-58454819D02*
X190437143Y-58454819D01*
X190437143Y-58454819D02*
X190341905Y-58407200D01*
X190341905Y-58407200D02*
X190294286Y-58359580D01*
X198020057Y-108200951D02*
X197972438Y-108153332D01*
X197972438Y-108153332D02*
X197924819Y-108058094D01*
X197924819Y-108058094D02*
X197924819Y-107819999D01*
X197924819Y-107819999D02*
X197972438Y-107724761D01*
X197972438Y-107724761D02*
X198020057Y-107677142D01*
X198020057Y-107677142D02*
X198115295Y-107629523D01*
X198115295Y-107629523D02*
X198210533Y-107629523D01*
X198210533Y-107629523D02*
X198353390Y-107677142D01*
X198353390Y-107677142D02*
X198924819Y-108248570D01*
X198924819Y-108248570D02*
X198924819Y-107629523D01*
X198829580Y-107200951D02*
X198877200Y-107153332D01*
X198877200Y-107153332D02*
X198924819Y-107200951D01*
X198924819Y-107200951D02*
X198877200Y-107248570D01*
X198877200Y-107248570D02*
X198829580Y-107200951D01*
X198829580Y-107200951D02*
X198924819Y-107200951D01*
X198258152Y-106296190D02*
X198924819Y-106296190D01*
X197877200Y-106534285D02*
X198591485Y-106772380D01*
X198591485Y-106772380D02*
X198591485Y-106153333D01*
X198924819Y-105724761D02*
X198924819Y-105534285D01*
X198924819Y-105534285D02*
X198877200Y-105439047D01*
X198877200Y-105439047D02*
X198829580Y-105391428D01*
X198829580Y-105391428D02*
X198686723Y-105296190D01*
X198686723Y-105296190D02*
X198496247Y-105248571D01*
X198496247Y-105248571D02*
X198115295Y-105248571D01*
X198115295Y-105248571D02*
X198020057Y-105296190D01*
X198020057Y-105296190D02*
X197972438Y-105343809D01*
X197972438Y-105343809D02*
X197924819Y-105439047D01*
X197924819Y-105439047D02*
X197924819Y-105629523D01*
X197924819Y-105629523D02*
X197972438Y-105724761D01*
X197972438Y-105724761D02*
X198020057Y-105772380D01*
X198020057Y-105772380D02*
X198115295Y-105819999D01*
X198115295Y-105819999D02*
X198353390Y-105819999D01*
X198353390Y-105819999D02*
X198448628Y-105772380D01*
X198448628Y-105772380D02*
X198496247Y-105724761D01*
X198496247Y-105724761D02*
X198543866Y-105629523D01*
X198543866Y-105629523D02*
X198543866Y-105439047D01*
X198543866Y-105439047D02*
X198496247Y-105343809D01*
X198496247Y-105343809D02*
X198448628Y-105296190D01*
X198448628Y-105296190D02*
X198353390Y-105248571D01*
X198924819Y-104819999D02*
X197924819Y-104819999D01*
X198543866Y-104724761D02*
X198924819Y-104439047D01*
X198258152Y-104439047D02*
X198639104Y-104819999D01*
X196554819Y-106486666D02*
X196078628Y-106819999D01*
X196554819Y-107058094D02*
X195554819Y-107058094D01*
X195554819Y-107058094D02*
X195554819Y-106677142D01*
X195554819Y-106677142D02*
X195602438Y-106581904D01*
X195602438Y-106581904D02*
X195650057Y-106534285D01*
X195650057Y-106534285D02*
X195745295Y-106486666D01*
X195745295Y-106486666D02*
X195888152Y-106486666D01*
X195888152Y-106486666D02*
X195983390Y-106534285D01*
X195983390Y-106534285D02*
X196031009Y-106581904D01*
X196031009Y-106581904D02*
X196078628Y-106677142D01*
X196078628Y-106677142D02*
X196078628Y-107058094D01*
X196554819Y-106010475D02*
X196554819Y-105819999D01*
X196554819Y-105819999D02*
X196507200Y-105724761D01*
X196507200Y-105724761D02*
X196459580Y-105677142D01*
X196459580Y-105677142D02*
X196316723Y-105581904D01*
X196316723Y-105581904D02*
X196126247Y-105534285D01*
X196126247Y-105534285D02*
X195745295Y-105534285D01*
X195745295Y-105534285D02*
X195650057Y-105581904D01*
X195650057Y-105581904D02*
X195602438Y-105629523D01*
X195602438Y-105629523D02*
X195554819Y-105724761D01*
X195554819Y-105724761D02*
X195554819Y-105915237D01*
X195554819Y-105915237D02*
X195602438Y-106010475D01*
X195602438Y-106010475D02*
X195650057Y-106058094D01*
X195650057Y-106058094D02*
X195745295Y-106105713D01*
X195745295Y-106105713D02*
X195983390Y-106105713D01*
X195983390Y-106105713D02*
X196078628Y-106058094D01*
X196078628Y-106058094D02*
X196126247Y-106010475D01*
X196126247Y-106010475D02*
X196173866Y-105915237D01*
X196173866Y-105915237D02*
X196173866Y-105724761D01*
X196173866Y-105724761D02*
X196126247Y-105629523D01*
X196126247Y-105629523D02*
X196078628Y-105581904D01*
X196078628Y-105581904D02*
X195983390Y-105534285D01*
%TO.C,U4*%
D12*
X214830000Y-94515000D02*
X224990000Y-94515000D01*
X214830000Y-99865000D02*
X214830000Y-94515000D01*
X215830000Y-100865000D02*
X214830000Y-99865000D01*
X224990000Y-94515000D02*
X224990000Y-100865000D01*
X224990000Y-100865000D02*
X215830000Y-100865000D01*
X214770000Y-92610000D02*
X225050000Y-92610000D01*
X225050000Y-102770000D01*
X214770000Y-102770000D01*
X214770000Y-92610000D01*
%TO.C,D3*%
X211012651Y-54100000D02*
X212822651Y-54100000D01*
X212822651Y-53100000D02*
X212822651Y-55100000D01*
X212822651Y-55100000D02*
X216822651Y-55100000D01*
X216122651Y-55100000D02*
X216122651Y-53100000D01*
X216222651Y-55100000D02*
X216222651Y-53100000D01*
X216322651Y-55100000D02*
X216322651Y-53100000D01*
X216822651Y-53100000D02*
X212822651Y-53100000D01*
X216822651Y-55100000D02*
X216822651Y-53100000D01*
X218632651Y-54100000D02*
X216822651Y-54100000D01*
%TO.C,C4*%
X168887500Y-70266395D02*
X168887500Y-70766395D01*
X169137500Y-70516395D02*
X168637500Y-70516395D01*
X170300000Y-72400000D02*
G75*
G02*
X165300000Y-72400000I-2500000J0D01*
G01*
X165300000Y-72400000D02*
G75*
G02*
X170300000Y-72400000I2500000J0D01*
G01*
%TO.C,R6*%
X185000000Y-54900000D02*
X186930000Y-54900000D01*
X195160000Y-54900000D02*
X193230000Y-54900000D01*
X186930000Y-53650000D02*
X193230000Y-53650000D01*
X193230000Y-56150000D01*
X186930000Y-56150000D01*
X186930000Y-53650000D01*
%TO.C,R4*%
X184800000Y-94500000D02*
X184800000Y-96430000D01*
X184800000Y-104660000D02*
X184800000Y-102730000D01*
X183550000Y-96430000D02*
X186050000Y-96430000D01*
X186050000Y-102730000D01*
X183550000Y-102730000D01*
X183550000Y-96430000D01*
%TO.C,D5*%
X199956461Y-51630000D02*
X202288841Y-51630000D01*
X199956461Y-51630000D02*
G75*
G02*
X202288900Y-51629954I1166190J1500000D01*
G01*
X202622651Y-50130000D02*
G75*
G02*
X199622651Y-50130000I-1500000J0D01*
G01*
X199622651Y-50130000D02*
G75*
G02*
X202622651Y-50130000I1500000J0D01*
G01*
%TO.C,R3*%
X181600000Y-94500000D02*
X181600000Y-96430000D01*
X181600000Y-104660000D02*
X181600000Y-102730000D01*
X180350000Y-96430000D02*
X182850000Y-96430000D01*
X182850000Y-102730000D01*
X180350000Y-102730000D01*
X180350000Y-96430000D01*
%TO.C,D7*%
X208956461Y-51630000D02*
X211288841Y-51630000D01*
X208956461Y-51630000D02*
G75*
G02*
X211288900Y-51629954I1166190J1500000D01*
G01*
X211622651Y-50130000D02*
G75*
G02*
X208622651Y-50130000I-1500000J0D01*
G01*
X208622651Y-50130000D02*
G75*
G02*
X211622651Y-50130000I1500000J0D01*
G01*
%TO.C,R8*%
X185000000Y-48700000D02*
X186930000Y-48700000D01*
X186930000Y-47450000D02*
X186930000Y-49950000D01*
X186930000Y-49950000D02*
X193230000Y-49950000D01*
X193230000Y-47450000D02*
X186930000Y-47450000D01*
X193230000Y-49950000D02*
X193230000Y-47450000D01*
X195160000Y-48700000D02*
X193230000Y-48700000D01*
%TO.C,C1*%
X185100000Y-110150000D02*
X190100000Y-110150000D01*
X190100000Y-112650000D01*
X185100000Y-112650000D01*
X185100000Y-110150000D01*
%TO.C,D8*%
X213456461Y-51590000D02*
X215788841Y-51590000D01*
X213456461Y-51590000D02*
G75*
G02*
X215788900Y-51589954I1166190J1500000D01*
G01*
X216122651Y-50090000D02*
G75*
G02*
X213122651Y-50090000I-1500000J0D01*
G01*
X213122651Y-50090000D02*
G75*
G02*
X216122651Y-50090000I1500000J0D01*
G01*
%TO.C,C2*%
X201250000Y-106400000D02*
X203750000Y-106400000D01*
X203750000Y-111400000D01*
X201250000Y-111400000D01*
X201250000Y-106400000D01*
%TO.C,D9*%
X161650000Y-68200000D02*
X161650000Y-73400000D01*
X161650000Y-73400000D02*
X164350000Y-73400000D01*
X163000000Y-66990000D02*
X163000000Y-68200000D01*
X163000000Y-74610000D02*
X163000000Y-73400000D01*
X164350000Y-68200000D02*
X161650000Y-68200000D01*
X164350000Y-68880000D02*
X161650000Y-68880000D01*
X164350000Y-68980000D02*
X161650000Y-68980000D01*
X164350000Y-69080000D02*
X161650000Y-69080000D01*
X164350000Y-73400000D02*
X164350000Y-68200000D01*
%TO.C,R7*%
X185000000Y-51800000D02*
X186930000Y-51800000D01*
X195160000Y-51800000D02*
X193230000Y-51800000D01*
X186930000Y-50550000D02*
X193230000Y-50550000D01*
X193230000Y-53050000D01*
X186930000Y-53050000D01*
X186930000Y-50550000D01*
%TO.C,R1*%
X163000000Y-94520000D02*
X163000000Y-96450000D01*
X163000000Y-104680000D02*
X163000000Y-102750000D01*
X161750000Y-96450000D02*
X164250000Y-96450000D01*
X164250000Y-102750000D01*
X161750000Y-102750000D01*
X161750000Y-96450000D01*
%TO.C,C7*%
X177147500Y-70873241D02*
X177147500Y-71673241D01*
X177547500Y-71273241D02*
X176747500Y-71273241D01*
X179400000Y-74300000D02*
G75*
G02*
X171400000Y-74300000I-4000000J0D01*
G01*
X171400000Y-74300000D02*
G75*
G02*
X179400000Y-74300000I4000000J0D01*
G01*
%TO.C,J2*%
D13*
X115729598Y-47839596D02*
X115729598Y-112660396D01*
X115729598Y-112660396D02*
X158300002Y-112660396D01*
X158300002Y-47839596D02*
X115729598Y-47839596D01*
X158300002Y-112660396D02*
X158300002Y-47839596D01*
D14*
X160036002Y-64499991D02*
G75*
G02*
X159274002Y-64499991I-381000J0D01*
G01*
X159274002Y-64499991D02*
G75*
G02*
X160036002Y-64499991I381000J0D01*
G01*
%TO.C,D10*%
D12*
X168300000Y-56950000D02*
X168300000Y-64550000D01*
X168300000Y-63310000D02*
X171900000Y-63310000D01*
X168300000Y-63410000D02*
X171900000Y-63410000D01*
X168300000Y-63510000D02*
X171900000Y-63510000D01*
X168300000Y-64550000D02*
X171900000Y-64550000D01*
X170100000Y-54400000D02*
X170100000Y-56950000D01*
X170100000Y-67100000D02*
X170100000Y-64550000D01*
X171900000Y-56950000D02*
X168300000Y-56950000D01*
X171900000Y-64550000D02*
X171900000Y-56950000D01*
%TO.C,R11*%
X199300000Y-101240000D02*
X199300000Y-103170000D01*
X199300000Y-111400000D02*
X199300000Y-109470000D01*
X198050000Y-103170000D02*
X200550000Y-103170000D01*
X200550000Y-109470000D01*
X198050000Y-109470000D01*
X198050000Y-103170000D01*
%TO.C,F1*%
X188900000Y-60400000D02*
X188900000Y-68700000D01*
X192700000Y-60400000D02*
X188900000Y-60400000D01*
X192700000Y-60400000D02*
X192700000Y-68700000D01*
X192700000Y-68700000D02*
X188900000Y-68700000D01*
%TO.C,D6*%
X204456461Y-51630000D02*
X206788841Y-51630000D01*
X204456461Y-51630000D02*
G75*
G02*
X206788900Y-51629954I1166190J1500000D01*
G01*
X207122651Y-50130000D02*
G75*
G02*
X204122651Y-50130000I-1500000J0D01*
G01*
X204122651Y-50130000D02*
G75*
G02*
X207122651Y-50130000I1500000J0D01*
G01*
%TO.C,U2*%
X170725000Y-92115000D02*
X171725000Y-91115000D01*
X170725000Y-108895000D02*
X170725000Y-92115000D01*
X171725000Y-91115000D02*
X177075000Y-91115000D01*
X177075000Y-91115000D02*
X177075000Y-108895000D01*
X177075000Y-108895000D02*
X170725000Y-108895000D01*
X168820000Y-91055000D02*
X178980000Y-91055000D01*
X178980000Y-108955000D01*
X168820000Y-108955000D01*
X168820000Y-91055000D01*
%TO.C,U5*%
X172617349Y-47840000D02*
X182617349Y-47840000D01*
X172617349Y-54240000D02*
X172617349Y-47840000D01*
X172617349Y-54240000D02*
X182617349Y-54240000D01*
X172617349Y-63490000D02*
X172617349Y-54240000D01*
X175077349Y-63490000D02*
X175077349Y-67300000D01*
X177617349Y-63490000D02*
X177617349Y-67300000D01*
X180157349Y-63490000D02*
X180157349Y-67300000D01*
X182617349Y-47840000D02*
X182617349Y-54240000D01*
X182617349Y-54240000D02*
X172617349Y-54240000D01*
X182617349Y-54240000D02*
X182617349Y-63490000D01*
X182617349Y-63490000D02*
X172617349Y-63490000D01*
X179467349Y-50640000D02*
G75*
G02*
X175767349Y-50640000I-1850000J0D01*
G01*
X175767349Y-50640000D02*
G75*
G02*
X179467349Y-50640000I1850000J0D01*
G01*
%TO.C,D4*%
X211022651Y-56700000D02*
X212832651Y-56700000D01*
X212832651Y-55700000D02*
X212832651Y-57700000D01*
X212832651Y-57700000D02*
X216832651Y-57700000D01*
X216132651Y-57700000D02*
X216132651Y-55700000D01*
X216232651Y-57700000D02*
X216232651Y-55700000D01*
X216332651Y-57700000D02*
X216332651Y-55700000D01*
X216832651Y-55700000D02*
X212832651Y-55700000D01*
X216832651Y-57700000D02*
X216832651Y-55700000D01*
X218642651Y-56700000D02*
X216832651Y-56700000D01*
%TO.C,R2*%
X166200000Y-94520000D02*
X166200000Y-96450000D01*
X166200000Y-104680000D02*
X166200000Y-102750000D01*
X164950000Y-96450000D02*
X167450000Y-96450000D01*
X167450000Y-102750000D01*
X164950000Y-102750000D01*
X164950000Y-96450000D01*
%TO.C,C3*%
X188450000Y-101300000D02*
X190950000Y-101300000D01*
X190950000Y-106300000D01*
X188450000Y-106300000D01*
X188450000Y-101300000D01*
%TO.C,R10*%
X192900000Y-101240000D02*
X192900000Y-103170000D01*
X192900000Y-111400000D02*
X192900000Y-109470000D01*
X191650000Y-103170000D02*
X194150000Y-103170000D01*
X194150000Y-109470000D01*
X191650000Y-109470000D01*
X191650000Y-103170000D01*
%TO.C,Q3*%
X203360000Y-70240000D02*
X213360000Y-70240000D01*
X213360000Y-76640000D01*
X203360000Y-76640000D01*
X203360000Y-70240000D01*
X203360000Y-76640000D02*
X213360000Y-76640000D01*
X213360000Y-85890000D01*
X203360000Y-85890000D01*
X203360000Y-76640000D01*
X205445000Y-85890000D02*
X206195000Y-85890000D01*
X206195000Y-89700000D01*
X205445000Y-89700000D01*
X205445000Y-85890000D01*
X207985000Y-85890000D02*
X208735000Y-85890000D01*
X208735000Y-89700000D01*
X207985000Y-89700000D01*
X207985000Y-85890000D01*
X210525000Y-85890000D02*
X211275000Y-85890000D01*
X211275000Y-89700000D01*
X210525000Y-89700000D01*
X210525000Y-85890000D01*
X210210000Y-73040000D02*
G75*
G02*
X206510000Y-73040000I-1850000J0D01*
G01*
X206510000Y-73040000D02*
G75*
G02*
X210210000Y-73040000I1850000J0D01*
G01*
%TO.C,Q1*%
X181000000Y-70240000D02*
X191000000Y-70240000D01*
X191000000Y-76640000D01*
X181000000Y-76640000D01*
X181000000Y-70240000D01*
X181000000Y-76640000D02*
X191000000Y-76640000D01*
X191000000Y-85890000D01*
X181000000Y-85890000D01*
X181000000Y-76640000D01*
X183085000Y-85890000D02*
X183835000Y-85890000D01*
X183835000Y-89700000D01*
X183085000Y-89700000D01*
X183085000Y-85890000D01*
X185625000Y-85890000D02*
X186375000Y-85890000D01*
X186375000Y-89700000D01*
X185625000Y-89700000D01*
X185625000Y-85890000D01*
X188165000Y-85890000D02*
X188915000Y-85890000D01*
X188915000Y-89700000D01*
X188165000Y-89700000D01*
X188165000Y-85890000D01*
X187850000Y-73040000D02*
G75*
G02*
X184150000Y-73040000I-1850000J0D01*
G01*
X184150000Y-73040000D02*
G75*
G02*
X187850000Y-73040000I1850000J0D01*
G01*
%TO.C,Q4*%
X214560000Y-70240000D02*
X224560000Y-70240000D01*
X224560000Y-76640000D01*
X214560000Y-76640000D01*
X214560000Y-70240000D01*
X214560000Y-76640000D02*
X224560000Y-76640000D01*
X224560000Y-85890000D01*
X214560000Y-85890000D01*
X214560000Y-76640000D01*
X216645000Y-85890000D02*
X217395000Y-85890000D01*
X217395000Y-89700000D01*
X216645000Y-89700000D01*
X216645000Y-85890000D01*
X219185000Y-85890000D02*
X219935000Y-85890000D01*
X219935000Y-89700000D01*
X219185000Y-89700000D01*
X219185000Y-85890000D01*
X221725000Y-85890000D02*
X222475000Y-85890000D01*
X222475000Y-89700000D01*
X221725000Y-89700000D01*
X221725000Y-85890000D01*
X221410000Y-73040000D02*
G75*
G02*
X217710000Y-73040000I-1850000J0D01*
G01*
X217710000Y-73040000D02*
G75*
G02*
X221410000Y-73040000I1850000J0D01*
G01*
%TO.C,U3*%
X202390000Y-94535000D02*
X212550000Y-94535000D01*
X202390000Y-99885000D02*
X202390000Y-94535000D01*
X203390000Y-100885000D02*
X202390000Y-99885000D01*
X212550000Y-94535000D02*
X212550000Y-100885000D01*
X212550000Y-100885000D02*
X203390000Y-100885000D01*
X202330000Y-92630000D02*
X212610000Y-92630000D01*
X212610000Y-102790000D01*
X202330000Y-102790000D01*
X202330000Y-92630000D01*
%TO.C,C5*%
X165150000Y-62300000D02*
X165150000Y-67300000D01*
X165150000Y-67300000D02*
X167650000Y-67300000D01*
X167650000Y-62300000D02*
X165150000Y-62300000D01*
X167650000Y-67300000D02*
X167650000Y-62300000D01*
%TO.C,C6*%
X183550000Y-62300000D02*
X183550000Y-67300000D01*
X183550000Y-67300000D02*
X186050000Y-67300000D01*
X186050000Y-62300000D02*
X183550000Y-62300000D01*
X186050000Y-67300000D02*
X186050000Y-62300000D01*
%TO.C,U1*%
D15*
X229770000Y-51800000D02*
X233470000Y-51800000D01*
X229770000Y-114540000D02*
X229770000Y-51800000D01*
X231720000Y-114540000D02*
X229770000Y-114540000D01*
X231720000Y-114540000D02*
X231720000Y-115410000D01*
X231720000Y-115410000D02*
X239820000Y-115410000D01*
X233470000Y-45515000D02*
X251470000Y-45515000D01*
X233470000Y-51800000D02*
X233470000Y-45515000D01*
X239820000Y-115410000D02*
X239820000Y-114540000D01*
X245120000Y-114540000D02*
X239820000Y-114540000D01*
X245120000Y-114540000D02*
X245120000Y-115410000D01*
X245120000Y-115410000D02*
X253220000Y-115410000D01*
X251470000Y-45515000D02*
X251470000Y-51800000D01*
X251470000Y-51800000D02*
X255170000Y-51800000D01*
X253220000Y-115410000D02*
X253220000Y-114540000D01*
X255170000Y-51800000D02*
X255170000Y-114540000D01*
X255170000Y-114540000D02*
X253220000Y-114540000D01*
D16*
X229320000Y-53200000D02*
G75*
G02*
X229120000Y-53200000I-100000J0D01*
G01*
X229120000Y-53200000D02*
G75*
G02*
X229320000Y-53200000I100000J0D01*
G01*
%TO.C,D1*%
D12*
X200422651Y-54100000D02*
X202232651Y-54100000D01*
X202232651Y-53100000D02*
X202232651Y-55100000D01*
X202232651Y-55100000D02*
X206232651Y-55100000D01*
X205532651Y-55100000D02*
X205532651Y-53100000D01*
X205632651Y-55100000D02*
X205632651Y-53100000D01*
X205732651Y-55100000D02*
X205732651Y-53100000D01*
X206232651Y-53100000D02*
X202232651Y-53100000D01*
X206232651Y-55100000D02*
X206232651Y-53100000D01*
X208042651Y-54100000D02*
X206232651Y-54100000D01*
%TO.C,Q2*%
X192260000Y-70240000D02*
X202260000Y-70240000D01*
X202260000Y-76640000D01*
X192260000Y-76640000D01*
X192260000Y-70240000D01*
X192260000Y-76640000D02*
X202260000Y-76640000D01*
X202260000Y-85890000D01*
X192260000Y-85890000D01*
X192260000Y-76640000D01*
X194345000Y-85890000D02*
X195095000Y-85890000D01*
X195095000Y-89700000D01*
X194345000Y-89700000D01*
X194345000Y-85890000D01*
X196885000Y-85890000D02*
X197635000Y-85890000D01*
X197635000Y-89700000D01*
X196885000Y-89700000D01*
X196885000Y-85890000D01*
X199425000Y-85890000D02*
X200175000Y-85890000D01*
X200175000Y-89700000D01*
X199425000Y-89700000D01*
X199425000Y-85890000D01*
X199110000Y-73040000D02*
G75*
G02*
X195410000Y-73040000I-1850000J0D01*
G01*
X195410000Y-73040000D02*
G75*
G02*
X199110000Y-73040000I1850000J0D01*
G01*
%TO.C,D2*%
X200432651Y-56700000D02*
X202242651Y-56700000D01*
X202242651Y-55700000D02*
X202242651Y-57700000D01*
X202242651Y-57700000D02*
X206242651Y-57700000D01*
X205542651Y-57700000D02*
X205542651Y-55700000D01*
X205642651Y-57700000D02*
X205642651Y-55700000D01*
X205742651Y-57700000D02*
X205742651Y-55700000D01*
X206242651Y-55700000D02*
X202242651Y-55700000D01*
X206242651Y-57700000D02*
X206242651Y-55700000D01*
X208052651Y-56700000D02*
X206242651Y-56700000D01*
%TO.C,R5*%
X185000000Y-58000000D02*
X186930000Y-58000000D01*
X195160000Y-58000000D02*
X193230000Y-58000000D01*
X186930000Y-56750000D02*
X193230000Y-56750000D01*
X193230000Y-59250000D01*
X186930000Y-59250000D01*
X186930000Y-56750000D01*
%TO.C,R9*%
X196100000Y-101240000D02*
X196100000Y-103170000D01*
X196100000Y-111400000D02*
X196100000Y-109470000D01*
X194850000Y-103170000D02*
X197350000Y-103170000D01*
X197350000Y-109470000D01*
X194850000Y-109470000D01*
X194850000Y-103170000D01*
%TD*%
M02*
