M48
; DRILL file KiCad 10.0.3 date 2026-06-12T10:22:32
; FORMAT={-:-/ absolute / metric / decimal}
; #@! TF.CreationDate,2026-06-12T10:22:32+02:00
; #@! TF.GenerationSoftware,Kicad,Pcbnew,10.0.3
; #@! TF.FileFunction,Plated,1,2,PTH
FMAT,2
METRIC
; #@! TA.AperFunction,Plated,PTH,ViaDrill
T1C0.400
; #@! TA.AperFunction,Plated,PTH,ComponentDrill
T2C0.710
; #@! TA.AperFunction,Plated,PTH,ComponentDrill
T3C0.800
; #@! TA.AperFunction,Plated,PTH,ComponentDrill
T4C0.900
; #@! TA.AperFunction,Plated,PTH,ComponentDrill
T5C1.016
; #@! TA.AperFunction,Plated,PTH,ComponentDrill
T6C1.100
; #@! TA.AperFunction,Plated,PTH,ComponentDrill
T7C1.200
; #@! TA.AperFunction,Plated,PTH,ComponentDrill
T8C1.549
; #@! TA.AperFunction,Plated,PTH,ComponentDrill
T9C3.200
%
G90
G05
T1
X150.0Y-69.8
X150.0Y-76.8
X150.0Y-83.8
X150.0Y-90.9
X150.2Y-100.1
X151.2Y-110.2
X151.2Y-111.7
X153.1Y-110.2
X153.1Y-111.7
X154.3Y-98.5
X154.3Y-100.0
X155.0Y-110.2
X155.0Y-111.7
X156.2Y-98.5
X156.2Y-100.0
X158.1Y-98.5
X158.1Y-100.0
X160.35Y-82.9
X162.215Y-82.4
X162.5Y-89.0
X164.2Y-81.8
X164.6Y-92.1
X164.7Y-89.8
X165.8Y-77.5
X165.8Y-79.0
X165.8Y-85.9
X165.8Y-87.4
X167.7Y-77.5
X167.7Y-79.0
X167.7Y-85.9
X167.7Y-87.4
X167.7Y-92.1
X169.1Y-113.1
X169.6Y-77.5
X169.6Y-79.0
X169.6Y-85.9
X169.6Y-87.4
X170.6Y-89.7
X172.8Y-110.1
X172.8Y-111.6
X173.2Y-101.7
X173.2Y-103.6
X174.6Y-80.7
X174.7Y-101.7
X174.7Y-103.6
X174.7Y-110.1
X174.7Y-111.6
X175.8Y-54.4
X175.8Y-55.9
X176.5Y-85.9
X176.5Y-87.6
X177.7Y-54.4
X177.7Y-55.9
X178.0Y-85.9
X178.0Y-87.6
X178.1Y-73.7
X179.6Y-54.4
X179.6Y-55.9
X179.6Y-85.9
X179.6Y-87.6
X179.6Y-94.2
X180.0Y-72.0
X180.1Y-106.4
X181.9Y-70.1
X183.2Y-102.6
X183.2Y-106.4
X183.9Y-84.5
X184.01Y-77.8
X184.01Y-79.3
X184.8Y-100.9
X185.91Y-77.8
X185.91Y-79.3
X186.156Y-92.744
X186.5Y-99.1
X186.6Y-84.5
X187.6Y-97.3
X187.81Y-77.8
X187.81Y-79.3
X188.875Y-96.5
X189.3Y-50.2
X189.3Y-53.2
X189.3Y-56.2
X189.4Y-84.5
X190.4Y-98.125
X190.8Y-50.2
X190.8Y-53.2
X190.8Y-56.2
X191.3Y-113.9
X191.5Y-93.5
X193.6Y-83.9
X194.5Y-93.5
X194.5Y-99.2
X194.5Y-108.1
X194.5Y-109.7
X194.5Y-113.9
X195.11Y-77.5
X195.11Y-79.0
X196.3Y-83.9
X197.01Y-77.5
X197.01Y-79.0
X197.7Y-93.5
X197.7Y-99.2
X197.7Y-108.1
X197.7Y-109.7
X197.7Y-113.9
X198.3Y-60.4
X198.3Y-62.3
X198.8Y-83.9
X198.91Y-77.5
X198.91Y-79.0
X200.2Y-60.4
X200.2Y-62.3
X200.7Y-93.5
X201.1Y-112.8
X203.3Y-56.5
X204.7Y-83.4
X204.9Y-54.4
X206.5Y-63.0
X206.5Y-64.5
X206.51Y-77.4
X206.51Y-78.9
X207.5Y-83.4
X208.4Y-63.0
X208.4Y-64.5
X208.41Y-77.4
X208.41Y-78.9
X210.3Y-63.0
X210.3Y-64.5
X210.3Y-83.4
X210.31Y-77.4
X210.31Y-78.9
X212.0Y-106.5
X212.0Y-108.0
X213.4Y-94.3
X213.9Y-106.5
X213.9Y-108.0
X214.1Y-56.3
X214.1Y-88.6
X214.1Y-90.9
X215.6Y-54.2
X215.8Y-106.5
X215.8Y-108.0
X217.7Y-63.0
X217.7Y-64.5
X217.71Y-77.6
X217.71Y-79.1
X219.6Y-63.0
X219.6Y-64.5
X219.61Y-77.6
X219.61Y-79.1
X221.5Y-63.0
X221.5Y-64.5
X221.51Y-77.6
X221.51Y-79.1
X228.5Y-95.6
X228.5Y-97.3
X228.5Y-99.0
X232.6Y-67.2
X232.6Y-72.3
X232.6Y-77.4
X232.6Y-82.5
X232.6Y-87.6
X232.6Y-92.6
X232.6Y-97.6
X232.6Y-105.2
X233.3Y-58.0
X233.3Y-59.5
X234.9Y-58.0
X234.9Y-59.5
X235.4Y-67.2
X235.4Y-72.3
X235.4Y-77.4
X235.4Y-82.5
X235.4Y-87.6
X235.4Y-92.6
X235.4Y-97.6
X236.6Y-55.3
X240.5Y-51.7
X240.5Y-53.2
X240.5Y-72.4
X240.5Y-73.9
X240.5Y-92.0
X240.5Y-93.5
X240.5Y-110.3
X240.5Y-111.8
X242.4Y-51.7
X242.4Y-53.2
X242.4Y-72.4
X242.4Y-73.9
X242.4Y-92.0
X242.4Y-93.5
X242.4Y-110.3
X242.4Y-111.8
X244.3Y-51.7
X244.3Y-53.2
X244.3Y-72.4
X244.3Y-73.9
X244.3Y-92.0
X244.3Y-93.5
X244.3Y-110.3
X244.3Y-111.8
T2
X190.0Y-67.1
X191.6Y-62.0
T3
X163.0Y-94.52
X163.0Y-104.68
X166.2Y-94.52
X166.2Y-104.68
X166.4Y-62.3
X166.4Y-67.3
X167.8Y-71.4
X167.8Y-73.4
X170.09Y-92.385
X170.09Y-94.925
X170.09Y-97.465
X170.09Y-100.005
X170.09Y-102.545
X170.09Y-105.085
X170.09Y-107.625
X175.4Y-71.8
X175.4Y-76.8
X177.71Y-92.385
X177.71Y-94.925
X177.71Y-97.465
X177.71Y-100.005
X177.71Y-102.545
X177.71Y-105.085
X177.71Y-107.625
X181.6Y-94.5
X181.6Y-104.66
X184.8Y-62.3
X184.8Y-67.3
X184.8Y-94.5
X184.8Y-104.66
X185.0Y-48.7
X185.0Y-51.8
X185.0Y-54.9
X185.0Y-58.0
X185.1Y-111.4
X189.7Y-101.3
X189.7Y-106.3
X190.1Y-111.4
X192.9Y-101.24
X192.9Y-111.4
X195.16Y-48.7
X195.16Y-51.8
X195.16Y-54.9
X195.16Y-58.0
X196.1Y-101.24
X196.1Y-111.4
X199.3Y-101.24
X199.3Y-111.4
X200.423Y-54.1
X200.433Y-56.7
X202.5Y-106.4
X202.5Y-111.4
X203.66Y-93.9
X203.66Y-101.52
X206.2Y-93.9
X206.2Y-101.52
X208.043Y-54.1
X208.053Y-56.7
X208.74Y-93.9
X208.74Y-101.52
X211.013Y-54.1
X211.023Y-56.7
X211.28Y-93.9
X211.28Y-101.52
X216.1Y-93.88
X216.1Y-101.5
X218.633Y-54.1
X218.64Y-93.88
X218.64Y-101.5
X218.643Y-56.7
X221.18Y-93.88
X221.18Y-101.5
X223.72Y-93.88
X223.72Y-101.5
T4
X201.123Y-48.86
X201.123Y-51.4
X205.623Y-48.86
X205.623Y-51.4
X210.123Y-48.86
X210.123Y-51.4
X214.623Y-48.82
X214.623Y-51.36
T5
X231.04Y-53.2
X231.04Y-55.74
X231.04Y-58.28
X231.04Y-60.82
X231.04Y-63.36
X231.04Y-65.9
X231.04Y-68.44
X231.04Y-70.98
X231.04Y-73.52
X231.04Y-76.06
X231.04Y-78.6
X231.04Y-81.14
X231.04Y-83.68
X231.04Y-86.22
X231.04Y-88.76
X231.04Y-91.3
X231.04Y-93.84
X231.04Y-96.38
X231.04Y-98.92
X231.04Y-101.46
X231.04Y-104.0
X231.04Y-106.54
X253.9Y-53.2
X253.9Y-55.74
X253.9Y-58.28
X253.9Y-60.82
X253.9Y-63.36
X253.9Y-65.9
X253.9Y-68.44
X253.9Y-70.98
X253.9Y-73.52
X253.9Y-76.06
X253.9Y-78.6
X253.9Y-81.14
X253.9Y-83.68
X253.9Y-86.22
X253.9Y-88.76
X253.9Y-91.3
X253.9Y-93.84
X253.9Y-96.38
X253.9Y-98.92
X253.9Y-101.46
X253.9Y-104.0
X253.9Y-106.54
T6
X163.0Y-66.99
X163.0Y-74.61
X175.077Y-67.3
X177.617Y-67.3
X180.157Y-67.3
X183.46Y-89.7
X186.0Y-89.7
X188.54Y-89.7
X194.72Y-89.7
X197.26Y-89.7
X199.8Y-89.7
X205.82Y-89.7
X208.36Y-89.7
X210.9Y-89.7
X217.02Y-89.7
X219.56Y-89.7
X222.1Y-89.7
T7
X170.1Y-54.4
X170.1Y-67.1
T8
X154.25Y-64.5
X154.25Y-68.0
X154.25Y-71.5
X154.25Y-75.0
X154.25Y-78.5
X154.25Y-82.0
X154.25Y-85.5
X154.25Y-89.0
X154.25Y-92.5
X154.25Y-96.0
X157.75Y-64.5
X157.75Y-68.0
X157.75Y-71.5
X157.75Y-75.0
X157.75Y-78.5
X157.75Y-82.0
X157.75Y-85.5
X157.75Y-89.0
X157.75Y-92.5
X157.75Y-96.0
T9
X164.7Y-50.3
X164.8Y-110.2
X224.7Y-50.3
X224.7Y-110.3
M30
