%TF.GenerationSoftware,KiCad,Pcbnew,10.0.3*%
%TF.CreationDate,2026-06-12T10:22:29+02:00*%
%TF.ProjectId,OpenFlex_Proto_THT,4f70656e-466c-4657-985f-50726f746f5f,rev?*%
%TF.SameCoordinates,Original*%
%TF.FileFunction,Soldermask,Bot*%
%TF.FilePolarity,Negative*%
%FSLAX46Y46*%
G04 Gerber Fmt 4.6, Leading zero omitted, Abs format (unit mm)*
G04 Created by KiCad (PCBNEW 10.0.3) date 2026-06-12 10:22:29*
%MOMM*%
%LPD*%
G01*
G04 APERTURE LIST*
G04 Aperture macros list*
%AMRoundRect*
0 Rectangle with rounded corners*
0 $1 Rounding radius*
0 $2 $3 $4 $5 $6 $7 $8 $9 X,Y pos of 4 corners*
0 Add a 4 corners polygon primitive as box body*
4,1,4,$2,$3,$4,$5,$6,$7,$8,$9,$2,$3,0*
0 Add four circle primitives for the rounded corners*
1,1,$1+$1,$2,$3*
1,1,$1+$1,$4,$5*
1,1,$1+$1,$6,$7*
1,1,$1+$1,$8,$9*
0 Add four rect primitives between the rounded corners*
20,1,$1+$1,$2,$3,$4,$5,0*
20,1,$1+$1,$4,$5,$6,$7,0*
20,1,$1+$1,$6,$7,$8,$9,0*
20,1,$1+$1,$8,$9,$2,$3,0*%
G04 Aperture macros list end*
%ADD10RoundRect,0.250000X0.550000X-0.550000X0.550000X0.550000X-0.550000X0.550000X-0.550000X-0.550000X0*%
%ADD11C,1.600000*%
%ADD12R,1.600000X1.600000*%
%ADD13O,1.600000X1.600000*%
%ADD14C,5.600000*%
%ADD15R,1.800000X1.800000*%
%ADD16C,1.800000*%
%ADD17R,2.200000X2.200000*%
%ADD18O,2.200000X2.200000*%
%ADD19C,4.038600*%
%ADD20C,2.057400*%
%ADD21R,2.400000X2.400000*%
%ADD22O,2.400000X2.400000*%
%ADD23C,1.270000*%
%ADD24RoundRect,0.250000X-0.550000X-0.550000X0.550000X-0.550000X0.550000X0.550000X-0.550000X0.550000X0*%
%ADD25C,3.500000*%
%ADD26R,1.905000X2.000000*%
%ADD27O,1.905000X2.000000*%
%ADD28RoundRect,0.102000X-0.762000X-0.762000X0.762000X-0.762000X0.762000X0.762000X-0.762000X0.762000X0*%
%ADD29C,1.728000*%
G04 APERTURE END LIST*
D10*
%TO.C,U4*%
X216100000Y-101500000D03*
D11*
X218640000Y-101500000D03*
X221180000Y-101500000D03*
X223720000Y-101500000D03*
X223720000Y-93880000D03*
X221180000Y-93880000D03*
X218640000Y-93880000D03*
X216100000Y-93880000D03*
%TD*%
D12*
%TO.C,D3*%
X218632651Y-54100000D03*
D13*
X211012651Y-54100000D03*
%TD*%
D12*
%TO.C,C4*%
X167800000Y-71400000D03*
D11*
X167800000Y-73400000D03*
%TD*%
%TO.C,R6*%
X185000000Y-54900000D03*
X195160000Y-54900000D03*
%TD*%
D14*
%TO.C,M3*%
X224700000Y-50300000D03*
%TD*%
D11*
%TO.C,R4*%
X184800000Y-94500000D03*
X184800000Y-104660000D03*
%TD*%
D15*
%TO.C,D5*%
X201122651Y-51400000D03*
D16*
X201122651Y-48860000D03*
%TD*%
D11*
%TO.C,R3*%
X181600000Y-94500000D03*
X181600000Y-104660000D03*
%TD*%
D15*
%TO.C,D7*%
X210122651Y-51400000D03*
D16*
X210122651Y-48860000D03*
%TD*%
D14*
%TO.C,M3*%
X164800000Y-110200000D03*
%TD*%
%TO.C,M3*%
X164700000Y-50300000D03*
%TD*%
D11*
%TO.C,R8*%
X185000000Y-48700000D03*
D13*
X195160000Y-48700000D03*
%TD*%
D11*
%TO.C,C1*%
X190100000Y-111400000D03*
X185100000Y-111400000D03*
%TD*%
D15*
%TO.C,D8*%
X214622651Y-51360000D03*
D16*
X214622651Y-48820000D03*
%TD*%
D11*
%TO.C,C2*%
X202500000Y-111400000D03*
X202500000Y-106400000D03*
%TD*%
D17*
%TO.C,D9*%
X163000000Y-66990000D03*
D18*
X163000000Y-74610000D03*
%TD*%
D11*
%TO.C,R7*%
X185000000Y-51800000D03*
X195160000Y-51800000D03*
%TD*%
%TO.C,R1*%
X163000000Y-94520000D03*
X163000000Y-104680000D03*
%TD*%
D12*
%TO.C,C7*%
X175400000Y-71800000D03*
D11*
X175400000Y-76800000D03*
%TD*%
D19*
%TO.C,J2*%
X155290001Y-57499990D03*
X155290001Y-103000001D03*
D20*
X157750002Y-64499991D03*
X157750002Y-67999992D03*
X157750002Y-71499993D03*
X157750002Y-74999996D03*
X157750002Y-78499996D03*
X157750002Y-81999997D03*
X157750002Y-85499998D03*
X157750002Y-88999998D03*
X157750002Y-92499999D03*
X157750002Y-96000000D03*
X154250000Y-64499991D03*
X154250000Y-67999992D03*
X154250000Y-71499993D03*
X154250000Y-74999996D03*
X154250000Y-78499996D03*
X154250000Y-81999997D03*
X154250000Y-85499998D03*
X154250000Y-88999998D03*
X154250000Y-92499999D03*
X154250000Y-96000000D03*
%TD*%
D21*
%TO.C,D10*%
X170100000Y-67100000D03*
D22*
X170100000Y-54400000D03*
%TD*%
D11*
%TO.C,R11*%
X199300000Y-101240000D03*
X199300000Y-111400000D03*
%TD*%
D23*
%TO.C,F1*%
X191600000Y-62000000D03*
X190000000Y-67100000D03*
%TD*%
D15*
%TO.C,D6*%
X205622651Y-51400000D03*
D16*
X205622651Y-48860000D03*
%TD*%
D24*
%TO.C,U2*%
X170090000Y-92385000D03*
D11*
X170090000Y-94925000D03*
X170090000Y-97465000D03*
X170090000Y-100005000D03*
X170090000Y-102545000D03*
X170090000Y-105085000D03*
X170090000Y-107625000D03*
X177710000Y-107625000D03*
X177710000Y-105085000D03*
X177710000Y-102545000D03*
X177710000Y-100005000D03*
X177710000Y-97465000D03*
X177710000Y-94925000D03*
X177710000Y-92385000D03*
%TD*%
D25*
%TO.C,U5*%
X177617349Y-50640000D03*
D26*
X175077349Y-67300000D03*
D27*
X177617349Y-67300000D03*
X180157349Y-67300000D03*
%TD*%
D12*
%TO.C,D4*%
X218642651Y-56700000D03*
D13*
X211022651Y-56700000D03*
%TD*%
D11*
%TO.C,R2*%
X166200000Y-94520000D03*
X166200000Y-104680000D03*
%TD*%
%TO.C,C3*%
X189700000Y-101300000D03*
X189700000Y-106300000D03*
%TD*%
%TO.C,R10*%
X192900000Y-101240000D03*
X192900000Y-111400000D03*
%TD*%
D14*
%TO.C,M3*%
X224700000Y-110300000D03*
%TD*%
D25*
%TO.C,Q3*%
X208360000Y-73040000D03*
D26*
X205820000Y-89700000D03*
D27*
X208360000Y-89700000D03*
X210900000Y-89700000D03*
%TD*%
D25*
%TO.C,Q1*%
X186000000Y-73040000D03*
D26*
X183460000Y-89700000D03*
D27*
X186000000Y-89700000D03*
X188540000Y-89700000D03*
%TD*%
D25*
%TO.C,Q4*%
X219560000Y-73040000D03*
D26*
X217020000Y-89700000D03*
D27*
X219560000Y-89700000D03*
X222100000Y-89700000D03*
%TD*%
D10*
%TO.C,U3*%
X203660000Y-101520000D03*
D11*
X206200000Y-101520000D03*
X208740000Y-101520000D03*
X211280000Y-101520000D03*
X211280000Y-93900000D03*
X208740000Y-93900000D03*
X206200000Y-93900000D03*
X203660000Y-93900000D03*
%TD*%
%TO.C,C5*%
X166400000Y-67300000D03*
X166400000Y-62300000D03*
%TD*%
%TO.C,C6*%
X184800000Y-67300000D03*
X184800000Y-62300000D03*
%TD*%
D28*
%TO.C,U1*%
X231040000Y-53200000D03*
D29*
X231040000Y-55740000D03*
X231040000Y-58280000D03*
X231040000Y-60820000D03*
X231040000Y-63360000D03*
X231040000Y-65900000D03*
X231040000Y-68440000D03*
X231040000Y-70980000D03*
X231040000Y-73520000D03*
X231040000Y-76060000D03*
X231040000Y-78600000D03*
X231040000Y-81140000D03*
X231040000Y-83680000D03*
X231040000Y-86220000D03*
X231040000Y-88760000D03*
X231040000Y-91300000D03*
X231040000Y-93840000D03*
X231040000Y-96380000D03*
X231040000Y-98920000D03*
X231040000Y-101460000D03*
X231040000Y-104000000D03*
X231040000Y-106540000D03*
X253900000Y-53200000D03*
X253900000Y-55740000D03*
X253900000Y-58280000D03*
X253900000Y-60820000D03*
X253900000Y-63360000D03*
X253900000Y-65900000D03*
X253900000Y-68440000D03*
X253900000Y-70980000D03*
X253900000Y-73520000D03*
X253900000Y-76060000D03*
X253900000Y-78600000D03*
X253900000Y-81140000D03*
X253900000Y-83680000D03*
X253900000Y-86220000D03*
X253900000Y-88760000D03*
X253900000Y-91300000D03*
X253900000Y-93840000D03*
X253900000Y-96380000D03*
X253900000Y-98920000D03*
X253900000Y-101460000D03*
X253900000Y-104000000D03*
X253900000Y-106540000D03*
%TD*%
D12*
%TO.C,D1*%
X208042651Y-54100000D03*
D13*
X200422651Y-54100000D03*
%TD*%
D25*
%TO.C,Q2*%
X197260000Y-73040000D03*
D26*
X194720000Y-89700000D03*
D27*
X197260000Y-89700000D03*
X199800000Y-89700000D03*
%TD*%
D12*
%TO.C,D2*%
X208052651Y-56700000D03*
D13*
X200432651Y-56700000D03*
%TD*%
D11*
%TO.C,R5*%
X185000000Y-58000000D03*
X195160000Y-58000000D03*
%TD*%
%TO.C,R9*%
X196100000Y-111400000D03*
X196100000Y-101240000D03*
%TD*%
M02*
